<?xml version="1.0" encoding="UTF-8"?>
<svg id="Layer_1" data-name="Layer 1" xmlns="http://www.w3.org/2000/svg" viewBox="0 0 455.15 221.29">
  <defs>
    <style>
      .cls-1 {
        stroke: #f9f9f9;
      }

      .cls-1, .cls-2, .cls-3, .cls-4, .cls-5 {
        stroke-miterlimit: 10;
        stroke-width: 3px;
      }

      .cls-1, .cls-5 {
        fill: none;
      }

      .cls-2 {
        fill: #00aeef;
      }

      .cls-2, .cls-3, .cls-4, .cls-5 {
        stroke: #231f20;
      }

      .cls-3 {
        fill: #fff200;
      }

      .cls-6 {
        fill: #afd136;
      }

      .cls-4 {
        fill: #ec008c;
      }

      .cls-7 {
        fill: #fff;
      }
    </style>
  </defs>
  <g>
    <line class="cls-1" x1="281.07" y1="133.44" x2="281.07"/>
    <line class="cls-1" x1="346.48" y1="68.04" x2="213.04" y2="68.04"/>
    <g>
      <path class="cls-7" d="M8.46,14.59h23.4v84.6h43.35v21.6H8.46V14.59Z"/>
      <path class="cls-7" d="M88.11,14.59h35.4l24.45,69.3h.3l24.6-69.3h35.25v106.2h-23.4V39.34h-.3l-27.9,81.45h-17.85l-26.85-81.45h-.3v81.45h-23.4V14.59Z"/>
      <path class="cls-7" d="M224,67.69c0-8.5,1.43-16.2,4.28-23.1,2.85-6.9,6.83-12.77,11.92-17.62,5.1-4.85,11.15-8.57,18.15-11.17,7-2.6,14.65-3.9,22.95-3.9s15.95,1.3,22.95,3.9c7,2.6,13.05,6.33,18.15,11.17,5.1,4.85,9.08,10.73,11.92,17.62,2.85,6.9,4.28,14.6,4.28,23.1s-1.42,16.2-4.28,23.1c-2.85,6.9-6.83,12.78-11.92,17.62-5.1,4.85-11.15,8.58-18.15,11.17-7,2.6-14.65,3.9-22.95,3.9s-15.95-1.3-22.95-3.9c-7-2.6-13.05-6.32-18.15-11.17-5.1-4.85-9.08-10.73-11.92-17.62s-4.28-14.6-4.28-23.1ZM248.31,67.69c0,5,.77,9.58,2.32,13.73,1.55,4.15,3.77,7.75,6.68,10.8,2.9,3.05,6.38,5.43,10.42,7.12,4.05,1.7,8.57,2.55,13.58,2.55s9.52-.85,13.57-2.55c4.05-1.7,7.52-4.07,10.43-7.12,2.9-3.05,5.12-6.65,6.67-10.8,1.55-4.15,2.33-8.72,2.33-13.73s-.78-9.45-2.33-13.65c-1.55-4.2-3.78-7.82-6.67-10.88-2.9-3.05-6.38-5.42-10.43-7.12-4.05-1.7-8.58-2.55-13.57-2.55s-9.53.85-13.58,2.55c-4.05,1.7-7.53,4.08-10.42,7.12-2.9,3.05-5.13,6.67-6.68,10.88-1.55,4.2-2.32,8.75-2.32,13.65Z"/>
      <path class="cls-7" d="M354.5,14.59h31.8l45.15,73.8h.3V14.59h23.4v106.2h-30.6l-46.35-75.6h-.3v75.6h-23.4V14.59Z"/>
      <path class="cls-6" d="M0,150.75h11.83c1.65,0,3.21.15,4.68.45,1.47.3,2.75.82,3.85,1.55,1.09.74,1.96,1.73,2.61,2.97.64,1.25.97,2.81.97,4.7s-.3,3.42-.9,4.68c-.6,1.26-1.43,2.27-2.48,3.01-1.05.75-2.29,1.28-3.73,1.6-1.44.31-3,.47-4.68.47h-5.13v12.42H0v-31.86ZM7.02,164.25h4.68c.63,0,1.24-.06,1.82-.18.58-.12,1.11-.32,1.58-.61.46-.28.84-.67,1.12-1.17.28-.5.43-1.12.43-1.87,0-.81-.19-1.46-.56-1.96s-.85-.88-1.44-1.15-1.24-.44-1.96-.52c-.72-.07-1.41-.11-2.07-.11h-3.6v7.56Z"/>
      <path class="cls-6" d="M58.95,150.75h12.33c1.62,0,3.16.16,4.61.47,1.46.32,2.73.84,3.83,1.58,1.09.74,1.96,1.73,2.61,2.97.65,1.25.97,2.8.97,4.66,0,2.25-.58,4.16-1.75,5.74-1.17,1.57-2.88,2.57-5.13,2.99l8.1,13.46h-8.42l-6.66-12.73h-3.46v12.73h-7.02v-31.86ZM65.97,163.93h4.14c.63,0,1.3-.02,2-.07.71-.04,1.34-.18,1.91-.4.57-.23,1.04-.58,1.42-1.06.38-.48.56-1.15.56-2.02,0-.81-.17-1.45-.5-1.94-.33-.48-.75-.85-1.26-1.1-.51-.25-1.1-.43-1.75-.52-.66-.09-1.3-.13-1.94-.13h-4.59v7.25Z"/>
      <path class="cls-6" d="M118.98,150.75h21.65v6.48h-14.62v5.94h13.81v6.48h-13.81v6.48h15.43v6.48h-22.46v-31.86Z"/>
      <path class="cls-6" d="M177.66,150.75h10.62l7.33,20.79h.09l7.38-20.79h10.58v31.86h-7.02v-24.44h-.09l-8.37,24.44h-5.35l-8.06-24.44h-.09v24.44h-7.02v-31.86Z"/>
      <path class="cls-6" d="M251.01,150.75h21.65v6.48h-14.62v5.94h13.81v6.48h-13.81v6.48h15.43v6.48h-22.46v-31.86Z"/>
      <path class="cls-6" d="M309.69,150.75h10.53c2.55,0,4.97.29,7.27.85,2.29.57,4.3,1.49,6.01,2.77,1.71,1.28,3.07,2.93,4.07,4.97,1,2.04,1.51,4.52,1.51,7.43,0,2.58-.49,4.85-1.46,6.82-.97,1.97-2.29,3.62-3.94,4.95-1.65,1.33-3.55,2.35-5.71,3.04-2.16.69-4.42,1.04-6.79,1.04h-11.47v-31.86ZM316.71,176.13h3.65c1.62,0,3.13-.16,4.52-.5,1.39-.33,2.6-.88,3.62-1.64,1.02-.76,1.82-1.77,2.41-3.01.59-1.24.88-2.77.88-4.57,0-1.56-.29-2.92-.88-4.07-.58-1.15-1.37-2.11-2.36-2.86-.99-.75-2.15-1.31-3.49-1.69-1.33-.38-2.74-.56-4.21-.56h-4.14v18.9Z"/>
      <path class="cls-6" d="M374.35,150.75h7.02v31.86h-7.02v-31.86Z"/>
      <path class="cls-6" d="M428.85,150.75h5.81l13.86,31.86h-7.92l-2.75-6.75h-12.38l-2.65,6.75h-7.74l13.77-31.86ZM431.55,160.02l-3.87,9.9h7.79l-3.92-9.9Z"/>
    </g>
    <g>
      <path class="cls-7" d="M4.12,197.89h2.1v15.75h8.1v1.95H4.12v-17.7Z"/>
      <path class="cls-7" d="M29.22,213.47c-.7.9-1.47,1.53-2.3,1.89-.83.36-1.8.54-2.9.54-.92,0-1.74-.16-2.47-.49s-1.35-.76-1.86-1.31c-.51-.55-.9-1.2-1.17-1.95-.28-.75-.41-1.55-.41-2.4,0-.9.15-1.73.45-2.49s.72-1.41,1.25-1.95c.53-.54,1.17-.96,1.9-1.26.73-.3,1.53-.45,2.4-.45.82,0,1.57.14,2.25.41s1.27.67,1.76,1.2c.49.53.87,1.17,1.14,1.93s.4,1.62.4,2.59v.62h-9.45c.03.5.15.98.36,1.44.21.46.48.86.81,1.2.33.34.72.61,1.17.81.45.2.94.3,1.47.3.85,0,1.57-.15,2.15-.45.58-.3,1.11-.74,1.58-1.32l1.47,1.15ZM27.55,208.69c-.03-1-.36-1.8-.97-2.4-.62-.6-1.47-.9-2.55-.9s-1.96.3-2.62.9c-.67.6-1.07,1.4-1.2,2.4h7.35Z"/>
      <path class="cls-7" d="M35.02,205.39c.6-.62,1.31-1.07,2.14-1.36.82-.29,1.66-.44,2.51-.44,1.73,0,2.98.41,3.75,1.23.77.82,1.15,2.06,1.15,3.73v5.02c0,.33.02.68.05,1.04s.08.69.12.99h-1.88c-.07-.27-.1-.56-.11-.89,0-.32-.01-.61-.01-.86h-.05c-.38.6-.9,1.09-1.54,1.48-.64.38-1.41.57-2.31.57-.6,0-1.16-.07-1.69-.22-.53-.15-.98-.37-1.38-.66-.39-.29-.71-.65-.94-1.09-.23-.43-.35-.93-.35-1.5,0-.97.25-1.73.75-2.28.5-.55,1.12-.96,1.86-1.22.74-.27,1.54-.43,2.4-.5s1.65-.1,2.36-.1h.75v-.35c0-.85-.25-1.49-.76-1.92-.51-.43-1.22-.65-2.14-.65-.63,0-1.25.1-1.86.31-.61.21-1.15.53-1.61.96l-1.22-1.28ZM40.67,209.97c-1.25,0-2.24.17-2.97.52s-1.1.93-1.1,1.73c0,.73.25,1.25.74,1.56.49.31,1.1.46,1.84.46.57,0,1.06-.1,1.49-.29.42-.19.78-.45,1.06-.76.28-.32.5-.69.65-1.11.15-.42.23-.88.25-1.36v-.75h-1.95Z"/>
      <path class="cls-7" d="M50.65,206.67c0-.53-.02-1.03-.05-1.5s-.05-.89-.05-1.28h1.85c0,.32,0,.63.03.95.02.32.03.64.03.98h.05c.13-.28.32-.56.56-.83.24-.27.53-.5.86-.71.33-.21.71-.38,1.12-.5.42-.12.87-.19,1.35-.19.13,0,.27,0,.4.02.13.02.27.05.4.1l-.12,1.98c-.33-.1-.68-.15-1.05-.15-1.2,0-2.07.39-2.61,1.16-.54.78-.81,1.84-.81,3.19v5.7h-1.95v-8.92Z"/>
      <path class="cls-7" d="M61.95,206.67c0-.53-.02-1.03-.05-1.5s-.05-.89-.05-1.28h1.85c0,.32,0,.63.03.95.02.32.03.64.03.98h.05c.13-.28.32-.56.56-.83.24-.27.53-.5.86-.71.33-.21.71-.38,1.12-.5.42-.12.87-.19,1.35-.19.77,0,1.43.12,1.99.35.56.23,1.02.56,1.39.98.37.42.64.92.81,1.51.18.59.26,1.24.26,1.94v7.23h-1.95v-7.02c0-.98-.22-1.76-.65-2.33-.43-.57-1.11-.85-2.03-.85-.63,0-1.18.11-1.64.33-.46.22-.83.52-1.12.92-.29.4-.51.88-.65,1.43-.14.55-.21,1.16-.21,1.82v5.7h-1.95v-8.92Z"/>
      <path class="cls-7" d="M79.97,212.74c.42,0,.77.15,1.06.44.29.29.44.65.44,1.06s-.15.77-.46,1.06c-.31.29-.65.44-1.04.44s-.73-.15-1.04-.44-.46-.65-.46-1.06.15-.77.44-1.06c.29-.29.65-.44,1.06-.44Z"/>
      <path class="cls-7" d="M106,201.02c-.35-.57-.82-.98-1.4-1.24-.58-.26-1.19-.39-1.83-.39-.47,0-.92.06-1.38.18s-.85.29-1.21.52-.65.54-.86.92c-.22.38-.33.83-.33,1.35,0,.4.06.75.19,1.06.12.31.33.59.61.84.28.25.67.48,1.15.7.48.22,1.08.43,1.78.65.68.22,1.35.45,1.99.7s1.21.57,1.7.95c.49.38.88.86,1.17,1.44.29.58.44,1.3.44,2.16s-.17,1.65-.53,2.3c-.35.65-.81,1.19-1.39,1.61-.58.42-1.24.74-1.99.95-.75.21-1.52.31-2.32.31-.52,0-1.03-.05-1.55-.14-.52-.09-1.01-.23-1.49-.42-.47-.19-.92-.44-1.34-.75-.42-.31-.78-.69-1.08-1.14l1.8-1.48c.38.65.92,1.14,1.6,1.48.68.33,1.41.5,2.18.5.45,0,.9-.07,1.36-.2.46-.13.87-.33,1.24-.59.37-.26.67-.58.9-.96.23-.38.35-.83.35-1.33,0-.55-.09-1-.28-1.34-.18-.34-.47-.64-.85-.89-.38-.25-.87-.48-1.45-.68-.58-.2-1.27-.43-2.05-.7-.63-.2-1.22-.43-1.75-.69s-1-.58-1.39-.95-.7-.83-.92-1.35-.34-1.15-.34-1.89c0-.85.17-1.59.5-2.23.33-.63.78-1.16,1.35-1.59.57-.43,1.21-.75,1.92-.96.72-.22,1.47-.32,2.25-.32,1,0,1.91.15,2.74.46.83.31,1.56.85,2.21,1.61l-1.73,1.5Z"/>
      <path class="cls-7" d="M113.38,199.32c0-.38.14-.72.41-1,.28-.28.61-.43,1.01-.43s.74.14,1.01.43c.27.28.41.62.41,1,0,.42-.13.76-.4,1.02-.27.27-.61.4-1.03.4s-.76-.13-1.03-.4-.4-.61-.4-1.02ZM113.83,203.89h1.95v11.7h-1.95v-11.7Z"/>
      <path class="cls-7" d="M122.15,206.67c0-.53-.02-1.03-.05-1.5s-.05-.89-.05-1.28h1.85c0,.32,0,.63.03.95.02.32.03.64.03.98h.05c.13-.28.32-.56.56-.83.24-.27.53-.5.86-.71.33-.21.71-.38,1.12-.5.42-.12.87-.19,1.35-.19.63,0,1.16.08,1.59.24.42.16.78.35,1.06.58s.5.47.66.73.29.49.39.69c.43-.7.93-1.25,1.5-1.64.57-.39,1.3-.59,2.2-.59.83,0,1.53.11,2.1.34s1.03.55,1.38.98c.35.42.6.94.75,1.55.15.61.23,1.29.23,2.04v7.1h-1.95v-7c0-.4-.04-.79-.12-1.17-.08-.38-.23-.73-.45-1.03-.22-.3-.51-.54-.88-.72s-.83-.28-1.4-.28c-.42,0-.81.08-1.18.25-.37.17-.69.4-.96.7-.28.3-.49.66-.65,1.09-.16.43-.24.9-.24,1.41v6.75h-1.95v-6.62c0-1.3-.17-2.22-.52-2.76-.35-.54-.93-.81-1.73-.81-.63,0-1.18.11-1.64.33-.46.22-.83.52-1.12.92-.29.4-.51.88-.65,1.43-.14.55-.21,1.16-.21,1.82v5.7h-1.95v-8.92Z"/>
      <path class="cls-7" d="M156.15,212.82c0,.53.02,1.03.05,1.5.03.47.05.89.05,1.27h-1.85c0-.32,0-.63-.02-.95-.02-.32-.03-.64-.03-.97h-.05c-.13.28-.32.56-.56.82-.24.27-.53.5-.86.71-.33.21-.71.38-1.12.5-.42.12-.87.19-1.35.19-.77,0-1.43-.12-1.99-.35-.56-.23-1.02-.56-1.39-.98s-.64-.92-.81-1.51c-.17-.59-.26-1.24-.26-1.94v-7.23h1.95v7.03c0,.98.22,1.76.65,2.32.43.57,1.11.85,2.02.85.63,0,1.18-.11,1.64-.33.46-.22.83-.52,1.12-.92s.51-.88.65-1.42c.14-.55.21-1.16.21-1.83v-5.7h1.95v8.93Z"/>
      <path class="cls-7" d="M162.53,196.69h1.95v18.9h-1.95v-18.9Z"/>
      <path class="cls-7" d="M170.7,205.39c.6-.62,1.31-1.07,2.14-1.36.82-.29,1.66-.44,2.51-.44,1.73,0,2.98.41,3.75,1.23.77.82,1.15,2.06,1.15,3.73v5.02c0,.33.02.68.05,1.04s.08.69.12.99h-1.88c-.07-.27-.1-.56-.11-.89,0-.32-.01-.61-.01-.86h-.05c-.38.6-.9,1.09-1.54,1.48-.64.38-1.41.57-2.31.57-.6,0-1.16-.07-1.69-.22-.53-.15-.98-.37-1.38-.66-.39-.29-.71-.65-.94-1.09-.23-.43-.35-.93-.35-1.5,0-.97.25-1.73.75-2.28.5-.55,1.12-.96,1.86-1.22.74-.27,1.54-.43,2.4-.5s1.65-.1,2.36-.1h.75v-.35c0-.85-.25-1.49-.76-1.92-.51-.43-1.22-.65-2.14-.65-.63,0-1.25.1-1.86.31-.61.21-1.15.53-1.61.96l-1.22-1.28ZM176.35,209.97c-1.25,0-2.24.17-2.97.52s-1.1.93-1.1,1.73c0,.73.25,1.25.74,1.56.49.31,1.1.46,1.84.46.57,0,1.06-.1,1.49-.29.42-.19.78-.45,1.06-.76.28-.32.5-.69.65-1.11.15-.42.23-.88.25-1.36v-.75h-1.95Z"/>
      <path class="cls-7" d="M192.72,205.54h-3.45v5.85c0,.38,0,.74.03,1.06.02.33.08.61.2.85.12.24.29.43.52.58s.57.21,1,.21c.28,0,.58-.03.88-.1.3-.07.58-.17.85-.3l.07,1.77c-.33.15-.7.26-1.11.33-.41.07-.8.1-1.16.1-.7,0-1.26-.09-1.67-.27-.42-.18-.74-.44-.98-.77-.23-.33-.39-.75-.46-1.24-.08-.49-.11-1.04-.11-1.64v-6.42h-2.55v-1.65h2.55v-3.32h1.95v3.32h3.45v1.65Z"/>
      <path class="cls-7" d="M208.07,213.47c-.7.9-1.47,1.53-2.3,1.89-.83.36-1.8.54-2.9.54-.92,0-1.74-.16-2.47-.49s-1.35-.76-1.86-1.31c-.51-.55-.9-1.2-1.17-1.95-.28-.75-.41-1.55-.41-2.4,0-.9.15-1.73.45-2.49s.72-1.41,1.25-1.95c.53-.54,1.17-.96,1.9-1.26.73-.3,1.53-.45,2.4-.45.82,0,1.57.14,2.25.41s1.27.67,1.76,1.2c.49.53.87,1.17,1.14,1.93s.4,1.62.4,2.59v.62h-9.45c.03.5.15.98.36,1.44.21.46.48.86.81,1.2.33.34.72.61,1.17.81.45.2.94.3,1.47.3.85,0,1.57-.15,2.15-.45.58-.3,1.11-.74,1.58-1.32l1.47,1.15ZM206.4,208.69c-.03-1-.36-1.8-.97-2.4-.62-.6-1.47-.9-2.55-.9s-1.96.3-2.62.9c-.67.6-1.07,1.4-1.2,2.4h7.35Z"/>
      <path class="cls-7" d="M215.65,212.74c.42,0,.77.15,1.06.44.29.29.44.65.44,1.06s-.15.77-.46,1.06c-.31.29-.65.44-1.04.44s-.73-.15-1.04-.44-.46-.65-.46-1.06.15-.77.44-1.06c.29-.29.65-.44,1.06-.44Z"/>
      <path class="cls-7" d="M233.28,197.89h3.12l6,13.88h.05l6.05-13.88h3.05v17.7h-2.1v-14.85h-.05l-6.35,14.85h-1.27l-6.35-14.85h-.05v14.85h-2.1v-17.7Z"/>
      <path class="cls-7" d="M257.95,205.39c.6-.62,1.31-1.07,2.14-1.36.82-.29,1.66-.44,2.51-.44,1.73,0,2.98.41,3.75,1.23.77.82,1.15,2.06,1.15,3.73v5.02c0,.33.02.68.05,1.04s.08.69.12.99h-1.88c-.07-.27-.1-.56-.11-.89,0-.32-.01-.61-.01-.86h-.05c-.38.6-.9,1.09-1.54,1.48-.64.38-1.41.57-2.31.57-.6,0-1.16-.07-1.69-.22-.53-.15-.98-.37-1.38-.66-.39-.29-.71-.65-.94-1.09-.23-.43-.35-.93-.35-1.5,0-.97.25-1.73.75-2.28.5-.55,1.12-.96,1.86-1.22.74-.27,1.54-.43,2.4-.5s1.65-.1,2.36-.1h.75v-.35c0-.85-.25-1.49-.76-1.92-.51-.43-1.22-.65-2.14-.65-.63,0-1.25.1-1.86.31-.61.21-1.15.53-1.61.96l-1.22-1.28ZM263.6,209.97c-1.25,0-2.24.17-2.97.52s-1.1.93-1.1,1.73c0,.73.25,1.25.74,1.56.49.31,1.1.46,1.84.46.57,0,1.06-.1,1.49-.29.42-.19.78-.45,1.06-.76.28-.32.5-.69.65-1.11.15-.42.23-.88.25-1.36v-.75h-1.95Z"/>
      <path class="cls-7" d="M273.82,212.52c.38.48.8.87,1.26,1.15s1.04.42,1.74.42c.3,0,.6-.03.91-.1.31-.07.59-.17.84-.32.25-.15.45-.34.6-.56.15-.23.22-.5.22-.81s-.07-.58-.21-.78c-.14-.2-.33-.37-.56-.51-.23-.14-.5-.25-.8-.34-.3-.08-.61-.16-.92-.23-.55-.12-1.08-.25-1.58-.4-.5-.15-.94-.35-1.31-.59-.38-.24-.67-.55-.9-.94-.23-.38-.34-.88-.34-1.47,0-.57.12-1.07.38-1.5s.58-.79,1-1.08c.42-.28.88-.5,1.4-.65s1.05-.23,1.6-.23c.83,0,1.6.17,2.31.5.71.33,1.26.88,1.66,1.62l-1.62,1.08c-.25-.42-.58-.75-.99-1.01-.41-.26-.9-.39-1.49-.39-.27,0-.54.03-.81.1-.27.07-.52.17-.74.3s-.4.3-.54.51c-.14.21-.21.45-.21.71,0,.25.08.46.24.64s.38.33.65.46c.27.13.59.25.95.35.36.1.73.18,1.11.25.52.1,1.01.23,1.47.39s.88.37,1.23.64c.35.27.62.6.82,1,.2.4.3.89.3,1.48,0,.67-.13,1.23-.4,1.7s-.62.85-1.06,1.14c-.44.29-.94.5-1.5.64s-1.13.2-1.71.2c-1,0-1.86-.15-2.59-.46-.73-.31-1.38-.88-1.96-1.71l1.55-1.2Z"/>
      <path class="cls-7" d="M293.12,205.54h-3.45v5.85c0,.38,0,.74.03,1.06.02.33.08.61.2.85.12.24.29.43.52.58s.57.21,1,.21c.28,0,.58-.03.88-.1.3-.07.58-.17.85-.3l.07,1.77c-.33.15-.7.26-1.11.33-.41.07-.8.1-1.16.1-.7,0-1.26-.09-1.67-.27-.42-.18-.74-.44-.98-.77-.23-.33-.39-.75-.46-1.24-.08-.49-.11-1.04-.11-1.64v-6.42h-2.55v-1.65h2.55v-3.32h1.95v3.32h3.45v1.65Z"/>
      <path class="cls-7" d="M308.47,213.47c-.7.9-1.47,1.53-2.3,1.89-.83.36-1.8.54-2.9.54-.92,0-1.74-.16-2.47-.49s-1.35-.76-1.86-1.31c-.51-.55-.9-1.2-1.17-1.95-.28-.75-.41-1.55-.41-2.4,0-.9.15-1.73.45-2.49s.72-1.41,1.25-1.95c.53-.54,1.17-.96,1.9-1.26.73-.3,1.53-.45,2.4-.45.82,0,1.57.14,2.25.41s1.27.67,1.76,1.2c.49.53.87,1.17,1.14,1.93s.4,1.62.4,2.59v.62h-9.45c.03.5.15.98.36,1.44.21.46.48.86.81,1.2.33.34.72.61,1.17.81.45.2.94.3,1.47.3.85,0,1.57-.15,2.15-.45.58-.3,1.11-.74,1.58-1.32l1.47,1.15ZM306.8,208.69c-.03-1-.36-1.8-.97-2.4-.62-.6-1.47-.9-2.55-.9s-1.96.3-2.62.9c-.67.6-1.07,1.4-1.2,2.4h7.35Z"/>
      <path class="cls-7" d="M314.42,206.67c0-.53-.02-1.03-.05-1.5s-.05-.89-.05-1.28h1.85c0,.32,0,.63.03.95.02.32.03.64.03.98h.05c.13-.28.32-.56.56-.83.24-.27.53-.5.86-.71.33-.21.71-.38,1.12-.5.42-.12.87-.19,1.35-.19.13,0,.27,0,.4.02.13.02.27.05.4.1l-.12,1.98c-.33-.1-.68-.15-1.05-.15-1.2,0-2.07.39-2.61,1.16-.54.78-.81,1.84-.81,3.19v5.7h-1.95v-8.92Z"/>
      <path class="cls-7" d="M335.52,197.89h5.25c.82,0,1.6.08,2.34.24.74.16,1.4.42,1.98.8s1.03.88,1.38,1.5c.34.62.51,1.4.51,2.31,0,.97-.18,1.77-.55,2.4-.37.63-.84,1.13-1.41,1.5-.58.37-1.2.62-1.89.78-.68.15-1.33.22-1.95.22h-3.55v7.95h-2.1v-17.7ZM337.62,205.69h3.55c1.05,0,1.9-.24,2.56-.71.66-.48.99-1.21.99-2.21s-.33-1.74-.99-2.21-1.51-.71-2.56-.71h-3.55v5.85Z"/>
      <path class="cls-7" d="M352.5,206.67c0-.53-.02-1.03-.05-1.5s-.05-.89-.05-1.28h1.85c0,.32,0,.63.03.95.02.32.03.64.03.98h.05c.13-.28.32-.56.56-.83.24-.27.53-.5.86-.71.33-.21.71-.38,1.12-.5.42-.12.87-.19,1.35-.19.13,0,.27,0,.4.02.13.02.27.05.4.1l-.12,1.98c-.33-.1-.68-.15-1.05-.15-1.2,0-2.07.39-2.61,1.16-.54.78-.81,1.84-.81,3.19v5.7h-1.95v-8.92Z"/>
      <path class="cls-7" d="M373.8,213.47c-.7.9-1.47,1.53-2.3,1.89-.83.36-1.8.54-2.9.54-.92,0-1.74-.16-2.47-.49s-1.35-.76-1.86-1.31c-.51-.55-.9-1.2-1.17-1.95-.28-.75-.41-1.55-.41-2.4,0-.9.15-1.73.45-2.49s.72-1.41,1.25-1.95c.53-.54,1.17-.96,1.9-1.26.73-.3,1.53-.45,2.4-.45.82,0,1.57.14,2.25.41s1.27.67,1.76,1.2c.49.53.87,1.17,1.14,1.93s.4,1.62.4,2.59v.62h-9.45c.03.5.15.98.36,1.44.21.46.48.86.81,1.2.33.34.72.61,1.17.81.45.2.94.3,1.47.3.85,0,1.57-.15,2.15-.45.58-.3,1.11-.74,1.58-1.32l1.47,1.15ZM372.12,208.69c-.03-1-.36-1.8-.97-2.4-.62-.6-1.47-.9-2.55-.9s-1.96.3-2.62.9c-.67.6-1.07,1.4-1.2,2.4h7.35Z"/>
      <path class="cls-7" d="M379.65,203.89h1.95v1.7h.05c.53-.63,1.15-1.12,1.86-1.48s1.49-.52,2.34-.52c.92,0,1.75.15,2.51.46.76.31,1.4.74,1.94,1.29.53.55.95,1.2,1.25,1.95.3.75.45,1.57.45,2.45s-.15,1.7-.45,2.45c-.3.75-.71,1.4-1.24,1.95-.52.55-1.15.98-1.86,1.29s-1.48.46-2.3.46c-1.05,0-1.97-.23-2.76-.69-.79-.46-1.37-1.02-1.74-1.69h-.05v7.78h-1.95v-17.4ZM381.6,209.74c0,.62.1,1.19.29,1.71.19.53.47.98.84,1.38.37.39.8.7,1.31.93.51.23,1.08.34,1.71.34s1.2-.11,1.71-.34c.51-.23.95-.53,1.31-.93.37-.39.65-.85.84-1.38.19-.52.29-1.1.29-1.71s-.1-1.19-.29-1.71c-.19-.52-.47-.98-.84-1.38-.37-.39-.8-.7-1.31-.92-.51-.23-1.08-.34-1.71-.34s-1.2.11-1.71.34c-.51.22-.95.53-1.31.92-.37.39-.65.85-.84,1.38s-.29,1.1-.29,1.71Z"/>
      <path class="cls-7" d="M397.52,206.67c0-.53-.02-1.03-.05-1.5s-.05-.89-.05-1.28h1.85c0,.32,0,.63.03.95.02.32.03.64.03.98h.05c.13-.28.32-.56.56-.83.24-.27.53-.5.86-.71.33-.21.71-.38,1.12-.5.42-.12.87-.19,1.35-.19.13,0,.27,0,.4.02.13.02.27.05.4.1l-.12,1.98c-.33-.1-.68-.15-1.05-.15-1.2,0-2.07.39-2.61,1.16-.54.78-.81,1.84-.81,3.19v5.7h-1.95v-8.92Z"/>
      <path class="cls-7" d="M418.82,213.47c-.7.9-1.47,1.53-2.3,1.89-.83.36-1.8.54-2.9.54-.92,0-1.74-.16-2.47-.49s-1.35-.76-1.86-1.31c-.51-.55-.9-1.2-1.17-1.95-.28-.75-.41-1.55-.41-2.4,0-.9.15-1.73.45-2.49s.72-1.41,1.25-1.95c.53-.54,1.17-.96,1.9-1.26.73-.3,1.53-.45,2.4-.45.82,0,1.57.14,2.25.41s1.27.67,1.76,1.2c.49.53.87,1.17,1.14,1.93s.4,1.62.4,2.59v.62h-9.45c.03.5.15.98.36,1.44.21.46.48.86.81,1.2.33.34.72.61,1.17.81.45.2.94.3,1.47.3.85,0,1.57-.15,2.15-.45.58-.3,1.11-.74,1.58-1.32l1.47,1.15ZM417.15,208.69c-.03-1-.36-1.8-.97-2.4-.62-.6-1.47-.9-2.55-.9s-1.96.3-2.62.9c-.67.6-1.07,1.4-1.2,2.4h7.35Z"/>
      <path class="cls-7" d="M425.02,212.52c.38.48.8.87,1.26,1.15s1.04.42,1.74.42c.3,0,.6-.03.91-.1.31-.07.59-.17.84-.32.25-.15.45-.34.6-.56.15-.23.22-.5.22-.81s-.07-.58-.21-.78c-.14-.2-.33-.37-.56-.51-.23-.14-.5-.25-.8-.34-.3-.08-.61-.16-.92-.23-.55-.12-1.08-.25-1.58-.4-.5-.15-.94-.35-1.31-.59-.38-.24-.67-.55-.9-.94-.23-.38-.34-.88-.34-1.47,0-.57.12-1.07.38-1.5s.58-.79,1-1.08c.42-.28.88-.5,1.4-.65s1.05-.23,1.6-.23c.83,0,1.6.17,2.31.5.71.33,1.26.88,1.66,1.62l-1.62,1.08c-.25-.42-.58-.75-.99-1.01-.41-.26-.9-.39-1.49-.39-.27,0-.54.03-.81.1-.27.07-.52.17-.74.3s-.4.3-.54.51c-.14.21-.21.45-.21.71,0,.25.08.46.24.64s.38.33.65.46c.27.13.59.25.95.35.36.1.73.18,1.11.25.52.1,1.01.23,1.47.39s.88.37,1.23.64c.35.27.62.6.82,1,.2.4.3.89.3,1.48,0,.67-.13,1.23-.4,1.7s-.62.85-1.06,1.14c-.44.29-.94.5-1.5.64s-1.13.2-1.71.2c-1,0-1.86-.15-2.59-.46-.73-.31-1.38-.88-1.96-1.71l1.55-1.2Z"/>
      <path class="cls-7" d="M438.17,212.52c.38.48.8.87,1.26,1.15s1.04.42,1.74.42c.3,0,.6-.03.91-.1.31-.07.59-.17.84-.32.25-.15.45-.34.6-.56.15-.23.22-.5.22-.81s-.07-.58-.21-.78c-.14-.2-.33-.37-.56-.51-.23-.14-.5-.25-.8-.34-.3-.08-.61-.16-.92-.23-.55-.12-1.08-.25-1.58-.4-.5-.15-.94-.35-1.31-.59-.38-.24-.67-.55-.9-.94-.23-.38-.34-.88-.34-1.47,0-.57.12-1.07.38-1.5s.58-.79,1-1.08c.42-.28.88-.5,1.4-.65s1.05-.23,1.6-.23c.83,0,1.6.17,2.31.5.71.33,1.26.88,1.66,1.62l-1.62,1.08c-.25-.42-.58-.75-.99-1.01-.41-.26-.9-.39-1.49-.39-.27,0-.54.03-.81.1-.27.07-.52.17-.74.3s-.4.3-.54.51c-.14.21-.21.45-.21.71,0,.25.08.46.24.64s.38.33.65.46c.27.13.59.25.95.35.36.1.73.18,1.11.25.52.1,1.01.23,1.47.39s.88.37,1.23.64c.35.27.62.6.82,1,.2.4.3.89.3,1.48,0,.67-.13,1.23-.4,1.7s-.62.85-1.06,1.14c-.44.29-.94.5-1.5.64s-1.13.2-1.71.2c-1,0-1.86-.15-2.59-.46-.73-.31-1.38-.88-1.96-1.71l1.55-1.2Z"/>
      <path class="cls-7" d="M452.7,212.74c.42,0,.77.15,1.06.44.29.29.44.65.44,1.06s-.15.77-.46,1.06c-.31.29-.65.44-1.04.44s-.73-.15-1.04-.44-.46-.65-.46-1.06.15-.77.44-1.06c.29-.29.65-.44,1.06-.44Z"/>
    </g>
  </g>
  <path class="cls-5" d="M281.07,40.5c-15.21,0-27.53,12.33-27.53,27.53h27.53v-27.53Z"/>
  <path class="cls-3" d="M253.54,68.04c0,15.21,12.33,27.53,27.53,27.53v-27.53s-27.53,0-27.53,0Z"/>
  <path class="cls-4" d="M281.07,95.57c15.21,0,27.53-12.33,27.53-27.53h-27.53s0,27.53,0,27.53Z"/>
  <path class="cls-2" d="M308.6,68.04c0-15.21-12.33-27.53-27.53-27.53v27.53s27.53,0,27.53,0Z"/>
  <line class="cls-5" x1="281.07" y1="124.48" x2="281.07" y2="11.89"/>
  <line class="cls-5" x1="338.93" y1="68.04" x2="223.19" y2="68.04"/>
</svg>