<?xml version="1.0" encoding="UTF-8"?>
<svg id="Layer_1" data-name="Layer 1" xmlns="http://www.w3.org/2000/svg" viewBox="0 0 151.57 109.96">
  <defs>
    <style>
      .cls-1 {
        fill: #363639;
      }

      .cls-2 {
        fill: #00adee;
      }

      .cls-3 {
        fill: #2e3191;
      }

      .cls-4 {
        fill: #fff;
      }

      .cls-5 {
        fill: #fff100;
      }

      .cls-6 {
        fill: #ec1c24;
      }

      .cls-7 {
        fill: #00a551;
      }

      .cls-8 {
        fill: #eb008b;
      }
    </style>
  </defs>
  <polygon class="cls-7" points="75.78 57.88 117.23 57.88 111.42 37.16 75.78 57.88"/>
  <polygon class="cls-5" points="75.78 57.88 111.42 37.16 75.78 16.44 75.78 57.88"/>
  <polygon class="cls-2" points="75.78 57.88 75.78 16.44 40.14 37.16 75.78 57.88"/>
  <polygon class="cls-3" points="75.78 57.88 40.14 37.16 34.34 57.88 75.78 57.88"/>
  <polygon class="cls-8" points="75.78 57.88 34.34 57.88 55.06 93.52 75.78 57.88"/>
  <polygon class="cls-6" points="75.78 57.88 55.06 93.52 96.5 93.52 75.78 57.88"/>
  <path class="cls-1" d="M105.64,69.77l-29.01-45.59c-.19-.3-.52-.49-.9-.46-.36.02-.68.23-.84.55l-24.87,49.73c-.16.32-.14.71.06,1.01.19.28.5.44.83.44.03,0,.05,0,.08,0l53.88-4.14c.35-.03.66-.24.82-.55.16-.31.14-.69-.05-.98ZM52.6,73.32l23.29-46.57,27.17,42.69-50.45,3.88Z"/>
  <path class="cls-4" d="M77.42,53.77c0-.92-.74-1.66-1.66-1.66s-1.66.74-1.66,1.66.74,1.66,1.66,1.66,1.66-.74,1.66-1.66"/>
</svg>