<?xml version="1.0" encoding="UTF-8"?>
<svg id="Layer_1" data-name="Layer 1" xmlns="http://www.w3.org/2000/svg" xmlns:xlink="http://www.w3.org/1999/xlink" viewBox="0 0 151.57 109.96">
  <defs>
    <style>
      .cls-1 {
        fill: none;
      }

      .cls-2 {
        fill: #5bb947;
      }

      .cls-3 {
        fill: #483e97;
      }

      .cls-4 {
        fill: #f0d0b8;
      }

      .cls-5 {
        fill: #ceafc9;
      }

      .cls-6 {
        fill: #beca9d;
      }

      .cls-7 {
        fill: #e51c23;
      }

      .cls-8 {
        fill: #df8c65;
      }

      .cls-9 {
        fill: #d8b1c9;
      }

      .cls-10 {
        fill: #a89ec5;
      }

      .cls-11 {
        fill: #7f72ae;
      }

      .cls-12 {
        fill: #bb8fb9;
      }

      .cls-13 {
        fill: #da513d;
      }

      .cls-14 {
        fill: #afd136;
      }

      .cls-15 {
        fill: #e89180;
      }

      .cls-16 {
        fill: #bacaaa;
      }

      .cls-17 {
        fill: #e9a386;
      }

      .cls-18 {
        fill: #a65a85;
      }

      .cls-19 {
        fill: #cbafc9;
      }

      .cls-20 {
        fill: #a28dbb;
      }

      .cls-21 {
        fill: #8387bc;
      }

      .cls-22 {
        fill: #dfb2bf;
      }

      .cls-23 {
        fill: #f0bdae;
      }

      .cls-24 {
        fill: #94c83d;
      }

      .cls-25 {
        fill: #d32427;
      }

      .cls-26 {
        fill: #d16327;
      }

      .cls-27 {
        fill: #f0b3a9;
      }

      .cls-28 {
        fill: #e5d4bb;
      }

      .cls-29 {
        fill: #5c5aa4;
      }

      .cls-30 {
        fill: #aac95d;
      }

      .cls-31 {
        fill: #80bd61;
      }

      .cls-32 {
        fill: #8c57a0;
      }

      .cls-33 {
        fill: #a273ac;
      }

      .cls-34 {
        fill: #cfb9cf;
      }

      .cls-35 {
        fill: #973c78;
      }

      .cls-36 {
        fill: #d2d09d;
      }

      .cls-37 {
        fill: #35459b;
      }

      .cls-38 {
        fill: #4bb868;
      }

      .cls-39 {
        fill: #9fc381;
      }

      .cls-40 {
        fill: #6856a1;
      }

      .cls-41 {
        fill: #dbd0bb;
      }

      .cls-42 {
        fill: #becd80;
      }

      .cls-43 {
        fill: #dec578;
      }

      .cls-44 {
        fill: #d6c052;
      }

      .cls-45 {
        fill: #78bc80;
      }

      .cls-46 {
        fill: #99c394;
      }

      .cls-47 {
        fill: #6075b5;
      }

      .cls-48 {
        fill: #b77696;
      }

      .cls-49 {
        fill: #a78bb9;
      }

      .cls-50 {
        fill: #fdebeb;
      }

      .cls-51 {
        fill: #d97843;
      }

      .cls-52 {
        fill: #783c96;
      }

      .cls-53 {
        fill: #ca91a9;
      }

      .cls-54 {
        fill: #cdbb2c;
      }

      .cls-55 {
        fill: #3165af;
      }

      .cls-56 {
        clip-path: url(#clippath);
      }

      .cls-57 {
        fill: #e1745e;
      }

      .cls-58 {
        fill: #8670ac;
      }

      .cls-59 {
        fill: #dad0c2;
      }
    </style>
    <clipPath id="clippath">
      <rect class="cls-1" x="34.39" y="183.16" width="82.78" height="82.78"/>
    </clipPath>
  </defs>
  <g class="cls-56">
    <g>
      <path class="cls-14" d="M4.33,5.16c0,.9-.9,1.63-2.02,1.62-1.12,0-2.04-.74-2.05-1.63,0-.9.91-1.63,2.03-1.63s2.03.74,2.04,1.64Z"/>
      <path class="cls-14" d="M11,5.18c0,.92-.92,1.65-2.04,1.64-1.12,0-2.03-.75-2.03-1.66,0-.91.93-1.65,2.05-1.65s2.03.74,2.02,1.66Z"/>
      <path class="cls-14" d="M17.68,5.2c-.02.93-.94,1.67-2.06,1.67-1.12,0-2.02-.76-2.01-1.68.01-.92.94-1.67,2.07-1.67s2.02.75,2,1.68Z"/>
      <path class="cls-14" d="M24.35,5.22c-.03.94-.96,1.69-2.08,1.69-1.12,0-2.01-.77-1.99-1.7.02-.93.96-1.68,2.09-1.68s2.01.76,1.98,1.69Z"/>
      <path class="cls-14" d="M31.03,5.23c-.04.94-.98,1.71-2.1,1.71-1.12,0-2.01-.77-1.97-1.71.03-.94.98-1.7,2.1-1.7s2.01.76,1.97,1.71Z"/>
      <path class="cls-14" d="M37.72,5.24c-.04.95-.99,1.72-2.12,1.72-1.12,0-2-.78-1.96-1.72.04-.95.99-1.71,2.11-1.71s2.01.77,1.96,1.71Z"/>
      <path class="cls-14" d="M44.4,5.24c-.05.95-1,1.73-2.13,1.73-1.13,0-2-.78-1.95-1.73.05-.95.99-1.72,2.12-1.72s2,.77,1.96,1.72Z"/>
      <path class="cls-14" d="M51.1,5.24c-.05.95-1,1.73-2.13,1.73-1.13,0-2-.78-1.95-1.73.05-.95,1-1.72,2.12-1.72s2.01.76,1.96,1.72Z"/>
      <path class="cls-14" d="M57.8,5.23c-.04.95-1,1.73-2.13,1.73-1.13,0-2-.78-1.96-1.73.05-.95.99-1.71,2.12-1.71s2.01.76,1.97,1.71Z"/>
      <path class="cls-14" d="M64.51,5.22c-.04.94-.99,1.72-2.12,1.73-1.13,0-2.01-.77-1.97-1.72.04-.95.98-1.7,2.11-1.7s2.02.75,1.98,1.69Z"/>
      <path class="cls-14" d="M71.22,5.19c-.02.93-.97,1.7-2.11,1.71-1.14,0-2.02-.76-1.99-1.7.03-.94.96-1.68,2.09-1.68s2.03.74,2.01,1.67Z"/>
      <path class="cls-14" d="M77.94,5.19c-.01.93-.93,1.65-2.07,1.66-1.14.01-2.04-.74-2.02-1.67.02-.92.93-1.66,2.06-1.66s2.04.74,2.03,1.66Z"/>
      <path class="cls-14" d="M84.63,5.23c-.01.95-.94,1.72-2.07,1.71-1.13-.01-2.02-.79-2.01-1.73.01-.94.92-1.68,2.05-1.68s2.04.76,2.03,1.7Z"/>
      <path class="cls-14" d="M91.32,5.26c-.01.96-.94,1.74-2.07,1.74-1.13,0-2.02-.8-2.01-1.75.01-.95.92-1.72,2.05-1.72s2.04.77,2.03,1.73Z"/>
      <path class="cls-14" d="M98.02,5.27c-.01.97-.94,1.76-2.07,1.76-1.13,0-2.02-.8-2.01-1.76.01-.97.92-1.74,2.05-1.74s2.04.78,2.03,1.75Z"/>
      <path class="cls-14" d="M104.71,5.28c-.01.97-.94,1.76-2.07,1.76-1.13,0-2.02-.79-2.01-1.77.01-.97.92-1.75,2.05-1.75s2.04.78,2.03,1.76Z"/>
      <path class="cls-14" d="M111.4,5.28c-.01.97-.94,1.76-2.07,1.76-1.13,0-2.02-.79-2.01-1.76.01-.97.92-1.76,2.05-1.76s2.04.78,2.03,1.75Z"/>
      <path class="cls-14" d="M118.09,5.27c-.01.96-.94,1.74-2.07,1.75-1.13,0-2.02-.78-2.01-1.74.01-.97.92-1.75,2.05-1.75s2.04.78,2.03,1.74Z"/>
      <path class="cls-14" d="M124.78,5.25c-.01.95-.94,1.72-2.07,1.73-1.13,0-2.02-.76-2.01-1.72.01-.96.92-1.74,2.05-1.74s2.04.77,2.03,1.73Z"/>
      <path class="cls-14" d="M131.48,5.23c-.01.94-.94,1.7-2.07,1.71-1.13,0-2.02-.75-2.01-1.69.01-.95.92-1.72,2.05-1.72s2.04.77,2.03,1.7Z"/>
      <path class="cls-14" d="M138.17,5.2c-.01.92-.94,1.67-2.07,1.68-1.13,0-2.02-.73-2.01-1.66.01-.93.92-1.69,2.05-1.69s2.04.76,2.03,1.68Z"/>
      <path class="cls-14" d="M144.86,5.17c-.01.9-.94,1.64-2.07,1.65-1.13.01-2.02-.71-2.01-1.63.01-.92.92-1.67,2.05-1.67s2.04.74,2.03,1.65Z"/>
      <path class="cls-14" d="M151.55,5.14c-.01.89-.94,1.6-2.07,1.61-1.13.01-2.02-.7-2.01-1.59.01-.9.92-1.64,2.05-1.64s2.04.73,2.03,1.62Z"/>
      <path class="cls-14" d="M4.41,10.15c.03.89-.84,1.6-1.95,1.58-1.1-.02-2.04-.75-2.07-1.64-.04-.88.85-1.59,1.96-1.58,1.11.01,2.03.75,2.06,1.64Z"/>
      <path class="cls-14" d="M11,10.25c0,.91-.88,1.63-1.98,1.61-1.1-.02-2.02-.77-2.04-1.67-.02-.9.88-1.62,1.99-1.61,1.12.01,2.02.76,2.03,1.67Z"/>
      <path class="cls-14" d="M17.6,10.34c0,.93-.91,1.66-2.01,1.64s-2.01-.78-2.01-1.7c0-.92.9-1.65,2.02-1.64,1.12.01,2.01.77,2,1.7Z"/>
      <path class="cls-14" d="M24.21,10.42c-.02.94-.94,1.69-2.05,1.67-1.11-.02-2-.79-1.99-1.72.01-.93.93-1.68,2.05-1.67,1.12,0,2,.78,1.98,1.72Z"/>
      <path class="cls-14" d="M30.83,10.49c-.04.96-.96,1.72-2.08,1.7-1.11-.02-1.99-.8-1.96-1.75.03-.95.96-1.71,2.08-1.7,1.12,0,2,.78,1.96,1.74Z"/>
      <path class="cls-14" d="M37.47,10.55c-.05.97-.99,1.74-2.1,1.73-1.11-.01-1.99-.8-1.95-1.76.04-.96.98-1.73,2.1-1.72,1.12,0,1.99.79,1.95,1.75Z"/>
      <path class="cls-14" d="M44.12,10.58c-.05.97-1.01,1.76-2.13,1.76s-1.98-.81-1.93-1.78c.05-.97,1-1.75,2.12-1.74,1.12,0,1.99.79,1.94,1.76Z"/>
      <path class="cls-14" d="M50.8,10.59c-.06.98-1.02,1.78-2.15,1.78-1.12,0-1.98-.8-1.93-1.78.06-.98,1.01-1.76,2.14-1.76s2,.79,1.94,1.76Z"/>
      <path class="cls-14" d="M57.51,10.58c-.06.98-1.03,1.79-2.16,1.79-1.13,0-1.99-.8-1.93-1.78.06-.98,1.02-1.77,2.15-1.77,1.13,0,2,.78,1.94,1.76Z"/>
      <path class="cls-14" d="M64.25,10.54c-.06.98-1.04,1.79-2.17,1.8-1.14,0-2-.79-1.94-1.77.06-.98,1.02-1.77,2.16-1.78,1.13,0,2.01.77,1.96,1.75Z"/>
      <path class="cls-14" d="M71.02,10.46c-.05.97-1.03,1.79-2.17,1.8-1.14.02-2.02-.77-1.96-1.75.06-.98,1.02-1.76,2.15-1.78,1.14-.01,2.03.75,1.98,1.72Z"/>
      <path class="cls-14" d="M77.78,10.44c-.04.97-.98,1.68-2.13,1.7-1.15.02-2.04-.75-1.99-1.72.05-.97,1-1.75,2.15-1.77,1.14-.02,2.02.82,1.97,1.78Z"/>
      <path class="cls-14" d="M84.48,10.58c-.04.98-1,1.77-2.13,1.75-1.13-.02-2-.85-1.95-1.82.04-.98.98-1.74,2.11-1.72,1.13.02,2.01.82,1.97,1.8Z"/>
      <path class="cls-14" d="M91.17,10.66c-.04.99-1,1.79-2.13,1.78-1.13-.01-2-.84-1.95-1.82.04-.99.98-1.77,2.11-1.75,1.13.01,2.01.81,1.97,1.8Z"/>
      <path class="cls-14" d="M97.87,10.7c-.04.99-1,1.8-2.13,1.79-1.13,0-2-.82-1.95-1.81.04-.99.98-1.78,2.11-1.77,1.13,0,2.01.8,1.97,1.79Z"/>
      <path class="cls-14" d="M104.56,10.7c-.04.98-1,1.79-2.13,1.79s-2-.8-1.95-1.79c.04-.99.98-1.78,2.11-1.78,1.13,0,2.01.79,1.97,1.78Z"/>
      <path class="cls-14" d="M111.25,10.66c-.04.97-1,1.77-2.13,1.79-1.13.01-2-.78-1.95-1.76.04-.98.98-1.77,2.11-1.78,1.13,0,2.01.78,1.97,1.75Z"/>
      <path class="cls-14" d="M117.94,10.58c-.04.96-1,1.75-2.13,1.77-1.13.02-2-.75-1.95-1.72.04-.97.98-1.76,2.11-1.77,1.13,0,2.01.76,1.97,1.72Z"/>
      <path class="cls-14" d="M124.63,10.49c-.04.94-1,1.72-2.13,1.74-1.13.02-2-.73-1.95-1.68.04-.95.98-1.73,2.11-1.74,1.13-.01,2.01.74,1.97,1.68Z"/>
      <path class="cls-14" d="M131.32,10.37c-.04.92-1,1.68-2.13,1.71-1.13.03-1.99-.7-1.95-1.63.04-.93.98-1.7,2.11-1.72,1.13-.01,2.01.72,1.97,1.64Z"/>
      <path class="cls-14" d="M138.01,10.23c-.04.89-1,1.64-2.13,1.67-1.13.03-1.99-.67-1.95-1.58.04-.91.98-1.66,2.11-1.68,1.13-.02,2.01.7,1.97,1.6Z"/>
      <path class="cls-14" d="M144.7,10.08c-.05.87-1,1.59-2.13,1.62-1.13.03-1.99-.65-1.95-1.53.04-.88.98-1.62,2.11-1.64,1.13-.02,2.01.68,1.97,1.55Z"/>
      <path class="cls-14" d="M151.39,9.93c-.05.84-1,1.54-2.13,1.58s-1.99-.62-1.95-1.48c.05-.86.99-1.58,2.11-1.6s2.01.66,1.97,1.51Z"/>
      <path class="cls-14" d="M4.61,15.08c.05.89-.79,1.57-1.87,1.53-1.08-.04-2.02-.78-2.08-1.65-.06-.87.79-1.56,1.89-1.53,1.1.03,2.02.77,2.07,1.66Z"/>
      <path class="cls-14" d="M11.1,15.28c.03.91-.83,1.61-1.92,1.57-1.09-.04-2-.8-2.04-1.69-.04-.89.83-1.6,1.93-1.57,1.1.03,2.01.79,2.03,1.69Z"/>
      <path class="cls-14" d="M17.59,15.48c0,.93-.87,1.65-1.96,1.61-1.09-.04-1.99-.81-2-1.73-.02-.92.86-1.64,1.97-1.61s1.99.8,2,1.73Z"/>
      <path class="cls-14" d="M24.11,15.65c-.02.95-.91,1.69-2,1.65-1.09-.04-1.97-.82-1.97-1.76,0-.94.9-1.67,2-1.65,1.1.02,1.98.81,1.97,1.76Z"/>
      <path class="cls-14" d="M30.64,15.81c-.03.96-.95,1.73-2.04,1.69-1.1-.03-1.97-.83-1.94-1.79.02-.95.94-1.71,2.04-1.69,1.11.02,1.98.82,1.94,1.78Z"/>
      <path class="cls-14" d="M37.2,15.94c-.05.98-.98,1.76-2.08,1.73-1.1-.03-1.96-.84-1.92-1.81.04-.97.97-1.74,2.08-1.72,1.11.02,1.97.82,1.92,1.8Z"/>
      <path class="cls-14" d="M43.8,16.03c-.06.99-1.01,1.79-2.12,1.77-1.11-.02-1.96-.84-1.91-1.82.05-.99,1-1.77,2.12-1.76,1.12.01,1.97.82,1.91,1.81Z"/>
      <path class="cls-14" d="M50.44,16.09c-.07,1-1.04,1.82-2.16,1.81-1.12-.01-1.96-.84-1.9-1.83.07-1,1.02-1.79,2.15-1.79,1.12,0,1.98.81,1.91,1.82Z"/>
      <path class="cls-14" d="M57.12,16.09c-.08,1.01-1.06,1.84-2.19,1.83-1.13,0-1.97-.83-1.9-1.83.07-1.01,1.04-1.81,2.17-1.82,1.13,0,1.99.8,1.91,1.81Z"/>
      <path class="cls-14" d="M63.86,16.05c-.08,1.01-1.07,1.85-2.21,1.86-1.14,0-1.98-.81-1.91-1.82.08-1.01,1.06-1.83,2.19-1.84,1.14,0,2,.79,1.92,1.8Z"/>
      <path class="cls-14" d="M70.66,15.94c-.08,1.01-1.08,1.86-2.23,1.88-1.15.02-2-.8-1.92-1.81.08-1.01,1.06-1.83,2.21-1.85,1.14-.02,2.02.77,1.94,1.78Z"/>
      <path class="cls-14" d="M77.46,15.91c-.07,1.01-1.02,1.72-2.18,1.75-1.16.03-2.03-.77-1.95-1.78.07-1.01,1.06-1.83,2.22-1.86,1.15-.03,1.99.88,1.92,1.89Z"/>
      <path class="cls-14" d="M84.16,16.11c-.07,1.01-1.05,1.83-2.18,1.79-1.13-.03-1.97-.89-1.9-1.9.07-1.01,1.04-1.79,2.16-1.77,1.13.03,1.99.86,1.92,1.87Z"/>
      <path class="cls-14" d="M90.85,16.21c-.07,1.01-1.05,1.84-2.18,1.82-1.13-.01-1.97-.86-1.9-1.87.07-1.01,1.04-1.81,2.16-1.8,1.13.01,1.99.84,1.92,1.85Z"/>
      <path class="cls-14" d="M97.54,16.23c-.07,1.01-1.05,1.83-2.18,1.84-1.13,0-1.97-.83-1.9-1.84.07-1.01,1.04-1.82,2.16-1.82,1.13,0,1.99.81,1.92,1.82Z"/>
      <path class="cls-14" d="M104.23,16.17c-.07.99-1.05,1.82-2.18,1.83-1.13.02-1.97-.79-1.9-1.79.07-1,1.04-1.81,2.16-1.82s1.99.79,1.92,1.78Z"/>
      <path class="cls-14" d="M110.92,16.05c-.07.98-1.05,1.79-2.18,1.82-1.13.03-1.97-.75-1.9-1.74.07-.99,1.04-1.8,2.16-1.81,1.13-.02,1.99.76,1.92,1.73Z"/>
      <path class="cls-14" d="M117.61,15.88c-.07.95-1.05,1.76-2.18,1.8-1.13.04-1.97-.72-1.9-1.69.07-.97,1.04-1.77,2.16-1.79,1.13-.02,1.99.73,1.91,1.68Z"/>
      <path class="cls-14" d="M124.3,15.66c-.07.93-1.05,1.72-2.18,1.76-1.13.05-1.97-.68-1.9-1.62.07-.94,1.04-1.73,2.16-1.77,1.13-.03,1.99.7,1.91,1.63Z"/>
      <path class="cls-14" d="M130.99,15.4c-.07.9-1.06,1.67-2.18,1.72-1.13.05-1.97-.64-1.9-1.56.07-.92,1.04-1.69,2.16-1.73,1.13-.04,1.99.67,1.91,1.57Z"/>
      <path class="cls-14" d="M137.68,15.11c-.07.87-1.06,1.61-2.18,1.67-1.13.06-1.97-.61-1.9-1.5.07-.89,1.04-1.64,2.17-1.68,1.13-.04,1.99.64,1.91,1.51Z"/>
      <path class="cls-14" d="M144.37,14.81c-.08.84-1.06,1.56-2.18,1.62-1.13.06-1.97-.57-1.89-1.43.07-.86,1.04-1.59,2.17-1.63,1.13-.04,1.99.61,1.91,1.45Z"/>
      <path class="cls-14" d="M151.05,14.49c-.08.8-1.06,1.5-2.18,1.56-1.13.06-1.97-.54-1.89-1.37.08-.82,1.04-1.54,2.17-1.58,1.13-.04,1.99.58,1.91,1.39Z"/>
      <path class="cls-14" d="M4.92,19.96c.07.88-.74,1.53-1.8,1.47-1.06-.07-1.99-.81-2.08-1.68s.73-1.52,1.81-1.47c1.08.05,2,.8,2.06,1.68Z"/>
      <path class="cls-14" d="M11.28,20.3c.04.9-.79,1.58-1.85,1.52-1.06-.06-1.97-.83-2.03-1.72-.06-.89.78-1.57,1.86-1.52,1.08.05,1.98.82,2.02,1.72Z"/>
      <path class="cls-14" d="M17.65,20.62c.02.93-.83,1.63-1.9,1.57-1.07-.06-1.96-.85-1.99-1.76-.03-.91.82-1.62,1.9-1.57,1.08.05,1.97.83,1.98,1.76Z"/>
      <path class="cls-14" d="M24.04,20.91c0,.95-.88,1.68-1.95,1.62-1.07-.06-1.94-.86-1.95-1.8,0-.94.87-1.66,1.95-1.62,1.08.04,1.96.85,1.95,1.8Z"/>
      <path class="cls-14" d="M30.46,21.18c-.03.97-.93,1.73-2.01,1.68-1.08-.05-1.93-.87-1.92-1.83.02-.96.91-1.7,2-1.67,1.09.04,1.95.85,1.92,1.83Z"/>
      <path class="cls-14" d="M36.93,21.4c-.05.99-.97,1.77-2.06,1.73-1.08-.04-1.93-.88-1.89-1.86.04-.98.96-1.75,2.05-1.72,1.1.03,1.95.86,1.9,1.85Z"/>
      <path class="cls-14" d="M43.44,21.58c-.07,1.01-1.01,1.81-2.11,1.78-1.09-.03-1.93-.88-1.87-1.88.06-1,1-1.79,2.1-1.76,1.1.02,1.95.85,1.88,1.86Z"/>
      <path class="cls-14" d="M50.02,21.7c-.08,1.02-1.05,1.84-2.15,1.82-1.1-.02-1.93-.87-1.86-1.89.07-1.02,1.03-1.82,2.14-1.81,1.11.01,1.95.85,1.87,1.87Z"/>
      <path class="cls-14" d="M56.65,21.75c-.09,1.03-1.08,1.88-2.2,1.87-1.12,0-1.95-.86-1.86-1.89.09-1.03,1.06-1.85,2.18-1.85,1.12,0,1.97.84,1.87,1.87Z"/>
      <path class="cls-14" d="M63.37,21.73c-.1,1.04-1.1,1.9-2.24,1.9s-1.96-.84-1.87-1.88c.1-1.04,1.08-1.87,2.22-1.88,1.13,0,1.98.82,1.88,1.86Z"/>
      <path class="cls-14" d="M70.17,21.63c-.1,1.04-1.12,1.92-2.27,1.94-1.15.02-1.99-.82-1.89-1.86.1-1.04,1.1-1.89,2.25-1.91,1.15-.02,2.01.79,1.91,1.84Z"/>
      <path class="cls-14" d="M76.99,21.59c-.1,1.04-1.06,1.76-2.23,1.8-1.16.04-2.02-.79-1.92-1.83.1-1.04,1.11-1.9,2.27-1.93,1.16-.03,1.97.92,1.87,1.97Z"/>
      <path class="cls-14" d="M83.68,21.81c-.1,1.04-1.1,1.88-2.23,1.85-1.13-.03-1.95-.92-1.86-1.96.1-1.04,1.08-1.85,2.21-1.82,1.13.03,1.97.89,1.87,1.93Z"/>
      <path class="cls-14" d="M90.38,21.89c-.1,1.04-1.1,1.88-2.23,1.87-1.13,0-1.95-.87-1.86-1.91s1.08-1.86,2.21-1.85c1.13.01,1.97.85,1.87,1.88Z"/>
      <path class="cls-14" d="M97.07,21.85c-.1,1.02-1.1,1.87-2.23,1.89-1.13.01-1.95-.82-1.85-1.85.1-1.03,1.08-1.86,2.21-1.87,1.13,0,1.97.81,1.87,1.83Z"/>
      <path class="cls-14" d="M103.76,21.71c-.1,1-1.1,1.85-2.23,1.88s-1.95-.77-1.85-1.79c.1-1.02,1.08-1.85,2.21-1.87,1.13-.02,1.97.77,1.87,1.77Z"/>
      <path class="cls-14" d="M110.45,21.47c-.1.98-1.1,1.82-2.23,1.87-1.13.05-1.95-.72-1.85-1.71.1-.99,1.09-1.82,2.21-1.86,1.13-.04,1.97.73,1.87,1.7Z"/>
      <path class="cls-14" d="M117.13,21.15c-.1.95-1.1,1.78-2.23,1.84-1.13.06-1.95-.67-1.85-1.64.1-.97,1.09-1.79,2.21-1.83,1.13-.05,1.97.68,1.87,1.63Z"/>
      <path class="cls-14" d="M123.82,20.77c-.1.92-1.1,1.73-2.23,1.8-1.13.08-1.95-.62-1.85-1.56.1-.94,1.09-1.74,2.21-1.8,1.13-.06,1.96.64,1.86,1.56Z"/>
      <path class="cls-14" d="M130.5,20.34c-.1.88-1.1,1.67-2.23,1.75-1.13.09-1.95-.58-1.85-1.48s1.09-1.69,2.21-1.76c1.13-.06,1.96.6,1.86,1.49Z"/>
      <path class="cls-14" d="M137.19,19.86c-.1.85-1.1,1.6-2.23,1.7-1.13.09-1.95-.53-1.85-1.4.1-.87,1.09-1.63,2.21-1.7,1.13-.07,1.96.56,1.86,1.41Z"/>
      <path class="cls-14" d="M143.87,19.36c-.1.81-1.1,1.53-2.23,1.63-1.13.1-1.95-.49-1.85-1.32.1-.83,1.09-1.57,2.21-1.64,1.13-.07,1.96.53,1.86,1.34Z"/>
      <path class="cls-14" d="M150.56,18.85c-.1.77-1.11,1.46-2.23,1.56s-1.95-.45-1.84-1.25c.1-.79,1.09-1.5,2.22-1.58s1.96.5,1.86,1.27Z"/>
      <path class="cls-14" d="M5.33,24.8c.08.87-.68,1.5-1.72,1.41-1.03-.09-1.96-.86-2.06-1.71-.1-.85.68-1.49,1.73-1.41,1.05.07,1.97.84,2.05,1.71Z"/>
      <path class="cls-14" d="M11.54,25.29c.05.9-.74,1.56-1.78,1.46-1.04-.09-1.94-.88-2.01-1.76-.07-.88.73-1.54,1.78-1.47,1.05.07,1.95.86,2,1.76Z"/>
      <path class="cls-14" d="M17.76,25.76c.02.93-.8,1.61-1.84,1.52s-1.92-.9-1.96-1.81c-.04-.91.78-1.59,1.84-1.52,1.06.07,1.93.88,1.96,1.81Z"/>
      <path class="cls-14" d="M24.01,26.2c0,.96-.85,1.67-1.9,1.59-1.05-.08-1.9-.91-1.92-1.85-.01-.94.84-1.65,1.9-1.58,1.06.06,1.92.89,1.92,1.84Z"/>
      <path class="cls-14" d="M30.3,26.59c-.03.98-.91,1.72-1.96,1.65-1.05-.07-1.89-.92-1.88-1.88.01-.97.89-1.7,1.96-1.64,1.07.06,1.91.9,1.88,1.88Z"/>
      <path class="cls-14" d="M36.65,26.94c-.05,1-.96,1.77-2.02,1.71-1.06-.06-1.89-.92-1.85-1.91.04-.99.94-1.75,2.02-1.7,1.08.05,1.91.9,1.86,1.9Z"/>
      <path class="cls-14" d="M43.05,27.22c-.07,1.02-1.01,1.82-2.08,1.77-1.07-.05-1.89-.92-1.83-1.93.06-1.01.99-1.79,2.07-1.76,1.09.04,1.91.89,1.84,1.92Z"/>
      <path class="cls-14" d="M49.54,27.43c-.09,1.04-1.05,1.87-2.14,1.83-1.09-.04-1.9-.91-1.82-1.94.08-1.03,1.03-1.84,2.13-1.81,1.1.03,1.92.89,1.83,1.93Z"/>
      <path class="cls-14" d="M56.11,27.55c-.1,1.06-1.09,1.91-2.2,1.88-1.11-.02-1.92-.9-1.82-1.95.1-1.05,1.07-1.88,2.18-1.86,1.11.01,1.94.87,1.83,1.93Z"/>
      <path class="cls-14" d="M62.78,27.57c-.11,1.07-1.13,1.94-2.25,1.94-1.12,0-1.94-.88-1.83-1.94.11-1.06,1.1-1.91,2.23-1.91,1.13,0,1.96.85,1.85,1.91Z"/>
      <path class="cls-14" d="M69.55,27.49c-.12,1.07-1.16,1.97-2.3,1.98-1.14.02-1.96-.85-1.85-1.92.12-1.07,1.13-1.94,2.28-1.96,1.15-.02,1.99.82,1.87,1.89Z"/>
      <path class="cls-14" d="M76.38,27.45c-.12,1.07-1.1,1.81-2.27,1.85-1.17.04-2-.81-1.88-1.89.12-1.07,1.15-1.96,2.32-2,1.17-.04,1.95.96,1.83,2.03Z"/>
      <path class="cls-14" d="M83.07,27.65c-.12,1.07-1.14,1.93-2.27,1.9-1.13-.03-1.94-.93-1.82-2,.12-1.07,1.13-1.9,2.25-1.87,1.13.03,1.95.9,1.83,1.97Z"/>
      <path class="cls-14" d="M89.77,27.68c-.12,1.05-1.14,1.93-2.27,1.93-1.13,0-1.94-.87-1.81-1.93.12-1.06,1.13-1.91,2.25-1.91,1.13,0,1.95.85,1.83,1.9Z"/>
      <path class="cls-14" d="M96.46,27.55c-.12,1.04-1.14,1.91-2.27,1.95-1.13.03-1.93-.8-1.81-1.85.12-1.05,1.13-1.9,2.25-1.92,1.13-.02,1.95.79,1.83,1.83Z"/>
      <path class="cls-14" d="M103.14,27.29c-.12,1.01-1.14,1.89-2.27,1.94-1.13.06-1.93-.74-1.81-1.76.12-1.03,1.13-1.88,2.25-1.93,1.13-.04,1.95.74,1.82,1.75Z"/>
      <path class="cls-14" d="M109.83,26.9c-.12.98-1.14,1.85-2.27,1.92-1.13.08-1.93-.68-1.81-1.68.12-1,1.13-1.85,2.25-1.91,1.13-.06,1.95.68,1.82,1.66Z"/>
      <path class="cls-14" d="M116.51,26.41c-.12.95-1.14,1.8-2.27,1.89-1.13.1-1.93-.62-1.81-1.58.12-.97,1.13-1.81,2.25-1.89,1.13-.08,1.94.63,1.82,1.58Z"/>
      <path class="cls-14" d="M123.2,25.84c-.12.91-1.14,1.74-2.27,1.85-1.13.11-1.93-.56-1.81-1.49.12-.93,1.13-1.76,2.25-1.85,1.13-.09,1.94.58,1.82,1.49Z"/>
      <path class="cls-14" d="M129.88,25.19c-.12.87-1.14,1.67-2.27,1.8-1.12.12-1.93-.5-1.81-1.4.12-.89,1.13-1.7,2.25-1.8,1.13-.1,1.94.53,1.82,1.4Z"/>
      <path class="cls-14" d="M136.56,24.5c-.12.83-1.14,1.6-2.27,1.73-1.12.13-1.93-.45-1.8-1.3.12-.85,1.13-1.63,2.26-1.74,1.13-.11,1.94.48,1.82,1.31Z"/>
      <path class="cls-14" d="M143.24,23.77c-.13.78-1.15,1.52-2.27,1.66-1.12.14-1.93-.4-1.8-1.21.13-.81,1.13-1.56,2.26-1.67,1.13-.11,1.94.44,1.82,1.22Z"/>
      <path class="cls-14" d="M149.92,23.02c-.13.74-1.15,1.44-2.27,1.58-1.12.14-1.93-.36-1.8-1.13.13-.77,1.13-1.48,2.26-1.6,1.13-.11,1.94.4,1.81,1.14Z"/>
      <path class="cls-14" d="M5.83,29.61c.1.86-.64,1.46-1.64,1.34-1-.12-1.92-.9-2.03-1.75-.12-.84.62-1.45,1.65-1.35,1.02.1,1.93.89,2.02,1.75Z"/>
      <path class="cls-14" d="M11.86,30.26c.06.9-.7,1.53-1.7,1.41-1.01-.12-1.89-.93-1.98-1.81-.08-.88.68-1.51,1.71-1.41,1.03.1,1.91.91,1.97,1.81Z"/>
      <path class="cls-14" d="M17.92,30.9c.03.93-.76,1.59-1.77,1.47-1.01-.12-1.87-.95-1.92-1.86-.05-.91.74-1.57,1.77-1.47,1.03.1,1.89.93,1.92,1.85Z"/>
      <path class="cls-14" d="M24.01,31.5c0,.96-.82,1.65-1.84,1.54-1.02-.11-1.86-.96-1.88-1.9-.02-.94.8-1.63,1.84-1.54,1.04.09,1.88.94,1.88,1.9Z"/>
      <path class="cls-14" d="M30.15,32.04c-.03.99-.88,1.71-1.91,1.61-1.03-.1-1.85-.97-1.84-1.94,0-.97.86-1.69,1.91-1.6,1.04.08,1.87.94,1.84,1.93Z"/>
      <path class="cls-14" d="M36.35,32.53c-.05,1.01-.94,1.77-1.98,1.68-1.04-.09-1.85-.97-1.81-1.97.04-1,.92-1.74,1.98-1.67,1.06.07,1.87.94,1.82,1.96Z"/>
      <path class="cls-14" d="M42.64,32.93c-.08,1.04-1,1.83-2.05,1.75-1.05-.07-1.85-.97-1.79-1.99.06-1.02.98-1.8,2.04-1.74,1.07.06,1.88.94,1.8,1.98Z"/>
      <path class="cls-14" d="M49.01,33.25c-.1,1.06-1.05,1.88-2.12,1.82-1.07-.06-1.86-.96-1.78-2,.09-1.05,1.03-1.85,2.11-1.81,1.08.04,1.89.93,1.79,1.99Z"/>
      <path class="cls-14" d="M55.5,33.45c-.12,1.07-1.1,1.93-2.19,1.89-1.09-.04-1.88-.94-1.78-2,.11-1.06,1.08-1.9,2.18-1.87,1.1.03,1.91.91,1.79,1.98Z"/>
      <path class="cls-14" d="M62.1,33.54c-.13,1.09-1.14,1.97-2.26,1.96-1.11-.01-1.91-.91-1.79-1.99.12-1.08,1.12-1.94,2.24-1.93,1.12,0,1.93.88,1.8,1.97Z"/>
      <path class="cls-14" d="M68.84,33.49c-.14,1.1-1.18,2.01-2.32,2.02-1.14,0-1.94-.88-1.81-1.97.13-1.09,1.15-1.98,2.3-1.99,1.14-.01,1.97.85,1.83,1.95Z"/>
      <path class="cls-14" d="M75.65,33.47c-.14,1.1-1.14,1.87-2.3,1.9-1.16.04-1.98-.84-1.84-1.94.14-1.1,1.18-2.01,2.35-2.04,1.17-.04,1.93.98,1.79,2.08Z"/>
      <path class="cls-14" d="M82.35,33.62c-.14,1.09-1.17,1.97-2.3,1.96-1.13-.02-1.92-.93-1.78-2.03.14-1.09,1.16-1.95,2.29-1.93,1.13.02,1.93.91,1.79,1.99Z"/>
      <path class="cls-14" d="M89.04,33.57c-.14,1.07-1.17,1.97-2.3,1.99-1.13.02-1.92-.85-1.78-1.93.14-1.08,1.16-1.95,2.29-1.96,1.13-.01,1.93.84,1.79,1.91Z"/>
      <path class="cls-14" d="M95.73,33.32c-.14,1.05-1.17,1.95-2.3,2.01-1.13.06-1.92-.77-1.78-1.84.14-1.06,1.16-1.94,2.29-1.98,1.13-.04,1.93.77,1.79,1.81Z"/>
      <path class="cls-14" d="M102.41,32.91c-.14,1.02-1.17,1.92-2.3,2.01-1.13.08-1.92-.7-1.78-1.73.14-1.04,1.16-1.92,2.29-1.99,1.13-.07,1.93.7,1.79,1.71Z"/>
      <path class="cls-14" d="M109.1,32.34c-.14.98-1.17,1.88-2.3,1.99-1.13.11-1.92-.62-1.78-1.63.14-1,1.16-1.88,2.29-1.97,1.13-.09,1.93.63,1.79,1.61Z"/>
      <path class="cls-14" d="M115.78,31.65c-.14.94-1.18,1.82-2.3,1.96-1.12.13-1.92-.55-1.77-1.52.14-.97,1.16-1.84,2.29-1.95,1.12-.11,1.93.57,1.78,1.51Z"/>
      <path class="cls-14" d="M122.46,30.86c-.14.9-1.18,1.76-2.3,1.91-1.12.15-1.92-.48-1.77-1.41.14-.93,1.17-1.78,2.29-1.9,1.12-.12,1.93.5,1.78,1.41Z"/>
      <path class="cls-14" d="M129.13,29.97c-.14.86-1.18,1.69-2.3,1.85-1.12.16-1.91-.42-1.77-1.31.14-.89,1.17-1.71,2.29-1.85,1.12-.14,1.93.45,1.78,1.3Z"/>
      <path class="cls-14" d="M135.81,29.03c-.14.81-1.18,1.61-2.3,1.78-1.12.18-1.91-.36-1.77-1.2.14-.84,1.17-1.64,2.29-1.79,1.12-.15,1.92.39,1.78,1.2Z"/>
      <path class="cls-14" d="M142.49,28.04c-.15.76-1.18,1.52-2.3,1.7-1.12.18-1.91-.31-1.77-1.1.15-.79,1.17-1.56,2.29-1.71,1.12-.15,1.92.35,1.78,1.11Z"/>
      <path class="cls-14" d="M149.16,27.03c-.15.71-1.18,1.43-2.31,1.62-1.12.19-1.91-.26-1.77-1,.15-.74,1.17-1.48,2.29-1.63,1.12-.16,1.92.3,1.78,1.01Z"/>
      <path class="cls-14" d="M.57,33.53c.14.82-.52,1.37-1.5,1.21-.97-.15-1.9-.93-2.06-1.73-.17-.8.51-1.35,1.5-1.22s1.91.91,2.05,1.74Z"/>
      <path class="cls-14" d="M6.4,34.38c.11.86-.59,1.43-1.56,1.28-.97-.15-1.87-.96-2-1.8-.13-.84.57-1.41,1.57-1.28.99.13,1.88.94,1.99,1.8Z"/>
      <path class="cls-14" d="M12.24,35.23c.07.89-.66,1.5-1.63,1.34-.97-.15-1.84-.98-1.94-1.86-.09-.87.64-1.47,1.63-1.34.99.13,1.86.96,1.93,1.86Z"/>
      <path class="cls-14" d="M18.11,36.04c.04.93-.72,1.56-1.7,1.42-.98-.15-1.82-1-1.88-1.91-.06-.91.7-1.54,1.7-1.41s1.84.98,1.88,1.91Z"/>
      <path class="cls-14" d="M24.03,36.82c0,.96-.79,1.63-1.78,1.49-.99-.14-1.81-1.02-1.83-1.96-.03-.94.77-1.61,1.78-1.49,1.01.12,1.83.99,1.84,1.95Z"/>
      <path class="cls-14" d="M30,37.53c-.03.99-.86,1.7-1.86,1.57-1-.13-1.8-1.02-1.79-2,0-.97.83-1.67,1.85-1.56,1.02.11,1.82,1,1.8,1.99Z"/>
      <path class="cls-14" d="M36.05,38.17c-.05,1.02-.93,1.76-1.94,1.65-1.01-.11-1.8-1.02-1.76-2.03.04-1,.9-1.73,1.93-1.64,1.03.1,1.83,1,1.77,2.02Z"/>
      <path class="cls-14" d="M42.2,38.71c-.08,1.05-.99,1.83-2.02,1.73s-1.81-1.02-1.74-2.05c.07-1.03.96-1.8,2.01-1.72,1.05.08,1.83.99,1.75,2.04Z"/>
      <path class="cls-14" d="M48.45,39.14c-.1,1.07-1.05,1.89-2.1,1.81-1.05-.08-1.82-1-1.73-2.06.09-1.06,1.02-1.85,2.08-1.79,1.06.06,1.85.97,1.74,2.04Z"/>
      <path class="cls-14" d="M54.83,39.45c-.12,1.09-1.1,1.94-2.18,1.89-1.07-.05-1.84-.98-1.73-2.06.11-1.08,1.08-1.91,2.16-1.87,1.08.04,1.87.95,1.75,2.04Z"/>
      <path class="cls-14" d="M61.36,39.62c-.14,1.11-1.16,1.99-2.25,1.96-1.1-.03-1.87-.95-1.74-2.05.13-1.1,1.13-1.96,2.23-1.94,1.11.02,1.9.92,1.76,2.02Z"/>
      <path class="cls-14" d="M68.04,39.63c-.15,1.12-1.2,2.04-2.33,2.04-1.13,0-1.91-.91-1.77-2.02.15-1.11,1.17-2,2.31-2.01,1.13,0,1.94.88,1.79,2Z"/>
      <path class="cls-14" d="M74.83,39.61c-.16,1.12-1.17,1.92-2.33,1.96-1.16.03-1.96-.86-1.81-1.98.15-1.12,1.21-2.04,2.37-2.08,1.16-.04,1.92.99,1.76,2.11Z"/>
      <path class="cls-14" d="M81.52,39.7c-.16,1.11-1.2,2.02-2.33,2.02-1.13,0-1.91-.92-1.75-2.04.16-1.11,1.19-1.99,2.32-1.98,1.13.01,1.92.9,1.76,2Z"/>
      <path class="cls-14" d="M88.21,39.54c-.16,1.08-1.2,2.01-2.33,2.05-1.13.04-1.91-.83-1.75-1.93.16-1.1,1.19-2,2.32-2.02,1.13-.03,1.92.81,1.76,1.9Z"/>
      <path class="cls-14" d="M94.9,39.15c-.16,1.06-1.2,1.99-2.33,2.07-1.13.08-1.91-.74-1.75-1.81.16-1.07,1.19-1.98,2.32-2.05,1.13-.06,1.92.73,1.76,1.79Z"/>
      <path class="cls-14" d="M101.58,38.56c-.16,1.02-1.2,1.96-2.33,2.07-1.13.12-1.91-.65-1.75-1.69.16-1.04,1.19-1.96,2.32-2.05,1.13-.1,1.91.65,1.76,1.67Z"/>
      <path class="cls-14" d="M108.26,37.8c-.16.99-1.2,1.91-2.33,2.06-1.12.15-1.9-.56-1.75-1.57.16-1.01,1.19-1.92,2.32-2.04,1.12-.12,1.91.57,1.75,1.55Z"/>
      <path class="cls-14" d="M114.94,36.88c-.16.94-1.2,1.85-2.33,2.02-1.12.17-1.9-.48-1.74-1.45.16-.97,1.19-1.87,2.32-2.01,1.12-.15,1.91.5,1.75,1.44Z"/>
      <path class="cls-14" d="M121.62,35.84c-.16.9-1.2,1.78-2.33,1.98-1.12.19-1.9-.4-1.74-1.33.16-.93,1.2-1.8,2.32-1.97,1.12-.17,1.91.42,1.75,1.32Z"/>
      <path class="cls-14" d="M128.29,34.7c-.16.85-1.21,1.71-2.33,1.92-1.12.21-1.9-.33-1.74-1.21.16-.88,1.2-1.73,2.32-1.91,1.12-.18,1.91.36,1.75,1.21Z"/>
      <path class="cls-14" d="M134.96,33.48c-.16.8-1.21,1.62-2.33,1.85-1.12.22-1.9-.27-1.74-1.09.16-.83,1.2-1.65,2.32-1.85,1.12-.19,1.91.3,1.75,1.1Z"/>
      <path class="cls-14" d="M141.63,32.21c-.16.74-1.21,1.53-2.33,1.76-1.12.23-1.9-.21-1.74-.98.16-.78,1.2-1.57,2.32-1.77,1.12-.2,1.91.25,1.75.99Z"/>
      <path class="cls-14" d="M148.31,30.92c-.16.69-1.21,1.44-2.33,1.67-1.12.23-1.9-.16-1.74-.88.16-.72,1.2-1.48,2.32-1.68,1.12-.2,1.91.2,1.74.89Z"/>
      <path class="cls-14" d="M154.98,29.62c-.16.64-1.21,1.34-2.33,1.57-1.12.23-1.9-.11-1.73-.78.16-.67,1.2-1.38,2.33-1.58s1.91.16,1.74.8Z"/>
      <path class="cls-14" d="M1.4,38.08c.15.82-.48,1.33-1.41,1.14-.94-.19-1.84-.98-2.02-1.78-.18-.8.46-1.31,1.42-1.14.96.17,1.86.97,2.02,1.78Z"/>
      <path class="cls-14" d="M7.03,39.13c.12.86-.54,1.4-1.48,1.21-.94-.19-1.81-1.02-1.95-1.85-.14-.83.53-1.37,1.49-1.21.96.17,1.83,1,1.95,1.85Z"/>
      <path class="cls-14" d="M12.67,40.18c.08.89-.62,1.47-1.55,1.28-.94-.19-1.79-1.04-1.89-1.91-.1-.87.59-1.44,1.56-1.28.96.16,1.81,1.02,1.89,1.91Z"/>
      <path class="cls-14" d="M18.34,41.19c.04.93-.69,1.54-1.63,1.36-.95-.18-1.77-1.06-1.83-1.97-.07-.91.66-1.51,1.63-1.35.97.16,1.79,1.04,1.83,1.97Z"/>
      <path class="cls-14" d="M24.07,42.15c0,.96-.76,1.61-1.72,1.44-.96-.17-1.75-1.08-1.78-2.02-.03-.94.74-1.58,1.71-1.43.98.15,1.78,1.05,1.79,2.01Z"/>
      <path class="cls-14" d="M29.86,43.04c-.02,1-.83,1.68-1.8,1.52-.97-.16-1.75-1.08-1.74-2.06,0-.98.81-1.65,1.79-1.51.99.14,1.77,1.05,1.75,2.05Z"/>
      <path class="cls-14" d="M35.74,43.84c-.06,1.03-.9,1.75-1.89,1.61-.98-.14-1.75-1.08-1.71-2.09.04-1.01.88-1.72,1.88-1.6,1,.12,1.78,1.05,1.72,2.08Z"/>
      <path class="cls-14" d="M41.74,44.54c-.08,1.06-.97,1.82-1.98,1.7-1-.12-1.76-1.07-1.69-2.11.07-1.04.94-1.79,1.96-1.68,1.02.1,1.79,1.04,1.7,2.09Z"/>
      <path class="cls-14" d="M47.85,45.11c-.11,1.08-1.04,1.89-2.07,1.79-1.03-.1-1.78-1.05-1.68-2.12.09-1.07,1.01-1.85,2.05-1.77,1.04.08,1.81,1.02,1.7,2.1Z"/>
      <path class="cls-14" d="M54.12,45.53c-.13,1.1-1.1,1.95-2.16,1.88-1.05-.07-1.8-1.03-1.68-2.12.12-1.09,1.07-1.92,2.14-1.86,1.07.06,1.83.99,1.7,2.1Z"/>
      <path class="cls-14" d="M60.55,45.79c-.15,1.12-1.16,2.01-2.24,1.96-1.08-.04-1.84-.99-1.7-2.1.14-1.11,1.13-1.97,2.22-1.94,1.09.03,1.87.96,1.72,2.08Z"/>
      <path class="cls-14" d="M67.17,45.86c-.16,1.13-1.21,2.06-2.33,2.05-1.12-.01-1.88-.94-1.73-2.07.16-1.13,1.18-2.02,2.3-2.02,1.12,0,1.92.91,1.75,2.04Z"/>
      <path class="cls-14" d="M73.93,45.86c-.17,1.14-1.2,1.98-2.35,2-1.15.03-1.94-.89-1.77-2.03.17-1.14,1.23-2.07,2.38-2.1,1.16-.03,1.91.99,1.74,2.12Z"/>
      <path class="cls-14" d="M80.62,45.86c-.17,1.12-1.22,2.06-2.35,2.07-1.13.02-1.9-.91-1.73-2.04.17-1.13,1.22-2.03,2.34-2.04,1.13,0,1.91.88,1.74,2Z"/>
      <path class="cls-14" d="M87.31,45.58c-.17,1.09-1.22,2.05-2.35,2.12-1.13.07-1.9-.8-1.73-1.91.17-1.11,1.22-2.04,2.34-2.09,1.13-.05,1.9.78,1.74,1.88Z"/>
      <path class="cls-14" d="M93.99,45.03c-.17,1.06-1.22,2.03-2.35,2.14-1.13.11-1.9-.69-1.73-1.78.17-1.08,1.22-2.02,2.34-2.11,1.13-.09,1.9.69,1.73,1.75Z"/>
      <path class="cls-14" d="M100.67,44.24c-.17,1.03-1.22,1.99-2.35,2.15-1.12.15-1.89-.59-1.72-1.64.17-1.05,1.22-1.99,2.34-2.12,1.12-.13,1.9.59,1.73,1.62Z"/>
      <path class="cls-14" d="M107.35,43.26c-.17.99-1.22,1.95-2.35,2.13-1.12.19-1.89-.5-1.72-1.51.17-1.01,1.22-1.95,2.34-2.11,1.12-.16,1.9.5,1.73,1.49Z"/>
      <path class="cls-14" d="M114.02,42.1c-.17.94-1.23,1.89-2.35,2.1-1.12.22-1.89-.4-1.72-1.37.17-.97,1.22-1.9,2.34-2.09,1.12-.19,1.9.42,1.73,1.36Z"/>
      <path class="cls-14" d="M120.69,40.79c-.17.89-1.23,1.81-2.35,2.05-1.12.24-1.89-.32-1.72-1.24.17-.92,1.22-1.83,2.34-2.04,1.12-.21,1.9.34,1.72,1.23Z"/>
      <path class="cls-14" d="M127.36,39.37c-.17.84-1.23,1.73-2.35,1.99-1.12.26-1.89-.24-1.72-1.11.17-.87,1.22-1.76,2.34-1.99,1.12-.23,1.9.27,1.72,1.11Z"/>
      <path class="cls-14" d="M134.03,37.86c-.17.79-1.23,1.64-2.35,1.92-1.12.27-1.89-.17-1.71-.99.17-.82,1.22-1.68,2.34-1.92,1.12-.24,1.9.2,1.72.99Z"/>
      <path class="cls-14" d="M140.7,36.29c-.18.73-1.23,1.55-2.35,1.83-1.12.28-1.89-.11-1.71-.87.17-.76,1.22-1.59,2.35-1.83,1.12-.25,1.89.14,1.72.87Z"/>
      <path class="cls-14" d="M147.36,34.69c-.18.67-1.23,1.45-2.35,1.73-1.12.29-1.89-.05-1.71-.76.18-.71,1.22-1.49,2.35-1.74,1.12-.25,1.89.09,1.72.77Z"/>
      <path class="cls-14" d="M154.03,33.09c-.18.62-1.23,1.34-2.36,1.63-1.12.29-1.89,0-1.71-.66.18-.65,1.23-1.39,2.35-1.64,1.12-.25,1.89.05,1.72.67Z"/>
      <path class="cls-14" d="M2.28,42.6c.16.81-.43,1.29-1.33,1.07-.9-.22-1.79-1.04-1.97-1.83-.19-.79.41-1.27,1.34-1.07s1.8,1.02,1.97,1.84Z"/>
      <path class="cls-14" d="M7.7,43.86c.12.85-.5,1.36-1.4,1.14-.9-.22-1.75-1.08-1.9-1.91-.15-.83.48-1.34,1.41-1.14.92.2,1.77,1.06,1.9,1.91Z"/>
      <path class="cls-14" d="M13.13,45.12c.09.89-.58,1.43-1.48,1.21-.9-.22-1.72-1.11-1.83-1.97-.11-.87.55-1.41,1.48-1.21.93.2,1.75,1.08,1.83,1.97Z"/>
      <path class="cls-14" d="M18.6,46.33c.05.93-.65,1.51-1.56,1.3-.91-.21-1.7-1.13-1.78-2.03-.07-.91.63-1.48,1.56-1.29.93.19,1.73,1.1,1.78,2.03Z"/>
      <path class="cls-14" d="M24.12,47.49c.01.96-.73,1.59-1.65,1.38-.92-.2-1.69-1.14-1.73-2.08-.03-.94.7-1.56,1.65-1.37.94.18,1.72,1.11,1.73,2.07Z"/>
      <path class="cls-14" d="M29.73,48.57c-.02,1-.81,1.66-1.74,1.47-.94-.19-1.69-1.14-1.69-2.12,0-.98.78-1.63,1.73-1.46.96.17,1.72,1.11,1.69,2.11Z"/>
      <path class="cls-14" d="M35.43,49.55c-.06,1.03-.88,1.74-1.84,1.57-.95-.17-1.69-1.14-1.66-2.15.04-1.01.85-1.7,1.83-1.55.97.15,1.72,1.1,1.67,2.14Z"/>
      <path class="cls-14" d="M41.26,50.41c-.09,1.06-.96,1.81-1.93,1.66-.98-.15-1.71-1.12-1.64-2.17.07-1.04.92-1.78,1.92-1.65.99.13,1.74,1.09,1.65,2.15Z"/>
      <path class="cls-14" d="M47.24,51.12c-.11,1.09-1.03,1.88-2.03,1.76-1-.12-1.73-1.1-1.63-2.17.1-1.07.99-1.85,2.01-1.74,1.02.11,1.76,1.07,1.65,2.16Z"/>
      <path class="cls-14" d="M53.38,51.67c-.14,1.11-1.1,1.95-2.13,1.86-1.03-.09-1.76-1.07-1.64-2.17.12-1.1,1.06-1.91,2.11-1.83,1.05.08,1.79,1.04,1.66,2.15Z"/>
      <path class="cls-14" d="M59.7,52.03c-.16,1.13-1.16,2.01-2.23,1.95-1.07-.06-1.8-1.03-1.66-2.15.14-1.12,1.13-1.98,2.2-1.93,1.08.05,1.84.99,1.68,2.12Z"/>
      <path class="cls-14" d="M66.24,52.18c-.17,1.15-1.22,2.07-2.32,2.05-1.1-.02-1.85-.98-1.69-2.11.16-1.14,1.18-2.04,2.3-2.02,1.11.01,1.89.94,1.72,2.09Z"/>
      <path class="cls-14" d="M72.97,52.19c-.18,1.15-1.22,2.03-2.37,2.05-1.15.02-1.92-.91-1.74-2.06.18-1.15,1.24-2.09,2.39-2.11,1.15-.02,1.9.98,1.72,2.13Z"/>
      <path class="cls-14" d="M79.66,52.09c-.18,1.13-1.24,2.09-2.36,2.13-1.13.03-1.89-.88-1.71-2.02.18-1.14,1.23-2.07,2.36-2.09,1.13-.02,1.9.86,1.72,1.99Z"/>
      <path class="cls-14" d="M86.34,51.67c-.18,1.1-1.24,2.09-2.36,2.18-1.13.09-1.89-.76-1.71-1.88.18-1.12,1.23-2.07,2.36-2.15,1.13-.07,1.9.74,1.72,1.85Z"/>
      <path class="cls-14" d="M93.02,50.94c-.18,1.07-1.24,2.07-2.36,2.21s-1.89-.64-1.71-1.73c.18-1.09,1.23-2.06,2.36-2.18,1.12-.12,1.89.63,1.71,1.7Z"/>
      <path class="cls-14" d="M99.7,49.95c-.18,1.03-1.24,2.03-2.36,2.22-1.12.19-1.89-.53-1.71-1.59.18-1.06,1.23-2.03,2.36-2.19,1.12-.16,1.89.53,1.71,1.56Z"/>
      <path class="cls-14" d="M106.37,48.73c-.18.99-1.24,1.98-2.36,2.21-1.12.23-1.89-.42-1.71-1.44.18-1.01,1.24-1.99,2.36-2.19,1.12-.2,1.89.43,1.71,1.42Z"/>
      <path class="cls-14" d="M113.04,47.31c-.18.94-1.24,1.92-2.36,2.18-1.12.26-1.88-.32-1.7-1.29.18-.97,1.24-1.93,2.36-2.16,1.12-.23,1.89.34,1.71,1.28Z"/>
      <path class="cls-14" d="M119.71,45.72c-.18.89-1.24,1.85-2.36,2.14-1.12.29-1.88-.23-1.7-1.15.18-.92,1.24-1.87,2.36-2.12,1.12-.26,1.89.25,1.71,1.14Z"/>
      <path class="cls-14" d="M126.37,44.01c-.18.83-1.24,1.76-2.37,2.07-1.12.31-1.88-.15-1.7-1.01.18-.87,1.24-1.79,2.36-2.07,1.12-.28,1.89.17,1.7,1.01Z"/>
      <path class="cls-14" d="M133.04,42.19c-.18.78-1.24,1.67-2.37,2-1.12.33-1.88-.07-1.7-.88.18-.81,1.24-1.7,2.36-2,1.12-.29,1.89.1,1.7.88Z"/>
      <path class="cls-14" d="M139.7,40.3c-.19.72-1.25,1.57-2.37,1.91-1.12.34-1.88,0-1.69-.76.18-.75,1.24-1.61,2.36-1.91,1.12-.3,1.88.04,1.7.76Z"/>
      <path class="cls-14" d="M146.36,38.38c-.19.66-1.25,1.47-2.37,1.81-1.12.34-1.88.06-1.69-.64.19-.7,1.24-1.51,2.36-1.82,1.12-.31,1.88-.02,1.7.65Z"/>
      <path class="cls-14" d="M153.02,36.47c-.19.6-1.25,1.36-2.37,1.7-1.12.34-1.88.1-1.69-.53.19-.64,1.24-1.41,2.37-1.71,1.12-.3,1.88-.06,1.7.54Z"/>
      <path class="cls-14" d="M3.2,47.1c.17.81-.39,1.26-1.26.99-.86-.26-1.72-1.11-1.92-1.9-.19-.79.37-1.23,1.26-1,.89.24,1.74,1.09,1.91,1.9Z"/>
      <path class="cls-14" d="M8.4,48.58c.13.85-.47,1.33-1.33,1.07-.86-.26-1.69-1.14-1.84-1.97-.15-.83.44-1.3,1.33-1.07.89.24,1.71,1.12,1.84,1.97Z"/>
      <path class="cls-14" d="M13.62,50.05c.09.89-.54,1.4-1.41,1.15-.87-.26-1.66-1.17-1.77-2.04-.11-.87.52-1.38,1.41-1.14.89.23,1.69,1.14,1.78,2.03Z"/>
      <path class="cls-14" d="M18.87,51.48c.05.93-.62,1.48-1.49,1.23-.87-.25-1.64-1.19-1.72-2.1-.07-.91.59-1.45,1.49-1.23.9.23,1.67,1.16,1.72,2.09Z"/>
      <path class="cls-14" d="M24.19,52.84c.01.97-.7,1.56-1.59,1.32-.89-.24-1.63-1.2-1.67-2.14-.04-.94.67-1.53,1.58-1.31.91.22,1.66,1.17,1.67,2.14Z"/>
      <path class="cls-14" d="M29.6,54.11c-.02,1-.78,1.64-1.68,1.42-.9-.22-1.63-1.2-1.63-2.18,0-.98.75-1.61,1.67-1.41.92.2,1.66,1.17,1.64,2.17Z"/>
      <path class="cls-14" d="M35.12,55.28c-.06,1.04-.86,1.72-1.78,1.52-.92-.2-1.64-1.19-1.6-2.21.04-1.02.83-1.68,1.77-1.5.94.18,1.67,1.16,1.61,2.2Z"/>
      <path class="cls-14" d="M40.78,56.3c-.09,1.07-.94,1.8-1.88,1.62-.95-.18-1.65-1.18-1.58-2.23.07-1.05.9-1.76,1.87-1.6.97.16,1.69,1.14,1.6,2.21Z"/>
      <path class="cls-14" d="M46.6,57.17c-.12,1.09-1.01,1.87-1.99,1.72-.98-.15-1.68-1.15-1.58-2.23.1-1.08.98-1.83,1.97-1.7.99.13,1.71,1.12,1.6,2.21Z"/>
      <path class="cls-14" d="M52.61,57.85c-.14,1.12-1.08,1.94-2.1,1.83-1.01-.12-1.72-1.11-1.59-2.22.13-1.1,1.05-1.91,2.07-1.81,1.03.1,1.75,1.08,1.61,2.2Z"/>
      <path class="cls-14" d="M58.83,58.32c-.16,1.14-1.15,2.01-2.2,1.93-1.05-.08-1.77-1.07-1.62-2.19.15-1.13,1.12-1.97,2.18-1.91,1.06.07,1.8,1.03,1.64,2.17Z"/>
      <path class="cls-14" d="M65.28,58.55c-.18,1.15-1.22,2.07-2.31,2.04-1.09-.04-1.83-1.01-1.66-2.15.17-1.14,1.18-2.04,2.28-2.01,1.1.03,1.86.97,1.68,2.12Z"/>
      <path class="cls-14" d="M71.96,58.58c-.18,1.16-1.24,2.08-2.38,2.09-1.14,0-1.9-.94-1.72-2.09.18-1.16,1.24-2.1,2.38-2.11,1.14-.02,1.89.96,1.71,2.12Z"/>
      <path class="cls-14" d="M78.65,58.37c-.18,1.14-1.25,2.12-2.37,2.18-1.13.05-1.89-.85-1.7-2,.18-1.15,1.25-2.1,2.37-2.14,1.13-.04,1.89.83,1.71,1.96Z"/>
      <path class="cls-14" d="M85.33,57.79c-.19,1.11-1.25,2.12-2.37,2.24-1.12.12-1.89-.72-1.7-1.84.18-1.13,1.25-2.1,2.37-2.2,1.13-.1,1.89.7,1.7,1.81Z"/>
      <path class="cls-14" d="M92.01,56.88c-.19,1.07-1.25,2.1-2.37,2.28-1.12.17-1.88-.59-1.7-1.68.19-1.1,1.25-2.09,2.37-2.25,1.12-.15,1.89.58,1.7,1.65Z"/>
      <path class="cls-14" d="M98.68,55.67c-.19,1.03-1.25,2.07-2.37,2.29-1.12.23-1.88-.46-1.7-1.52.19-1.06,1.25-2.07,2.37-2.27,1.12-.2,1.88.46,1.7,1.5Z"/>
      <path class="cls-14" d="M105.35,54.2c-.19.99-1.25,2.02-2.37,2.29-1.12.27-1.88-.35-1.69-1.36.19-1.02,1.25-2.03,2.37-2.27,1.12-.24,1.88.35,1.7,1.34Z"/>
      <path class="cls-14" d="M112.02,52.51c-.19.94-1.25,1.96-2.37,2.26-1.12.31-1.88-.24-1.69-1.21.19-.97,1.25-1.97,2.37-2.25,1.12-.28,1.88.25,1.69,1.19Z"/>
      <path class="cls-14" d="M118.68,50.64c-.19.89-1.25,1.89-2.37,2.22-1.12.34-1.88-.14-1.69-1.06.19-.92,1.25-1.9,2.37-2.21,1.12-.31,1.88.16,1.69,1.05Z"/>
      <path class="cls-14" d="M125.34,48.61c-.19.83-1.25,1.8-2.37,2.16-1.12.36-1.88-.05-1.69-.91.19-.86,1.25-1.83,2.37-2.15,1.12-.33,1.88.07,1.69.9Z"/>
      <path class="cls-14" d="M132,46.48c-.19.77-1.25,1.71-2.38,2.09-1.12.38-1.87.03-1.68-.78.19-.81,1.25-1.74,2.37-2.08,1.12-.35,1.88,0,1.69.77Z"/>
      <path class="cls-14" d="M138.65,44.27c-.19.71-1.26,1.61-2.38,2-1.12.39-1.87.1-1.68-.65.19-.75,1.25-1.64,2.37-2,1.12-.36,1.88-.07,1.68.64Z"/>
      <path class="cls-14" d="M145.31,42.02c-.19.65-1.26,1.5-2.38,1.9-1.12.4-1.87.16-1.68-.53.19-.69,1.25-1.54,2.38-1.9,1.12-.36,1.88-.12,1.68.53Z"/>
      <path class="cls-14" d="M151.97,39.77c-.19.59-1.26,1.39-2.38,1.79-1.12.4-1.87.21-1.68-.42.19-.63,1.26-1.43,2.38-1.79,1.12-.36,1.87-.17,1.68.42Z"/>
      <path class="cls-14" d="M4.15,51.59c.17.81-.36,1.22-1.18.92-.83-.3-1.66-1.18-1.85-1.96-.2-.79.34-1.2,1.19-.93.85.27,1.68,1.15,1.85,1.96Z"/>
      <path class="cls-14" d="M9.12,53.29c.13.85-.43,1.3-1.26,1-.83-.3-1.62-1.21-1.78-2.04-.16-.83.41-1.27,1.26-1,.85.27,1.65,1.19,1.78,2.04Z"/>
      <path class="cls-14" d="M14.12,54.98c.09.89-.51,1.37-1.34,1.08-.83-.3-1.59-1.24-1.71-2.1-.12-.87.48-1.35,1.34-1.07.85.27,1.62,1.21,1.71,2.1Z"/>
      <path class="cls-14" d="M19.15,56.62c.05.93-.59,1.45-1.43,1.17-.84-.29-1.58-1.26-1.65-2.16-.08-.9.56-1.42,1.42-1.16.86.26,1.61,1.23,1.66,2.15Z"/>
      <path class="cls-14" d="M24.26,58.19c.01.97-.67,1.53-1.52,1.26-.85-.27-1.57-1.26-1.6-2.21-.04-.94.64-1.5,1.51-1.25.87.25,1.6,1.23,1.61,2.2Z"/>
      <path class="cls-14" d="M29.47,59.67c-.02,1-.75,1.61-1.62,1.36-.87-.26-1.57-1.26-1.57-2.24,0-.98.72-1.58,1.61-1.35.89.23,1.6,1.23,1.58,2.23Z"/>
      <path class="cls-14" d="M34.8,61.02c-.06,1.04-.83,1.7-1.73,1.46-.89-.23-1.58-1.25-1.54-2.27.04-1.02.8-1.66,1.71-1.45.91.21,1.61,1.22,1.56,2.26Z"/>
      <path class="cls-14" d="M40.29,62.22c-.09,1.07-.91,1.78-1.83,1.57-.92-.21-1.6-1.23-1.53-2.28.07-1.05.88-1.74,1.82-1.55.94.19,1.64,1.2,1.55,2.26Z"/>
      <path class="cls-14" d="M45.95,63.24c-.12,1.1-.99,1.85-1.95,1.68-.95-.17-1.63-1.2-1.53-2.28.1-1.08.96-1.82,1.93-1.66.97.16,1.67,1.16,1.55,2.26Z"/>
      <path class="cls-14" d="M51.82,64.05c-.14,1.12-1.07,1.93-2.06,1.79-.99-.14-1.68-1.16-1.55-2.26.13-1.11,1.03-1.89,2.04-1.77,1,.12,1.71,1.12,1.57,2.24Z"/>
      <path class="cls-14" d="M57.93,64.63c-.16,1.14-1.14,2-2.17,1.91-1.03-.1-1.73-1.1-1.58-2.23.15-1.13,1.11-1.97,2.15-1.88,1.04.08,1.77,1.07,1.6,2.21Z"/>
      <path class="cls-14" d="M64.3,64.96c-.18,1.16-1.21,2.07-2.29,2.02-1.08-.05-1.8-1.04-1.63-2.18.17-1.15,1.17-2.03,2.26-1.99,1.09.04,1.83,1,1.65,2.16Z"/>
      <path class="cls-14" d="M70.93,65c-.19,1.16-1.25,2.12-2.38,2.12-1.13,0-1.88-.96-1.69-2.12.18-1.16,1.24-2.1,2.37-2.1,1.13,0,1.89.94,1.7,2.1Z"/>
      <path class="cls-14" d="M77.62,64.68c-.19,1.14-1.25,2.14-2.38,2.22-1.13.08-1.89-.82-1.7-1.97.19-1.15,1.25-2.12,2.38-2.18,1.13-.06,1.89.79,1.7,1.93Z"/>
      <path class="cls-14" d="M84.3,63.94c-.19,1.11-1.25,2.15-2.38,2.29-1.12.15-1.88-.67-1.7-1.8.19-1.13,1.25-2.13,2.38-2.26,1.12-.13,1.88.65,1.7,1.76Z"/>
      <path class="cls-14" d="M90.97,62.83c-.19,1.08-1.25,2.13-2.38,2.34-1.12.21-1.88-.53-1.69-1.63.19-1.1,1.25-2.12,2.38-2.31,1.12-.19,1.88.52,1.69,1.59Z"/>
      <path class="cls-14" d="M97.64,61.4c-.19,1.03-1.25,2.1-2.38,2.37-1.12.26-1.88-.4-1.69-1.46.19-1.06,1.25-2.1,2.37-2.34,1.12-.24,1.88.39,1.69,1.43Z"/>
      <path class="cls-14" d="M104.31,59.68c-.19.99-1.25,2.06-2.38,2.37-1.12.31-1.88-.27-1.69-1.29.19-1.02,1.25-2.06,2.38-2.34,1.12-.28,1.88.28,1.69,1.26Z"/>
      <path class="cls-14" d="M110.97,57.71c-.19.94-1.25,2-2.38,2.35-1.12.35-1.88-.16-1.69-1.12.19-.97,1.25-2.01,2.38-2.33,1.12-.32,1.88.17,1.69,1.1Z"/>
      <path class="cls-14" d="M117.62,55.54c-.19.88-1.26,1.93-2.38,2.31-1.12.39-1.87-.05-1.68-.97.19-.92,1.25-1.94,2.38-2.3,1.12-.36,1.87.07,1.68.95Z"/>
      <path class="cls-14" d="M124.28,53.21c-.19.83-1.26,1.84-2.38,2.26-1.12.42-1.87.05-1.68-.82.19-.86,1.26-1.87,2.38-2.25,1.12-.38,1.87-.02,1.68.8Z"/>
      <path class="cls-14" d="M130.93,50.75c-.19.77-1.26,1.75-2.38,2.19-1.12.44-1.87.13-1.68-.67.19-.81,1.26-1.78,2.38-2.18,1.12-.4,1.87-.1,1.68.67Z"/>
      <path class="cls-14" d="M137.58,48.2c-.19.71-1.26,1.65-2.38,2.1-1.12.45-1.87.21-1.68-.54.19-.75,1.26-1.68,2.38-2.09,1.12-.41,1.87-.17,1.68.54Z"/>
      <path class="cls-14" d="M144.23,45.62c-.2.65-1.26,1.54-2.38,2-1.12.45-1.87.27-1.67-.42.19-.69,1.26-1.58,2.38-2,1.12-.42,1.87-.23,1.67.42Z"/>
      <path class="cls-14" d="M150.89,43.03c-.2.59-1.26,1.43-2.38,1.88-1.12.45-1.87.32-1.67-.31.2-.62,1.26-1.47,2.38-1.89,1.12-.42,1.87-.28,1.67.31Z"/>
      <path class="cls-14" d="M.33,54.16c.21.77-.26,1.13-1.05.8-.79-.33-1.63-1.2-1.87-1.95-.24-.75.24-1.1,1.06-.8.82.31,1.65,1.18,1.86,1.95Z"/>
      <path class="cls-14" d="M5.1,56.07c.17.81-.33,1.19-1.12.86-.79-.34-1.59-1.24-1.78-2.03-.2-.79.31-1.17,1.12-.86.81.31,1.61,1.22,1.78,2.03Z"/>
      <path class="cls-14" d="M9.85,58c.13.85-.4,1.27-1.19.93-.79-.34-1.55-1.28-1.71-2.1-.16-.83.38-1.24,1.19-.93.81.31,1.58,1.25,1.71,2.1Z"/>
      <path class="cls-14" d="M14.62,59.91c.09.89-.48,1.34-1.27,1.01-.79-.33-1.53-1.31-1.64-2.17-.12-.87.45-1.32,1.27-1.01.82.31,1.55,1.28,1.64,2.17Z"/>
      <path class="cls-14" d="M19.44,61.77c.05.93-.56,1.42-1.36,1.1-.8-.32-1.51-1.32-1.58-2.23-.08-.9.53-1.39,1.36-1.09.83.3,1.54,1.29,1.59,2.22Z"/>
      <path class="cls-14" d="M24.34,63.55c.01.97-.64,1.5-1.46,1.2-.82-.31-1.5-1.33-1.54-2.27-.04-.94.61-1.47,1.45-1.19.84.29,1.53,1.3,1.55,2.26Z"/>
      <path class="cls-14" d="M29.34,65.22c-.02,1-.73,1.59-1.56,1.3-.84-.29-1.51-1.32-1.51-2.3,0-.98.69-1.55,1.55-1.29.86.27,1.54,1.29,1.52,2.29Z"/>
      <path class="cls-14" d="M34.48,66.76c-.06,1.04-.81,1.67-1.67,1.41-.86-.26-1.52-1.31-1.48-2.33.04-1.02.77-1.64,1.65-1.39.88.24,1.56,1.27,1.5,2.31Z"/>
      <path class="cls-14" d="M39.79,68.13c-.09,1.07-.89,1.75-1.78,1.52-.89-.23-1.55-1.28-1.48-2.33.07-1.05.86-1.72,1.76-1.5.91.22,1.58,1.25,1.49,2.32Z"/>
      <path class="cls-14" d="M45.3,69.31c-.12,1.1-.97,1.83-1.9,1.63-.93-.2-1.59-1.25-1.48-2.32.1-1.08.94-1.8,1.88-1.61.94.18,1.62,1.21,1.5,2.31Z"/>
      <path class="cls-14" d="M51.04,70.26c-.14,1.12-1.05,1.91-2.02,1.75-.97-.16-1.63-1.2-1.51-2.3.13-1.11,1.01-1.87,2-1.73.98.15,1.67,1.16,1.53,2.28Z"/>
      <path class="cls-14" d="M57.03,70.96c-.16,1.14-1.13,1.99-2.14,1.87-1.01-.11-1.7-1.13-1.55-2.26.15-1.13,1.09-1.95,2.11-1.85,1.02.1,1.73,1.1,1.57,2.24Z"/>
      <path class="cls-14" d="M63.3,71.37c-.18,1.16-1.2,2.06-2.26,1.99-1.06-.06-1.77-1.06-1.6-2.21.17-1.15,1.16-2.02,2.23-1.97,1.07.06,1.81,1.02,1.63,2.18Z"/>
      <path class="cls-14" d="M69.89,71.43c-.19,1.16-1.26,2.16-2.38,2.15-1.12,0-1.86-.97-1.68-2.13.18-1.16,1.23-2.09,2.35-2.08,1.12,0,1.89.91,1.7,2.07Z"/>
      <path class="cls-14" d="M76.58,70.99c-.19,1.14-1.25,2.16-2.38,2.26-1.13.1-1.89-.78-1.7-1.93.19-1.15,1.25-2.13,2.38-2.22,1.13-.08,1.89.75,1.7,1.89Z"/>
      <path class="cls-14" d="M83.26,70.09c-.19,1.11-1.25,2.17-2.37,2.34-1.12.17-1.88-.62-1.7-1.75.19-1.13,1.25-2.15,2.38-2.31,1.12-.16,1.88.6,1.7,1.71Z"/>
      <path class="cls-14" d="M89.93,68.79c-.19,1.08-1.25,2.16-2.37,2.4-1.12.24-1.88-.47-1.69-1.57.19-1.1,1.25-2.15,2.37-2.37,1.12-.22,1.88.46,1.69,1.53Z"/>
      <path class="cls-14" d="M96.59,67.13c-.19,1.03-1.25,2.13-2.37,2.44-1.12.3-1.88-.33-1.69-1.39.19-1.06,1.25-2.13,2.37-2.41,1.12-.28,1.88.32,1.69,1.36Z"/>
      <path class="cls-14" d="M103.25,65.16c-.19.99-1.25,2.09-2.37,2.45-1.12.36-1.88-.19-1.69-1.21.19-1.02,1.25-2.09,2.37-2.42,1.12-.33,1.88.2,1.69,1.18Z"/>
      <path class="cls-14" d="M109.91,62.91c-.19.94-1.25,2.04-2.37,2.44-1.12.4-1.88-.07-1.69-1.04.19-.97,1.25-2.05,2.37-2.42,1.12-.37,1.87.08,1.68,1.02Z"/>
      <path class="cls-14" d="M116.56,60.45c-.19.89-1.25,1.97-2.37,2.41-1.12.44-1.87.04-1.68-.88.19-.92,1.25-1.98,2.37-2.39,1.12-.41,1.87-.03,1.68.86Z"/>
      <path class="cls-14" d="M123.21,57.8c-.19.83-1.25,1.89-2.37,2.36-1.12.47-1.87.14-1.68-.72.19-.86,1.26-1.91,2.38-2.34,1.12-.43,1.87-.12,1.68.71Z"/>
      <path class="cls-14" d="M129.86,55.01c-.19.77-1.26,1.8-2.37,2.29-1.12.49-1.87.23-1.68-.58.19-.81,1.26-1.82,2.38-2.28,1.12-.45,1.87-.2,1.68.57Z"/>
      <path class="cls-14" d="M136.51,52.13c-.19.71-1.26,1.7-2.38,2.2-1.12.51-1.87.31-1.68-.44.19-.75,1.26-1.73,2.38-2.2,1.12-.47,1.87-.28,1.68.43Z"/>
      <path class="cls-14" d="M143.15,49.21c-.19.65-1.26,1.59-2.38,2.1-1.12.51-1.87.37-1.67-.32.19-.69,1.26-1.63,2.38-2.1,1.12-.47,1.87-.33,1.67.31Z"/>
      <path class="cls-14" d="M149.8,46.29c-.2.59-1.26,1.48-2.38,1.99-1.12.51-1.87.42-1.67-.21.2-.63,1.26-1.52,2.38-1.99,1.12-.47,1.87-.38,1.67.21Z"/>
      <path class="cls-14" d="M1.5,58.43c.21.77-.24,1.1-1,.73-.76-.37-1.56-1.27-1.79-2.02-.23-.75.22-1.08,1-.74.78.34,1.58,1.25,1.79,2.02Z"/>
      <path class="cls-14" d="M6.04,60.57c.17.81-.31,1.17-1.06.79-.75-.37-1.52-1.31-1.71-2.1-.19-.79.28-1.14,1.06-.8.78.35,1.54,1.29,1.71,2.1Z"/>
      <path class="cls-14" d="M10.57,62.71c.13.85-.38,1.24-1.13.87-.75-.37-1.48-1.35-1.63-2.17-.15-.83.35-1.21,1.13-.86.77.35,1.51,1.32,1.64,2.17Z"/>
      <path class="cls-14" d="M15.12,64.84c.09.89-.46,1.32-1.21.95-.76-.37-1.46-1.37-1.57-2.24-.11-.87.43-1.29,1.2-.94.78.35,1.49,1.34,1.57,2.23Z"/>
      <path class="cls-14" d="M19.72,66.91c.05.93-.53,1.39-1.3,1.04s-1.44-1.39-1.51-2.29c-.07-.91.5-1.36,1.29-1.03.79.34,1.47,1.36,1.52,2.29Z"/>
      <path class="cls-14" d="M24.41,68.9c.01.97-.62,1.48-1.4,1.13-.78-.34-1.44-1.39-1.47-2.33-.04-.94.58-1.44,1.39-1.12.8.32,1.47,1.36,1.48,2.32Z"/>
      <path class="cls-14" d="M29.21,70.78c-.02,1-.7,1.56-1.5,1.24-.8-.32-1.45-1.38-1.44-2.36,0-.98.66-1.52,1.49-1.22.82.3,1.48,1.35,1.46,2.35Z"/>
      <path class="cls-14" d="M34.17,72.5c-.06,1.03-.78,1.64-1.61,1.35-.83-.3-1.46-1.36-1.43-2.38.04-1.01.75-1.61,1.6-1.33.85.28,1.5,1.33,1.44,2.36Z"/>
      <path class="cls-14" d="M39.31,74.04c-.09,1.07-.87,1.72-1.73,1.46s-1.5-1.33-1.43-2.38c.07-1.05.83-1.69,1.71-1.45.88.24,1.53,1.3,1.44,2.36Z"/>
      <path class="cls-14" d="M44.66,75.37c-.12,1.09-.95,1.81-1.85,1.58-.9-.22-1.54-1.29-1.44-2.37.1-1.08.91-1.77,1.83-1.56.92.21,1.58,1.25,1.46,2.35Z"/>
      <path class="cls-14" d="M50.26,76.46c-.14,1.12-1.03,1.89-1.97,1.71-.94-.18-1.6-1.23-1.47-2.34.13-1.1.99-1.85,1.95-1.68.96.17,1.63,1.2,1.49,2.31Z"/>
      <path class="cls-14" d="M56.13,77.27c-.16,1.14-1.11,1.96-2.1,1.83-.99-.13-1.67-1.16-1.52-2.29.15-1.13,1.07-1.93,2.08-1.81,1.01.12,1.7,1.13,1.54,2.26Z"/>
      <path class="cls-14" d="M62.32,77.77c-.18,1.15-1.18,2.04-2.23,1.96-1.05-.08-1.75-1.08-1.58-2.22.17-1.14,1.14-2,2.2-1.93,1.06.07,1.79,1.05,1.61,2.2Z"/>
      <path class="cls-14" d="M68.87,77.85c-.18,1.16-1.26,2.18-2.37,2.16-1.11-.02-1.85-.98-1.67-2.14.18-1.16,1.21-2.07,2.33-2.06,1.11.01,1.89.88,1.71,2.04Z"/>
      <path class="cls-14" d="M75.55,77.29c-.18,1.13-1.24,2.17-2.37,2.29-1.12.12-1.89-.74-1.71-1.89.18-1.15,1.25-2.14,2.37-2.25,1.13-.1,1.89.71,1.7,1.84Z"/>
      <path class="cls-14" d="M82.22,76.24c-.18,1.11-1.24,2.19-2.37,2.39-1.12.2-1.89-.57-1.7-1.69.18-1.12,1.25-2.17,2.37-2.35,1.12-.18,1.88.55,1.7,1.65Z"/>
      <path class="cls-14" d="M88.89,74.74c-.18,1.07-1.24,2.18-2.36,2.46-1.12.28-1.89-.41-1.7-1.5.18-1.09,1.25-2.17,2.37-2.42,1.12-.25,1.88.39,1.7,1.47Z"/>
      <path class="cls-14" d="M95.56,72.86c-.19,1.03-1.24,2.16-2.36,2.51-1.12.34-1.88-.26-1.7-1.31.18-1.06,1.25-2.16,2.37-2.47,1.12-.32,1.88.25,1.69,1.28Z"/>
      <path class="cls-14" d="M102.21,70.64c-.19.99-1.24,2.13-2.36,2.53-1.12.4-1.88-.12-1.7-1.13.19-1.02,1.25-2.13,2.37-2.5,1.12-.37,1.88.12,1.69,1.1Z"/>
      <path class="cls-14" d="M108.86,68.12c-.19.94-1.24,2.08-2.36,2.52-1.12.45-1.88.01-1.69-.96.19-.97,1.25-2.08,2.37-2.5,1.12-.42,1.88,0,1.69.93Z"/>
      <path class="cls-14" d="M115.51,65.35c-.19.89-1.24,2.01-2.36,2.5-1.12.49-1.88.13-1.69-.79.19-.92,1.25-2.02,2.37-2.48,1.12-.46,1.87-.12,1.69.77Z"/>
      <path class="cls-14" d="M122.16,62.39c-.19.83-1.25,1.94-2.36,2.46-1.12.52-1.87.23-1.69-.63.19-.86,1.25-1.95,2.37-2.44,1.12-.49,1.87-.22,1.68.61Z"/>
      <path class="cls-14" d="M128.8,59.28c-.19.77-1.25,1.85-2.37,2.39-1.12.55-1.87.33-1.68-.48.19-.81,1.25-1.87,2.37-2.38,1.12-.51,1.87-.3,1.68.47Z"/>
      <path class="cls-14" d="M135.44,56.08c-.19.71-1.25,1.75-2.37,2.31-1.12.56-1.87.4-1.68-.35.19-.75,1.25-1.78,2.37-2.3,1.12-.52,1.87-.38,1.68.34Z"/>
      <path class="cls-14" d="M142.08,52.82c-.19.65-1.25,1.65-2.37,2.21-1.12.57-1.87.47-1.68-.23.19-.69,1.25-1.68,2.37-2.21,1.12-.53,1.87-.43,1.68.22Z"/>
      <path class="cls-14" d="M148.72,49.56c-.19.59-1.25,1.54-2.37,2.1-1.12.57-1.87.51-1.68-.12.19-.63,1.25-1.57,2.37-2.1,1.12-.53,1.87-.48,1.68.12Z"/>
      <path class="cls-14" d="M155.36,46.35c-.19.53-1.25,1.42-2.37,1.97-1.12.56-1.87.55-1.68-.03.19-.57,1.26-1.46,2.38-1.98,1.12-.52,1.87-.51,1.67.03Z"/>
      <path class="cls-14" d="M2.63,62.72c.2.78-.22,1.08-.95.68-.72-.4-1.49-1.34-1.71-2.09-.22-.75.2-1.06.95-.68.75.38,1.51,1.32,1.71,2.09Z"/>
      <path class="cls-14" d="M6.95,65.07c.16.81-.29,1.14-1,.74-.72-.41-1.44-1.38-1.63-2.17-.19-.79.26-1.12,1-.74.74.39,1.47,1.36,1.63,2.17Z"/>
      <path class="cls-14" d="M11.26,67.43c.12.85-.36,1.21-1.07.8-.71-.41-1.41-1.42-1.56-2.25s.33-1.19,1.07-.8c.74.39,1.44,1.39,1.56,2.24Z"/>
      <path class="cls-14" d="M15.6,69.77c.08.89-.43,1.29-1.15.88-.72-.4-1.39-1.44-1.49-2.31-.11-.87.4-1.26,1.15-.88.74.38,1.42,1.41,1.5,2.3Z"/>
      <path class="cls-14" d="M19.99,72.06c.05.93-.51,1.37-1.24.97-.73-.39-1.37-1.45-1.44-2.36-.07-.91.48-1.34,1.23-.96.75.37,1.41,1.42,1.45,2.35Z"/>
      <path class="cls-14" d="M24.47,74.25c.01.96-.59,1.45-1.34,1.07-.75-.38-1.37-1.45-1.41-2.39-.03-.94.56-1.41,1.33-1.06.77.35,1.41,1.42,1.42,2.38Z"/>
      <path class="cls-14" d="M29.08,76.32c-.02,1-.68,1.53-1.45,1.17-.77-.35-1.39-1.44-1.38-2.42,0-.98.64-1.5,1.43-1.16.79.33,1.42,1.41,1.4,2.41Z"/>
      <path class="cls-14" d="M33.85,78.22c-.06,1.03-.76,1.61-1.56,1.29-.8-.32-1.41-1.42-1.37-2.43.04-1.01.72-1.58,1.54-1.27.82.31,1.45,1.38,1.39,2.41Z"/>
      <path class="cls-14" d="M38.82,79.93c-.09,1.06-.84,1.69-1.68,1.4-.83-.29-1.45-1.38-1.38-2.42s.81-1.66,1.66-1.39c.85.27,1.48,1.34,1.4,2.41Z"/>
      <path class="cls-14" d="M44.02,81.41c-.11,1.09-.93,1.78-1.8,1.53-.88-.25-1.5-1.33-1.4-2.4.1-1.07.89-1.74,1.78-1.51.89.23,1.53,1.29,1.42,2.38Z"/>
      <path class="cls-14" d="M49.49,82.63c-.14,1.11-1.01,1.86-1.93,1.66-.92-.2-1.56-1.27-1.44-2.36.12-1.1.97-1.82,1.91-1.63.94.19,1.6,1.23,1.46,2.34Z"/>
      <path class="cls-14" d="M55.26,83.55c-.15,1.13-1.09,1.94-2.06,1.79-.98-.15-1.64-1.19-1.49-2.31s1.05-1.9,2.03-1.76c.99.14,1.68,1.15,1.52,2.28Z"/>
      <path class="cls-14" d="M61.37,84.13c-.17,1.14-1.16,2.01-2.2,1.92-1.04-.09-1.73-1.1-1.57-2.23.16-1.13,1.12-1.98,2.17-1.89,1.04.08,1.77,1.06,1.6,2.21Z"/>
      <path class="cls-14" d="M67.87,84.22c-.18,1.15-1.25,2.2-2.36,2.17-1.1-.03-1.84-.99-1.66-2.14.17-1.15,1.2-2.05,2.3-2.03,1.11.02,1.89.85,1.72,1.99Z"/>
      <path class="cls-14" d="M74.55,83.55c-.18,1.13-1.23,2.17-2.35,2.31-1.12.14-1.9-.7-1.72-1.84.18-1.14,1.23-2.14,2.36-2.27,1.12-.13,1.89.67,1.71,1.79Z"/>
      <path class="cls-14" d="M81.22,82.35c-.18,1.1-1.23,2.2-2.35,2.43-1.12.23-1.89-.52-1.72-1.63s1.23-2.17,2.36-2.38c1.12-.21,1.89.49,1.71,1.59Z"/>
      <path class="cls-14" d="M87.89,80.68c-.18,1.07-1.23,2.2-2.35,2.51-1.12.31-1.89-.35-1.71-1.44.18-1.09,1.23-2.19,2.36-2.47,1.12-.29,1.89.33,1.71,1.4Z"/>
      <path class="cls-14" d="M94.55,78.58c-.18,1.03-1.23,2.19-2.35,2.57-1.12.38-1.89-.19-1.71-1.24.18-1.05,1.23-2.18,2.35-2.53,1.12-.35,1.88.18,1.7,1.21Z"/>
      <path class="cls-14" d="M101.2,76.11c-.18.99-1.23,2.16-2.35,2.6-1.12.44-1.89-.04-1.71-1.05s1.23-2.16,2.35-2.57c1.12-.41,1.88.04,1.7,1.02Z"/>
      <path class="cls-14" d="M107.85,73.32c-.18.94-1.23,2.12-2.35,2.61-1.12.49-1.88.09-1.71-.87.18-.97,1.23-2.12,2.35-2.58,1.12-.46,1.88-.09,1.7.85Z"/>
      <path class="cls-14" d="M114.49,70.27c-.18.89-1.23,2.06-2.35,2.59-1.12.54-1.88.22-1.7-.7.18-.92,1.24-2.07,2.35-2.57,1.12-.51,1.88-.21,1.7.68Z"/>
      <path class="cls-14" d="M121.13,67c-.18.84-1.23,1.99-2.35,2.56-1.12.57-1.88.32-1.7-.55.18-.87,1.24-2,2.35-2.54,1.12-.54,1.88-.31,1.69.53Z"/>
      <path class="cls-14" d="M127.77,63.58c-.18.78-1.23,1.9-2.35,2.5-1.12.6-1.88.42-1.7-.4.18-.81,1.24-1.92,2.36-2.49,1.12-.56,1.87-.4,1.69.38Z"/>
      <path class="cls-14" d="M134.4,60.05c-.18.72-1.23,1.81-2.35,2.43-1.12.61-1.88.49-1.7-.26.18-.76,1.24-1.83,2.36-2.41,1.12-.58,1.87-.47,1.69.25Z"/>
      <path class="cls-14" d="M141.04,56.47c-.18.66-1.24,1.71-2.35,2.33-1.12.62-1.88.56-1.69-.14s1.24-1.74,2.36-2.32,1.87-.53,1.69.13Z"/>
      <path class="cls-14" d="M147.67,52.88c-.18.61-1.24,1.6-2.35,2.22-1.12.62-1.88.6-1.69-.04.18-.64,1.24-1.63,2.36-2.22,1.12-.59,1.87-.57,1.69.03Z"/>
      <path class="cls-14" d="M154.31,49.34c-.19.55-1.24,1.49-2.36,2.1-1.12.61-1.88.63-1.69.05.19-.58,1.24-1.52,2.36-2.1,1.12-.58,1.87-.6,1.68-.05Z"/>
      <path class="cls-14" d="M3.71,67.04c.19.78-.22,1.06-.9.63-.69-.44-1.42-1.4-1.63-2.17-.21-.76.19-1.04.9-.63s1.44,1.38,1.63,2.17Z"/>
      <path class="cls-14" d="M7.82,69.6c.15.82-.28,1.13-.96.68-.68-.44-1.37-1.45-1.55-2.25-.17-.8.25-1.1.95-.68.7.42,1.4,1.43,1.55,2.24Z"/>
      <path class="cls-14" d="M11.92,72.17c.12.86-.35,1.19-1.02.75-.68-.44-1.34-1.48-1.48-2.32-.14-.83.32-1.17,1.02-.74.7.42,1.37,1.46,1.48,2.31Z"/>
      <path class="cls-14" d="M16.05,74.72c.08.89-.42,1.26-1.1.83-.68-.44-1.32-1.5-1.42-2.37-.1-.87.39-1.24,1.09-.82.71.42,1.35,1.48,1.43,2.37Z"/>
      <path class="cls-14" d="M20.24,77.2c.04.93-.49,1.34-1.19.91-.7-.43-1.31-1.51-1.37-2.42-.06-.91.46-1.31,1.18-.9.72.41,1.34,1.48,1.38,2.41Z"/>
      <path class="cls-14" d="M24.52,79.59c0,.96-.57,1.42-1.29,1.01-.72-.41-1.31-1.51-1.34-2.45-.03-.94.54-1.39,1.27-1,.74.39,1.35,1.48,1.35,2.44Z"/>
      <path class="cls-14" d="M28.95,81.84c-.02,1-.65,1.5-1.39,1.11-.74-.38-1.33-1.49-1.32-2.47,0-.98.62-1.47,1.38-1.1.76.36,1.36,1.46,1.34,2.46Z"/>
      <path class="cls-14" d="M33.54,83.92c-.06,1.03-.74,1.58-1.51,1.23-.77-.35-1.36-1.46-1.32-2.47.04-1.01.7-1.55,1.49-1.21.79.33,1.39,1.43,1.34,2.46Z"/>
      <path class="cls-14" d="M38.35,85.79c-.08,1.05-.82,1.66-1.63,1.35-.81-.32-1.4-1.42-1.33-2.46.07-1.04.78-1.63,1.61-1.33.83.3,1.44,1.39,1.35,2.44Z"/>
      <path class="cls-14" d="M43.41,87.42c-.11,1.08-.9,1.74-1.75,1.47-.85-.27-1.46-1.37-1.36-2.43.09-1.06.86-1.71,1.73-1.45.87.26,1.49,1.33,1.39,2.41Z"/>
      <path class="cls-14" d="M48.76,88.75c-.13,1.1-.98,1.82-1.88,1.6-.9-.22-1.53-1.29-1.41-2.38.12-1.09.94-1.79,1.86-1.58.92.21,1.57,1.26,1.44,2.36Z"/>
      <path class="cls-14" d="M54.42,89.77c-.15,1.12-1.06,1.9-2.02,1.74-.96-.16-1.61-1.21-1.48-2.32.14-1.11,1.02-1.87,1.99-1.71.97.15,1.65,1.17,1.5,2.29Z"/>
      <path class="cls-14" d="M60.46,90.43c-.16,1.13-1.14,1.98-2.16,1.88-1.02-.1-1.72-1.11-1.56-2.23.15-1.12,1.1-1.94,2.13-1.85,1.03.09,1.75,1.07,1.59,2.2Z"/>
      <path class="cls-14" d="M66.92,90.54c-.17,1.13-1.24,2.2-2.34,2.16-1.09-.03-1.83-.99-1.67-2.13.16-1.13,1.17-2.02,2.27-1.99,1.1.03,1.9.82,1.73,1.95Z"/>
      <path class="cls-14" d="M73.6,89.77c-.17,1.12-1.21,2.17-2.33,2.32-1.12.15-1.91-.66-1.74-1.78.17-1.13,1.22-2.13,2.34-2.28,1.12-.14,1.9.62,1.73,1.74Z"/>
      <path class="cls-14" d="M80.27,88.43c-.17,1.09-1.21,2.2-2.33,2.45-1.12.25-1.9-.47-1.74-1.57.17-1.11,1.22-2.18,2.34-2.41,1.12-.24,1.89.44,1.73,1.53Z"/>
      <path class="cls-14" d="M86.93,86.58c-.17,1.06-1.21,2.22-2.33,2.55-1.12.34-1.9-.29-1.73-1.37s1.21-2.2,2.34-2.51c1.12-.32,1.89.27,1.72,1.33Z"/>
      <path class="cls-14" d="M93.59,84.28c-.17,1.03-1.21,2.21-2.33,2.63-1.12.41-1.9-.12-1.73-1.17.17-1.05,1.21-2.2,2.34-2.59,1.12-.39,1.89.11,1.72,1.13Z"/>
      <path class="cls-14" d="M100.24,81.58c-.17.99-1.21,2.19-2.33,2.67-1.12.48-1.89.03-1.73-.98.17-1.01,1.22-2.18,2.33-2.64,1.12-.45,1.89-.04,1.72.95Z"/>
      <path class="cls-14" d="M106.88,78.53c-.17.94-1.21,2.15-2.33,2.69-1.12.54-1.89.17-1.72-.8.17-.97,1.22-2.15,2.33-2.66,1.12-.51,1.88-.17,1.72.77Z"/>
      <path class="cls-14" d="M113.52,75.21c-.17.89-1.21,2.1-2.33,2.69-1.12.58-1.89.3-1.72-.63.17-.92,1.22-2.11,2.33-2.66,1.12-.55,1.88-.29,1.71.6Z"/>
      <path class="cls-14" d="M120.16,71.65c-.17.84-1.21,2.04-2.33,2.66-1.12.62-1.89.41-1.72-.47.17-.87,1.22-2.05,2.33-2.64,1.12-.59,1.88-.4,1.71.45Z"/>
      <path class="cls-14" d="M126.79,67.92c-.17.79-1.21,1.96-2.33,2.61-1.12.65-1.89.5-1.72-.32.17-.82,1.22-1.98,2.34-2.59,1.12-.62,1.88-.49,1.71.3Z"/>
      <path class="cls-14" d="M133.42,64.08c-.17.73-1.21,1.87-2.33,2.54-1.12.67-1.89.58-1.71-.19.17-.77,1.22-1.89,2.34-2.53,1.12-.63,1.88-.56,1.71.17Z"/>
      <path class="cls-14" d="M140.05,60.18c-.17.68-1.21,1.78-2.33,2.45-1.12.67-1.88.64-1.71-.07.17-.71,1.22-1.8,2.34-2.44,1.12-.64,1.88-.62,1.7.06Z"/>
      <path class="cls-14" d="M146.68,56.27c-.17.62-1.22,1.67-2.33,2.35-1.12.67-1.88.68-1.71.03.17-.66,1.22-1.7,2.34-2.34,1.12-.64,1.88-.66,1.7-.04Z"/>
      <path class="cls-14" d="M153.31,52.43c-.17.57-1.22,1.56-2.33,2.23-1.12.66-1.88.71-1.71.11.17-.6,1.22-1.59,2.34-2.22,1.12-.63,1.88-.68,1.7-.11Z"/>
      <path class="cls-14" d="M.74,68.7c.21.76-.17,1-.84.55-.67-.45-1.4-1.42-1.63-2.15-.23-.74.14-.99.84-.55.69.43,1.42,1.4,1.63,2.16Z"/>
      <path class="cls-14" d="M4.72,71.4c.17.79-.22,1.05-.87.59-.66-.47-1.34-1.47-1.54-2.24-.2-.77.19-1.03.87-.59.68.45,1.37,1.45,1.54,2.24Z"/>
      <path class="cls-14" d="M8.63,74.16c.14.83-.27,1.11-.92.64-.65-.48-1.3-1.51-1.46-2.32-.16-.81.25-1.09.92-.63.67.45,1.33,1.49,1.47,2.32Z"/>
      <path class="cls-14" d="M12.54,76.92c.11.86-.34,1.17-.98.7-.65-.48-1.27-1.55-1.4-2.39-.13-.84.31-1.15.98-.69.67.46,1.3,1.52,1.4,2.38Z"/>
      <path class="cls-14" d="M16.47,79.67c.07.89-.41,1.24-1.06.77-.65-.47-1.25-1.56-1.34-2.44-.09-.87.37-1.21,1.05-.76.67.45,1.28,1.54,1.35,2.43Z"/>
      <path class="cls-14" d="M20.46,82.35c.04.93-.48,1.31-1.14.86-.67-.46-1.24-1.57-1.3-2.48-.06-.91.44-1.28,1.13-.85.69.44,1.28,1.54,1.31,2.47Z"/>
      <path class="cls-14" d="M24.56,84.92c0,.96-.55,1.39-1.24.95-.68-.44-1.25-1.56-1.28-2.5-.02-.94.52-1.36,1.22-.94.7.42,1.29,1.53,1.29,2.49Z"/>
      <path class="cls-14" d="M28.81,87.35c-.03.99-.63,1.47-1.34,1.05-.71-.41-1.27-1.54-1.27-2.52,0-.97.6-1.44,1.33-1.04.73.39,1.31,1.51,1.28,2.5Z"/>
      <path class="cls-14" d="M33.24,89.59c-.05,1.02-.71,1.55-1.46,1.17-.74-.38-1.31-1.51-1.27-2.51.04-1,.68-1.51,1.44-1.15.76.36,1.34,1.48,1.29,2.49Z"/>
      <path class="cls-14" d="M37.9,91.61c-.08,1.05-.79,1.63-1.58,1.29-.78-.34-1.36-1.46-1.29-2.49.07-1.03.76-1.59,1.56-1.27.8.32,1.39,1.43,1.31,2.47Z"/>
      <path class="cls-14" d="M42.82,93.36c-.1,1.07-.87,1.71-1.71,1.41-.83-.29-1.42-1.4-1.33-2.45.09-1.05.84-1.67,1.68-1.39.85.28,1.46,1.36,1.36,2.43Z"/>
      <path class="cls-14" d="M48.05,94.81c-.12,1.09-.95,1.79-1.84,1.55-.89-.24-1.5-1.32-1.39-2.39.11-1.08.92-1.75,1.81-1.52.9.23,1.54,1.28,1.42,2.37Z"/>
      <path class="cls-14" d="M53.63,95.92c-.14,1.1-1.03,1.86-1.98,1.68-.95-.18-1.6-1.22-1.47-2.31.13-1.09.99-1.83,1.95-1.66.96.17,1.63,1.19,1.5,2.29Z"/>
      <path class="cls-14" d="M59.6,96.64c-.15,1.11-1.11,1.94-2.12,1.83-1.02-.11-1.71-1.11-1.56-2.22.14-1.11,1.07-1.9,2.09-1.8,1.02.11,1.74,1.08,1.6,2.19Z"/>
      <path class="cls-14" d="M66.04,96.76c-.15,1.11-1.22,2.18-2.31,2.14-1.09-.04-1.83-.99-1.68-2.1.15-1.11,1.14-1.98,2.24-1.94,1.09.03,1.91.78,1.76,1.9Z"/>
      <path class="cls-14" d="M72.72,95.91c-.15,1.1-1.18,2.15-2.31,2.32-1.12.17-1.92-.62-1.76-1.73.15-1.11,1.19-2.12,2.32-2.28,1.12-.16,1.91.58,1.75,1.68Z"/>
      <path class="cls-14" d="M79.38,94.45c-.15,1.08-1.18,2.2-2.3,2.47-1.12.27-1.91-.42-1.76-1.51.15-1.09,1.19-2.17,2.31-2.43,1.12-.26,1.9.39,1.75,1.47Z"/>
      <path class="cls-14" d="M86.04,92.45c-.15,1.05-1.18,2.22-2.3,2.59-1.12.36-1.91-.23-1.76-1.3.15-1.07,1.19-2.2,2.31-2.55,1.12-.35,1.9.21,1.75,1.26Z"/>
      <path class="cls-14" d="M92.7,89.96c-.15,1.02-1.18,2.23-2.3,2.68-1.12.44-1.91-.06-1.75-1.1.15-1.04,1.19-2.21,2.31-2.64,1.12-.42,1.9.04,1.74,1.06Z"/>
      <path class="cls-14" d="M99.34,87.04c-.15.98-1.18,2.22-2.3,2.74-1.12.52-1.91.1-1.75-.91.15-1.01,1.19-2.21,2.31-2.7,1.12-.49,1.9-.11,1.74.87Z"/>
      <path class="cls-14" d="M105.98,83.75c-.16.94-1.18,2.19-2.3,2.77-1.12.58-1.9.24-1.75-.73.15-.97,1.19-2.19,2.31-2.74,1.12-.55,1.89-.25,1.74.7Z"/>
      <path class="cls-14" d="M112.62,80.17c-.16.9-1.18,2.15-2.3,2.78-1.12.63-1.9.37-1.75-.55.16-.93,1.19-2.15,2.31-2.75,1.12-.6,1.89-.37,1.74.53Z"/>
      <path class="cls-14" d="M119.25,76.33c-.16.85-1.18,2.09-2.3,2.76-1.12.67-1.9.48-1.74-.4.16-.88,1.19-2.1,2.31-2.74,1.12-.64,1.89-.48,1.73.37Z"/>
      <path class="cls-14" d="M125.88,72.32c-.16.8-1.18,2.02-2.3,2.72-1.12.7-1.9.58-1.74-.25.16-.83,1.19-2.03,2.31-2.7,1.12-.67,1.89-.57,1.73.23Z"/>
      <path class="cls-14" d="M132.5,68.18c-.16.75-1.19,1.94-2.3,2.66-1.12.72-1.9.66-1.74-.12.16-.78,1.19-1.96,2.31-2.64,1.12-.68,1.89-.64,1.73.11Z"/>
      <path class="cls-14" d="M139.13,63.98c-.16.7-1.19,1.85-2.3,2.58-1.12.72-1.9.72-1.74-.01.16-.73,1.2-1.87,2.31-2.56,1.12-.69,1.89-.7,1.73,0Z"/>
      <path class="cls-14" d="M145.75,59.77c-.16.64-1.19,1.76-2.3,2.48-1.12.72-1.89.76-1.74.08.16-.67,1.2-1.78,2.31-2.47,1.12-.69,1.89-.73,1.73-.09Z"/>
      <path class="cls-14" d="M152.38,55.63c-.16.59-1.19,1.65-2.31,2.36-1.12.71-1.89.78-1.73.16.16-.62,1.2-1.67,2.32-2.35,1.12-.68,1.89-.75,1.73-.16Z"/>
      <path class="cls-14" d="M1.85,72.94c.19.77-.18,1.01-.82.52-.64-.48-1.33-1.48-1.54-2.23-.21-.75.16-.99.82-.53.66.46,1.35,1.46,1.54,2.23Z"/>
      <path class="cls-14" d="M5.64,75.82c.16.8-.23,1.05-.85.55s-1.27-1.54-1.45-2.32c-.18-.78.2-1.03.85-.55.65.48,1.3,1.52,1.46,2.32Z"/>
      <path class="cls-14" d="M9.37,78.75c.13.83-.28,1.1-.9.6-.62-.51-1.23-1.58-1.38-2.39-.14-.81.25-1.08.89-.59.64.49,1.26,1.55,1.38,2.39Z"/>
      <path class="cls-14" d="M13.09,81.71c.09.87-.34,1.16-.95.65-.62-.51-1.2-1.61-1.32-2.45-.11-.85.31-1.13.94-.65.64.49,1.23,1.58,1.32,2.45Z"/>
      <path class="cls-14" d="M16.83,84.63c.06.9-.4,1.22-1.02.72-.62-.5-1.19-1.62-1.27-2.5-.08-.88.37-1.2,1.01-.71.64.48,1.22,1.6,1.28,2.49Z"/>
      <path class="cls-14" d="M20.65,87.49c.03.93-.47,1.29-1.1.8-.64-.49-1.18-1.62-1.23-2.53-.05-.91.43-1.26,1.09-.79.65.47,1.22,1.6,1.25,2.52Z"/>
      <path class="cls-14" d="M24.58,90.24c0,.96-.54,1.36-1.2.89-.66-.47-1.2-1.61-1.21-2.55-.02-.94.51-1.33,1.18-.88.67.45,1.23,1.58,1.23,2.54Z"/>
      <path class="cls-14" d="M28.66,92.83c-.03.99-.61,1.44-1.3,1-.68-.44-1.22-1.59-1.21-2.56.01-.97.58-1.41,1.28-.98.7.42,1.26,1.56,1.23,2.54Z"/>
      <path class="cls-14" d="M32.94,95.22c-.05,1.01-.69,1.51-1.41,1.11-.72-.4-1.26-1.55-1.23-2.54.04-1,.65-1.48,1.39-1.09.74.39,1.3,1.51,1.25,2.53Z"/>
      <path class="cls-14" d="M37.46,97.37c-.08,1.03-.77,1.59-1.53,1.23-.76-.36-1.32-1.49-1.26-2.51.06-1.02.73-1.56,1.51-1.21.78.35,1.36,1.46,1.28,2.49Z"/>
      <path class="cls-14" d="M42.27,99.24c-.1,1.05-.85,1.67-1.66,1.36-.81-.31-1.39-1.42-1.31-2.46.08-1.04.81-1.63,1.64-1.34.83.3,1.43,1.39,1.33,2.44Z"/>
      <path class="cls-14" d="M47.4,100.79c-.11,1.07-.92,1.74-1.8,1.49-.87-.25-1.48-1.33-1.38-2.39.1-1.06.89-1.71,1.77-1.47.88.24,1.52,1.3,1.4,2.37Z"/>
      <path class="cls-14" d="M52.91,101.97c-.13,1.08-1,1.82-1.94,1.63-.94-.19-1.58-1.23-1.47-2.3.12-1.08.96-1.79,1.91-1.61.94.18,1.62,1.2,1.5,2.28Z"/>
      <path class="cls-14" d="M58.82,102.74c-.13,1.09-1.07,1.89-2.08,1.78-1.01-.12-1.7-1.11-1.58-2.19.13-1.09,1.04-1.86,2.05-1.75,1.01.11,1.74,1.08,1.61,2.17Z"/>
      <path class="cls-14" d="M65.24,102.88c-.14,1.09-1.19,2.15-2.28,2.11-1.09-.04-1.84-.97-1.71-2.06.13-1.09,1.11-1.93,2.2-1.9,1.09.04,1.92.76,1.79,1.85Z"/>
      <path class="cls-14" d="M71.92,101.96c-.14,1.08-1.15,2.13-2.27,2.31-1.12.18-1.93-.58-1.8-1.67.14-1.09,1.16-2.09,2.29-2.26,1.12-.17,1.92.54,1.78,1.62Z"/>
      <path class="cls-14" d="M78.58,100.41c-.14,1.07-1.15,2.19-2.27,2.48-1.12.29-1.93-.38-1.79-1.45.14-1.08,1.16-2.15,2.28-2.43,1.12-.28,1.92.34,1.78,1.41Z"/>
      <path class="cls-14" d="M85.24,98.26c-.14,1.04-1.15,2.23-2.27,2.61-1.12.39-1.92-.18-1.79-1.24.14-1.06,1.16-2.2,2.28-2.57,1.12-.37,1.91.15,1.78,1.2Z"/>
      <path class="cls-14" d="M91.89,95.6c-.14,1.02-1.15,2.24-2.27,2.72-1.12.47-1.92,0-1.79-1.04.14-1.03,1.16-2.22,2.28-2.68,1.12-.46,1.91-.02,1.77,1Z"/>
      <path class="cls-14" d="M98.53,92.49c-.14.98-1.15,2.24-2.27,2.79-1.12.55-1.92.16-1.78-.84.14-1,1.16-2.23,2.28-2.76,1.12-.53,1.91-.18,1.77.81Z"/>
      <path class="cls-14" d="M105.17,88.99c-.14.95-1.15,2.23-2.27,2.84-1.12.61-1.92.31-1.78-.66.14-.97,1.16-2.22,2.28-2.81,1.12-.59,1.91-.32,1.77.63Z"/>
      <path class="cls-14" d="M111.8,85.16c-.14.9-1.15,2.19-2.27,2.86-1.12.67-1.91.44-1.78-.49.14-.93,1.16-2.19,2.28-2.83,1.12-.64,1.9-.44,1.77.46Z"/>
      <path class="cls-14" d="M118.43,81.07c-.14.86-1.15,2.15-2.27,2.86-1.12.71-1.91.55-1.77-.34.14-.89,1.16-2.15,2.28-2.83,1.12-.68,1.9-.55,1.76.31Z"/>
      <path class="cls-14" d="M125.05,76.79c-.14.81-1.15,2.09-2.27,2.83-1.11.74-1.91.65-1.77-.2.14-.84,1.16-2.09,2.28-2.8,1.12-.71,1.9-.64,1.76.17Z"/>
      <path class="cls-14" d="M131.67,72.37c-.14.77-1.15,2.01-2.27,2.78-1.11.76-1.91.72-1.77-.07.14-.8,1.16-2.02,2.28-2.76,1.12-.73,1.9-.71,1.76.05Z"/>
      <path class="cls-14" d="M138.29,67.89c-.14.72-1.15,1.93-2.27,2.7-1.11.77-1.91.78-1.77.03.14-.75,1.16-1.95,2.28-2.69,1.12-.74,1.9-.77,1.76-.05Z"/>
      <path class="cls-14" d="M144.91,63.41c-.14.67-1.16,1.84-2.27,2.61-1.11.77-1.91.82-1.77.12.14-.7,1.17-1.86,2.28-2.6,1.12-.74,1.9-.8,1.76-.13Z"/>
      <path class="cls-14" d="M151.53,58.99c-.14.62-1.16,1.74-2.27,2.5-1.11.76-1.91.84-1.77.18.14-.65,1.17-1.76,2.28-2.49,1.12-.73,1.9-.82,1.75-.19Z"/>
      <path class="cls-14" d="M2.82,77.25c.16.79-.21,1.01-.82.51-.62-.51-1.26-1.54-1.44-2.31-.18-.77.18-1,.82-.51.63.49,1.28,1.53,1.45,2.31Z"/>
      <path class="cls-14" d="M6.45,80.3c.14.81-.24,1.05-.84.53-.6-.52-1.21-1.6-1.36-2.39-.15-.8.22-1.03.84-.53s1.23,1.58,1.37,2.39Z"/>
      <path class="cls-14" d="M10.02,83.4c.11.84-.29,1.1-.88.56-.59-.53-1.17-1.64-1.29-2.46-.12-.83.26-1.08.87-.56.61.52,1.19,1.61,1.3,2.46Z"/>
      <path class="cls-14" d="M13.57,86.52c.08.87-.34,1.15-.93.62-.59-.53-1.14-1.66-1.23-2.52-.1-.85.31-1.13.92-.61.61.52,1.17,1.64,1.25,2.51Z"/>
      <path class="cls-14" d="M17.14,89.61c.05.9-.4,1.21-.99.68-.6-.53-1.13-1.68-1.19-2.56-.07-.88.37-1.18.98-.67.61.51,1.16,1.65,1.21,2.55Z"/>
      <path class="cls-14" d="M20.79,92.63c.02.93-.46,1.27-1.07.76-.61-.51-1.13-1.67-1.17-2.59-.04-.91.43-1.24,1.06-.75.63.5,1.16,1.65,1.18,2.57Z"/>
      <path class="cls-14" d="M24.57,95.53c0,.95-.53,1.34-1.16.84-.63-.49-1.14-1.66-1.16-2.6-.01-.94.5-1.31,1.14-.83.65.48,1.18,1.63,1.17,2.58Z"/>
      <path class="cls-14" d="M28.5,98.27c-.03.98-.6,1.41-1.26.94-.66-.46-1.18-1.63-1.16-2.59.01-.96.56-1.38,1.24-.93.68.45,1.21,1.6,1.18,2.58Z"/>
      <path class="cls-14" d="M32.65,100.8c-.05,1-.67,1.48-1.37,1.05-.7-.42-1.22-1.58-1.19-2.57.04-.99.64-1.45,1.35-1.04.71.41,1.26,1.55,1.21,2.55Z"/>
      <path class="cls-14" d="M37.05,103.07c-.07,1.02-.75,1.55-1.49,1.17s-1.29-1.52-1.23-2.52c.06-1.01.71-1.52,1.47-1.15s1.32,1.48,1.25,2.51Z"/>
      <path class="cls-14" d="M41.76,105.04c-.09,1.04-.82,1.62-1.62,1.3-.8-.33-1.37-1.44-1.29-2.46.08-1.03.78-1.59,1.59-1.28.81.32,1.4,1.4,1.32,2.44Z"/>
      <path class="cls-14" d="M46.81,106.67c-.1,1.05-.89,1.7-1.75,1.43-.86-.27-1.46-1.34-1.37-2.38.09-1.04.86-1.67,1.73-1.41.87.26,1.5,1.31,1.4,2.36Z"/>
      <path class="cls-14" d="M52.25,107.91c-.11,1.06-.97,1.77-1.9,1.57-.93-.2-1.58-1.23-1.47-2.28.11-1.05.93-1.74,1.87-1.55.93.19,1.61,1.2,1.5,2.26Z"/>
      <path class="cls-14" d="M58.13,108.71c-.12,1.06-1.04,1.84-2.04,1.72-1-.12-1.71-1.1-1.6-2.16.11-1.06,1-1.81,2.01-1.69,1.01.12,1.75,1.07,1.63,2.13Z"/>
      <path class="cls-14" d="M64.54,108.85c-.12,1.06-1.15,2.1-2.24,2.06-1.09-.04-1.86-.95-1.74-2.01.12-1.06,1.07-1.88,2.16-1.84,1.09.04,1.94.73,1.82,1.8Z"/>
      <path class="cls-14" d="M71.22,107.91c-.12,1.06-1.11,2.1-2.24,2.28-1.12.18-1.95-.55-1.83-1.62.12-1.06,1.13-2.05,2.25-2.23,1.12-.18,1.93.51,1.82,1.57Z"/>
      <path class="cls-14" d="M77.88,106.27c-.12,1.05-1.11,2.17-2.23,2.47-1.12.3-1.94-.34-1.83-1.39.12-1.06,1.13-2.13,2.25-2.42,1.12-.29,1.93.3,1.82,1.35Z"/>
      <path class="cls-14" d="M84.54,104.02c-.12,1.03-1.11,2.22-2.23,2.62-1.12.4-1.94-.14-1.83-1.18.12-1.04,1.12-2.19,2.25-2.58,1.12-.39,1.93.1,1.81,1.14Z"/>
      <path class="cls-14" d="M91.19,101.22c-.12,1.01-1.11,2.25-2.23,2.75-1.12.5-1.94.05-1.82-.98.12-1.02,1.12-2.22,2.24-2.71,1.12-.48,1.93-.07,1.81.93Z"/>
      <path class="cls-14" d="M97.83,97.93c-.12.98-1.11,2.26-2.23,2.84-1.12.58-1.94.22-1.82-.78.12-1,1.12-2.24,2.24-2.8,1.12-.56,1.92-.24,1.81.74Z"/>
      <path class="cls-14" d="M104.46,94.23c-.12.95-1.11,2.26-2.23,2.9-1.12.65-1.93.37-1.82-.6.12-.97,1.12-2.24,2.24-2.87,1.12-.62,1.92-.38,1.8.57Z"/>
      <path class="cls-14" d="M111.09,90.19c-.12.91-1.11,2.24-2.23,2.94-1.12.7-1.93.5-1.81-.44.12-.93,1.12-2.23,2.24-2.91,1.12-.68,1.92-.51,1.8.4Z"/>
      <path class="cls-14" d="M117.71,85.87c-.12.87-1.11,2.2-2.23,2.95-1.11.75-1.93.61-1.81-.29.12-.9,1.12-2.2,2.24-2.92,1.12-.72,1.92-.62,1.8.26Z"/>
      <path class="cls-14" d="M124.33,81.34c-.12.83-1.11,2.15-2.23,2.93-1.11.78-1.93.71-1.81-.15.12-.86,1.13-2.15,2.24-2.91,1.11-.76,1.92-.71,1.8.13Z"/>
      <path class="cls-14" d="M130.95,76.68c-.12.79-1.11,2.09-2.23,2.89-1.11.8-1.93.78-1.81-.03.12-.81,1.13-2.09,2.24-2.87,1.11-.78,1.91-.78,1.79.01Z"/>
      <path class="cls-14" d="M137.56,71.94c-.12.75-1.11,2.02-2.23,2.83-1.11.81-1.93.83-1.81.06.12-.77,1.13-2.03,2.24-2.81,1.11-.79,1.91-.83,1.79-.08Z"/>
      <path class="cls-14" d="M144.18,67.21c-.12.7-1.12,1.94-2.23,2.74-1.11.81-1.93.87-1.8.14.12-.73,1.13-1.95,2.24-2.73,1.11-.78,1.91-.86,1.79-.15Z"/>
      <path class="cls-14" d="M150.8,62.54c-.12.66-1.12,1.85-2.23,2.64-1.11.8-1.93.88-1.8.19.12-.69,1.13-1.86,2.24-2.63,1.11-.77,1.91-.87,1.79-.21Z"/>
      <path class="cls-14" d="M.06,78.59c.16.78-.22,1.01-.84.51-.62-.5-1.26-1.53-1.43-2.3-.17-.77.2-1,.83-.51.63.49,1.28,1.52,1.44,2.31Z"/>
      <path class="cls-14" d="M3.66,81.67c.14.81-.24,1.03-.83.5-.59-.53-1.19-1.6-1.34-2.39-.15-.79.22-1.02.83-.5.61.51,1.21,1.59,1.35,2.39Z"/>
      <path class="cls-14" d="M7.14,84.85c.11.83-.27,1.06-.85.51-.58-.55-1.14-1.65-1.27-2.47-.13-.82.25-1.04.84-.51.59.53,1.16,1.63,1.28,2.46Z"/>
      <path class="cls-14" d="M10.56,88.1c.09.85-.31,1.1-.87.54-.57-.56-1.1-1.69-1.2-2.53-.1-.84.28-1.08.86-.54.58.54,1.13,1.67,1.21,2.53Z"/>
      <path class="cls-14" d="M13.95,91.37c.06.88-.35,1.14-.92.59-.56-.56-1.08-1.71-1.15-2.58-.08-.86.33-1.12.91-.58.58.54,1.11,1.69,1.17,2.57Z"/>
      <path class="cls-14" d="M17.38,94.61c.04.9-.4,1.19-.98.64-.57-.55-1.07-1.72-1.12-2.61-.05-.89.37-1.17.96-.63.59.54,1.1,1.7,1.14,2.6Z"/>
      <path class="cls-14" d="M20.89,97.77c.01.93-.46,1.25-1.05.71-.59-.54-1.08-1.72-1.1-2.63-.03-.91.43-1.23,1.03-.7.6.52,1.11,1.69,1.12,2.62Z"/>
      <path class="cls-14" d="M24.53,100.81c-.01.95-.52,1.31-1.13.8-.61-.51-1.1-1.69-1.1-2.63,0-.94.49-1.28,1.11-.79.62.5,1.13,1.67,1.12,2.62Z"/>
      <path class="cls-14" d="M28.33,103.67c-.03.97-.59,1.38-1.23.89-.64-.48-1.14-1.66-1.12-2.62.02-.96.55-1.35,1.21-.88.65.47,1.17,1.63,1.14,2.6Z"/>
      <path class="cls-14" d="M32.37,106.31c-.05.99-.65,1.44-1.34,1-.68-.44-1.19-1.6-1.15-2.58.04-.98.62-1.41,1.31-.98.69.43,1.22,1.57,1.17,2.56Z"/>
      <path class="cls-14" d="M36.67,108.68c-.07,1.01-.72,1.51-1.45,1.12-.73-.39-1.26-1.53-1.21-2.53.06-1,.69-1.48,1.43-1.1.74.39,1.3,1.5,1.23,2.51Z"/>
      <path class="cls-14" d="M41.29,110.74c-.08,1.02-.79,1.58-1.58,1.24-.79-.34-1.35-1.44-1.28-2.46.07-1.01.76-1.55,1.55-1.22.79.33,1.39,1.42,1.31,2.43Z"/>
      <path class="cls-14" d="M83.96,109.7c-.09,1.02-1.07,2.21-2.19,2.62-1.12.42-1.96-.1-1.87-1.13.09-1.03,1.08-2.17,2.2-2.58,1.12-.41,1.95.06,1.85,1.08Z"/>
      <path class="cls-14" d="M90.61,106.78c-.09,1-1.07,2.25-2.19,2.77-1.12.51-1.96.09-1.87-.92.09-1.01,1.08-2.22,2.2-2.72,1.12-.5,1.94-.12,1.85.88Z"/>
      <path class="cls-14" d="M97.24,103.36c-.09.98-1.07,2.28-2.18,2.88-1.12.6-1.96.26-1.86-.73.09-.99,1.08-2.25,2.2-2.84,1.12-.59,1.94-.29,1.85.69Z"/>
      <path class="cls-14" d="M103.87,99.49c-.09.95-1.07,2.29-2.18,2.96-1.12.67-1.95.41-1.86-.55.09-.97,1.08-2.27,2.2-2.92,1.12-.66,1.94-.43,1.84.52Z"/>
      <path class="cls-14" d="M110.5,95.26c-.09.92-1.07,2.28-2.18,3.01-1.12.73-1.95.55-1.86-.39.09-.94,1.08-2.26,2.2-2.98,1.12-.71,1.94-.56,1.84.36Z"/>
      <path class="cls-14" d="M117.12,90.74c-.09.89-1.07,2.25-2.18,3.03-1.11.78-1.95.66-1.86-.25.09-.91,1.08-2.24,2.2-3,1.11-.76,1.93-.67,1.84.22Z"/>
      <path class="cls-14" d="M123.74,86.01c-.1.85-1.07,2.22-2.18,3.03-1.11.81-1.95.75-1.85-.12.09-.87,1.08-2.21,2.2-3,1.11-.79,1.93-.76,1.84.09Z"/>
      <path class="cls-14" d="M130.35,81.12c-.1.81-1.07,2.17-2.18,3-1.11.84-1.95.83-1.85-.01.1-.84,1.08-2.17,2.2-2.98,1.11-.82,1.93-.83,1.84-.01Z"/>
      <path class="cls-14" d="M136.96,76.16c-.1.78-1.07,2.11-2.18,2.95-1.11.85-1.95.88-1.85.08.1-.8,1.08-2.11,2.2-2.93,1.11-.82,1.93-.87,1.83-.1Z"/>
      <path class="cls-14" d="M143.58,71.2c-.1.74-1.07,2.03-2.18,2.88-1.11.85-1.95.9-1.85.14.1-.76,1.08-2.04,2.2-2.86,1.11-.82,1.93-.9,1.83-.16Z"/>
      <path class="cls-14" d="M150.19,66.31c-.1.7-1.07,1.95-2.18,2.78-1.11.83-1.95.91-1.85.19.1-.72,1.09-1.96,2.2-2.77,1.11-.81,1.93-.9,1.83-.2Z"/>
      <path class="cls-14" d="M.84,83c.12.81-.27,1.04-.87.52-.6-.52-1.2-1.59-1.33-2.39-.13-.8.25-1.03.87-.52.61.51,1.21,1.58,1.33,2.39Z"/>
      <path class="cls-14" d="M4.32,86.19c.1.83-.28,1.05-.86.51-.58-.55-1.13-1.65-1.24-2.47-.11-.82.26-1.04.85-.51.59.54,1.15,1.64,1.25,2.47Z"/>
      <path class="cls-14" d="M7.68,89.49c.08.85-.31,1.08-.86.51-.56-.57-1.08-1.7-1.17-2.54-.1-.83.28-1.06.85-.51.57.55,1.1,1.69,1.19,2.53Z"/>
      <path class="cls-14" d="M10.97,92.87c.06.87-.34,1.11-.88.53-.55-.58-1.04-1.74-1.12-2.59-.08-.85.31-1.09.87-.52.56.56,1.07,1.72,1.13,2.59Z"/>
      <path class="cls-14" d="M14.24,96.27c.04.89-.37,1.14-.92.56-.54-.58-1.02-1.76-1.08-2.63-.05-.88.35-1.12.9-.56.56.57,1.05,1.74,1.09,2.63Z"/>
      <path class="cls-14" d="M17.54,99.63c.02.91-.42,1.19-.97.62-.55-.57-1.02-1.76-1.05-2.66-.03-.9.39-1.16.95-.61.56.56,1.05,1.74,1.07,2.65Z"/>
      <path class="cls-14" d="M20.93,102.91c0,.93-.47,1.24-1.03.68-.57-.55-1.03-1.75-1.04-2.67-.01-.92.44-1.21,1.02-.67.58.54,1.06,1.73,1.06,2.66Z"/>
      <path class="cls-14" d="M24.45,106.06c-.02.95-.52,1.29-1.11.76-.59-.53-1.06-1.73-1.05-2.66,0-.93.49-1.26,1.09-.74.6.52,1.09,1.7,1.07,2.65Z"/>
      <path class="cls-14" d="M28.16,109.03c-.03.96-.58,1.35-1.2.85-.63-.5-1.1-1.68-1.08-2.63.02-.95.55-1.32,1.18-.83.64.49,1.13,1.66,1.1,2.62Z"/>
      <path class="cls-14" d="M32.09,111.76c-.05.98-.64,1.41-1.31.95-.67-.46-1.16-1.62-1.12-2.59.04-.97.61-1.38,1.28-.93.68.45,1.2,1.59,1.15,2.57Z"/>
      <path class="cls-14" d="M96.8,108.77c-.07.98-1.02,2.29-2.13,2.9-1.12.62-1.98.3-1.91-.69.07-.99,1.03-2.26,2.15-2.86,1.12-.61,1.96-.33,1.89.65Z"/>
      <path class="cls-14" d="M103.43,104.77c-.07.95-1.02,2.31-2.13,3-1.12.69-1.98.45-1.91-.52.07-.97,1.03-2.28,2.15-2.96,1.12-.68,1.96-.48,1.89.48Z"/>
      <path class="cls-14" d="M110.05,100.39c-.07.93-1.02,2.32-2.13,3.07-1.11.76-1.97.58-1.91-.36.07-.95,1.03-2.3,2.15-3.04,1.11-.74,1.96-.61,1.89.33Z"/>
      <path class="cls-14" d="M116.67,95.71c-.07.9-1.02,2.31-2.13,3.11-1.11.81-1.97.7-1.9-.22.07-.92,1.03-2.29,2.15-3.08,1.11-.79,1.95-.71,1.89.19Z"/>
      <path class="cls-14" d="M123.28,90.79c-.07.87-1.02,2.28-2.13,3.13-1.11.84-1.97.79-1.9-.1.07-.89,1.03-2.27,2.15-3.1,1.11-.83,1.95-.8,1.89.07Z"/>
      <path class="cls-14" d="M129.89,85.71c-.07.84-1.02,2.25-2.13,3.11-1.11.87-1.97.86-1.9,0,.07-.86,1.03-2.24,2.15-3.09,1.11-.85,1.95-.87,1.88-.02Z"/>
      <path class="cls-14" d="M136.5,80.56c-.07.81-1.02,2.2-2.13,3.07-1.11.88-1.97.9-1.9.07.07-.83,1.03-2.19,2.15-3.05,1.11-.86,1.95-.91,1.88-.1Z"/>
      <path class="cls-14" d="M143.11,75.41c-.07.78-1.02,2.14-2.13,3.01-1.11.88-1.97.93-1.9.13.07-.8,1.04-2.13,2.15-2.99,1.11-.86,1.95-.93,1.88-.15Z"/>
      <path class="cls-14" d="M149.73,70.33c-.07.75-1.02,2.07-2.13,2.93-1.11.86-1.97.93-1.9.16.07-.77,1.04-2.07,2.15-2.91,1.11-.84,1.95-.92,1.88-.17Z"/>
      <path class="cls-14" d="M1.4,87.55c.08.84-.34,1.08-.93.55-.59-.53-1.14-1.64-1.22-2.47-.09-.83.32-1.07.92-.55.6.52,1.15,1.63,1.23,2.47Z"/>
      <path class="cls-14" d="M4.79,90.83c.07.85-.34,1.09-.9.52-.56-.56-1.07-1.7-1.15-2.54-.08-.84.32-1.07.89-.52.57.55,1.09,1.69,1.16,2.54Z"/>
      <path class="cls-14" d="M8.05,94.24c.05.87-.35,1.1-.89.52-.54-.58-1.02-1.75-1.08-2.61-.06-.86.33-1.08.88-.51s1.04,1.74,1.1,2.6Z"/>
      <path class="cls-14" d="M11.24,97.71c.04.88-.37,1.12-.9.53s-.99-1.78-1.04-2.65c-.05-.87.35-1.1.89-.52.54.58,1.01,1.77,1.05,2.65Z"/>
      <path class="cls-14" d="M14.41,101.21c.02.9-.4,1.15-.93.55-.53-.59-.97-1.8-1-2.69-.03-.89.38-1.13.91-.55.54.58,1,1.78,1.02,2.68Z"/>
      <path class="cls-14" d="M17.62,104.67c0,.91-.44,1.18-.97.6-.54-.59-.97-1.8-.99-2.7-.01-.9.41-1.16.95-.59.55.58,1,1.78,1.01,2.69Z"/>
      <path class="cls-14" d="M20.91,108.05c-.01.93-.48,1.22-1.03.65s-.99-1.78-.99-2.7c0-.92.45-1.2,1.01-.64.56.56,1.02,1.76,1.01,2.69Z"/>
      <path class="cls-14" d="M24.34,111.29c-.02.94-.52,1.27-1.1.73-.58-.54-1.02-1.75-1.01-2.68.02-.93.49-1.25,1.08-.71s1.05,1.73,1.03,2.67Z"/>
      <path class="cls-14" d="M103.15,110.07c-.04.96-.96,2.33-2.07,3.04-1.12.71-2,.48-1.97-.49.04-.97.98-2.3,2.09-3,1.12-.7,1.98-.51,1.95.45Z"/>
      <path class="cls-14" d="M109.77,105.58c-.04.94-.96,2.35-2.07,3.13-1.11.77-2,.61-1.96-.34.04-.95.98-2.32,2.09-3.09,1.11-.76,1.98-.64,1.94.3Z"/>
      <path class="cls-14" d="M116.38,100.76c-.04.92-.96,2.36-2.07,3.18-1.11.83-2,.72-1.96-.21.04-.93.98-2.34,2.09-3.15,1.11-.81,1.98-.74,1.94.18Z"/>
      <path class="cls-14" d="M122.99,95.7c-.04.9-.96,2.35-2.07,3.21-1.11.87-2,.81-1.96-.1.04-.91.98-2.33,2.09-3.18,1.11-.85,1.98-.83,1.94.07Z"/>
      <path class="cls-14" d="M129.6,90.48c-.04.88-.96,2.33-2.07,3.22-1.11.89-1.99.87-1.96-.02.04-.89.98-2.31,2.09-3.19,1.11-.88,1.98-.89,1.94-.01Z"/>
      <path class="cls-14" d="M136.21,85.18c-.04.85-.96,2.29-2.07,3.19-1.11.9-1.99.92-1.96.05.04-.87.98-2.28,2.09-3.17,1.11-.89,1.97-.93,1.94-.07Z"/>
      <path class="cls-14" d="M142.82,79.87c-.04.83-.96,2.24-2.07,3.14s-1.99.93-1.96.09c.04-.84.98-2.23,2.09-3.12,1.11-.88,1.97-.94,1.94-.11Z"/>
      <path class="cls-14" d="M149.43,74.64c-.04.81-.96,2.19-2.07,3.07-1.11.88-1.99.92-1.96.1.04-.82.98-2.18,2.09-3.05,1.11-.87,1.97-.93,1.94-.12Z"/>
      <path class="cls-14" d="M1.72,92.28c.03.87-.58,1.21-1.17.68-.59-.54-.91-1.76-.95-2.63-.04-.86.4-1.13.99-.59.59.54,1.1,1.67,1.13,2.54Z"/>
      <path class="cls-14" d="M5.05,95.62c.03.88-.53,1.19-1.09.62-.56-.57-.89-1.81-.92-2.68-.03-.87.39-1.12.95-.55.56.57,1.04,1.73,1.06,2.61Z"/>
      <path class="cls-14" d="M8.24,99.09c.02.89-.49,1.17-1.03.58-.54-.59-.89-1.83-.91-2.71-.02-.88.39-1.12.93-.53.54.59.99,1.78,1.01,2.66Z"/>
      <path class="cls-14" d="M11.36,102.64c0,.9-.45,1.16-.98.56-.53-.6-.91-1.84-.92-2.73-.01-.89.4-1.13.92-.53.53.6.97,1.8.97,2.7Z"/>
      <path class="cls-14" d="M14.46,106.21c0,.91-.42,1.15-.94.55-.53-.6-.94-1.83-.95-2.73,0-.9.41-1.14.94-.54.52.6.96,1.81.95,2.72Z"/>
      <path class="cls-14" d="M17.59,109.74c-.01.92-.39,1.16-.93.56-.53-.59-1-1.8-.99-2.71,0-.91.44-1.17.97-.58.53.59.96,1.81.95,2.72Z"/>
      <path class="cls-14" d="M116.27,105.93c0,.94-.9,2.33-2.01,3.17-1.11.84-2.02.81-2.02-.14,0-.95.92-2.38,2.03-3.21,1.11-.83,2-.76,2,.18Z"/>
      <path class="cls-14" d="M122.88,100.77c0,.93-.89,2.36-2.01,3.24-1.11.88-2.03.87-2.02-.07,0-.94.92-2.39,2.03-3.26,1.11-.87,2-.84,2,.09Z"/>
      <path class="cls-14" d="M129.49,95.44c0,.91-.89,2.38-2,3.28-1.11.9-2.03.91-2.03-.01,0-.92.92-2.38,2.03-3.28,1.11-.9,2-.9,2,.02Z"/>
      <path class="cls-14" d="M136.1,90.03c0,.9-.88,2.38-1.99,3.29-1.11.91-2.04.92-2.04.01,0-.91.92-2.37,2.03-3.27,1.11-.91,2-.93,2-.03Z"/>
      <path class="cls-14" d="M142.7,84.61c0,.88-.87,2.37-1.98,3.28-1.11.91-2.05.91-2.04.01,0-.89.92-2.34,2.03-3.24,1.11-.91,2-.94,2-.06Z"/>
      <path class="cls-14" d="M149.31,79.28c0,.87-.87,2.35-1.98,3.25-1.11.89-2.05.87-2.05-.01,0-.88.92-2.3,2.03-3.19,1.11-.89,2-.92,2-.05Z"/>
      <path class="cls-14" d="M1.11,97.52c-.16.98-.81,1.36-1.43.83-.61-.53-.94-1.77-.76-2.76.18-.99.79-1.34,1.39-.81.6.54.96,1.76.8,2.74Z"/>
      <path class="cls-14" d="M4.57,100.83c-.13.97-.73,1.32-1.32.76-.59-.56-.92-1.82-.77-2.8.15-.98.72-1.3,1.28-.74.57.57.94,1.8.81,2.78Z"/>
      <path class="cls-14" d="M7.92,104.27c-.09.97-.65,1.29-1.22.71-.57-.58-.92-1.85-.81-2.82.12-.97.64-1.27,1.19-.69.55.59.93,1.83.84,2.79Z"/>
      <path class="cls-14" d="M11.19,107.78c-.06.96-.57,1.27-1.13.68-.56-.59-.94-1.86-.86-2.82.08-.96.57-1.24,1.11-.65.54.6.94,1.84.89,2.8Z"/>
      <path class="cls-14" d="M14.44,111.31c-.02.95-.5,1.25-1.06.66-.56-.59-.97-1.86-.92-2.81.04-.95.5-1.22,1.04-.63.54.6.97,1.83.95,2.78Z"/>
      <path class="cls-14" d="M123.15,105.82c.11.92-.67,2.4-1.79,3.27-1.12.87-2.15.81-2.26-.11-.11-.92.75-2.36,1.86-3.24,1.12-.87,2.07-.85,2.19.07Z"/>
      <path class="cls-14" d="M129.79,100.51c.12.93-.65,2.42-1.77,3.32-1.12.9-2.16.86-2.27-.07-.11-.93.73-2.39,1.85-3.29,1.12-.9,2.08-.89,2.2.04Z"/>
      <path class="cls-14" d="M136.42,95.11c.13.93-.64,2.44-1.76,3.35-1.12.91-2.16.88-2.29-.05-.12-.93.72-2.41,1.84-3.33,1.12-.91,2.08-.91,2.21.03Z"/>
      <path class="cls-14" d="M143.06,89.71c.13.94-.63,2.44-1.75,3.35-1.12.91-2.17.88-2.3-.06-.13-.94.71-2.42,1.83-3.33s2.09-.89,2.22.04Z"/>
      <path class="cls-14" d="M149.7,84.39c.14.94-.61,2.43-1.73,3.32-1.12.89-2.18.85-2.31-.1-.14-.94.7-2.42,1.81-3.32,1.12-.89,2.09-.86,2.23.09Z"/>
      <path class="cls-14" d="M-.03,103.13c-.25,1.04-.99,1.47-1.65.95-.65-.52-.94-1.8-.67-2.85.27-1.05.99-1.46,1.61-.94.63.53.95,1.79.7,2.84Z"/>
      <path class="cls-14" d="M3.65,106.39c-.2,1.03-.89,1.43-1.52.88-.63-.55-.94-1.85-.71-2.88.23-1.04.89-1.42,1.49-.86.6.56.94,1.83.74,2.87Z"/>
      <path class="cls-14" d="M7.22,109.77c-.15,1.02-.79,1.4-1.41.83-.61-.57-.95-1.87-.76-2.9.18-1.03.79-1.38,1.38-.8.59.58.95,1.86.79,2.88Z"/>
      <path class="cls-14" d="M130.79,105.74c.24.96-.45,2.47-1.57,3.37-1.13.89-2.27.83-2.5-.13-.23-.96.52-2.44,1.64-3.34,1.12-.9,2.19-.86,2.43.1Z"/>
      <path class="cls-14" d="M137.47,100.37c.25.97-.43,2.49-1.56,3.39-1.13.9-2.27.85-2.52-.12-.24-.96.5-2.47,1.62-3.37,1.12-.91,2.2-.87,2.45.1Z"/>
      <path class="cls-14" d="M144.15,95c.26.97-.41,2.5-1.54,3.4-1.13.9-2.28.84-2.53-.13-.25-.97.49-2.48,1.61-3.39,1.12-.91,2.21-.86,2.46.11Z"/>
      <path class="cls-14" d="M150.83,89.71c.27.98-.39,2.49-1.52,3.38-1.13.89-2.29.81-2.55-.17-.26-.97.47-2.48,1.59-3.37,1.12-.89,2.21-.82,2.48.16Z"/>
      <path class="cls-14" d="M2.34,112.25c-.27,1.08-1.05,1.53-1.73,1-.68-.54-.97-1.86-.67-2.95.3-1.09,1.06-1.53,1.7-.98.65.55.97,1.86.7,2.94Z"/>
      <path class="cls-14" d="M139.16,105.81c.36.99-.24,2.54-1.38,3.43-1.14.9-2.38.81-2.73-.18-.35-.99.31-2.51,1.44-3.41,1.13-.9,2.31-.84,2.67.16Z"/>
      <path class="cls-14" d="M145.9,100.47c.37,1-.22,2.54-1.36,3.44-1.14.89-2.39.81-2.75-.19-.36-1,.29-2.53,1.42-3.43,1.13-.9,2.32-.82,2.69.18Z"/>
      <path class="cls-14" d="M152.64,95.22c.38,1.01-.2,2.54-1.34,3.42-1.14.88-2.4.77-2.77-.23-.38-1,.27-2.53,1.4-3.42,1.13-.88,2.32-.78,2.71.23Z"/>
      <path class="cls-14" d="M148.24,106.1c.47,1.03-.05,2.58-1.2,3.47-1.15.89-2.48.77-2.94-.25-.46-1.02.12-2.57,1.26-3.46,1.14-.89,2.42-.79,2.89.24Z"/>
      <path class="cls-14" d="M155.04,100.89c.48,1.04-.03,2.58-1.18,3.45-1.15.87-2.49.74-2.97-.29-.47-1.03.09-2.58,1.24-3.45,1.14-.88,2.43-.75,2.91.29Z"/>
    </g>
  </g>
  <g>
    <path class="cls-2" d="M104.36,83.55c-.24.24-.48.47-.72.71l3.5,4.12c.35-.33.7-.66,1.04-1.01,4.44-4.44,7.86-9.64,10.13-15.3l-5.09-1.81c-2.01,4.92-4.99,9.43-8.86,13.3Z"/>
    <path class="cls-54" d="M109.63,32.88c3.11,4.75,5.17,10.08,6.06,15.72l5.38-.54c-.99-6.58-3.39-12.81-7.06-18.34l-4.39,3.16Z"/>
    <path class="cls-38" d="M85.7,99.71l-1.4-5.22c-2.77.59-5.62.9-8.51.9s-5.75-.31-8.51-.9l-1.4,5.22c3.22.71,6.54,1.07,9.91,1.07s6.69-.36,9.91-1.07Z"/>
    <path class="cls-26" d="M97.99,14.88l-2.41,4.84c3.18,1.79,6.13,4.03,8.78,6.68,1.39,1.39,2.67,2.87,3.83,4.41l4.51-2.98c-1.36-1.84-2.87-3.6-4.52-5.25-3.07-3.07-6.5-5.64-10.19-7.7Z"/>
    <path class="cls-55" d="M64.83,93.89c-5.49-1.54-10.6-4.23-15.03-7.96l-3.67,3.97c5.14,4.38,11.1,7.52,17.51,9.27l1.19-5.28Z"/>
    <path class="cls-24" d="M121.36,50.33l-5.35.76c.12,1.28.18,2.57.18,3.88,0,4.46-.72,8.81-2.1,12.92l5.02,2.02c1.63-4.74,2.48-9.78,2.48-14.94,0-1.56-.08-3.11-.23-4.64Z"/>
    <path class="cls-3" d="M32.46,69.91l5.02-2.02c-1.38-4.11-2.1-8.46-2.1-12.92,0-1.3.06-2.6.18-3.88l-5.35-.76c-.15,1.53-.23,3.08-.23,4.64,0,5.17.85,10.2,2.48,14.94Z"/>
    <path class="cls-52" d="M35.87,48.59c.89-5.63,2.95-10.97,6.06-15.72l-4.39-3.16c-3.66,5.52-6.07,11.75-7.06,18.34l5.38.54Z"/>
    <path class="cls-37" d="M44.43,88.37l3.5-4.12c-.24-.23-.49-.47-.72-.71-3.87-3.87-6.85-8.38-8.86-13.3l-5.09,1.81c2.27,5.66,5.69,10.86,10.13,15.3.34.34.69.68,1.04,1.01Z"/>
    <path class="cls-25" d="M77.05,14.58c5.73.17,11.25,1.54,16.29,3.97l2.61-4.74c-5.86-2.88-12.31-4.47-19.01-4.64l.11,5.41Z"/>
    <path class="cls-35" d="M38.87,27.83l4.51,2.98c1.16-1.55,2.43-3.02,3.83-4.41,2.65-2.65,5.6-4.89,8.78-6.68l-2.41-4.84c-3.69,2.05-7.12,4.63-10.19,7.7-1.65,1.65-3.16,3.41-4.52,5.25Z"/>
    <path class="cls-7" d="M58.23,18.55c5.04-2.43,10.56-3.79,16.29-3.97l.11-5.41c-6.69.16-13.15,1.76-19.01,4.64l2.61,4.74Z"/>
    <path class="cls-2" d="M101.76,85.93c-4.43,3.73-9.54,6.43-15.03,7.96l1.19,5.28c6.41-1.75,12.37-4.89,17.51-9.27l-3.67-3.97Z"/>
    <path class="cls-13" d="M61.36,24.23c4.04-1.9,8.45-2.98,13.02-3.17l.11-5.41c-5.54.18-10.87,1.49-15.75,3.84l2.61,4.74Z"/>
    <path class="cls-13" d="M77.18,21.06c4.57.18,8.98,1.27,13.02,3.17l2.61-4.74c-4.87-2.34-10.21-3.66-15.75-3.84l.11,5.41Z"/>
    <path class="cls-31" d="M97.37,81.16c-3.58,2.96-7.67,5.12-12.06,6.4l1.19,5.28c5.31-1.49,10.25-4.1,14.54-7.7l-3.67-3.97Z"/>
    <path class="cls-32" d="M42.32,49.24c.76-4.49,2.41-8.76,4.87-12.58l-4.39-3.16c-3,4.6-5,9.75-5.86,15.2l5.38.54Z"/>
    <path class="cls-51" d="M95.09,20.68l-2.42,4.84c2.57,1.48,4.95,3.3,7.1,5.45,1.08,1.08,2.08,2.22,2.99,3.41l4.52-2.98c-1.12-1.49-2.35-2.91-3.69-4.25-2.57-2.57-5.43-4.74-8.5-6.47Z"/>
    <path class="cls-30" d="M114.95,51.24l-5.35.76c.08.98.13,1.97.13,2.97,0,3.62-.56,7.15-1.65,10.5l5.02,2.02c1.33-3.98,2.03-8.2,2.03-12.52,0-1.25-.06-2.5-.17-3.73Z"/>
    <path class="cls-29" d="M48.63,83.43l3.51-4.12c-.12-.11-.23-.23-.35-.34-3.18-3.18-5.64-6.87-7.33-10.89l-5.1,1.81c1.95,4.77,4.85,9.15,8.6,12.9.22.22.44.43.66.65Z"/>
    <path class="cls-40" d="M38.47,67.49l5.02-2.02c-1.08-3.35-1.65-6.88-1.65-10.5,0-1,.05-1.98.13-2.97l-5.35-.76c-.11,1.23-.17,2.47-.17,3.73,0,4.32.69,8.54,2.03,12.52Z"/>
    <path class="cls-44" d="M104.37,36.67c2.46,3.82,4.11,8.08,4.87,12.58l5.38-.54c-.87-5.44-2.86-10.6-5.86-15.2l-4.39,3.16Z"/>
    <path class="cls-31" d="M112.2,69.89l-5.1-1.81c-1.68,4.02-4.15,7.72-7.33,10.89-.12.12-.23.23-.35.34l3.51,4.12c.22-.21.44-.43.66-.65,3.75-3.75,6.65-8.13,8.6-12.9Z"/>
    <path class="cls-45" d="M84.02,93.45l-1.4-5.22c-2.22.45-4.51.69-6.83.69s-4.61-.23-6.83-.69l-1.4,5.22c2.68.57,5.43.86,8.23.86s5.56-.29,8.23-.86Z"/>
    <path class="cls-18" d="M44.28,31.4l4.52,2.98c.91-1.19,1.91-2.33,2.99-3.41,2.15-2.15,4.54-3.97,7.1-5.45l-2.42-4.84c-3.08,1.74-5.94,3.91-8.5,6.47-1.34,1.34-2.57,2.76-3.69,4.25Z"/>
    <path class="cls-47" d="M66.26,87.56c-4.39-1.28-8.48-3.44-12.06-6.4l-3.67,3.97c4.29,3.6,9.23,6.21,14.54,7.7l1.19-5.28Z"/>
    <path class="cls-8" d="M92.2,26.49l-2.43,4.86c2.91,1.73,5.48,3.98,7.57,6.63l4.53-2.99c-.87-1.13-1.82-2.22-2.85-3.25-2.07-2.07-4.36-3.82-6.82-5.25Z"/>
    <path class="cls-39" d="M92.96,76.39c-2.67,2.14-5.74,3.8-9.08,4.83l1.19,5.29c4.21-1.23,8.13-3.31,11.57-6.14l-3.68-3.99Z"/>
    <path class="cls-48" d="M49.69,34.98l4.53,2.99c2.09-2.65,4.66-4.9,7.57-6.63l-2.43-4.86c-2.46,1.43-4.76,3.18-6.82,5.25-1.03,1.03-1.98,2.11-2.85,3.25Z"/>
    <path class="cls-21" d="M67.69,81.22c-3.34-1.03-6.41-2.69-9.08-4.83l-3.68,3.99c3.43,2.83,7.36,4.9,11.57,6.14l1.19-5.29Z"/>
    <path class="cls-33" d="M48.79,49.9c.64-3.4,1.91-6.59,3.68-9.43l-4.4-3.17c-2.35,3.67-3.93,7.75-4.67,12.06l5.4.54Z"/>
    <path class="cls-11" d="M52.83,78.49l3.51-4.13c-2.41-2.42-4.38-5.29-5.76-8.47l-5.11,1.82c1.63,3.87,4.01,7.43,7.07,10.5.09.09.19.19.29.28Z"/>
    <path class="cls-42" d="M108.53,52.16l-5.36.76c.05.68.08,1.36.08,2.05,0,2.81-.42,5.52-1.21,8.07l5.04,2.03c1.04-3.22,1.57-6.62,1.57-10.1,0-.94-.04-1.88-.12-2.81Z"/>
    <path class="cls-39" d="M106.09,67.71l-5.11-1.82c-1.38,3.18-3.35,6.04-5.76,8.46l3.51,4.13c.1-.09.19-.19.29-.28,3.06-3.06,5.44-6.62,7.07-10.5Z"/>
    <path class="cls-57" d="M77.31,27.55c3.46.19,6.75,1.02,9.75,2.38l2.62-4.76c-3.88-1.81-8.1-2.85-12.48-3.04l.11,5.41Z"/>
    <path class="cls-58" d="M44.49,65.07l5.04-2.03c-.79-2.55-1.21-5.26-1.21-8.07,0-.69.03-1.38.08-2.05l-5.36-.76c-.08.93-.12,1.87-.12,2.81,0,3.48.54,6.88,1.57,10.1Z"/>
    <path class="cls-46" d="M82.34,87.18l-1.4-5.24c-1.67.32-3.39.49-5.15.49s-3.48-.17-5.15-.49l-1.4,5.24c2.13.43,4.33.65,6.55.65s4.42-.22,6.55-.65Z"/>
    <path class="cls-57" d="M64.5,29.93c3-1.36,6.29-2.19,9.75-2.38l.11-5.41c-4.38.18-8.6,1.22-12.48,3.04l2.62,4.76Z"/>
    <path class="cls-43" d="M99.1,40.47c1.77,2.84,3.04,6.02,3.68,9.43l5.4-.54c-.74-4.31-2.32-8.39-4.67-12.06l-4.4,3.17Z"/>
    <path class="cls-10" d="M69.11,74.87c-2.22-.75-4.28-1.86-6.1-3.26l-3.67,3.98c2.53,2.02,5.43,3.58,8.58,4.57l1.19-5.29Z"/>
    <path class="cls-6" d="M88.55,71.62c-1.82,1.4-3.88,2.51-6.1,3.26l1.19,5.29c3.16-.99,6.06-2.55,8.58-4.57l-3.67-3.98Z"/>
    <path class="cls-16" d="M80.65,80.91l-1.4-5.24c-1.13.19-2.29.29-3.47.29s-2.34-.1-3.47-.29l-1.4,5.24c1.58.3,3.21.45,4.87.45s3.29-.16,4.87-.45Z"/>
    <path class="cls-53" d="M55.12,38.57l4.53,2.99c1.43-1.72,3.14-3.21,5.05-4.4l-2.42-4.85c-2.75,1.64-5.17,3.77-7.15,6.26Z"/>
    <path class="cls-20" d="M60.56,69.4c-1.58-1.66-2.89-3.58-3.86-5.69l-5.1,1.82c1.31,3,3.17,5.71,5.45,8l3.51-4.13Z"/>
    <path class="cls-49" d="M50.53,62.64l5.03-2.03c-.5-1.79-.77-3.69-.77-5.64,0-.38.01-.76.03-1.14l-5.36-.76c-.04.63-.07,1.26-.07,1.9,0,2.66.4,5.24,1.14,7.67Z"/>
    <path class="cls-43" d="M93.83,44.27c1.14,1.92,1.99,4.04,2.47,6.28l5.4-.54c-.61-3.21-1.81-6.22-3.48-8.9l-4.39,3.17Z"/>
    <path class="cls-17" d="M89.29,32.31l-2.42,4.85c1.91,1.19,3.61,2.68,5.05,4.4l4.52-2.99c-1.98-2.49-4.41-4.62-7.15-6.26Z"/>
    <path class="cls-15" d="M67.64,35.62c2.02-.85,4.2-1.4,6.48-1.58l.11-5.42c-3.26.19-6.37.97-9.21,2.25l2.62,4.75Z"/>
    <path class="cls-36" d="M102.1,53.07l-5.36.76c.02.38.03.76.03,1.14,0,1.95-.27,3.84-.77,5.64l5.03,2.03c.74-2.43,1.14-5,1.14-7.67,0-.64-.02-1.27-.07-1.9Z"/>
    <path class="cls-15" d="M77.44,34.05c2.28.18,4.46.72,6.48,1.58l2.62-4.75c-2.84-1.27-5.95-2.06-9.21-2.25l.11,5.42Z"/>
    <path class="cls-6" d="M94.86,63.71c-.97,2.11-2.28,4.03-3.86,5.69l3.51,4.13c2.27-2.3,4.13-5.01,5.45-8l-5.1-1.82Z"/>
    <path class="cls-12" d="M55.26,50.55c.48-2.25,1.33-4.36,2.47-6.28l-4.39-3.17c-1.67,2.69-2.86,5.69-3.48,8.9l5.4.54Z"/>
    <path class="cls-6" d="M84.14,66.83c-.96.68-2.01,1.24-3.12,1.68l1.2,5.31c2.04-.7,3.93-1.72,5.61-3l-3.68-3.99Z"/>
    <path class="cls-28" d="M95.67,53.98l-5.38.76c0,.07,0,.15,0,.22,0,1.1-.12,2.17-.36,3.2l5.06,2.04c.46-1.67.7-3.42.7-5.23,0-.33,0-.66-.02-.99Z"/>
    <path class="cls-34" d="M70.55,68.51c-1.11-.43-2.16-1-3.12-1.68l-3.68,3.99c1.68,1.28,3.57,2.3,5.61,3l1.2-5.31Z"/>
    <path class="cls-41" d="M88.73,61.53c-.53,1.05-1.19,2.02-1.95,2.91l3.53,4.15c1.44-1.54,2.64-3.3,3.54-5.23l-5.12-1.82Z"/>
    <path class="cls-27" d="M77.58,40.57c1.11.14,2.18.4,3.2.77l2.63-4.77c-1.86-.77-3.85-1.27-5.94-1.44l.11,5.44Z"/>
    <path class="cls-4" d="M88.55,48.07c.53.98.95,2.03,1.25,3.13l5.42-.55c-.46-2.06-1.23-4-2.27-5.76l-4.4,3.17Z"/>
    <path class="cls-9" d="M61.76,51.21c.3-1.1.72-2.15,1.25-3.13l-4.4-3.17c-1.04,1.77-1.81,3.7-2.27,5.76l5.42.55Z"/>
    <path class="cls-22" d="M60.55,42.15l4.54,3c.75-.82,1.59-1.55,2.51-2.17l-2.43-4.86c-1.74,1.1-3.3,2.46-4.63,4.03Z"/>
    <path class="cls-27" d="M70.79,41.34c1.02-.37,2.09-.64,3.2-.77l.11-5.44c-2.09.18-4.08.67-5.94,1.44l2.63,4.77Z"/>
    <path class="cls-5" d="M56.57,60.21l5.06-2.04c-.23-1.03-.36-2.1-.36-3.2,0-.07,0-.15,0-.22l-5.38-.76c-.02.33-.02.66-.02.99,0,1.81.24,3.57.7,5.23Z"/>
    <path class="cls-59" d="M78.97,74.63l-1.41-5.25c-.58.07-1.18.11-1.78.11s-1.2-.04-1.78-.11l-1.41,5.25c1.04.17,2.1.26,3.19.26s2.15-.09,3.19-.26Z"/>
    <path class="cls-23" d="M86.39,38.12l-2.43,4.86c.92.63,1.76,1.36,2.51,2.17l4.54-3c-1.32-1.57-2.88-2.93-4.63-4.03Z"/>
    <path class="cls-19" d="M64.78,64.43c-.76-.88-1.42-1.86-1.95-2.91l-5.12,1.82c.9,1.93,2.1,3.69,3.54,5.23l3.53-4.15Z"/>
    <path class="cls-50" d="M83.48,43.96l-2.37,4.74,4.45-2.94c-.63-.67-1.33-1.27-2.08-1.8Z"/>
    <path class="cls-50" d="M66.01,45.76l4.45,2.94-2.37-4.74c-.76.53-1.45,1.13-2.08,1.8Z"/>
    <path class="cls-50" d="M77.7,46.91l2.55-4.62c-.85-.3-1.74-.52-2.65-.64l.11,5.26Z"/>
    <path class="cls-50" d="M68.27,51.86l-4.38-3.16c-.44.82-.79,1.7-1.05,2.61l5.43.55Z"/>
    <path class="cls-50" d="M69.17,59.27l-5.32,1.89c.46.87,1,1.69,1.63,2.44l3.69-4.33Z"/>
    <path class="cls-50" d="M89.22,54.9l-5.47.78,5.18,2.09c.19-.9.29-1.83.29-2.79,0-.02,0-.05,0-.07Z"/>
    <path class="cls-50" d="M82.39,59.27l3.69,4.33c.63-.75,1.18-1.57,1.63-2.44l-5.32-1.89Z"/>
    <path class="cls-50" d="M73.86,46.91l.11-5.26c-.92.12-1.8.34-2.65.64l2.55,4.62Z"/>
    <path class="cls-50" d="M83.29,51.86l5.43-.55c-.26-.91-.61-1.79-1.05-2.61l-4.38,3.16Z"/>
    <path class="cls-50" d="M62.63,57.76l5.18-2.09-5.47-.78s0,.05,0,.07c0,.96.1,1.89.29,2.79Z"/>
    <path class="cls-50" d="M77.28,68.33l-1.5-5.59-1.5,5.59c.49.05.99.08,1.5.08s1.01-.03,1.5-.08Z"/>
    <path class="cls-50" d="M79.51,61.82l1.27,5.63c.93-.37,1.81-.85,2.62-1.41l-3.89-4.22Z"/>
    <path class="cls-50" d="M72.05,61.82l-3.89,4.22c.81.56,1.69,1.04,2.62,1.41l1.27-5.63Z"/>
  </g>
</svg>