<?xml version="1.0" encoding="UTF-8"?>
<svg xmlns="http://www.w3.org/2000/svg" viewBox="0 0 70.74 65.53">
  <defs>
    <style>
      .cls-1 {
        isolation: isolate;
      }

      .cls-2 {
        fill: #fff100;
      }

      .cls-2, .cls-3, .cls-4 {
        mix-blend-mode: darken;
      }

      .cls-5 {
        fill: #fff;
      }

      .cls-3 {
        fill: #eb008b;
      }

      .cls-4 {
        fill: #00adee;
      }
    </style>
  </defs>
  <g class="cls-1">
    <g id="Layer_1" data-name="Layer 1">
      <g>
        <path class="cls-5" d="M62.53,28.07c-1.6-1.22-3.32-2.15-5.1-2.84,1.63-7.65-1.1-15.9-7.73-20.96-9.16-6.99-22.26-5.22-29.24,3.94-3.63,4.76-4.88,10.59-3.97,16.07-4.7,1.01-9.07,3.62-12.21,7.74-6.99,9.16-5.22,22.26,3.94,29.24,8.32,6.34,19.86,5.45,27.15-1.62.59.57,1.2,1.12,1.87,1.62,9.16,6.99,22.26,5.22,29.24-3.94,6.99-9.16,5.22-22.26-3.94-29.24Z"/>
        <circle class="cls-4" cx="20.87" cy="44.67" r="20.86"/>
        <circle class="cls-3" cx="37.05" cy="20.87" r="20.86"/>
        <circle class="cls-2" cx="49.88" cy="44.67" r="20.86"/>
      </g>
    </g>
  </g>
</svg>