<?xml version="1.0" encoding="UTF-8"?>
<svg xmlns="http://www.w3.org/2000/svg" viewBox="0 0 151.57 109.96">
  <defs>
    <style>
      .cls-1 {
        isolation: isolate;
      }

      .cls-2 {
        fill: #fff100;
      }

      .cls-2, .cls-3, .cls-4 {
        mix-blend-mode: darken;
      }

      .cls-5 {
        fill: #fff;
      }

      .cls-3 {
        fill: #eb008b;
      }

      .cls-4 {
        fill: #00adee;
      }
    </style>
  </defs>
  <g class="cls-1">
    <g id="Layer_1" data-name="Layer 1">
      <g>
        <path class="cls-5" d="M107.42,49.51c-1.86-1.42-3.86-2.51-5.94-3.31,1.9-8.91-1.28-18.53-9.01-24.42-10.68-8.14-25.93-6.08-34.07,4.6-4.23,5.55-5.68,12.34-4.62,18.72-5.47,1.17-10.57,4.21-14.23,9.01-8.14,10.68-6.08,25.93,4.6,34.07,9.69,7.39,23.14,6.35,31.63-1.89.68.66,1.4,1.3,2.17,1.89,10.68,8.14,25.93,6.08,34.07-4.6,8.14-10.68,6.08-25.93-4.6-34.07Z"/>
        <circle class="cls-4" cx="58.88" cy="68.84" r="24.31"/>
        <circle class="cls-3" cx="77.73" cy="41.11" r="24.31"/>
        <circle class="cls-2" cx="92.69" cy="68.84" r="24.31"/>
      </g>
    </g>
  </g>
</svg>