<?xml version="1.0" encoding="UTF-8"?>
<svg id="Layer_1" data-name="Layer 1" xmlns="http://www.w3.org/2000/svg" xmlns:xlink="http://www.w3.org/1999/xlink" viewBox="0 0 65.36 65.36">
  <defs>
    <style>
      .cls-1 {
        fill: none;
      }

      .cls-2 {
        fill: #afd136;
      }

      .cls-3 {
        clip-path: url(#clippath);
      }
    </style>
    <clipPath id="clippath">
      <circle class="cls-1" cx="32.68" cy="32.68" r="32.68"/>
    </clipPath>
  </defs>
  <g class="cls-3">
    <g>
      <path class="cls-2" d="M29.93-.56c.2.64-.06,1.03-.59.85-.53-.17-1.11-.85-1.29-1.49-.18-.64.08-1.01.59-.83.51.18,1.09.83,1.29,1.47Z"/>
      <path class="cls-2" d="M33.03.32c.23.63,0,1.04-.54.9-.53-.14-1.14-.78-1.35-1.41-.21-.63.03-1.02.54-.88.51.14,1.12.76,1.35,1.39Z"/>
      <path class="cls-2" d="M36.14.97c.25.62.03,1.06-.5.96-.53-.1-1.16-.7-1.4-1.33-.24-.63-.01-1.04.5-.93.52.1,1.14.68,1.4,1.3Z"/>
      <path class="cls-2" d="M39.28,1.37c.27.62.06,1.08-.47,1.03-.53-.06-1.18-.62-1.44-1.24-.26-.62-.05-1.06.48-1,.52.06,1.17.59,1.44,1.21Z"/>
      <path class="cls-2" d="M42.48,1.45c.28.61.04,1.15-.5,1.15-.54,0-1.2-.53-1.48-1.14-.28-.61-.07-1.09.46-1.08.53.01,1.23.46,1.52,1.08Z"/>
      <path class="cls-2" d="M45.82.99c.28.62.06,1.21-.51,1.31-.57.09-1.26-.35-1.54-.97-.28-.61-.05-1.16.51-1.26.56-.09,1.25.3,1.53.92Z"/>
      <path class="cls-2" d="M49.21.05c.29.62.06,1.28-.51,1.46-.57.17-1.27-.21-1.56-.83-.29-.62-.05-1.24.52-1.41.57-.18,1.26.16,1.55.78Z"/>
      <path class="cls-2" d="M52.63-1.34c.29.62.06,1.35-.51,1.59s-1.29-.08-1.58-.7c-.29-.62-.06-1.31.52-1.55.58-.25,1.28.04,1.57.66Z"/>
      <path class="cls-2" d="M21.22-.57c.09.68-.29,1.04-.86.8-.57-.24-1.08-.99-1.15-1.68-.07-.69.32-1.04.86-.79.54.25,1.06.99,1.15,1.67Z"/>
      <path class="cls-2" d="M24.51.77c.14.67-.21,1.04-.78.82-.57-.22-1.12-.95-1.23-1.62-.11-.67.24-1.03.78-.8.54.23,1.09.94,1.22,1.6Z"/>
      <path class="cls-2" d="M27.79,1.96c.17.65-.14,1.03-.7.84-.56-.19-1.15-.89-1.3-1.55-.15-.66.17-1.02.71-.83.54.2,1.12.88,1.29,1.53Z"/>
      <path class="cls-2" d="M31.07,2.99c.21.64-.07,1.04-.64.88-.56-.16-1.17-.83-1.36-1.48-.19-.65.1-1.03.64-.86.54.17,1.15.82,1.36,1.46Z"/>
      <path class="cls-2" d="M34.33,3.82c.24.63-.02,1.05-.57.92-.56-.13-1.19-.76-1.41-1.4-.22-.64.04-1.03.58-.9.54.14,1.17.75,1.41,1.38Z"/>
      <path class="cls-2" d="M37.58,4.43c.26.62.03,1.07-.52.97-.55-.09-1.21-.69-1.46-1.32-.25-.63-.01-1.05.53-.95.54.1,1.19.67,1.45,1.3Z"/>
      <path class="cls-2" d="M40.82,4.79c.28.62.07,1.09-.48,1.04-.55-.05-1.22-.61-1.49-1.23-.27-.62-.05-1.07.49-1.01.54.05,1.2.59,1.49,1.21Z"/>
      <path class="cls-2" d="M44.08,4.86c.29.62.06,1.15-.48,1.15-.55,0-1.23-.52-1.52-1.14-.29-.62-.08-1.1.45-1.09.54,0,1.25.47,1.54,1.08Z"/>
      <path class="cls-2" d="M47.44,4.41c.3.62.08,1.22-.49,1.31-.57.09-1.27-.36-1.56-.98-.29-.62-.07-1.17.49-1.26.57-.09,1.27.31,1.56.93Z"/>
      <path class="cls-2" d="M50.84,3.49c.3.62.08,1.29-.5,1.46-.58.17-1.29-.22-1.59-.84-.3-.62-.07-1.24.5-1.41.57-.17,1.28.17,1.58.79Z"/>
      <path class="cls-2" d="M54.3,2.13c.31.63.08,1.35-.5,1.59-.58.24-1.3-.09-1.61-.71-.3-.62-.08-1.31.5-1.55s1.3.05,1.6.67Z"/>
      <path class="cls-2" d="M57.79.38c.31.63.09,1.41-.5,1.71-.59.3-1.32.02-1.63-.6-.31-.63-.08-1.37.51-1.68s1.31-.06,1.63.57Z"/>
      <path class="cls-2" d="M61.31-1.7c.32.64.1,1.46-.5,1.82-.6.36-1.34.12-1.65-.51-.31-.63-.09-1.43.5-1.79.59-.36,1.33-.16,1.65.48Z"/>
      <path class="cls-2" d="M14.64.35c0,.71-.5,1.09-1.11.84s-1.09-1.04-1.07-1.76c.03-.72.53-1.09,1.11-.83.59.26,1.06,1.04,1.06,1.76Z"/>
      <path class="cls-2" d="M18.2,1.82c.05.7-.41,1.07-1.02.83-.61-.24-1.13-1.01-1.15-1.71-.02-.7.44-1.07,1.02-.82.59.25,1.1,1.01,1.15,1.71Z"/>
      <path class="cls-2" d="M21.74,3.2c.09.68-.32,1.06-.93.83-.61-.22-1.16-.97-1.23-1.66-.07-.69.35-1.05.93-.82.58.23,1.13.97,1.23,1.65Z"/>
      <path class="cls-2" d="M25.27,4.46c.14.67-.24,1.05-.85.85-.61-.2-1.19-.92-1.3-1.6-.11-.68.27-1.04.85-.83.58.21,1.16.92,1.3,1.59Z"/>
      <path class="cls-2" d="M28.77,5.59c.18.66-.16,1.05-.76.87-.6-.18-1.21-.87-1.37-1.54-.15-.66.19-1.04.77-.85.58.19,1.19.86,1.36,1.52Z"/>
      <path class="cls-2" d="M32.24,6.55c.21.64-.09,1.05-.69.9-.59-.15-1.23-.81-1.42-1.46-.19-.65.12-1.04.69-.88.57.16,1.21.8,1.42,1.45Z"/>
      <path class="cls-2" d="M35.67,7.33c.24.63-.03,1.06-.62.94-.59-.12-1.25-.75-1.47-1.39-.23-.64.05-1.05.62-.92.57.13,1.22.73,1.47,1.37Z"/>
      <path class="cls-2" d="M39.06,7.89c.27.63.02,1.08-.55.99-.58-.09-1.25-.68-1.51-1.31-.25-.63,0-1.06.56-.97.56.09,1.23.66,1.5,1.29Z"/>
      <path class="cls-2" d="M42.41,8.22c.29.62.07,1.1-.5,1.05-.57-.05-1.26-.6-1.53-1.22-.28-.62-.05-1.08.51-1.03.56.05,1.24.58,1.53,1.2Z"/>
      <path class="cls-2" d="M45.72,8.27c.3.62.08,1.15-.47,1.14-.56,0-1.25-.52-1.55-1.13-.3-.62-.09-1.1.46-1.1.55,0,1.26.47,1.56,1.09Z"/>
      <path class="cls-2" d="M49.1,7.85c.3.62.08,1.22-.49,1.3-.57.09-1.28-.37-1.58-.98-.3-.62-.09-1.17.48-1.26.57-.09,1.28.32,1.58.94Z"/>
      <path class="cls-2" d="M52.53,6.94c.31.62.09,1.28-.5,1.45-.58.17-1.3-.22-1.6-.85-.31-.62-.08-1.24.49-1.41.58-.17,1.3.18,1.61.8Z"/>
      <path class="cls-2" d="M56.02,5.61c.31.63.09,1.35-.5,1.59-.59.24-1.32-.1-1.63-.72-.31-.63-.09-1.31.5-1.55.59-.24,1.32.06,1.63.68Z"/>
      <path class="cls-2" d="M59.54,3.89c.32.63.09,1.41-.5,1.71-.6.3-1.34.01-1.65-.62-.32-.63-.09-1.37.5-1.67.59-.3,1.33-.05,1.65.58Z"/>
      <path class="cls-2" d="M63.1,1.84c.33.64.1,1.46-.5,1.81-.6.35-1.35.11-1.67-.52-.32-.64-.1-1.43.5-1.78.6-.36,1.35-.14,1.68.5Z"/>
      <path class="cls-2" d="M66.69-.51c.33.65.11,1.51-.5,1.91-.61.4-1.37.19-1.7-.45-.33-.64-.11-1.48.5-1.88.6-.4,1.36-.22,1.7.42Z"/>
      <path class="cls-2" d="M3.06-.13c-.15.76-.81,1.17-1.48.93C.92.56.53-.27.71-1.04c.18-.77.84-1.19,1.48-.93.64.26,1.03,1.08.88,1.84Z"/>
      <path class="cls-2" d="M6.93,1.37c-.1.74-.72,1.15-1.39.9-.67-.25-1.1-1.06-.97-1.81.13-.75.75-1.15,1.39-.9.64.26,1.07,1.07.97,1.81Z"/>
      <path class="cls-2" d="M10.79,2.85c-.05.73-.63,1.12-1.29.88-.67-.24-1.14-1.04-1.06-1.78.08-.74.66-1.13,1.29-.87.63.25,1.11,1.05,1.06,1.77Z"/>
      <path class="cls-2" d="M14.64,4.3c0,.71-.53,1.1-1.2.86-.66-.24-1.18-1.02-1.15-1.74.03-.72.57-1.1,1.2-.86.63.25,1.15,1.02,1.15,1.73Z"/>
      <path class="cls-2" d="M18.47,5.68c.05.7-.44,1.08-1.1.86-.66-.23-1.21-.98-1.23-1.69-.02-.71.47-1.08,1.1-.85.63.23,1.18.99,1.23,1.68Z"/>
      <path class="cls-2" d="M22.27,6.97c.09.68-.36,1.07-1.01.86-.65-.21-1.24-.95-1.31-1.64-.07-.69.39-1.07,1.01-.85.62.22,1.21.95,1.3,1.63Z"/>
      <path class="cls-2" d="M26.03,8.16c.14.67-.27,1.06-.92.87-.65-.19-1.26-.9-1.37-1.58-.11-.68.3-1.06.92-.86.62.2,1.23.9,1.37,1.57Z"/>
      <path class="cls-2" d="M29.75,9.22c.18.66-.19,1.06-.83.89-.64-.17-1.28-.85-1.43-1.51-.15-.66.22-1.05.83-.87.61.18,1.25.85,1.43,1.5Z"/>
      <path class="cls-2" d="M33.42,10.12c.21.64-.12,1.06-.74.92-.63-.14-1.29-.79-1.48-1.45-.19-.65.14-1.05.75-.9.6.15,1.27.79,1.48,1.43Z"/>
      <path class="cls-2" d="M37.02,10.84c.24.63-.05,1.07-.67.95-.61-.11-1.3-.73-1.52-1.37-.23-.64.08-1.05.67-.94.6.12,1.27.72,1.52,1.35Z"/>
      <path class="cls-2" d="M40.56,11.36c.27.63,0,1.08-.59,1-.6-.08-1.3-.66-1.55-1.29-.26-.63.02-1.07.6-.98.59.08,1.28.65,1.55,1.27Z"/>
      <path class="cls-2" d="M44.02,11.66c.29.62.06,1.1-.53,1.06-.59-.04-1.29-.59-1.57-1.21-.28-.62-.04-1.08.54-1.04.57.04,1.27.57,1.56,1.19Z"/>
      <path class="cls-2" d="M47.39,11.69c.3.62.09,1.14-.48,1.14-.57,0-1.28-.51-1.57-1.13-.3-.62-.08-1.11.48-1.11.56,0,1.27.48,1.57,1.09Z"/>
      <path class="cls-2" d="M50.79,11.28c.31.62.08,1.21-.49,1.3-.58.08-1.28-.37-1.59-.99-.3-.62-.09-1.17.49-1.25.57-.09,1.29.32,1.59.94Z"/>
      <path class="cls-2" d="M54.25,10.4c.31.62.08,1.28-.5,1.44-.59.16-1.31-.23-1.61-.85-.31-.62-.09-1.24.5-1.4.58-.16,1.31.19,1.62.81Z"/>
      <path class="cls-2" d="M57.76,9.09c.32.63.09,1.34-.51,1.58-.59.23-1.33-.1-1.64-.73-.31-.63-.09-1.31.5-1.54.59-.24,1.33.07,1.64.69Z"/>
      <path class="cls-2" d="M61.32,7.4c.32.63.09,1.4-.51,1.7-.6.29-1.35,0-1.66-.63-.32-.63-.09-1.37.51-1.66.6-.3,1.35-.04,1.67.59Z"/>
      <path class="cls-2" d="M64.92,5.38c.33.64.1,1.45-.51,1.8-.61.35-1.36.1-1.69-.54-.32-.64-.1-1.42.51-1.78.61-.35,1.36-.13,1.69.51Z"/>
      <path class="cls-2" d="M2.24,4.07c-.15.76-.84,1.18-1.56.95-.71-.23-1.15-1.04-.97-1.8.18-.77.88-1.19,1.56-.95.68.24,1.12,1.05.97,1.81Z"/>
      <path class="cls-2" d="M6.39,5.48c-.1.74-.75,1.15-1.47.92-.71-.23-1.19-1.03-1.06-1.78.13-.75.79-1.16,1.47-.92.68.24,1.16,1.04,1.06,1.78Z"/>
      <path class="cls-2" d="M10.53,6.88c-.05.72-.66,1.13-1.37.9-.71-.23-1.23-1.01-1.15-1.75.08-.73.69-1.14,1.38-.9.68.24,1.19,1.02,1.15,1.74Z"/>
      <path class="cls-2" d="M14.65,8.23c0,.71-.57,1.11-1.28.88-.71-.22-1.26-.99-1.23-1.71.03-.72.6-1.11,1.28-.88.68.23,1.23.99,1.23,1.7Z"/>
      <path class="cls-2" d="M18.74,9.53c.05.69-.48,1.09-1.18.88s-1.29-.96-1.31-1.66c-.02-.7.51-1.09,1.18-.87.67.22,1.26.96,1.31,1.65Z"/>
      <path class="cls-2" d="M22.8,10.75c.09.68-.39,1.08-1.08.88-.69-.2-1.31-.92-1.38-1.61-.07-.69.42-1.08,1.09-.87.67.21,1.28.92,1.38,1.6Z"/>
      <path class="cls-2" d="M26.8,11.86c.14.67-.3,1.07-.99.89-.68-.18-1.33-.88-1.44-1.55-.11-.67.33-1.06.99-.88.66.19,1.3.88,1.44,1.54Z"/>
      <path class="cls-2" d="M30.73,12.85c.18.65-.22,1.06-.9.9-.67-.16-1.34-.83-1.5-1.49-.15-.66.25-1.06.9-.89.65.17,1.32.82,1.49,1.48Z"/>
      <path class="cls-2" d="M34.59,13.69c.21.64-.15,1.06-.81.93-.66-.13-1.35-.77-1.54-1.42-.19-.65.17-1.06.81-.92.64.14,1.32.77,1.53,1.41Z"/>
      <path class="cls-2" d="M38.37,14.36c.24.63-.08,1.07-.72.97-.64-.1-1.35-.71-1.57-1.35-.22-.64.1-1.06.73-.95.62.11,1.32.7,1.56,1.34Z"/>
      <path class="cls-2" d="M42.05,14.83c.27.63-.02,1.08-.64,1.01-.62-.07-1.34-.65-1.59-1.28-.25-.63.04-1.07.65-.99.61.08,1.32.63,1.58,1.26Z"/>
      <path class="cls-2" d="M45.62,15.09c.29.62.04,1.1-.57,1.07-.6-.03-1.32-.58-1.6-1.2-.28-.62-.02-1.09.58-1.05.59.04,1.3.56,1.59,1.18Z"/>
      <path class="cls-2" d="M49.06,15.11c.3.62.09,1.13-.49,1.14-.58,0-1.29-.5-1.59-1.12-.29-.62-.06-1.11.51-1.11.57,0,1.27.48,1.57,1.1Z"/>
      <path class="cls-2" d="M52.47,14.72c.3.62.07,1.21-.51,1.29-.58.08-1.28-.37-1.58-.99-.3-.62-.08-1.16.5-1.25.58-.08,1.29.33,1.59.95Z"/>
      <path class="cls-2" d="M55.96,13.85c.31.62.07,1.28-.52,1.44-.59.16-1.31-.24-1.61-.86-.3-.62-.08-1.23.51-1.4.59-.16,1.31.19,1.62.82Z"/>
      <path class="cls-2" d="M59.5,12.57c.31.63.07,1.34-.53,1.57-.6.23-1.33-.11-1.64-.74-.31-.62-.08-1.3.52-1.53s1.34.07,1.65.7Z"/>
      <path class="cls-2" d="M63.09,10.91c.32.63.08,1.4-.53,1.69-.61.29-1.35,0-1.66-.63-.31-.63-.08-1.36.52-1.65.6-.29,1.36-.03,1.67.6Z"/>
      <path class="cls-2" d="M66.73,8.93c.32.64.08,1.45-.53,1.79-.62.34-1.37.09-1.69-.54-.32-.64-.09-1.42.53-1.76.61-.35,1.37-.12,1.7.52Z"/>
      <path class="cls-2" d="M1.43,8.25c-.14.75-.87,1.18-1.63.96-.76-.22-1.24-1.01-1.06-1.77.17-.76.91-1.2,1.64-.97.73.23,1.2,1.02,1.06,1.77Z"/>
      <path class="cls-2" d="M5.86,9.57c-.09.74-.78,1.15-1.54.94-.76-.22-1.28-1-1.15-1.74.12-.74.82-1.17,1.55-.94.73.23,1.24,1.01,1.15,1.74Z"/>
      <path class="cls-2" d="M10.27,10.88c-.05.72-.69,1.13-1.45.91-.76-.21-1.31-.98-1.24-1.71.07-.73.73-1.14,1.46-.92.73.22,1.28.99,1.23,1.71Z"/>
      <path class="cls-2" d="M14.66,12.15c0,.7-.6,1.11-1.36.9-.75-.21-1.34-.96-1.32-1.67.03-.71.64-1.12,1.36-.9.72.22,1.31.96,1.31,1.67Z"/>
      <path class="cls-2" d="M19.01,13.37c.05.69-.51,1.09-1.26.89-.75-.2-1.37-.93-1.39-1.63-.02-.7.55-1.1,1.26-.89.72.21,1.34.93,1.39,1.62Z"/>
      <path class="cls-2" d="M23.31,14.51c.09.68-.43,1.08-1.16.89-.74-.18-1.39-.89-1.45-1.58-.07-.68.46-1.08,1.17-.89.71.19,1.36.89,1.45,1.57Z"/>
      <path class="cls-2" d="M27.55,15.55c.13.66-.34,1.07-1.06.9-.72-.17-1.4-.85-1.51-1.52-.11-.67.37-1.07,1.07-.89.7.18,1.37.85,1.5,1.51Z"/>
      <path class="cls-2" d="M31.7,16.47c.17.65-.26,1.06-.97.92-.71-.15-1.41-.8-1.55-1.46-.15-.66.29-1.06.97-.91.68.15,1.38.8,1.55,1.45Z"/>
      <path class="cls-2" d="M35.75,17.25c.21.64-.18,1.07-.87.94-.69-.12-1.4-.75-1.59-1.4-.19-.65.21-1.06.88-.93s1.38.75,1.58,1.39Z"/>
      <path class="cls-2" d="M39.7,17.86c.24.63-.11,1.07-.78.98-.67-.1-1.39-.7-1.61-1.33-.22-.64.14-1.06.79-.96.65.1,1.37.69,1.6,1.32Z"/>
      <path class="cls-2" d="M43.51,18.29c.26.62-.05,1.09-.69,1.02-.65-.06-1.37-.63-1.62-1.26s.07-1.07.7-1,1.35.62,1.61,1.24Z"/>
      <path class="cls-2" d="M47.19,18.52c.28.62,0,1.1-.61,1.07-.62-.03-1.34-.57-1.61-1.19-.27-.62.01-1.09.62-1.06.61.03,1.33.55,1.6,1.17Z"/>
      <path class="cls-2" d="M50.69,18.53c.29.62.08,1.12-.51,1.13-.59,0-1.31-.49-1.59-1.11s-.04-1.11.55-1.12c.58,0,1.27.48,1.56,1.1Z"/>
      <path class="cls-2" d="M54.12,18.15c.29.62.05,1.2-.53,1.28-.58.08-1.28-.38-1.57-.99-.29-.62-.06-1.16.52-1.24.58-.08,1.29.33,1.58.95Z"/>
      <path class="cls-2" d="M57.63,17.3c.3.62.05,1.27-.55,1.43-.59.16-1.31-.24-1.6-.86-.29-.62-.06-1.23.53-1.39.59-.16,1.32.2,1.61.82Z"/>
      <path class="cls-2" d="M61.19,16.04c.3.63.05,1.33-.56,1.55-.6.22-1.33-.12-1.63-.74-.3-.62-.06-1.29.54-1.52.6-.23,1.34.08,1.64.71Z"/>
      <path class="cls-2" d="M64.82,14.41c.31.63.05,1.39-.56,1.67-.61.28-1.35,0-1.65-.64s-.06-1.35.55-1.64c.61-.29,1.36-.02,1.67.61Z"/>
      <path class="cls-2" d="M.66,12.39c-.14.74-.9,1.17-1.7.97-.8-.2-1.32-.97-1.16-1.72.17-.75.93-1.19,1.7-.98.77.21,1.29.99,1.15,1.73Z"/>
      <path class="cls-2" d="M5.35,13.62c-.09.73-.81,1.15-1.62.94-.8-.2-1.36-.96-1.25-1.7.12-.74.84-1.16,1.62-.95.78.21,1.33.98,1.24,1.7Z"/>
      <path class="cls-2" d="M10.03,14.85c-.04.71-.72,1.12-1.53.92-.8-.2-1.4-.95-1.33-1.67.07-.72.76-1.14,1.53-.93.77.21,1.36.96,1.32,1.67Z"/>
      <path class="cls-2" d="M14.68,16.04c0,.7-.64,1.1-1.43.91-.8-.19-1.42-.92-1.4-1.63.02-.71.67-1.11,1.44-.91.77.2,1.39.93,1.4,1.63Z"/>
      <path class="cls-2" d="M19.28,17.17c.05.68-.55,1.09-1.33.9-.79-.19-1.45-.9-1.47-1.59-.02-.69.58-1.09,1.34-.9.76.19,1.41.9,1.46,1.59Z"/>
      <path class="cls-2" d="M23.82,18.24c.09.67-.46,1.07-1.24.9-.77-.17-1.46-.86-1.52-1.54-.07-.68.49-1.08,1.24-.9.75.18,1.43.87,1.52,1.54Z"/>
      <path class="cls-2" d="M28.28,19.21c.13.66-.38,1.07-1.14.91-.76-.16-1.46-.82-1.57-1.49-.11-.66.41-1.07,1.14-.9.74.16,1.43.83,1.56,1.48Z"/>
      <path class="cls-2" d="M32.64,20.06c.17.65-.3,1.06-1.04.93-.74-.14-1.46-.78-1.61-1.43-.14-.65.32-1.06,1.04-.92.72.14,1.43.78,1.6,1.42Z"/>
      <path class="cls-2" d="M36.88,20.78c.2.64-.22,1.06-.94.95-.72-.11-1.45-.73-1.63-1.37-.18-.64.25-1.06.95-.94.7.12,1.43.73,1.62,1.36Z"/>
      <path class="cls-2" d="M40.98,21.35c.23.63-.15,1.07-.84.98-.69-.09-1.43-.68-1.64-1.31-.21-.63.17-1.06.85-.97.68.09,1.41.67,1.63,1.3Z"/>
      <path class="cls-2" d="M44.93,21.74c.25.62-.08,1.08-.75,1.03-.67-.06-1.4-.62-1.64-1.24-.24-.62.11-1.07.76-1.01.65.06,1.38.61,1.63,1.23Z"/>
      <path class="cls-2" d="M48.7,21.93c.27.61-.03,1.1-.66,1.08-.63-.02-1.36-.55-1.62-1.17-.26-.62.05-1.09.67-1.06.63.03,1.34.54,1.61,1.15Z"/>
      <path class="cls-2" d="M52.25,21.93c.27.61.06,1.11-.54,1.12-.6.01-1.31-.48-1.58-1.1-.27-.61,0-1.11.59-1.12.59-.01,1.26.48,1.54,1.1Z"/>
      <path class="cls-2" d="M55.7,21.56c.28.61.02,1.2-.57,1.27-.58.08-1.27-.38-1.55-.99-.28-.61-.04-1.15.55-1.23.58-.08,1.29.34,1.57.95Z"/>
      <path class="cls-2" d="M59.23,20.74c.28.62.02,1.26-.58,1.41-.6.15-1.3-.24-1.58-.86-.28-.62-.03-1.22.56-1.38.59-.15,1.31.2,1.59.82Z"/>
      <path class="cls-2" d="M62.82,19.5c.29.62.01,1.32-.59,1.54-.61.22-1.32-.12-1.61-.74-.28-.62-.03-1.29.58-1.51.61-.22,1.34.09,1.62.71Z"/>
      <path class="cls-2" d="M66.48,17.9c.29.63.02,1.38-.6,1.66-.62.28-1.35-.01-1.63-.64-.29-.62-.03-1.34.59-1.63s1.36-.02,1.65.61Z"/>
      <path class="cls-2" d="M4.87,17.62c-.08.71-.83,1.14-1.68.95-.85-.19-1.45-.93-1.34-1.65.11-.72.87-1.15,1.68-.95.82.2,1.41.94,1.33,1.66Z"/>
      <path class="cls-2" d="M9.81,18.76c-.04.7-.75,1.11-1.59.93-.84-.19-1.48-.91-1.41-1.62.06-.71.78-1.13,1.6-.93.82.2,1.45.93,1.41,1.63Z"/>
      <path class="cls-2" d="M14.71,19.87c0,.69-.66,1.09-1.5.91-.84-.18-1.5-.89-1.48-1.59.02-.7.7-1.11,1.51-.92.81.19,1.47.9,1.48,1.59Z"/>
      <path class="cls-2" d="M19.55,20.93c.05.67-.58,1.08-1.41.91-.83-.17-1.52-.86-1.54-1.55-.02-.68.61-1.09,1.41-.91.8.18,1.49.87,1.53,1.55Z"/>
      <path class="cls-2" d="M24.32,21.93c.09.66-.5,1.07-1.31.91-.81-.16-1.53-.83-1.59-1.5-.06-.67.53-1.07,1.31-.91.79.17,1.49.84,1.58,1.5Z"/>
      <path class="cls-2" d="M28.99,22.83c.12.65-.41,1.06-1.21.91-.79-.15-1.52-.8-1.63-1.45-.1-.66.44-1.06,1.21-.91.77.15,1.49.8,1.62,1.45Z"/>
      <path class="cls-2" d="M33.54,23.62c.16.64-.33,1.06-1.11.93-.77-.13-1.51-.76-1.65-1.4-.14-.65.36-1.06,1.11-.92.75.13,1.49.76,1.65,1.39Z"/>
      <path class="cls-2" d="M37.95,24.29c.19.63-.26,1.06-1.01.95-.75-.1-1.49-.71-1.67-1.34-.17-.63.29-1.06,1.01-.95.73.11,1.47.71,1.66,1.33Z"/>
      <path class="cls-2" d="M42.2,24.81c.21.62-.19,1.07-.91.99-.72-.08-1.46-.66-1.66-1.28-.2-.63.21-1.06.92-.97.7.08,1.44.65,1.65,1.27Z"/>
      <path class="cls-2" d="M46.27,25.16c.23.61-.13,1.08-.81,1.03-.68-.05-1.42-.6-1.65-1.22-.22-.62.15-1.07.82-1.01.67.06,1.4.59,1.64,1.21Z"/>
      <path class="cls-2" d="M50.13,25.33c.25.61-.07,1.1-.72,1.08-.65-.02-1.37-.54-1.61-1.15-.24-.61.09-1.08.73-1.06.64.02,1.35.53,1.6,1.14Z"/>
      <path class="cls-2" d="M53.72,25.31c.25.61.02,1.1-.58,1.11-.61.01-1.31-.48-1.56-1.09-.25-.61.04-1.1.64-1.12.6-.01,1.25.48,1.5,1.09Z"/>
      <path class="cls-2" d="M57.18,24.95c.26.61-.02,1.19-.61,1.26-.59.07-1.26-.38-1.51-.99-.26-.61,0-1.14.59-1.22.59-.08,1.28.34,1.54.95Z"/>
      <path class="cls-2" d="M60.73,24.15c.26.61-.03,1.25-.63,1.4-.6.15-1.29-.24-1.54-.86-.26-.61,0-1.21.61-1.36.6-.15,1.31.21,1.57.82Z"/>
      <path class="cls-2" d="M64.35,22.93c.26.62-.03,1.31-.64,1.52-.61.22-1.31-.12-1.57-.74-.26-.61.01-1.27.62-1.49.61-.22,1.33.09,1.59.71Z"/>
      <path class="cls-2" d="M4.44,21.54c-.07.7-.85,1.12-1.73.94-.89-.18-1.53-.89-1.43-1.6.1-.71.88-1.14,1.74-.95.86.19,1.5.91,1.42,1.61Z"/>
      <path class="cls-2" d="M9.61,22.61c-.03.69-.77,1.1-1.65.92-.88-.18-1.56-.88-1.5-1.57s.8-1.11,1.66-.93c.86.18,1.52.89,1.49,1.58Z"/>
      <path class="cls-2" d="M14.75,23.64c0,.67-.69,1.08-1.56.91-.87-.17-1.57-.86-1.56-1.54.02-.68.72-1.09,1.57-.91.85.18,1.54.87,1.55,1.54Z"/>
      <path class="cls-2" d="M19.82,24.63c.05.66-.61,1.07-1.47.9-.86-.16-1.59-.83-1.61-1.5-.02-.67.64-1.08,1.48-.91s1.55.84,1.6,1.5Z"/>
      <path class="cls-2" d="M24.8,25.56c.08.65-.53,1.06-1.38.91-.85-.15-1.59-.8-1.65-1.46-.06-.66.56-1.06,1.38-.91.82.16,1.56.81,1.64,1.46Z"/>
      <path class="cls-2" d="M29.66,26.4c.12.64-.45,1.05-1.28.91-.83-.14-1.58-.77-1.68-1.41-.1-.65.48-1.05,1.29-.91.81.14,1.55.77,1.67,1.41Z"/>
      <path class="cls-2" d="M34.39,27.14c.15.63-.38,1.05-1.18.93-.8-.12-1.56-.73-1.69-1.37-.13-.64.4-1.05,1.18-.92.78.12,1.53.73,1.68,1.36Z"/>
      <path class="cls-2" d="M38.96,27.75c.18.62-.3,1.05-1.07.95-.77-.1-1.53-.69-1.69-1.31-.16-.63.33-1.05,1.08-.95.76.1,1.51.68,1.68,1.31Z"/>
      <path class="cls-2" d="M43.34,28.23c.2.61-.24,1.06-.97.98-.74-.07-1.49-.64-1.67-1.26-.18-.62.26-1.05.98-.97.72.08,1.47.63,1.67,1.25Z"/>
      <path class="cls-2" d="M47.51,28.55c.21.61-.17,1.07-.87,1.02-.7-.05-1.44-.59-1.64-1.2-.2-.61.19-1.06.88-1.01.69.05,1.42.58,1.63,1.19Z"/>
      <path class="cls-2" d="M51.44,28.69c.23.61-.12,1.09-.78,1.07-.66-.02-1.37-.53-1.59-1.14-.22-.61.14-1.08.79-1.06.65.02,1.36.52,1.58,1.12Z"/>
      <path class="cls-2" d="M55.07,28.67c.23.6-.02,1.09-.63,1.1-.61.02-1.3-.47-1.52-1.07-.23-.6.09-1.1.69-1.11.61-.01,1.23.48,1.46,1.09Z"/>
      <path class="cls-2" d="M58.54,28.32c.23.61-.07,1.18-.66,1.25-.59.07-1.24-.38-1.47-.98-.23-.6.05-1.13.63-1.21.59-.07,1.26.34,1.49.94Z"/>
      <path class="cls-2" d="M62.1,27.53c.23.61-.08,1.24-.68,1.38-.6.15-1.27-.24-1.5-.85-.23-.61.06-1.2.66-1.35.6-.15,1.29.21,1.53.81Z"/>
      <path class="cls-2" d="M65.74,26.34c.24.61-.08,1.29-.7,1.51-.62.21-1.3-.12-1.53-.73-.24-.61.06-1.26.68-1.48.61-.22,1.32.09,1.56.7Z"/>
      <path class="cls-2" d="M4.07,25.36c-.06.68-.86,1.09-1.78.93-.92-.17-1.6-.85-1.52-1.54.09-.69.89-1.11,1.79-.94.9.17,1.57.87,1.51,1.55Z"/>
      <path class="cls-2" d="M9.46,26.36c-.03.67-.79,1.07-1.7.91-.92-.16-1.63-.84-1.58-1.52.05-.68.82-1.09,1.71-.92.9.17,1.6.86,1.57,1.53Z"/>
      <path class="cls-2" d="M14.8,27.33c.01.66-.71,1.06-1.62.9-.91-.16-1.64-.82-1.63-1.49.01-.66.74-1.07,1.63-.91.89.17,1.61.84,1.62,1.49Z"/>
      <path class="cls-2" d="M20.08,28.26c.05.65-.64,1.05-1.53.9-.9-.15-1.65-.8-1.67-1.45-.03-.65.67-1.06,1.54-.9.87.16,1.62.81,1.66,1.46Z"/>
      <path class="cls-2" d="M25.25,29.12c.08.64-.56,1.04-1.44.9-.88-.14-1.64-.77-1.7-1.42s.59-1.05,1.45-.9c.86.15,1.61.78,1.69,1.42Z"/>
      <path class="cls-2" d="M30.29,29.91c.11.63-.49,1.03-1.34.91-.85-.13-1.62-.74-1.72-1.37-.09-.63.52-1.04,1.35-.91.84.13,1.6.75,1.71,1.37Z"/>
      <path class="cls-2" d="M35.18,30.59c.14.62-.42,1.03-1.24.92s-1.6-.71-1.72-1.33c-.12-.62.44-1.03,1.25-.92.81.11,1.57.71,1.71,1.33Z"/>
      <path class="cls-2" d="M39.88,31.17c.16.61-.35,1.04-1.14.95-.79-.09-1.56-.66-1.7-1.28-.15-.62.37-1.04,1.15-.94.78.09,1.53.66,1.69,1.28Z"/>
      <path class="cls-2" d="M44.38,31.61c.18.61-.29,1.04-1.04.98-.75-.07-1.51-.62-1.67-1.23-.17-.61.31-1.04,1.05-.97.74.07,1.49.62,1.66,1.22Z"/>
      <path class="cls-2" d="M48.63,31.9c.19.6-.23,1.06-.94,1.02-.71-.04-1.44-.57-1.63-1.18-.18-.6.24-1.05.95-1.01.7.05,1.43.56,1.62,1.17Z"/>
      <path class="cls-2" d="M52.62,32.03c.2.6-.17,1.08-.84,1.06-.66-.02-1.36-.52-1.56-1.12-.19-.6.19-1.07.85-1.05.66.02,1.35.51,1.55,1.11Z"/>
      <path class="cls-2" d="M56.26,32c.2.6-.08,1.08-.69,1.09-.61.02-1.27-.46-1.47-1.06-.2-.6.14-1.09.75-1.1.61-.02,1.21.48,1.41,1.08Z"/>
      <path class="cls-2" d="M59.74,31.66c.2.6-.13,1.16-.72,1.24-.59.07-1.21-.37-1.41-.97-.2-.6.1-1.12.69-1.2.59-.07,1.24.33,1.44.93Z"/>
      <path class="cls-2" d="M63.31,30.88c.2.6-.14,1.22-.75,1.37-.61.15-1.25-.24-1.45-.84-.2-.6.11-1.19.72-1.33.6-.15,1.27.21,1.47.81Z"/>
      <path class="cls-2" d="M66.97,29.7c.21.6-.15,1.28-.77,1.49-.62.21-1.27-.12-1.48-.72-.2-.6.12-1.25.74-1.46.62-.21,1.3.09,1.51.69Z"/>
      <path class="cls-2" d="M3.75,29.08c-.05.66-.86,1.06-1.81.9-.95-.16-1.68-.82-1.61-1.48.07-.67.89-1.08,1.82-.92.93.16,1.65.84,1.6,1.5Z"/>
      <path class="cls-2" d="M9.34,30.02c-.02.65-.8,1.05-1.75.89-.95-.15-1.69-.8-1.66-1.46.04-.66.83-1.06,1.76-.9.93.16,1.66.82,1.65,1.47Z"/>
      <path class="cls-2" d="M14.88,30.93c.02.64-.73,1.03-1.67.88-.94-.15-1.7-.79-1.7-1.43,0-.65.76-1.05,1.68-.89.92.16,1.67.8,1.69,1.44Z"/>
      <path class="cls-2" d="M20.33,31.8c.05.63-.66,1.02-1.59.88-.92-.14-1.7-.77-1.73-1.4-.03-.64.69-1.03,1.6-.89.91.15,1.67.78,1.72,1.41Z"/>
      <path class="cls-2" d="M25.67,32.61c.07.62-.59,1.02-1.5.88-.9-.13-1.69-.74-1.75-1.37-.06-.63.62-1.02,1.51-.89.89.14,1.66.75,1.74,1.37Z"/>
      <path class="cls-2" d="M30.87,33.34c.1.61-.53,1.01-1.4.89-.88-.12-1.66-.71-1.75-1.33-.08-.62.55-1.02,1.41-.89.86.12,1.64.72,1.74,1.33Z"/>
      <path class="cls-2" d="M35.9,33.99c.12.61-.46,1.01-1.31.91-.85-.1-1.63-.68-1.73-1.29-.11-.61.48-1.02,1.32-.91.83.11,1.6.68,1.72,1.29Z"/>
      <path class="cls-2" d="M40.72,34.52c.14.6-.4,1.02-1.21.93-.81-.09-1.58-.64-1.71-1.25-.13-.6.42-1.02,1.22-.93.8.09,1.56.64,1.7,1.24Z"/>
      <path class="cls-2" d="M45.3,34.94c.15.6-.34,1.03-1.1.96-.77-.06-1.51-.6-1.66-1.2-.15-.6.36-1.03,1.11-.96.76.07,1.49.6,1.65,1.2Z"/>
      <path class="cls-2" d="M49.61,35.21c.16.59-.28,1.04-1,1-.72-.04-1.44-.56-1.59-1.15-.16-.59.3-1.04,1.01-1,.71.04,1.42.55,1.58,1.14Z"/>
      <path class="cls-2" d="M53.63,35.33c.17.59-.24,1.06-.9,1.05-.67-.01-1.35-.51-1.51-1.1-.16-.59.25-1.05.91-1.04.67.01,1.33.5,1.5,1.09Z"/>
      <path class="cls-2" d="M57.27,35.3c.16.59-.15,1.07-.75,1.08-.61.01-1.24-.46-1.4-1.05-.17-.59.2-1.08.81-1.09.61-.02,1.18.47,1.35,1.06Z"/>
      <path class="cls-2" d="M60.75,34.96c.16.59-.2,1.15-.79,1.22-.59.07-1.18-.37-1.35-.96-.16-.59.17-1.11.76-1.18.59-.07,1.22.33,1.38.92Z"/>
      <path class="cls-2" d="M64.33,34.19c.17.59-.21,1.21-.82,1.35-.61.14-1.22-.24-1.38-.83-.16-.59.18-1.17.78-1.32.61-.14,1.25.2,1.41.8Z"/>
      <path class="cls-2" d="M3.51,32.67c-.04.64-.85,1.02-1.84.87-.98-.15-1.74-.78-1.69-1.42.05-.64.88-1.04,1.85-.89.96.15,1.71.8,1.68,1.43Z"/>
      <path class="cls-2" d="M9.27,33.55c0,.63-.8,1.01-1.78.86-.98-.15-1.75-.77-1.73-1.4.02-.63.83-1.03,1.79-.88.96.15,1.73.79,1.72,1.41Z"/>
      <path class="cls-2" d="M14.97,34.41c.02.62-.74,1-1.71.86-.97-.14-1.76-.75-1.76-1.38,0-.62.77-1.01,1.72-.87.95.15,1.73.77,1.75,1.39Z"/>
      <path class="cls-2" d="M20.58,35.23c.04.61-.68.99-1.63.86-.95-.13-1.75-.74-1.78-1.35-.03-.61.71-1,1.64-.87.93.14,1.72.75,1.77,1.36Z"/>
      <path class="cls-2" d="M26.07,36c.07.6-.62.99-1.55.86-.93-.12-1.73-.71-1.78-1.32-.05-.61.65-1,1.56-.87.91.13,1.7.72,1.77,1.33Z"/>
      <path class="cls-2" d="M31.39,36.69c.09.6-.56.99-1.46.87-.9-.11-1.69-.69-1.77-1.29-.08-.6.58-.99,1.47-.88.88.12,1.67.7,1.76,1.29Z"/>
      <path class="cls-2" d="M36.53,37.3c.11.59-.5.99-1.37.89-.86-.1-1.64-.66-1.74-1.25-.1-.59.52-.99,1.38-.89.85.1,1.62.66,1.73,1.25Z"/>
      <path class="cls-2" d="M41.43,37.81c.12.59-.45,1-1.27.92-.82-.08-1.58-.62-1.69-1.21-.11-.59.46-1,1.28-.91.81.08,1.57.63,1.68,1.21Z"/>
      <path class="cls-2" d="M46.08,38.2c.13.58-.39,1.01-1.17.95-.78-.06-1.51-.59-1.63-1.17-.12-.59.41-1.01,1.18-.94.77.06,1.49.59,1.62,1.17Z"/>
      <path class="cls-2" d="M50.43,38.47c.13.58-.34,1.03-1.07.99-.72-.04-1.42-.55-1.55-1.13-.13-.58.36-1.02,1.08-.98.72.04,1.41.54,1.54,1.12Z"/>
      <path class="cls-2" d="M54.44,38.58c.13.58-.3,1.05-.96,1.03-.66-.02-1.31-.5-1.44-1.09-.13-.58.31-1.04.97-1.02.67.01,1.31.49,1.43,1.08Z"/>
      <path class="cls-2" d="M58.06,38.56c.12.58-.23,1.06-.83,1.07-.6.01-1.19-.46-1.32-1.04-.13-.58.27-1.06.87-1.08.61-.01,1.15.47,1.27,1.05Z"/>
      <path class="cls-2" d="M61.54,38.22c.12.58-.28,1.13-.87,1.21-.59.07-1.15-.36-1.27-.94-.12-.58.24-1.1.83-1.17.59-.07,1.19.32,1.31.91Z"/>
      <path class="cls-2" d="M65.13,37.45c.12.58-.29,1.19-.9,1.33-.61.14-1.18-.23-1.3-.81-.12-.58.25-1.16.86-1.3.61-.14,1.22.2,1.34.78Z"/>
      <path class="cls-2" d="M3.36,36.11c-.02.61-.84.98-1.85.84-1-.14-1.8-.74-1.76-1.35.03-.61.87-1,1.86-.85.99.15,1.77.76,1.75,1.37Z"/>
      <path class="cls-2" d="M9.26,36.95c0,.6-.8.97-1.8.83-1-.14-1.8-.73-1.79-1.34s.82-.99,1.81-.84c.98.14,1.78.75,1.78,1.35Z"/>
      <path class="cls-2" d="M15.09,37.77c.02.59-.75.96-1.74.82s-1.8-.72-1.81-1.32c-.01-.6.78-.98,1.75-.84.97.14,1.78.74,1.8,1.33Z"/>
      <path class="cls-2" d="M20.83,38.55c.04.59-.7.95-1.67.83-.97-.13-1.78-.71-1.82-1.3-.03-.59.72-.97,1.68-.84.96.13,1.76.72,1.8,1.31Z"/>
      <path class="cls-2" d="M26.42,39.28c.06.58-.65.95-1.59.83-.94-.12-1.75-.69-1.8-1.27-.05-.59.67-.96,1.6-.84.93.12,1.73.7,1.79,1.28Z"/>
      <path class="cls-2" d="M31.85,39.94c.08.58-.6.96-1.51.85-.91-.11-1.71-.66-1.78-1.24-.07-.58.62-.96,1.52-.85.9.11,1.69.67,1.77,1.25Z"/>
      <path class="cls-2" d="M37.06,40.53c.09.57-.55.96-1.42.87-.87-.09-1.65-.64-1.73-1.21-.08-.58.56-.97,1.43-.87.87.1,1.63.64,1.72,1.21Z"/>
      <path class="cls-2" d="M42.02,41.02c.09.57-.5.97-1.32.89-.83-.08-1.58-.61-1.67-1.18-.09-.57.51-.97,1.34-.89.82.08,1.56.61,1.66,1.18Z"/>
      <path class="cls-2" d="M46.7,41.4c.1.57-.45.98-1.23.92-.78-.06-1.49-.57-1.59-1.14-.1-.57.46-.98,1.24-.92.78.06,1.48.57,1.58,1.14Z"/>
      <path class="cls-2" d="M51.05,41.66c.09.57-.41,1-1.13.96-.72-.04-1.39-.54-1.49-1.11-.1-.57.42-1,1.14-.96.72.04,1.38.53,1.47,1.1Z"/>
      <path class="cls-2" d="M55.04,41.79c.09.57-.37,1.03-1.03,1.01-.66-.02-1.27-.5-1.36-1.07-.09-.57.38-1.02,1.04-1,.66.02,1.26.49,1.35,1.06Z"/>
      <path class="cls-2" d="M58.62,41.78c.08.58-.32,1.05-.91,1.06-.59,0-1.13-.46-1.22-1.03-.08-.58.34-1.05.94-1.06.6-.01,1.11.46,1.19,1.03Z"/>
      <path class="cls-2" d="M62.09,41.43c.07.57-.36,1.12-.95,1.19-.59.07-1.11-.35-1.18-.93-.08-.58.32-1.08.91-1.16.59-.07,1.15.32,1.22.89Z"/>
      <path class="cls-2" d="M65.68,40.66c.07.57-.38,1.17-.99,1.31-.61.14-1.14-.22-1.21-.79-.07-.57.34-1.14.95-1.28.61-.14,1.18.19,1.25.76Z"/>
      <path class="cls-2" d="M3.3,39.39c0,.58-.82.92-1.84.79-1.02-.14-1.84-.71-1.83-1.28.01-.58.85-.95,1.85-.81,1.01.14,1.82.73,1.82,1.3Z"/>
      <path class="cls-2" d="M9.3,40.2c.01.57-.79.92-1.8.78-1.01-.13-1.85-.7-1.85-1.27,0-.57.81-.94,1.82-.8,1,.14,1.82.72,1.84,1.29Z"/>
      <path class="cls-2" d="M15.24,40.98c.03.57-.75.91-1.75.78-1-.13-1.84-.69-1.86-1.26-.02-.57.77-.93,1.77-.8.99.13,1.81.71,1.84,1.27Z"/>
      <path class="cls-2" d="M21.06,41.73c.04.56-.71.91-1.69.79-.98-.12-1.81-.68-1.84-1.24-.03-.56.73-.93,1.71-.8.97.13,1.79.69,1.83,1.25Z"/>
      <path class="cls-2" d="M26.74,42.44c.05.56-.67.91-1.62.8-.95-.12-1.77-.66-1.82-1.22-.05-.56.69-.92,1.64-.81.95.12,1.75.67,1.8,1.23Z"/>
      <path class="cls-2" d="M32.23,43.08c.06.56-.63.92-1.55.81-.92-.11-1.72-.64-1.77-1.2-.06-.56.65-.93,1.56-.82.91.11,1.7.65,1.76,1.2Z"/>
      <path class="cls-2" d="M37.49,43.65c.07.55-.59.93-1.46.83-.88-.09-1.65-.62-1.71-1.17-.06-.56.6-.93,1.48-.84.88.09,1.63.62,1.7,1.18Z"/>
      <path class="cls-2" d="M42.47,44.14c.07.55-.55.94-1.38.86-.83-.08-1.56-.59-1.63-1.15-.07-.55.56-.94,1.39-.86.83.08,1.55.59,1.62,1.15Z"/>
      <path class="cls-2" d="M47.15,44.52c.06.56-.51.96-1.28.89-.77-.06-1.46-.56-1.53-1.12-.07-.55.52-.96,1.29-.89.78.06,1.45.56,1.52,1.12Z"/>
      <path class="cls-2" d="M51.47,44.79c.05.56-.47.98-1.19.93-.71-.04-1.35-.53-1.41-1.09-.06-.56.48-.97,1.2-.93.72.04,1.34.53,1.39,1.08Z"/>
      <path class="cls-2" d="M55.4,44.94c.04.56-.44,1-1.09.98-.64-.02-1.21-.5-1.26-1.06-.05-.56.44-1,1.1-.98.65.02,1.21.49,1.25,1.05Z"/>
      <path class="cls-2" d="M58.9,44.94c.03.57-.43,1.04-1,1.04-.57,0-1.06-.46-1.09-1.03-.03-.57.42-1.02,1-1.03.58,0,1.07.44,1.09,1.01Z"/>
      <path class="cls-2" d="M62.36,44.58c.02.56-.46,1.1-1.04,1.17-.59.08-1.06-.34-1.08-.9-.02-.57.41-1.07,1-1.14.59-.07,1.1.31,1.13.87Z"/>
      <path class="cls-2" d="M65.94,43.81c.02.56-.48,1.15-1.08,1.29-.61.14-1.09-.21-1.11-.77-.02-.56.43-1.12,1.04-1.26.61-.14,1.14.18,1.16.74Z"/>
      <path class="cls-2" d="M3.28,42.37c-.01.55-.84.89-1.85.75-1.01-.14-1.82-.69-1.82-1.24,0-.55.83-.9,1.85-.76,1.02.14,1.84.7,1.82,1.25Z"/>
      <path class="cls-2" d="M9.28,43.17c-.03.56-.87.89-1.87.76-1-.13-1.8-.69-1.78-1.24.02-.56.86-.9,1.87-.77,1.01.13,1.81.7,1.78,1.25Z"/>
      <path class="cls-2" d="M15.2,43.94c-.05.56-.89.9-1.88.77-.99-.13-1.76-.68-1.72-1.24.04-.56.88-.91,1.88-.78,1,.13,1.77.69,1.73,1.25Z"/>
      <path class="cls-2" d="M21.02,44.69c-.06.56-.91.91-1.88.78-.97-.12-1.71-.67-1.66-1.23.05-.56.89-.91,1.87-.79.98.12,1.73.68,1.66,1.24Z"/>
      <path class="cls-2" d="M26.7,45.38c-.08.56-.91.92-1.85.8-.95-.12-1.65-.66-1.59-1.22.07-.56.9-.92,1.85-.8.95.12,1.67.66,1.59,1.22Z"/>
      <path class="cls-2" d="M32.18,46.02c-.09.56-.9.93-1.81.82-.91-.11-1.59-.64-1.51-1.2.08-.56.89-.93,1.81-.82.92.11,1.6.65,1.51,1.21Z"/>
      <path class="cls-2" d="M37.44,46.59c-.09.56-.88.94-1.75.85s-1.51-.62-1.42-1.18c.09-.56.87-.94,1.75-.85.88.09,1.52.62,1.43,1.18Z"/>
      <path class="cls-2" d="M42.43,47.08c-.09.56-.85.95-1.68.87-.83-.08-1.42-.6-1.33-1.16.09-.56.84-.95,1.67-.87.83.08,1.43.6,1.34,1.16Z"/>
      <path class="cls-2" d="M47.1,47.46c-.09.56-.8.97-1.57.9-.78-.06-1.33-.57-1.24-1.13.09-.56.79-.96,1.57-.9.77.06,1.34.57,1.25,1.13Z"/>
      <path class="cls-2" d="M51.43,47.74c-.08.56-.73.98-1.45.94-.72-.04-1.23-.53-1.14-1.09.09-.56.73-.98,1.44-.93.71.04,1.23.53,1.15,1.09Z"/>
      <path class="cls-2" d="M55.36,47.9c-.06.56-.65,1-1.3.97-.65-.02-1.12-.5-1.05-1.05.07-.56.65-.99,1.29-.97.64.02,1.12.49,1.06,1.05Z"/>
      <path class="cls-2" d="M58.87,47.9c-.04.56-.55,1.03-1.14,1.03-.58,0-1.01-.45-.95-1.01.05-.56.55-1.01,1.12-1.01.57,0,1.02.43.97.99Z"/>
      <path class="cls-2" d="M62.33,47.53c-.04.55-.59,1.08-1.17,1.16-.59.08-.99-.32-.95-.88.04-.55.52-1.05,1.11-1.13.59-.08,1.06.29,1.01.84Z"/>
      <path class="cls-2" d="M65.9,46.74c-.04.55-.6,1.13-1.21,1.28-.61.15-1.03-.2-.99-.75.04-.55.54-1.1,1.14-1.25.61-.15,1.1.17,1.05.72Z"/>
      <path class="cls-2" d="M3.19,45.39c-.02.54-.83.86-1.82.72-.98-.14-1.78-.68-1.78-1.22,0-.54.82-.87,1.82-.73,1,.14,1.8.69,1.78,1.23Z"/>
      <path class="cls-2" d="M9.06,46.2c-.05.54-.88.86-1.86.73-.98-.14-1.75-.68-1.72-1.22.03-.54.86-.87,1.85-.73.99.13,1.77.69,1.72,1.23Z"/>
      <path class="cls-2" d="M14.87,46.99c-.07.54-.91.87-1.88.74-.97-.13-1.71-.67-1.65-1.21.06-.54.9-.88,1.88-.74s1.73.68,1.66,1.22Z"/>
      <path class="cls-2" d="M20.59,47.74c-.09.54-.94.88-1.89.75-.95-.13-1.66-.66-1.58-1.21.08-.54.92-.88,1.89-.76.97.12,1.67.67,1.58,1.21Z"/>
      <path class="cls-2" d="M26.17,48.44c-.11.54-.96.89-1.89.77-.93-.12-1.6-.65-1.5-1.2.1-.54.94-.89,1.88-.78.94.12,1.61.65,1.5,1.2Z"/>
      <path class="cls-2" d="M31.58,49.09c-.13.55-.97.9-1.87.79-.9-.11-1.53-.63-1.41-1.18.12-.55.95-.9,1.86-.8.91.11,1.54.64,1.41,1.18Z"/>
      <path class="cls-2" d="M36.78,49.66c-.14.55-.97.91-1.83.82-.86-.09-1.45-.61-1.32-1.16.14-.55.95-.91,1.82-.82.87.09,1.47.61,1.32,1.16Z"/>
      <path class="cls-2" d="M41.74,50.15c-.15.55-.95.93-1.77.85-.82-.08-1.37-.59-1.22-1.13.15-.55.94-.93,1.77-.85.83.08,1.38.59,1.23,1.13Z"/>
      <path class="cls-2" d="M46.42,50.53c-.16.55-.92.94-1.69.88-.78-.06-1.28-.56-1.12-1.1.15-.55.91-.94,1.69-.88.78.06,1.29.55,1.13,1.1Z"/>
      <path class="cls-2" d="M50.78,50.81c-.15.55-.87.96-1.59.92-.72-.04-1.18-.52-1.03-1.07.16-.55.86-.95,1.59-.91.72.04,1.19.52,1.03,1.07Z"/>
      <path class="cls-2" d="M54.79,50.96c-.14.55-.81.98-1.47.96-.67-.02-1.08-.48-.93-1.03.15-.55.8-.97,1.46-.95.66.02,1.08.48.94,1.03Z"/>
      <path class="cls-2" d="M58.38,50.95c-.13.55-.69,1.01-1.29,1.02-.6,0-.97-.44-.83-.99.14-.55.72-.99,1.31-.99.59,0,.95.42.81.96Z"/>
      <path class="cls-2" d="M61.83,50.56c-.13.54-.74,1.07-1.33,1.15-.59.08-.92-.31-.79-.86.13-.54.68-1.03,1.27-1.11.59-.08.99.28.85.82Z"/>
      <path class="cls-2" d="M65.41,49.76c-.13.54-.76,1.12-1.37,1.26-.61.15-.96-.19-.83-.73.13-.54.7-1.09,1.31-1.23.61-.15,1.02.16.89.7Z"/>
      <path class="cls-2" d="M3.07,48.33c-.03.52-.82.83-1.78.69-.95-.14-1.72-.67-1.72-1.19,0-.52.8-.84,1.77-.7.97.14,1.74.68,1.72,1.2Z"/>
      <path class="cls-2" d="M8.78,49.15c-.06.52-.88.84-1.83.7-.95-.14-1.69-.67-1.65-1.19.04-.52.86-.84,1.82-.7.97.14,1.71.68,1.65,1.2Z"/>
      <path class="cls-2" d="M14.43,49.94c-.09.53-.93.84-1.87.71-.94-.13-1.64-.67-1.57-1.19.07-.53.9-.85,1.86-.71.96.13,1.67.67,1.58,1.2Z"/>
      <path class="cls-2" d="M20,50.71c-.12.53-.97.85-1.89.73-.93-.13-1.59-.66-1.49-1.19.1-.53.95-.86,1.89-.73.94.13,1.61.66,1.49,1.19Z"/>
      <path class="cls-2" d="M25.45,51.42c-.15.53-1,.86-1.91.75-.9-.12-1.53-.64-1.4-1.17.13-.53.98-.87,1.9-.75.92.12,1.55.65,1.4,1.18Z"/>
      <path class="cls-2" d="M30.74,52.08c-.17.53-1.02.88-1.9.77-.88-.11-1.46-.63-1.31-1.16.16-.53,1.01-.88,1.9-.77.89.11,1.48.63,1.31,1.16Z"/>
      <path class="cls-2" d="M35.85,52.65c-.19.53-1.04.89-1.88.8s-1.39-.61-1.21-1.14c.18-.53,1.02-.89,1.88-.79.86.09,1.4.6,1.21,1.14Z"/>
      <path class="cls-2" d="M40.75,53.15c-.21.54-1.04.91-1.85.83-.81-.08-1.31-.58-1.11-1.11.2-.53,1.02-.9,1.84-.82.82.08,1.32.58,1.12,1.11Z"/>
      <path class="cls-2" d="M45.39,53.54c-.22.54-1.02.92-1.79.86-.77-.06-1.22-.55-1.01-1.09.21-.54,1.01-.92,1.78-.86.78.06,1.23.55,1.02,1.08Z"/>
      <path class="cls-2" d="M49.75,53.81c-.22.54-.99.94-1.71.9s-1.13-.51-.91-1.05c.22-.54.98-.93,1.7-.89.72.04,1.14.51.92,1.05Z"/>
      <path class="cls-2" d="M53.79,53.96c-.22.54-.94.96-1.61.94-.67-.02-1.03-.48-.81-1.01.22-.54.94-.95,1.6-.93.67.02,1.04.47.82,1.01Z"/>
      <path class="cls-2" d="M57.42,53.95c-.21.54-.82,1-1.43,1-.61,0-.93-.43-.72-.97.21-.54.88-.97,1.48-.97.61,0,.88.4.67.94Z"/>
      <path class="cls-2" d="M60.88,53.55c-.21.53-.89,1.05-1.47,1.13-.59.08-.86-.3-.65-.84.21-.53.83-1.02,1.42-1.1.59-.08.92.27.71.8Z"/>
      <path class="cls-2" d="M64.46,52.75c-.21.53-.9,1.1-1.51,1.25-.61.15-.9-.18-.69-.72.21-.53.85-1.07,1.45-1.22.61-.15.95.15.74.69Z"/>
      <path class="cls-2" d="M2.91,51.18c-.03.51-.8.8-1.72.66-.92-.14-1.66-.67-1.65-1.17,0-.51.78-.81,1.72-.67.94.14,1.68.67,1.65,1.18Z"/>
      <path class="cls-2" d="M8.42,52.02c-.07.51-.87.81-1.78.67-.91-.14-1.62-.67-1.57-1.18.05-.51.84-.81,1.78-.67.94.14,1.64.67,1.57,1.18Z"/>
      <path class="cls-2" d="M13.88,52.83c-.11.51-.93.82-1.84.68-.91-.14-1.57-.66-1.49-1.17.08-.51.91-.82,1.83-.69.93.13,1.6.66,1.49,1.18Z"/>
      <path class="cls-2" d="M19.27,53.61c-.14.52-.98.83-1.88.7-.89-.13-1.52-.65-1.4-1.17.12-.52.96-.83,1.87-.7.91.13,1.54.65,1.4,1.17Z"/>
      <path class="cls-2" d="M24.55,54.33c-.18.52-1.03.84-1.91.72-.88-.12-1.46-.64-1.3-1.16.16-.52,1.01-.84,1.9-.72.9.12,1.48.64,1.3,1.16Z"/>
      <path class="cls-2" d="M29.7,55c-.21.52-1.07.86-1.92.75-.85-.11-1.39-.62-1.2-1.14.19-.52,1.04-.85,1.92-.74.87.11,1.41.62,1.2,1.14Z"/>
      <path class="cls-2" d="M34.68,55.58c-.23.52-1.09.87-1.92.77-.83-.1-1.32-.6-1.1-1.12.22-.52,1.07-.87,1.91-.77.84.1,1.34.6,1.1,1.12Z"/>
      <path class="cls-2" d="M39.47,56.08c-.25.53-1.11.89-1.9.81-.79-.08-1.24-.57-1-1.1.24-.52,1.09-.88,1.89-.8.81.08,1.26.57,1,1.09Z"/>
      <path class="cls-2" d="M44.04,56.48c-.27.53-1.11.9-1.86.84-.76-.06-1.16-.54-.9-1.07.26-.53,1.09-.9,1.86-.84.77.06,1.17.54.9,1.06Z"/>
      <path class="cls-2" d="M48.36,56.76c-.28.53-1.09.92-1.81.88-.72-.04-1.07-.51-.79-1.04.27-.53,1.08-.92,1.8-.87.72.04,1.08.5.8,1.03Z"/>
      <path class="cls-2" d="M52.39,56.91c-.28.53-1.06.94-1.73.92-.67-.02-.98-.47-.7-1,.28-.53,1.05-.93,1.72-.91.67.02.99.46.7.99Z"/>
      <path class="cls-2" d="M56.05,56.89c-.28.53-.94.99-1.56.99-.62,0-.89-.42-.6-.95.28-.53,1.01-.95,1.62-.96.62,0,.82.39.54.92Z"/>
      <path class="cls-2" d="M59.51,56.49c-.28.53-1.01,1.04-1.6,1.12-.59.08-.81-.3-.53-.82.28-.53.96-1,1.55-1.08.59-.08.86.26.58.79Z"/>
      <path class="cls-2" d="M63.09,55.69c-.28.53-1.03,1.09-1.63,1.24-.61.15-.84-.18-.56-.71.28-.53.98-1.06,1.58-1.21.61-.15.89.15.61.68Z"/>
      <path class="cls-2" d="M66.77,54.54c-.28.53-1.04,1.14-1.66,1.34-.62.2-.88-.07-.59-.6.28-.53.99-1.11,1.62-1.32.62-.21.92.04.64.57Z"/>
      <path class="cls-2" d="M2.73,53.97c-.04.5-.78.78-1.65.63-.88-.15-1.58-.66-1.57-1.16,0-.5.75-.78,1.65-.64.91.14,1.61.67,1.58,1.16Z"/>
      <path class="cls-2" d="M8.01,54.82c-.08.5-.85.79-1.73.64-.87-.14-1.54-.66-1.49-1.16.05-.5.83-.79,1.73-.65.9.14,1.57.66,1.49,1.16Z"/>
      <path class="cls-2" d="M13.25,55.65c-.12.5-.93.8-1.79.66-.87-.14-1.49-.66-1.4-1.16.1-.5.9-.8,1.79-.66.89.14,1.52.66,1.4,1.16Z"/>
      <path class="cls-2" d="M18.42,56.44c-.16.51-.99.81-1.85.68-.86-.13-1.44-.65-1.3-1.15.14-.5.96-.81,1.84-.68s1.46.65,1.3,1.16Z"/>
      <path class="cls-2" d="M23.5,57.18c-.2.51-1.05.82-1.89.7-.84-.12-1.38-.64-1.2-1.14.18-.51,1.02-.82,1.89-.7.86.12,1.4.63,1.2,1.14Z"/>
      <path class="cls-2" d="M28.47,57.86c-.24.51-1.1.84-1.92.72-.82-.11-1.31-.62-1.09-1.13.22-.51,1.07-.83,1.91-.72.84.11,1.33.62,1.1,1.13Z"/>
      <path class="cls-2" d="M33.29,58.46c-.27.51-1.14.85-1.93.75-.8-.1-1.24-.6-.99-1.11.25-.51,1.11-.85,1.93-.75s1.26.59.99,1.11Z"/>
      <path class="cls-2" d="M37.95,58.97c-.3.52-1.16.87-1.93.79-.77-.08-1.17-.57-.89-1.08.28-.51,1.14-.86,1.93-.78.79.08,1.19.56.89,1.08Z"/>
      <path class="cls-2" d="M42.41,59.37c-.32.52-1.17.89-1.91.82-.74-.06-1.09-.54-.78-1.06.3-.52,1.16-.88,1.91-.82.75.06,1.11.53.79,1.05Z"/>
      <path class="cls-2" d="M46.66,59.65c-.33.52-1.17.91-1.88.86-.7-.04-1.01-.5-.68-1.02.32-.52,1.16-.9,1.87-.86.71.04,1.02.5.69,1.01Z"/>
      <path class="cls-2" d="M50.66,59.81c-.34.52-1.16.93-1.82.91-.66-.02-.93-.46-.59-.98.34-.52,1.15-.92,1.82-.9.67.02.94.45.6.97Z"/>
      <path class="cls-2" d="M54.32,59.79c-.34.52-1.05.97-1.67.98-.62,0-.84-.42-.5-.94.34-.52,1.12-.94,1.74-.94.62,0,.77.39.43.91Z"/>
      <path class="cls-2" d="M57.78,59.39c-.34.52-1.12,1.02-1.7,1.1-.59.08-.76-.29-.42-.81.34-.52,1.07-.99,1.66-1.07.59-.08.81.26.46.78Z"/>
      <path class="cls-2" d="M61.35,58.6c-.34.52-1.13,1.08-1.74,1.22-.61.14-.8-.18-.45-.7.34-.52,1.09-1.05,1.7-1.19.61-.15.84.15.5.67Z"/>
      <path class="cls-2" d="M65.03,57.47c-.34.53-1.15,1.13-1.77,1.33-.62.2-.83-.07-.48-.6.34-.52,1.11-1.1,1.73-1.3.62-.2.87.04.53.57Z"/>
      <path class="cls-2" d="M2.52,56.7c-.04.49-.75.76-1.58.61-.83-.15-1.5-.66-1.49-1.15,0-.48.72-.76,1.58-.62.86.15,1.53.66,1.49,1.15Z"/>
      <path class="cls-2" d="M7.54,57.57c-.09.49-.83.77-1.66.62-.83-.15-1.46-.66-1.4-1.15.06-.49.8-.77,1.66-.62.86.14,1.49.66,1.4,1.15Z"/>
      <path class="cls-2" d="M12.53,58.41c-.14.49-.91.78-1.74.64-.82-.14-1.41-.66-1.3-1.15.11-.49.88-.78,1.74-.64.85.14,1.44.66,1.3,1.15Z"/>
      <path class="cls-2" d="M17.47,59.22c-.18.5-.99.79-1.8.65-.81-.14-1.35-.65-1.2-1.14.15-.5.96-.79,1.8-.66.84.13,1.38.65,1.2,1.14Z"/>
      <path class="cls-2" d="M22.32,59.98c-.22.5-1.06.8-1.86.68-.8-.13-1.29-.63-1.09-1.13.2-.5,1.03-.8,1.86-.68.83.12,1.32.63,1.09,1.13Z"/>
      <path class="cls-2" d="M27.08,60.67c-.26.5-1.12.82-1.9.7-.79-.12-1.23-.62-.99-1.12.24-.5,1.09-.82,1.9-.7.81.11,1.25.61.99,1.12Z"/>
      <path class="cls-2" d="M31.72,61.28c-.3.51-1.16.84-1.93.74-.77-.1-1.16-.59-.88-1.1.28-.5,1.14-.83,1.93-.73.79.1,1.18.59.89,1.1Z"/>
      <path class="cls-2" d="M36.21,61.8c-.33.51-1.2.85-1.95.77-.74-.09-1.09-.57-.78-1.07.31-.51,1.18-.85,1.94-.76s1.11.56.78,1.07Z"/>
      <path class="cls-2" d="M40.54,62.22c-.36.51-1.23.87-1.94.81-.72-.07-1.02-.54-.68-1.05.34-.51,1.21-.87,1.94-.8.73.07,1.04.53.68,1.04Z"/>
      <path class="cls-2" d="M44.69,62.51c-.38.51-1.24.89-1.93.85-.69-.05-.94-.5-.58-1.01.36-.51,1.22-.88,1.92-.84.7.04.96.49.58,1Z"/>
      <path class="cls-2" d="M48.64,62.66c-.39.51-1.24.92-1.89.89-.65-.02-.87-.46-.49-.97.38-.51,1.23-.91,1.89-.88.66.02.88.45.49.96Z"/>
      <path class="cls-2" d="M52.27,62.65c-.39.51-1.14.96-1.76.96-.62,0-.8-.41-.4-.93.39-.51,1.21-.93,1.83-.93.62,0,.72.38.33.89Z"/>
      <path class="cls-2" d="M55.73,62.26c-.39.52-1.21,1.01-1.79,1.09-.59.08-.72-.29-.33-.81.39-.51,1.17-.98,1.76-1.06.59-.08.76.26.37.77Z"/>
      <path class="cls-2" d="M59.3,61.49c-.4.52-1.22,1.07-1.83,1.21-.6.14-.76-.18-.36-.69.39-.52,1.19-1.03,1.79-1.18.6-.14.79.15.4.66Z"/>
      <path class="cls-2" d="M62.97,60.37c-.4.52-1.24,1.12-1.86,1.32-.62.2-.79-.08-.39-.6.4-.52,1.2-1.09,1.82-1.29.62-.2.82.05.43.57Z"/>
      <path class="cls-2" d="M66.73,58.95c-.4.53-1.25,1.17-1.89,1.41-.64.25-.81.01-.41-.51.4-.52,1.22-1.14,1.85-1.39.64-.25.85-.04.45.49Z"/>
      <path class="cls-2" d="M2.29,59.37c-.04.48-.71.74-1.5.59-.78-.15-1.41-.66-1.4-1.14.01-.48.68-.74,1.5-.59.82.15,1.44.66,1.4,1.14Z"/>
      <path class="cls-2" d="M7.03,60.26c-.09.48-.81.75-1.59.6-.78-.15-1.37-.66-1.3-1.14.06-.48.77-.75,1.59-.6.81.15,1.4.66,1.3,1.14Z"/>
      <path class="cls-2" d="M11.75,61.13c-.15.49-.9.76-1.67.62-.78-.15-1.31-.66-1.2-1.14.11-.48.86-.76,1.67-.62.81.14,1.35.66,1.2,1.14Z"/>
      <path class="cls-2" d="M16.42,61.96c-.2.49-.98.77-1.75.64-.77-.14-1.26-.65-1.09-1.14.17-.49.95-.77,1.75-.64.8.14,1.29.64,1.1,1.13Z"/>
      <path class="cls-2" d="M21.03,62.73c-.24.49-1.05.79-1.81.66-.76-.13-1.2-.63-.99-1.13.21-.49,1.02-.79,1.81-.66.79.13,1.23.63.99,1.12Z"/>
      <path class="cls-2" d="M25.56,63.44c-.29.5-1.12.81-1.87.69-.75-.12-1.14-.62-.88-1.11.26-.49,1.09-.8,1.87-.68.77.12,1.17.61.88,1.11Z"/>
      <path class="cls-2" d="M29.99,64.07c-.32.5-1.18.82-1.91.72-.73-.1-1.08-.59-.78-1.09.3-.5,1.16-.82,1.91-.71.75.1,1.1.59.78,1.09Z"/>
      <path class="cls-2" d="M34.3,64.6c-.36.5-1.23.84-1.94.75-.71-.09-1.01-.57-.67-1.07.34-.5,1.21-.83,1.94-.75.73.09,1.04.56.68,1.06Z"/>
      <path class="cls-2" d="M38.48,65.03c-.39.5-1.27.86-1.96.79-.69-.07-.95-.54-.58-1.04.37-.5,1.25-.85,1.95-.79.71.07.97.53.58,1.03Z"/>
      <path class="cls-2" d="M42.5,65.33c-.41.51-1.29.88-1.96.84-.67-.05-.88-.5-.48-1,.4-.5,1.27-.87,1.95-.83.68.05.9.49.49.99Z"/>
      <path class="cls-2" d="M46.36,65.49c-.43.51-1.3.91-1.94.88-.64-.02-.82-.46-.4-.96.42-.51,1.28-.89,1.93-.87.65.02.83.45.4.95Z"/>
      <path class="cls-2" d="M49.97,65.48c-.44.51-1.22.95-1.83.95-.61,0-.75-.41-.32-.92.43-.51,1.28-.92,1.9-.92.61,0,.69.38.25.89Z"/>
      <path class="cls-2" d="M53.42,65.1c-.44.51-1.28,1-1.87,1.08-.59.08-.69-.29-.25-.8.44-.51,1.25-.97,1.83-1.04.59-.08.72.26.29.77Z"/>
      <path class="cls-2" d="M56.99,64.35c-.44.51-1.3,1.06-1.9,1.2-.6.14-.72-.18-.28-.69.44-.51,1.27-1.02,1.87-1.16.6-.14.75.15.32.66Z"/>
      <path class="cls-2" d="M60.65,63.25c-.44.52-1.31,1.11-1.93,1.3-.62.19-.75-.08-.31-.6.44-.52,1.28-1.08,1.9-1.28.62-.2.78.05.34.57Z"/>
      <path class="cls-2" d="M64.4,61.86c-.44.52-1.33,1.16-1.96,1.4-.63.24-.78,0-.34-.52.44-.52,1.3-1.13,1.93-1.38.64-.25.81-.03.37.49Z"/>
      <path class="cls-2" d="M2.04,62.01c-.05.47-.68.73-1.41.57-.73-.16-1.32-.66-1.31-1.13.01-.47.64-.73,1.41-.57.77.15,1.35.66,1.31,1.13Z"/>
      <path class="cls-2" d="M6.49,62.92c-.1.48-.78.74-1.51.58-.73-.15-1.27-.66-1.2-1.14.07-.47.74-.74,1.51-.58.77.15,1.3.66,1.2,1.14Z"/>
      <path class="cls-2" d="M10.92,63.8c-.15.48-.87.75-1.6.6-.73-.15-1.22-.66-1.1-1.14.12-.48.84-.75,1.6-.6.76.15,1.25.66,1.1,1.14Z"/>
      <path class="cls-2" d="M15.31,64.65c-.21.48-.96.76-1.68.62-.72-.14-1.17-.65-.99-1.13.17-.48.93-.76,1.68-.62.75.14,1.2.65.99,1.13Z"/>
      <path class="cls-2" d="M19.65,65.45c-.26.49-1.04.78-1.76.64-.71-.13-1.11-.64-.88-1.12.23-.49,1.01-.77,1.76-.64.74.13,1.14.63.88,1.12Z"/>
      <path class="cls-2" d="M23.93,66.18c-.3.49-1.12.79-1.82.67-.7-.12-1.05-.62-.78-1.11.27-.49,1.09-.79,1.82-.67.73.12,1.08.61.78,1.1Z"/>
      <path class="cls-2" d="M61.86,64.76c-.48.52-1.39,1.15-2.02,1.39-.63.24-.75,0-.27-.52s1.36-1.12,1.99-1.36c.63-.24.77-.02.3.5Z"/>
      <path class="cls-2" d="M65.68,63.14c-.48.53-1.4,1.19-2.04,1.47-.64.28-.77.07-.29-.46.48-.52,1.37-1.17,2.02-1.45.65-.28.79-.09.32.43Z"/>
      <path class="cls-2" d="M1.79,64.61c-.05.47-.64.72-1.32.56-.68-.16-1.22-.67-1.21-1.13.01-.47.6-.72,1.32-.56.72.16,1.26.67,1.21,1.13Z"/>
      <path class="cls-2" d="M5.93,65.54c-.1.47-.74.73-1.42.57-.68-.16-1.17-.67-1.1-1.14.07-.47.7-.72,1.42-.57.71.16,1.21.66,1.1,1.14Z"/>
      <path class="cls-2" d="M10.05,66.45c-.16.48-.84.74-1.52.58-.68-.15-1.12-.66-1-1.14.13-.47.8-.73,1.51-.58.71.15,1.16.66,1,1.13Z"/>
      <path class="cls-2" d="M66.82,64.26c-.51.54-1.45,1.23-2.11,1.53-.65.31-.77.12-.26-.41.5-.53,1.43-1.21,2.09-1.52.65-.31.78-.14.28.4Z"/>
      <path class="cls-2" d="M67.89,65.29c-.52.54-1.49,1.26-2.15,1.59-.66.33-.76.15-.24-.39.52-.54,1.48-1.24,2.14-1.57.66-.33.78-.17.25.37Z"/>
    </g>
  </g>
</svg>