<?xml version="1.0" encoding="UTF-8"?>
<svg id="Layer_1" data-name="Layer 1" xmlns="http://www.w3.org/2000/svg" viewBox="0 0 151.57 109.96">
  <defs>
    <style>
      .cls-1 {
        fill: #fff;
      }
    </style>
  </defs>
  <path class="cls-1" d="M41.74,81.08c.35-5.51,4.14-9.47,9.53-10.12,2.26-.27,4.02-1.31,5.59-2.9,3.62-3.68,7.28-7.3,10.93-10.94,4.37-4.36,8.7-8.77,13.12-13.08,2.98-2.91,6.07-5.7,9.15-8.51,1.02-.93,1.3-1.87,1.01-3.3-.76-3.85.41-7.22,2.98-10.17,1.61-1.85,3.48-3.15,5.93-3.6.54-.1,1-.11,1.51.02,1.28.33,1.51.85.73,1.91-1.05,1.43-2.23,2.77-3.23,4.24-2.22,3.25-2.96,5.31.99,8.7,1.69,1.45,3.29,2.22,5.5,1.8,1.83-.35,2.63-1.72,3.43-3.12.73-1.28,1.56-2.48,2.57-3.54,1.13-1.2,1.7-1.04,2.29.47,1.13,2.87-.32,7.46-3.24,9.86-2.77,2.28-5.96,3.37-9.58,2.99-1-.11-1.78.23-2.47.93-2.01,2.05-3.98,4.15-6.1,6.08-2.78,2.54-5.68,5.02-8.19,7.76-3.85,4.2-8.29,7.77-12.04,12.06-2.22,2.54-4.89,4.7-7.43,6.94-1.78,1.57-2.96,3.3-2.77,5.81.23,3.12-3.78,8.64-7.29,9.33-5.97,1.17-11.28-1.81-12.74-7.44-.2-.76-.09-1.51-.16-2.2ZM57.06,81.18c.04-2.83-2.57-5.63-5.29-5.67-2.71-.04-5.45,2.75-5.46,5.55,0,2.86,2.39,5.45,5.07,5.47,3.11.03,5.64-2.35,5.68-5.35Z"/>
  <path class="cls-1" d="M37.42,32.99c.25-1.4-.42-2.74.9-3.29,1.3-.54,1.91.74,2.65,1.43,1.66,1.56,3.23,3.2,4.83,4.83,1.64,1.67,3.91,1.85,6.73.41.95-.49,1.86-1.09,2.56-1.93,2.32-2.76,2.07-4.8-.21-7.8-1.5-1.97-3.36-3.67-5.1-5.46-.59-.61-1.18-1.2-.86-2.1.33-.92,1.18-.51,1.84-.6,3.57-.52,6.7.6,9.37,2.86,3.03,2.57,4.84,5.89,5.07,9.91.18,3.12.89,5.91,3.37,8.08,1.55,1.36,2.86,2.98,4.39,4.35.8.71.58,1.19.1,1.87-.51.73-1.27,1.17-1.91,1.75-2.09,1.86-3.7,4.19-6,5.88-1.5,1.1-1.86,1.33-3.2-.04-1.52-1.54-3.04-3.09-4.54-4.66-1.09-1.14-2.28-1.84-3.98-1.66-3.06.31-6.06-.11-8.73-1.75-4.63-2.84-6.83-7.14-7.28-12.08Z"/>
  <path class="cls-1" d="M103.26,91.52c-2.94.36-5.16-1.38-7.07-3.18-6.11-5.76-12-11.75-18.05-17.58-.96-.93-.73-1.53-.06-2.37,2.7-3.41,6.01-6.2,9.15-9.17.89-.85,1.81-.7,2.7.11,3.39,3.09,6.79,6.18,10.21,9.24,3.1,2.78,6.22,5.53,9.16,8.5,2.48,2.51,3.05,5.44,2.18,8.78-.76,2.88-4.94,6.33-8.21,5.67ZM103.39,86.61c1.98.03,3.57-1.53,3.61-3.51.04-2.09-1.55-3.95-3.42-3.99-1.22-.03-4.07,2.57-4.12,3.75-.07,1.75,2,3.72,3.93,3.75Z"/>
</svg>