<?xml version="1.0" encoding="UTF-8"?>
<svg id="Layer_1" data-name="Layer 1" xmlns="http://www.w3.org/2000/svg" xmlns:xlink="http://www.w3.org/1999/xlink" viewBox="0 0 151.57 109.96">
  <defs>
    <style>
      .cls-1 {
        fill: none;
      }

      .cls-2 {
        fill: #afd136;
      }

      .cls-3 {
        clip-path: url(#clippath);
      }
    </style>
    <clipPath id="clippath">
      <rect class="cls-1" x="245.26" y="183.16" width="82.78" height="82.78"/>
    </clipPath>
  </defs>
  <g>
    <path class="cls-2" d="M112.04,88.37H39.53c-5.1,0-9.25-4.15-9.25-9.25V30.83c0-5.1,4.15-9.25,9.25-9.25h72.51c5.1,0,9.25,4.15,9.25,9.25v48.29c0,5.1-4.15,9.25-9.25,9.25ZM39.53,23.47c-4.06,0-7.36,3.3-7.36,7.36v48.29c0,4.06,3.3,7.36,7.36,7.36h72.51c4.06,0,7.36-3.3,7.36-7.36V30.83c0-4.06-3.3-7.36-7.36-7.36H39.53Z"/>
    <path class="cls-2" d="M65.29,75.56v-41.17l35.65,20.58-35.65,20.58ZM67.18,37.66v34.64l30-17.32-30-17.32Z"/>
  </g>
  <g class="cls-3">
    <g>
      <path class="cls-2" d="M1.01,5.19c-.02.92-.95,1.66-2.07,1.66-1.12,0-2.02-.75-2-1.67.02-.92.95-1.66,2.08-1.66s2.02.75,2,1.67Z"/>
      <path class="cls-2" d="M7.69,5.2c-.03.92-.95,1.67-2.08,1.67-1.13,0-2.02-.75-2-1.67.02-.92.96-1.67,2.09-1.67s2.02.75,1.99,1.68Z"/>
      <path class="cls-2" d="M14.39,5.2c-.03.92-.96,1.67-2.08,1.67-1.13,0-2.02-.74-2-1.67.03-.92.97-1.68,2.09-1.68s2.01.75,1.99,1.68Z"/>
      <path class="cls-2" d="M21.08,5.2c-.02.92-.95,1.66-2.08,1.67-1.13,0-2.03-.74-2-1.66.03-.92.97-1.68,2.09-1.68s2.01.75,1.99,1.67Z"/>
      <path class="cls-2" d="M27.78,5.19c-.02.92-.94,1.66-2.07,1.66-1.13,0-2.03-.74-2.01-1.66.02-.92.96-1.67,2.09-1.67s2.02.75,2,1.67Z"/>
      <path class="cls-2" d="M34.48,5.19c-.01.91-.93,1.65-2.06,1.65-1.13,0-2.04-.73-2.02-1.65.02-.92.95-1.67,2.08-1.67s2.02.75,2.01,1.66Z"/>
      <path class="cls-2" d="M41.18,5.18c0,.91-.92,1.64-2.05,1.64-1.13,0-2.05-.72-2.04-1.64.01-.91.94-1.66,2.07-1.66s2.02.74,2.02,1.65Z"/>
      <path class="cls-2" d="M47.89,5.16c0,.9-.91,1.63-2.04,1.63s-2.06-.72-2.05-1.62c0-.91.93-1.65,2.06-1.65s2.03.74,2.03,1.64Z"/>
      <path class="cls-2" d="M54.59,5.15c0,.89-.89,1.61-2.02,1.62-1.13,0-2.06-.71-2.07-1.61,0-.9.92-1.64,2.05-1.64s2.03.74,2.04,1.63Z"/>
      <path class="cls-2" d="M61.3,5.14c.02.89-.87,1.6-2,1.6-1.13,0-2.07-.7-2.08-1.6-.01-.89.9-1.63,2.03-1.63s2.04.73,2.06,1.62Z"/>
      <path class="cls-2" d="M68.01,5.13c.03.88-.86,1.58-1.99,1.59s-2.08-.7-2.1-1.58c-.02-.88.89-1.61,2.02-1.61s2.05.73,2.07,1.61Z"/>
      <path class="cls-2" d="M74.71,5.12c.03.87-.84,1.57-1.97,1.57s-2.09-.69-2.12-1.57c-.03-.88.88-1.6,2-1.6s2.05.72,2.09,1.59Z"/>
      <path class="cls-2" d="M81.42,5.11c.04.87-.82,1.56-1.96,1.56-1.13,0-2.09-.69-2.13-1.56-.04-.87.86-1.59,1.99-1.59s2.06.72,2.1,1.58Z"/>
      <path class="cls-2" d="M88.12,5.1c.05.86-.81,1.55-1.94,1.55-1.13,0-2.1-.68-2.14-1.55-.04-.86.85-1.58,1.98-1.58s2.06.71,2.11,1.58Z"/>
      <path class="cls-2" d="M94.82,5.09c.05.86-.8,1.54-1.93,1.54-1.13,0-2.1-.68-2.15-1.54-.05-.86.84-1.57,1.97-1.57s2.06.71,2.12,1.57Z"/>
      <path class="cls-2" d="M101.52,5.09c.06.86-.79,1.53-1.92,1.53-1.13,0-2.11-.68-2.16-1.53-.05-.86.84-1.57,1.96-1.57s2.06.71,2.12,1.57Z"/>
      <path class="cls-2" d="M108.21,5.09c.06.85-.79,1.53-1.92,1.53-1.13,0-2.11-.67-2.16-1.53-.06-.85.83-1.57,1.96-1.57s2.06.71,2.12,1.57Z"/>
      <path class="cls-2" d="M114.9,5.09c.05.86-.79,1.53-1.92,1.53-1.13,0-2.11-.68-2.16-1.53-.06-.86.84-1.57,1.96-1.57s2.06.71,2.12,1.57Z"/>
      <path class="cls-2" d="M121.58,5.1c.05.86-.8,1.53-1.92,1.53-1.12,0-2.1-.68-2.15-1.54-.05-.86.84-1.57,1.97-1.57s2.06.72,2.11,1.58Z"/>
      <path class="cls-2" d="M128.26,5.11c.04.87-.81,1.54-1.93,1.54-1.12,0-2.09-.69-2.14-1.55-.05-.86.85-1.58,1.98-1.58s2.05.72,2.09,1.59Z"/>
      <path class="cls-2" d="M134.93,5.13c.03.88-.82,1.56-1.94,1.55-1.12,0-2.08-.69-2.12-1.56-.04-.87.87-1.6,2-1.6s2.04.73,2.07,1.61Z"/>
      <path class="cls-2" d="M141.65,5.1c.05.86-.81,1.55-1.95,1.55-1.14,0-2.11-.67-2.15-1.54-.04-.87.87-1.6,2-1.6s2.05.72,2.1,1.58Z"/>
      <path class="cls-2" d="M148.36,5.08c.06.85-.79,1.52-1.93,1.53-1.13,0-2.12-.66-2.17-1.52-.05-.86.85-1.57,1.97-1.57s2.06.71,2.12,1.56Z"/>
      <path class="cls-2" d="M155.07,5.07c.06.84-.78,1.51-1.91,1.52-1.13,0-2.12-.66-2.18-1.51-.06-.85.83-1.55,1.96-1.55s2.07.7,2.13,1.55Z"/>
      <path class="cls-2" d="M.91,10.27c-.01.91-.93,1.65-2.05,1.64-1.12,0-2.02-.75-2.01-1.66.01-.91.93-1.65,2.06-1.65,1.12,0,2.02.75,2.01,1.66Z"/>
      <path class="cls-2" d="M7.59,10.28c-.01.91-.93,1.65-2.06,1.65-1.13,0-2.03-.74-2.02-1.65.01-.91.94-1.65,2.06-1.65,1.13,0,2.02.74,2.01,1.66Z"/>
      <path class="cls-2" d="M14.29,10.27c0,.91-.93,1.64-2.06,1.65s-2.04-.73-2.03-1.64c.01-.91.94-1.65,2.07-1.65s2.03.74,2.02,1.65Z"/>
      <path class="cls-2" d="M21.01,10.25c0,.9-.92,1.64-2.05,1.64s-2.05-.72-2.05-1.63c0-.91.93-1.65,2.06-1.65,1.13,0,2.04.73,2.04,1.64Z"/>
      <path class="cls-2" d="M27.74,10.22c0,.9-.91,1.63-2.04,1.63-1.14,0-2.06-.71-2.06-1.61,0-.9.92-1.64,2.05-1.64,1.13,0,2.05.73,2.05,1.62Z"/>
      <path class="cls-2" d="M34.48,10.18c.01.89-.89,1.61-2.03,1.62-1.14.01-2.08-.7-2.08-1.6,0-.89.91-1.63,2.04-1.63,1.13,0,2.06.72,2.07,1.61Z"/>
      <path class="cls-2" d="M41.23,10.13c.03.88-.87,1.6-2.01,1.61-1.14.01-2.09-.69-2.11-1.58-.02-.89.89-1.62,2.03-1.62s2.07.71,2.09,1.59Z"/>
      <path class="cls-2" d="M47.99,10.07c.04.87-.85,1.58-1.99,1.59-1.14.01-2.1-.68-2.13-1.56-.03-.88.88-1.6,2.01-1.61,1.13,0,2.07.7,2.11,1.57Z"/>
      <path class="cls-2" d="M54.76,10.01c.05.86-.83,1.56-1.97,1.57-1.14.01-2.11-.67-2.16-1.54-.04-.87.86-1.58,1.99-1.59,1.14,0,2.08.69,2.13,1.55Z"/>
      <path class="cls-2" d="M61.52,9.95c.06.85-.8,1.54-1.95,1.55-1.14.01-2.13-.66-2.18-1.52-.05-.86.83-1.57,1.97-1.57,1.14,0,2.09.69,2.16,1.54Z"/>
      <path class="cls-2" d="M68.29,9.89c.07.84-.78,1.52-1.92,1.53-1.14.01-2.14-.65-2.2-1.5-.07-.85.81-1.55,1.95-1.56,1.14,0,2.1.68,2.18,1.52Z"/>
      <path class="cls-2" d="M75.05,9.83c.09.83-.76,1.5-1.9,1.51-1.14.01-2.15-.64-2.23-1.48-.08-.84.79-1.53,1.93-1.54,1.13,0,2.11.67,2.2,1.5Z"/>
      <path class="cls-2" d="M81.8,9.78c.1.82-.73,1.48-1.87,1.49-1.14.01-2.15-.64-2.25-1.46-.09-.83.77-1.51,1.9-1.52,1.13,0,2.12.67,2.21,1.49Z"/>
      <path class="cls-2" d="M88.55,9.73c.11.81-.71,1.46-1.85,1.47-1.14.01-2.16-.63-2.26-1.45-.1-.82.75-1.5,1.88-1.5,1.13,0,2.12.66,2.23,1.48Z"/>
      <path class="cls-2" d="M95.29,9.7c.12.8-.69,1.45-1.83,1.46-1.14,0-2.17-.63-2.28-1.44-.11-.81.73-1.48,1.87-1.49,1.13,0,2.12.66,2.24,1.47Z"/>
      <path class="cls-2" d="M102.01,9.67c.12.8-.68,1.44-1.81,1.44-1.13,0-2.17-.62-2.29-1.43-.12-.8.72-1.47,1.85-1.47,1.13,0,2.13.66,2.25,1.46Z"/>
      <path class="cls-2" d="M108.72,9.66c.13.8-.67,1.43-1.8,1.43-1.13,0-2.17-.62-2.29-1.42-.12-.8.71-1.46,1.84-1.46,1.13,0,2.12.66,2.25,1.46Z"/>
      <path class="cls-2" d="M115.41,9.66c.13.79-.66,1.42-1.78,1.42-1.13,0-2.16-.63-2.29-1.42-.13-.79.7-1.46,1.83-1.45,1.13,0,2.12.66,2.25,1.46Z"/>
      <path class="cls-2" d="M122.08,9.68c.13.79-.65,1.42-1.78,1.41-1.12,0-2.16-.63-2.29-1.43-.13-.79.7-1.45,1.82-1.45,1.12,0,2.11.67,2.24,1.46Z"/>
      <path class="cls-2" d="M128.72,9.72c.12.8-.66,1.42-1.77,1.41-1.12,0-2.15-.64-2.28-1.44-.13-.8.7-1.45,1.82-1.45,1.12,0,2.1.68,2.23,1.48Z"/>
      <path class="cls-2" d="M135.34,9.78c.12.8-.66,1.42-1.77,1.41-1.11-.01-2.14-.65-2.26-1.45-.12-.8.71-1.46,1.83-1.45,1.12,0,2.09.69,2.21,1.49Z"/>
      <path class="cls-2" d="M142.13,9.69c.13.79-.67,1.43-1.82,1.45-1.15.02-2.2-.59-2.32-1.39-.12-.8.73-1.48,1.87-1.49,1.14-.01,2.14.64,2.27,1.43Z"/>
      <path class="cls-2" d="M148.89,9.62c.13.79-.66,1.42-1.8,1.43-1.14.01-2.19-.6-2.32-1.39-.13-.79.71-1.46,1.85-1.47,1.14,0,2.14.64,2.27,1.43Z"/>
      <path class="cls-2" d="M155.62,9.58c.13.79-.65,1.41-1.79,1.42-1.13,0-2.18-.61-2.31-1.4-.13-.79.7-1.45,1.83-1.45,1.13,0,2.14.65,2.27,1.43Z"/>
      <path class="cls-2" d="M.87,15.31c0,.9-.92,1.64-2.04,1.63-1.12,0-2.03-.74-2.02-1.65,0-.91.92-1.64,2.04-1.63,1.12,0,2.03.74,2.02,1.65Z"/>
      <path class="cls-2" d="M7.56,15.3c0,.9-.91,1.63-2.04,1.64-1.13,0-2.05-.73-2.04-1.63,0-.9.92-1.64,2.05-1.64,1.13,0,2.04.73,2.04,1.63Z"/>
      <path class="cls-2" d="M14.29,15.27c0,.9-.91,1.63-2.04,1.63-1.14,0-2.06-.71-2.07-1.61,0-.9.92-1.63,2.05-1.64,1.13,0,2.05.72,2.06,1.62Z"/>
      <path class="cls-2" d="M21.05,15.22c.02.89-.89,1.61-2.03,1.63-1.14.01-2.08-.7-2.09-1.59-.01-.89.91-1.63,2.04-1.63,1.14,0,2.07.71,2.08,1.6Z"/>
      <path class="cls-2" d="M27.83,15.14c.03.88-.87,1.6-2.02,1.62-1.15.02-2.1-.68-2.12-1.57-.02-.88.89-1.61,2.03-1.62,1.14-.01,2.08.7,2.11,1.58Z"/>
      <path class="cls-2" d="M34.64,15.05c.04.87-.85,1.58-2,1.6-1.15.02-2.12-.67-2.15-1.54-.03-.87.87-1.6,2.02-1.61,1.14-.01,2.1.69,2.14,1.55Z"/>
      <path class="cls-2" d="M41.46,14.94c.05.86-.83,1.56-1.98,1.58-1.15.02-2.13-.65-2.18-1.52-.05-.86.85-1.58,2-1.6,1.14-.02,2.11.67,2.16,1.53Z"/>
      <path class="cls-2" d="M48.29,14.82c.07.84-.8,1.54-1.96,1.56-1.16.02-2.15-.64-2.21-1.49-.06-.85.83-1.56,1.97-1.58,1.15-.02,2.12.66,2.19,1.5Z"/>
      <path class="cls-2" d="M55.13,14.69c.09.83-.77,1.52-1.93,1.54-1.16.03-2.17-.63-2.24-1.46-.08-.84.8-1.54,1.95-1.56,1.15-.02,2.14.65,2.22,1.48Z"/>
      <path class="cls-2" d="M61.98,14.57c.1.82-.74,1.49-1.9,1.52-1.16.03-2.18-.61-2.27-1.44-.09-.82.77-1.52,1.92-1.53,1.15-.02,2.15.64,2.25,1.46Z"/>
      <path class="cls-2" d="M68.82,14.44c.12.8-.71,1.47-1.87,1.49-1.16.03-2.19-.6-2.3-1.41-.11-.81.75-1.49,1.89-1.51,1.15-.02,2.16.63,2.28,1.43Z"/>
      <path class="cls-2" d="M75.66,14.32c.13.79-.68,1.44-1.84,1.46-1.16.02-2.21-.59-2.33-1.39-.12-.8.72-1.47,1.87-1.49,1.15-.02,2.17.62,2.3,1.41Z"/>
      <path class="cls-2" d="M82.49,14.21c.15.78-.65,1.42-1.81,1.44-1.15.02-2.22-.58-2.35-1.37-.14-.79.69-1.45,1.84-1.46,1.14-.02,2.18.62,2.33,1.39Z"/>
      <path class="cls-2" d="M89.3,14.11c.16.77-.63,1.39-1.78,1.41-1.15.02-2.22-.58-2.38-1.35-.15-.77.66-1.42,1.81-1.44,1.14-.01,2.18.61,2.34,1.38Z"/>
      <path class="cls-2" d="M96.09,14.02c.17.76-.6,1.37-1.75,1.39s-2.23-.57-2.39-1.34c-.17-.76.64-1.4,1.78-1.42,1.14-.01,2.19.61,2.36,1.37Z"/>
      <path class="cls-2" d="M102.86,13.96c.18.75-.58,1.35-1.72,1.36-1.14.01-2.23-.57-2.41-1.33-.18-.75.62-1.39,1.75-1.39,1.14,0,2.19.61,2.37,1.36Z"/>
      <path class="cls-2" d="M109.6,13.91c.19.74-.56,1.33-1.69,1.34-1.14,0-2.23-.57-2.41-1.32-.19-.75.6-1.37,1.73-1.37,1.13,0,2.19.61,2.38,1.35Z"/>
      <path class="cls-2" d="M116.31,13.9c.2.74-.54,1.32-1.67,1.32-1.13,0-2.22-.58-2.42-1.32-.19-.74.58-1.36,1.71-1.36,1.13,0,2.18.61,2.38,1.35Z"/>
      <path class="cls-2" d="M122.99,13.91c.2.74-.53,1.31-1.65,1.31-1.12,0-2.21-.58-2.41-1.32-.2-.74.57-1.35,1.69-1.34,1.12,0,2.17.62,2.37,1.36Z"/>
      <path class="cls-2" d="M129.62,13.97c.2.74-.52,1.3-1.64,1.3-1.12,0-2.2-.6-2.4-1.33-.2-.74.57-1.34,1.68-1.33,1.12,0,2.16.63,2.36,1.37Z"/>
      <path class="cls-2" d="M136.2,14.05c.19.74-.52,1.3-1.63,1.29-1.11-.02-2.19-.61-2.38-1.35-.2-.74.56-1.34,1.67-1.33,1.11.01,2.14.65,2.34,1.39Z"/>
      <path class="cls-2" d="M143.04,13.92c.2.73-.55,1.33-1.7,1.35-1.15.02-2.27-.53-2.47-1.27-.2-.74.6-1.37,1.75-1.39,1.15-.02,2.22.58,2.42,1.31Z"/>
      <path class="cls-2" d="M149.82,13.83c.2.73-.54,1.32-1.68,1.33-1.14.01-2.25-.55-2.45-1.28-.2-.73.58-1.36,1.72-1.37s2.2.59,2.41,1.32Z"/>
      <path class="cls-2" d="M.87,20.3c0,.9-.91,1.63-2.03,1.63-1.13,0-2.04-.73-2.04-1.63,0-.9.91-1.63,2.03-1.63,1.12,0,2.04.73,2.04,1.63Z"/>
      <path class="cls-2" d="M7.59,20.27c.01.89-.9,1.62-2.04,1.63-1.14,0-2.06-.71-2.07-1.61,0-.9.91-1.63,2.04-1.63,1.13,0,2.06.72,2.07,1.61Z"/>
      <path class="cls-2" d="M14.37,20.2c.02.88-.89,1.61-2.03,1.63-1.15.02-2.09-.69-2.1-1.58-.02-.89.9-1.62,2.04-1.63s2.08.7,2.1,1.58Z"/>
      <path class="cls-2" d="M21.19,20.1c.03.87-.87,1.6-2.02,1.62-1.15.02-2.11-.67-2.14-1.55-.03-.88.88-1.61,2.03-1.62,1.15-.02,2.1.68,2.13,1.56Z"/>
      <path class="cls-2" d="M28.04,19.96c.05.86-.85,1.58-2.01,1.61-1.16.03-2.14-.65-2.17-1.52-.04-.87.87-1.59,2.02-1.61,1.15-.02,2.12.67,2.17,1.53Z"/>
      <path class="cls-2" d="M34.93,19.8c.06.85-.82,1.56-1.99,1.59-1.17.03-2.16-.63-2.21-1.49-.05-.86.84-1.57,2-1.6,1.16-.02,2.14.65,2.2,1.5Z"/>
      <path class="cls-2" d="M41.84,19.62c.08.83-.79,1.53-1.96,1.57s-2.18-.61-2.25-1.46.82-1.55,1.98-1.58c1.16-.03,2.16.63,2.24,1.47Z"/>
      <path class="cls-2" d="M48.76,19.42c.1.82-.76,1.51-1.94,1.55-1.17.04-2.2-.6-2.29-1.42-.09-.83.79-1.53,1.95-1.56,1.16-.03,2.18.62,2.27,1.44Z"/>
      <path class="cls-2" d="M55.7,19.22c.12.8-.73,1.48-1.9,1.52-1.17.04-2.22-.58-2.33-1.39-.11-.81.76-1.5,1.92-1.53,1.16-.03,2.19.6,2.31,1.41Z"/>
      <path class="cls-2" d="M62.64,19.01c.14.79-.69,1.45-1.87,1.49-1.17.04-2.24-.57-2.36-1.36-.13-.8.73-1.48,1.89-1.51,1.16-.03,2.21.59,2.34,1.38Z"/>
      <path class="cls-2" d="M69.58,18.8c.16.77-.66,1.42-1.83,1.46-1.17.04-2.25-.55-2.4-1.33s.69-1.45,1.85-1.48,2.22.58,2.38,1.35Z"/>
      <path class="cls-2" d="M76.51,18.6c.17.76-.62,1.39-1.8,1.43-1.17.04-2.27-.54-2.43-1.31s.66-1.42,1.82-1.45,2.23.57,2.41,1.33Z"/>
      <path class="cls-2" d="M83.43,18.41c.19.74-.59,1.36-1.76,1.4-1.17.04-2.28-.53-2.46-1.28-.18-.75.62-1.39,1.78-1.42,1.16-.03,2.24.56,2.43,1.3Z"/>
      <path class="cls-2" d="M90.32,18.24c.21.73-.55,1.33-1.72,1.36-1.17.03-2.28-.53-2.48-1.26-.2-.74.59-1.36,1.75-1.39,1.16-.02,2.25.56,2.46,1.29Z"/>
      <path class="cls-2" d="M97.19,18.1c.22.71-.52,1.3-1.68,1.33-1.16.03-2.29-.52-2.5-1.25-.21-.72.56-1.34,1.71-1.36s2.25.56,2.47,1.27Z"/>
      <path class="cls-2" d="M104.03,17.98c.24.7-.49,1.28-1.64,1.3s-2.29-.52-2.52-1.23c-.23-.71.53-1.31,1.68-1.33s2.25.56,2.49,1.26Z"/>
      <path class="cls-2" d="M110.82,17.89c.25.69-.46,1.26-1.61,1.27-1.15.02-2.29-.52-2.53-1.22-.24-.7.5-1.29,1.64-1.3,1.14-.01,2.25.56,2.49,1.25Z"/>
      <path class="cls-2" d="M117.57,17.84c.26.69-.44,1.24-1.58,1.24-1.14,0-2.28-.53-2.53-1.22-.25-.69.48-1.27,1.61-1.28,1.13,0,2.24.56,2.5,1.25Z"/>
      <path class="cls-2" d="M124.27,17.84c.26.68-.42,1.22-1.55,1.22-1.13,0-2.27-.54-2.53-1.22-.26-.69.46-1.26,1.59-1.25,1.12,0,2.23.57,2.49,1.26Z"/>
      <path class="cls-2" d="M130.9,17.89c.26.68-.41,1.21-1.52,1.2-1.12,0-2.26-.55-2.52-1.23-.26-.68.45-1.24,1.56-1.23,1.12,0,2.21.59,2.48,1.27Z"/>
      <path class="cls-2" d="M137.48,17.99c.26.68-.4,1.2-1.5,1.18-1.1-.02-2.23-.57-2.5-1.25-.26-.68.44-1.24,1.54-1.22,1.11.02,2.19.6,2.45,1.29Z"/>
      <path class="cls-2" d="M144.33,17.83c.26.68-.43,1.23-1.59,1.26-1.15.03-2.32-.48-2.59-1.17-.26-.68.48-1.27,1.63-1.3,1.15-.03,2.28.52,2.54,1.2Z"/>
      <path class="cls-2" d="M151.1,17.75c.26.68-.43,1.23-1.56,1.24-1.14,0-2.29-.52-2.56-1.2-.26-.68.47-1.26,1.61-1.27,1.14-.01,2.25.55,2.52,1.23Z"/>
      <path class="cls-2" d="M.91,25.26c.01.89-.9,1.62-2.03,1.63-1.13,0-2.06-.72-2.06-1.61,0-.9.9-1.62,2.03-1.62,1.13,0,2.05.72,2.07,1.61Z"/>
      <path class="cls-2" d="M7.68,25.19c.02.88-.89,1.61-2.04,1.63-1.15.02-2.09-.69-2.1-1.58-.01-.89.9-1.62,2.04-1.63,1.14-.01,2.08.7,2.1,1.58Z"/>
      <path class="cls-2" d="M14.52,25.07c.03.87-.88,1.6-2.03,1.63-1.16.03-2.12-.67-2.14-1.55-.03-.88.89-1.61,2.04-1.63,1.15-.02,2.11.67,2.14,1.55Z"/>
      <path class="cls-2" d="M21.42,24.9c.05.86-.86,1.59-2.02,1.62-1.17.03-2.15-.64-2.19-1.51-.04-.87.87-1.6,2.03-1.62,1.16-.03,2.13.65,2.18,1.51Z"/>
      <path class="cls-2" d="M28.36,24.69c.07.85-.83,1.56-2.01,1.61-1.18.04-2.18-.62-2.23-1.47-.06-.86.85-1.58,2.01-1.61,1.17-.03,2.16.63,2.23,1.48Z"/>
      <path class="cls-2" d="M35.34,24.45c.08.83-.8,1.54-1.98,1.59-1.18.05-2.2-.59-2.28-1.44-.07-.84.82-1.56,1.99-1.59,1.17-.04,2.18.61,2.27,1.44Z"/>
      <path class="cls-2" d="M42.35,24.18c.1.81-.77,1.51-1.96,1.56-1.19.05-2.23-.57-2.32-1.4-.09-.83.79-1.53,1.97-1.57,1.18-.04,2.21.59,2.31,1.41Z"/>
      <path class="cls-2" d="M49.38,23.9c.12.8-.73,1.48-1.93,1.54s-2.25-.55-2.37-1.36c-.11-.81.76-1.5,1.94-1.55,1.18-.04,2.23.57,2.35,1.37Z"/>
      <path class="cls-2" d="M56.43,23.6c.15.78-.7,1.45-1.89,1.51-1.19.06-2.28-.53-2.41-1.32-.13-.79.72-1.47,1.9-1.52,1.18-.05,2.25.56,2.39,1.34Z"/>
      <path class="cls-2" d="M63.49,23.3c.17.76-.66,1.42-1.85,1.47-1.19.06-2.3-.52-2.45-1.29-.15-.77.69-1.44,1.87-1.49,1.18-.05,2.27.54,2.43,1.3Z"/>
      <path class="cls-2" d="M70.54,23c.19.74-.62,1.38-1.81,1.44-1.19.06-2.31-.5-2.49-1.26-.18-.75.65-1.41,1.83-1.46,1.18-.05,2.28.53,2.47,1.27Z"/>
      <path class="cls-2" d="M77.58,22.71c.21.73-.57,1.35-1.77,1.4-1.19.05-2.33-.49-2.53-1.23-.2-.74.61-1.38,1.79-1.42s2.29.52,2.5,1.24Z"/>
      <path class="cls-2" d="M84.6,22.43c.23.71-.53,1.32-1.72,1.37-1.19.05-2.34-.48-2.56-1.2-.22-.72.57-1.34,1.74-1.39,1.18-.04,2.3.51,2.53,1.22Z"/>
      <path class="cls-2" d="M91.6,22.18c.25.69-.49,1.28-1.68,1.33-1.18.05-2.35-.47-2.59-1.18-.24-.7.53-1.31,1.7-1.35,1.17-.04,2.31.51,2.56,1.2Z"/>
      <path class="cls-2" d="M98.55,21.95c.27.68-.46,1.25-1.63,1.29-1.18.04-2.35-.47-2.61-1.16-.26-.69.49-1.28,1.66-1.31,1.17-.03,2.31.5,2.58,1.18Z"/>
      <path class="cls-2" d="M105.47,21.77c.28.66-.42,1.22-1.59,1.25-1.17.03-2.35-.47-2.62-1.14-.27-.67.46-1.25,1.62-1.28,1.16-.03,2.31.5,2.6,1.17Z"/>
      <path class="cls-2" d="M112.33,21.62c.3.65-.38,1.19-1.54,1.22-1.16.03-2.35-.47-2.64-1.13-.29-.66.42-1.22,1.57-1.24,1.15-.02,2.31.51,2.6,1.16Z"/>
      <path class="cls-2" d="M119.14,21.53c.31.64-.35,1.17-1.5,1.18-1.15.02-2.34-.48-2.64-1.13-.3-.65.4-1.2,1.54-1.21,1.14-.01,2.3.52,2.61,1.16Z"/>
      <path class="cls-2" d="M125.87,21.49c.32.64-.33,1.14-1.46,1.15-1.13,0-2.32-.49-2.64-1.13-.31-.64.37-1.18,1.5-1.18,1.13,0,2.28.53,2.6,1.16Z"/>
      <path class="cls-2" d="M132.53,21.52c.32.63-.31,1.12-1.43,1.12-1.12,0-2.31-.51-2.62-1.14-.32-.63.35-1.16,1.46-1.15,1.12,0,2.26.54,2.59,1.18Z"/>
      <path class="cls-2" d="M139.1,21.62c.32.63-.29,1.11-1.39,1.09-1.1-.02-2.28-.53-2.6-1.16-.32-.63.33-1.15,1.43-1.13,1.1.02,2.24.56,2.56,1.2Z"/>
      <path class="cls-2" d="M145.95,21.46c.32.63-.33,1.15-1.48,1.17-1.15.02-2.37-.45-2.69-1.08-.32-.63.37-1.18,1.52-1.21,1.15-.03,2.33.49,2.65,1.12Z"/>
      <path class="cls-2" d="M152.7,21.41c.31.64-.33,1.14-1.46,1.15-1.13,0-2.33-.49-2.64-1.13-.32-.64.36-1.17,1.5-1.18,1.13,0,2.29.52,2.6,1.16Z"/>
      <path class="cls-2" d="M.99,30.19c.02.89-.9,1.62-2.04,1.63-1.14.01-2.07-.7-2.09-1.6-.01-.89.9-1.62,2.04-1.63,1.14,0,2.07.7,2.09,1.59Z"/>
      <path class="cls-2" d="M7.82,30.07c.03.88-.89,1.61-2.05,1.64-1.16.03-2.11-.67-2.13-1.56-.02-.88.89-1.61,2.04-1.63,1.15-.02,2.11.67,2.14,1.55Z"/>
      <path class="cls-2" d="M14.74,29.88c.04.86-.87,1.6-2.04,1.63-1.17.04-2.15-.64-2.18-1.51-.03-.87.88-1.6,2.04-1.63,1.16-.03,2.14.65,2.18,1.51Z"/>
      <path class="cls-2" d="M21.72,29.64c.06.85-.85,1.58-2.03,1.63-1.18.05-2.18-.61-2.23-1.47-.05-.86.86-1.59,2.03-1.63s2.17.62,2.23,1.47Z"/>
      <path class="cls-2" d="M28.76,29.35c.08.83-.82,1.55-2.01,1.61-1.19.06-2.22-.58-2.29-1.43-.07-.84.84-1.57,2.02-1.61,1.18-.05,2.2.6,2.28,1.43Z"/>
      <path class="cls-2" d="M35.85,29.02c.1.82-.79,1.53-1.99,1.59-1.2.06-2.25-.56-2.34-1.38-.09-.83.81-1.54,1.99-1.59,1.19-.05,2.23.57,2.33,1.39Z"/>
      <path class="cls-2" d="M42.98,28.65c.12.8-.75,1.5-1.96,1.57-1.21.07-2.28-.53-2.39-1.34-.11-.81.77-1.52,1.97-1.57,1.19-.06,2.26.55,2.38,1.35Z"/>
      <path class="cls-2" d="M50.14,28.26c.15.78-.71,1.47-1.93,1.54-1.21.07-2.31-.51-2.44-1.3-.13-.79.74-1.48,1.94-1.54,1.2-.06,2.28.53,2.43,1.31Z"/>
      <path class="cls-2" d="M57.31,27.86c.17.76-.67,1.43-1.89,1.5-1.22.07-2.33-.49-2.49-1.26-.16-.77.7-1.45,1.9-1.51,1.2-.06,2.31.51,2.48,1.27Z"/>
      <path class="cls-2" d="M64.49,27.45c.19.74-.63,1.39-1.84,1.47-1.22.07-2.35-.47-2.53-1.22-.18-.75.66-1.42,1.86-1.48,1.2-.06,2.33.49,2.52,1.23Z"/>
      <path class="cls-2" d="M71.67,27.05c.22.72-.58,1.36-1.8,1.43-1.22.07-2.37-.45-2.58-1.18-.2-.73.61-1.38,1.81-1.44,1.2-.06,2.34.48,2.56,1.2Z"/>
      <path class="cls-2" d="M78.83,26.65c.24.7-.54,1.32-1.75,1.39-1.21.07-2.39-.44-2.62-1.15-.23-.71.57-1.35,1.77-1.41s2.36.47,2.6,1.17Z"/>
      <path class="cls-2" d="M85.97,26.28c.26.68-.49,1.28-1.7,1.35-1.21.07-2.4-.43-2.65-1.12-.25-.69.53-1.31,1.72-1.37,1.19-.06,2.37.46,2.63,1.14Z"/>
      <path class="cls-2" d="M93.08,25.93c.29.66-.45,1.24-1.65,1.31-1.2.06-2.41-.42-2.68-1.1-.27-.67.48-1.27,1.67-1.32,1.19-.05,2.37.45,2.66,1.12Z"/>
      <path class="cls-2" d="M100.14,25.62c.31.65-.4,1.21-1.6,1.26-1.19.06-2.41-.42-2.7-1.08-.29-.66.44-1.24,1.62-1.28,1.18-.05,2.37.45,2.68,1.1Z"/>
      <path class="cls-2" d="M107.15,25.35c.32.63-.36,1.17-1.54,1.22-1.18.05-2.41-.42-2.72-1.06-.31-.64.4-1.2,1.57-1.24,1.17-.04,2.37.45,2.7,1.08Z"/>
      <path class="cls-2" d="M114.1,25.14c.34.62-.32,1.14-1.49,1.18-1.17.04-2.4-.43-2.73-1.05-.33-.63.36-1.17,1.52-1.2,1.16-.03,2.37.46,2.7,1.08Z"/>
      <path class="cls-2" d="M120.97,24.99c.35.61-.28,1.11-1.44,1.13-1.16.03-2.39-.44-2.74-1.05-.34-.61.32-1.14,1.47-1.16,1.15-.02,2.35.47,2.71,1.08Z"/>
      <path class="cls-2" d="M127.76,24.91c.36.6-.25,1.08-1.4,1.09s-2.38-.45-2.73-1.05c-.36-.6.29-1.11,1.43-1.12s2.34.48,2.7,1.08Z"/>
      <path class="cls-2" d="M134.45,24.91c.37.59-.22,1.06-1.35,1.05-1.13,0-2.35-.47-2.72-1.06-.37-.6.26-1.09,1.39-1.08,1.12,0,2.31.5,2.68,1.09Z"/>
      <path class="cls-2" d="M141.04,25c.37.59-.2,1.04-1.31,1.02-1.11-.02-2.32-.49-2.7-1.08-.37-.59.24-1.07,1.34-1.05,1.1.02,2.29.53,2.66,1.11Z"/>
      <path class="cls-2" d="M147.87,24.86c.37.59-.24,1.07-1.39,1.09-1.15.02-2.4-.43-2.77-1.01-.37-.59.28-1.1,1.43-1.13,1.15-.02,2.36.46,2.73,1.05Z"/>
      <path class="cls-2" d="M154.57,24.85c.36.6-.24,1.07-1.36,1.06-1.12,0-2.35-.48-2.71-1.07-.37-.6.27-1.1,1.4-1.1s2.31.5,2.67,1.11Z"/>
      <path class="cls-2" d="M1.1,35.1c.02.88-.9,1.62-2.05,1.64-1.15.02-2.1-.68-2.11-1.57-.01-.89.9-1.62,2.04-1.64,1.15-.02,2.1.68,2.12,1.57Z"/>
      <path class="cls-2" d="M8.01,34.92c.04.87-.89,1.61-2.06,1.65-1.17.04-2.14-.65-2.17-1.53-.03-.88.89-1.61,2.05-1.64,1.16-.03,2.14.65,2.17,1.52Z"/>
      <path class="cls-2" d="M15.01,34.66c.05.86-.87,1.6-2.06,1.65-1.19.05-2.18-.61-2.22-1.48-.04-.87.88-1.6,2.05-1.64,1.18-.04,2.18.62,2.23,1.48Z"/>
      <path class="cls-2" d="M22.09,34.33c.07.84-.84,1.58-2.05,1.64-1.2.06-2.22-.58-2.28-1.43-.06-.85.85-1.58,2.04-1.64,1.19-.05,2.21.59,2.28,1.43Z"/>
      <path class="cls-2" d="M29.25,33.94c.09.82-.81,1.55-2.03,1.62-1.21.07-2.26-.55-2.34-1.38-.08-.83.83-1.56,2.03-1.62,1.2-.06,2.25.56,2.34,1.38Z"/>
      <path class="cls-2" d="M36.46,33.51c.12.8-.78,1.52-2,1.6-1.22.08-2.3-.52-2.4-1.33-.1-.82.8-1.54,2.01-1.6,1.21-.07,2.28.53,2.4,1.33Z"/>
      <path class="cls-2" d="M43.71,33.04c.14.78-.74,1.49-1.97,1.58-1.23.09-2.33-.49-2.46-1.28-.12-.8.76-1.51,1.98-1.58,1.22-.07,2.31.5,2.45,1.29Z"/>
      <path class="cls-2" d="M51,32.54c.16.76-.7,1.45-1.94,1.55-1.24.09-2.36-.46-2.51-1.24-.15-.78.72-1.47,1.94-1.55,1.22-.08,2.34.48,2.5,1.24Z"/>
      <path class="cls-2" d="M58.31,32.02c.19.74-.66,1.42-1.89,1.51-1.24.09-2.39-.44-2.56-1.19-.17-.76.68-1.44,1.9-1.52,1.22-.08,2.36.46,2.55,1.2Z"/>
      <path class="cls-2" d="M65.63,31.5c.22.72-.61,1.38-1.85,1.47-1.24.09-2.41-.42-2.61-1.15-.2-.73.64-1.4,1.86-1.48,1.22-.08,2.39.44,2.6,1.16Z"/>
      <path class="cls-2" d="M72.94,30.98c.24.7-.56,1.34-1.8,1.43-1.24.09-2.43-.4-2.66-1.11-.23-.71.59-1.36,1.81-1.44,1.22-.08,2.4.43,2.65,1.13Z"/>
      <path class="cls-2" d="M80.24,30.47c.27.68-.51,1.3-1.75,1.39-1.24.09-2.45-.39-2.7-1.08-.25-.69.54-1.32,1.76-1.4,1.22-.08,2.42.41,2.69,1.09Z"/>
      <path class="cls-2" d="M87.51,29.99c.29.66-.46,1.25-1.69,1.34-1.23.09-2.46-.38-2.74-1.05-.28-.67.49-1.28,1.71-1.36,1.22-.07,2.43.41,2.72,1.06Z"/>
      <path class="cls-2" d="M94.74,29.53c.31.64-.41,1.21-1.64,1.29-1.22.08-2.47-.37-2.77-1.02-.3-.65.45-1.24,1.66-1.31,1.21-.07,2.43.4,2.75,1.04Z"/>
      <path class="cls-2" d="M101.92,29.13c.34.62-.36,1.17-1.58,1.25-1.21.07-2.47-.37-2.79-1-.32-.63.4-1.2,1.6-1.26,1.2-.06,2.44.4,2.77,1.02Z"/>
      <path class="cls-2" d="M109.04,28.77c.36.6-.32,1.13-1.52,1.2-1.2.06-2.47-.37-2.81-.99-.34-.61.35-1.16,1.54-1.22,1.19-.05,2.43.4,2.79,1.01Z"/>
      <path class="cls-2" d="M116.08,28.48c.37.59-.27,1.1-1.46,1.15-1.19.05-2.46-.38-2.82-.98-.36-.6.31-1.13,1.49-1.17,1.18-.04,2.42.41,2.8,1Z"/>
      <path class="cls-2" d="M123.03,28.26c.39.58-.23,1.06-1.4,1.1-1.17.04-2.44-.39-2.83-.98-.38-.58.27-1.09,1.43-1.12,1.16-.03,2.41.42,2.8,1Z"/>
      <path class="cls-2" d="M129.88,28.13c.4.57-.19,1.03-1.35,1.05-1.15.02-2.42-.41-2.82-.98-.39-.57.23-1.06,1.38-1.08,1.15-.02,2.39.44,2.79,1.01Z"/>
      <path class="cls-2" d="M136.62,28.09c.41.56-.16,1-1.29,1.01s-2.4-.43-2.8-.99c-.41-.56.2-1.03,1.32-1.03,1.13,0,2.36.46,2.77,1.02Z"/>
      <path class="cls-2" d="M143.24,28.15c.42.55-.13.98-1.24.96-1.11-.01-2.36-.46-2.78-1.01-.41-.56.17-1.01,1.27-.99,1.11.02,2.33.49,2.74,1.04Z"/>
      <path class="cls-2" d="M150.04,28.05c.41.56-.16,1.01-1.3,1.02-1.14.01-2.42-.41-2.83-.97-.42-.55.19-1.04,1.34-1.05,1.14-.02,2.38.44,2.79,1Z"/>
      <path class="cls-2" d="M1.23,39.98c.03.88-.9,1.62-2.07,1.66-1.17.03-2.12-.67-2.14-1.55-.02-.89.9-1.62,2.06-1.65,1.16-.03,2.12.66,2.15,1.54Z"/>
      <path class="cls-2" d="M8.22,39.73c.04.87-.89,1.61-2.08,1.66-1.19.05-2.17-.62-2.2-1.5-.03-.88.89-1.62,2.07-1.66,1.18-.04,2.17.62,2.21,1.49Z"/>
      <path class="cls-2" d="M15.32,39.39c.06.85-.87,1.6-2.08,1.66-1.2.07-2.22-.58-2.27-1.44-.05-.86.88-1.6,2.07-1.66s2.21.59,2.27,1.44Z"/>
      <path class="cls-2" d="M22.52,38.97c.08.83-.85,1.58-2.07,1.66-1.22.08-2.26-.54-2.33-1.39-.07-.85.86-1.58,2.06-1.65,1.21-.07,2.25.55,2.33,1.39Z"/>
      <path class="cls-2" d="M29.79,38.48c.1.82-.82,1.55-2.05,1.64-1.23.09-2.31-.51-2.39-1.34-.09-.83.83-1.56,2.05-1.64,1.22-.08,2.29.52,2.4,1.33Z"/>
      <path class="cls-2" d="M37.13,37.94c.13.8-.78,1.52-2.02,1.62-1.25.1-2.35-.48-2.46-1.28-.11-.81.79-1.53,2.03-1.62,1.23-.09,2.33.49,2.46,1.28Z"/>
      <path class="cls-2" d="M44.52,37.35c.15.77-.74,1.49-1.99,1.59-1.25.11-2.38-.44-2.52-1.23-.14-.79.76-1.5,2-1.6,1.24-.09,2.36.46,2.52,1.23Z"/>
      <path class="cls-2" d="M51.96,36.74c.18.75-.7,1.45-1.96,1.56-1.26.11-2.42-.42-2.58-1.18-.16-.77.72-1.47,1.96-1.57,1.24-.1,2.4.43,2.57,1.19Z"/>
      <path class="cls-2" d="M59.41,36.1c.21.73-.65,1.41-1.91,1.53-1.26.11-2.45-.39-2.64-1.14-.19-.74.67-1.43,1.92-1.53,1.25-.1,2.42.41,2.63,1.14Z"/>
      <path class="cls-2" d="M66.87,35.45c.23.71-.6,1.37-1.86,1.49-1.27.12-2.47-.37-2.69-1.09-.22-.72.62-1.39,1.87-1.49,1.25-.1,2.45.39,2.68,1.1Z"/>
      <path class="cls-2" d="M74.34,34.81c.26.68-.55,1.33-1.81,1.44-1.26.11-2.49-.35-2.74-1.05-.24-.7.58-1.35,1.82-1.45,1.25-.1,2.46.38,2.73,1.06Z"/>
      <path class="cls-2" d="M81.78,34.18c.29.66-.5,1.28-1.76,1.4s-2.51-.34-2.78-1.01c-.27-.68.52-1.31,1.77-1.41,1.24-.1,2.48.36,2.77,1.03Z"/>
      <path class="cls-2" d="M89.19,33.58c.31.64-.44,1.24-1.7,1.35-1.25.11-2.52-.33-2.82-.98-.3-.65.47-1.26,1.71-1.36,1.24-.09,2.49.36,2.8,1Z"/>
      <path class="cls-2" d="M96.55,33.02c.34.62-.39,1.19-1.64,1.29-1.25.1-2.53-.32-2.85-.96s.42-1.22,1.65-1.31c1.23-.09,2.49.35,2.83.97Z"/>
      <path class="cls-2" d="M103.86,32.5c.36.6-.34,1.15-1.57,1.24-1.23.09-2.53-.32-2.87-.94-.35-.61.37-1.18,1.59-1.26,1.22-.08,2.49.35,2.85.95Z"/>
      <path class="cls-2" d="M111.09,32.05c.38.58-.29,1.11-1.51,1.19s-2.52-.33-2.89-.92c-.37-.59.32-1.14,1.53-1.21,1.21-.07,2.49.36,2.87.94Z"/>
      <path class="cls-2" d="M118.23,31.68c.4.57-.24,1.07-1.44,1.13-1.21.07-2.51-.34-2.9-.91-.39-.58.27-1.1,1.47-1.15,1.19-.06,2.48.37,2.88.93Z"/>
      <path class="cls-2" d="M125.27,31.38c.42.55-.19,1.03-1.38,1.08-1.19.05-2.49-.35-2.9-.91-.41-.56.23-1.06,1.4-1.1,1.18-.04,2.46.38,2.88.93Z"/>
      <path class="cls-2" d="M132.2,31.19c.43.54-.15.99-1.31,1.03-1.17.03-2.47-.37-2.89-.92-.42-.55.18-1.02,1.34-1.05,1.16-.03,2.43.4,2.87.94Z"/>
      <path class="cls-2" d="M139,31.1c.44.53-.11.96-1.25.97-1.14.01-2.44-.4-2.88-.93-.44-.54.14-.99,1.28-1,1.14,0,2.4.43,2.85.96Z"/>
      <path class="cls-2" d="M145.65,31.14c.45.52-.07.93-1.19.92-1.12,0-2.4-.43-2.85-.96-.45-.53.11-.96,1.22-.95,1.11.01,2.37.46,2.82.98Z"/>
      <path class="cls-2" d="M152.4,31.07c.44.53-.1.95-1.23.95-1.13,0-2.43-.41-2.87-.93-.45-.53.13-.98,1.26-.99,1.14,0,2.4.43,2.84.97Z"/>
      <path class="cls-2" d="M1.38,44.85c.03.88-.91,1.63-2.09,1.67-1.18.04-2.14-.64-2.16-1.53-.02-.89.91-1.63,2.08-1.66,1.17-.04,2.15.64,2.18,1.52Z"/>
      <path class="cls-2" d="M8.46,44.53c.05.86-.9,1.62-2.1,1.68-1.2.06-2.2-.6-2.23-1.47-.03-.87.9-1.62,2.09-1.67,1.19-.05,2.2.6,2.24,1.46Z"/>
      <path class="cls-2" d="M15.67,44.1c.06.85-.88,1.6-2.1,1.68-1.22.08-2.25-.55-2.31-1.41-.05-.86.88-1.61,2.09-1.68,1.21-.07,2.25.56,2.31,1.4Z"/>
      <path class="cls-2" d="M22.98,43.58c.09.83-.85,1.58-2.09,1.68-1.24.1-2.3-.51-2.38-1.35-.07-.84.86-1.59,2.09-1.67,1.23-.08,2.3.52,2.38,1.35Z"/>
      <path class="cls-2" d="M30.38,42.98c.11.81-.82,1.56-2.08,1.66-1.26.11-2.35-.47-2.45-1.29-.1-.82.83-1.56,2.07-1.66,1.24-.1,2.34.48,2.45,1.29Z"/>
      <path class="cls-2" d="M37.86,42.33c.14.79-.78,1.52-2.05,1.64-1.27.12-2.39-.44-2.51-1.24-.12-.8.8-1.54,2.05-1.64,1.25-.11,2.38.45,2.52,1.23Z"/>
      <path class="cls-2" d="M45.4,41.62c.16.77-.74,1.49-2.02,1.62s-2.43-.4-2.58-1.18c-.15-.78.76-1.5,2.02-1.62,1.26-.11,2.42.42,2.58,1.18Z"/>
      <path class="cls-2" d="M52.98,40.88c.19.74-.7,1.45-1.98,1.59-1.29.13-2.47-.37-2.64-1.13-.17-.76.72-1.47,1.99-1.59,1.27-.12,2.45.39,2.64,1.13Z"/>
      <path class="cls-2" d="M60.59,40.11c.22.72-.65,1.41-1.94,1.55-1.29.14-2.5-.35-2.7-1.08-.2-.73.67-1.43,1.94-1.55,1.27-.12,2.48.36,2.7,1.08Z"/>
      <path class="cls-2" d="M68.2,39.33c.25.7-.6,1.37-1.89,1.51-1.29.14-2.53-.32-2.76-1.03-.23-.71.62-1.39,1.9-1.51,1.27-.12,2.5.34,2.75,1.04Z"/>
      <path class="cls-2" d="M75.82,38.56c.27.67-.55,1.32-1.84,1.46-1.29.14-2.55-.31-2.81-.99-.26-.69.57-1.35,1.84-1.47,1.27-.12,2.52.33,2.8,1Z"/>
      <path class="cls-2" d="M83.41,37.81c.3.65-.49,1.28-1.78,1.41-1.29.13-2.57-.29-2.85-.95-.29-.66.52-1.3,1.79-1.42,1.27-.12,2.54.31,2.84.96Z"/>
      <path class="cls-2" d="M90.97,37.08c.33.63-.43,1.23-1.71,1.36-1.28.13-2.58-.28-2.89-.92-.31-.64.46-1.26,1.73-1.37,1.26-.11,2.55.31,2.88.93Z"/>
      <path class="cls-2" d="M98.48,36.4c.36.6-.38,1.19-1.65,1.31-1.27.12-2.58-.28-2.92-.9-.34-.62.41-1.21,1.66-1.32,1.25-.11,2.55.3,2.91.91Z"/>
      <path class="cls-2" d="M105.91,35.78c.38.58-.32,1.14-1.58,1.25-1.26.11-2.58-.28-2.95-.88-.36-.6.35-1.17,1.6-1.26,1.24-.1,2.55.31,2.93.89Z"/>
      <path class="cls-2" d="M113.27,35.23c.4.57-.27,1.09-1.51,1.19-1.24.1-2.57-.29-2.96-.86-.39-.58.3-1.12,1.53-1.21,1.23-.09,2.54.31,2.94.88Z"/>
      <path class="cls-2" d="M120.52,34.76c.42.55-.22,1.05-1.44,1.13-1.22.08-2.56-.3-2.97-.86-.41-.56.25-1.08,1.46-1.15,1.21-.07,2.53.32,2.95.87Z"/>
      <path class="cls-2" d="M127.66,34.38c.44.53-.17,1.01-1.37,1.07-1.2.06-2.54-.31-2.97-.86-.43-.54.2-1.04,1.39-1.09,1.19-.06,2.51.34,2.95.88Z"/>
      <path class="cls-2" d="M134.67,34.12c.46.52-.12.97-1.3,1.01-1.18.04-2.51-.34-2.96-.87-.45-.53.15-1,1.32-1.03,1.17-.04,2.48.37,2.93.89Z"/>
      <path class="cls-2" d="M141.52,33.98c.47.51-.07.93-1.23.95-1.15.02-2.47-.37-2.94-.88-.46-.52.11-.96,1.25-.98,1.15-.02,2.44.4,2.91.91Z"/>
      <path class="cls-2" d="M148.22,33.98c.48.5-.04.9-1.16.9-1.12,0-2.43-.4-2.9-.91-.47-.51.07-.93,1.19-.92,1.12,0,2.4.43,2.87.93Z"/>
      <path class="cls-2" d="M154.92,33.97c.47.51-.05.91-1.16.9-1.12,0-2.42-.41-2.9-.92-.47-.51.07-.93,1.2-.93,1.13,0,2.4.43,2.86.95Z"/>
      <path class="cls-2" d="M1.54,49.71c.03.88-.92,1.64-2.11,1.69-1.19.05-2.17-.62-2.19-1.51-.02-.88.91-1.63,2.1-1.68,1.18-.05,2.17.62,2.2,1.5Z"/>
      <path class="cls-2" d="M8.72,49.31c.05.86-.91,1.63-2.13,1.7-1.22.08-2.23-.57-2.27-1.44-.04-.87.91-1.63,2.11-1.69,1.21-.07,2.23.57,2.28,1.43Z"/>
      <path class="cls-2" d="M16.04,48.78c.07.84-.89,1.61-2.13,1.71-1.24.1-2.29-.52-2.34-1.38-.06-.86.89-1.61,2.12-1.7,1.23-.09,2.29.52,2.35,1.37Z"/>
      <path class="cls-2" d="M23.47,48.16c.09.83-.86,1.59-2.13,1.7s-2.34-.48-2.42-1.31c-.08-.84.87-1.6,2.12-1.7,1.25-.1,2.34.48,2.43,1.31Z"/>
      <path class="cls-2" d="M31.01,47.46c.12.81-.83,1.56-2.11,1.69-1.28.13-2.39-.43-2.49-1.25-.1-.82.84-1.57,2.11-1.69,1.26-.12,2.39.44,2.5,1.25Z"/>
      <path class="cls-2" d="M38.63,46.68c.14.78-.8,1.53-2.09,1.67-1.29.14-2.44-.4-2.57-1.19-.13-.8.81-1.54,2.08-1.67,1.28-.13,2.43.41,2.57,1.19Z"/>
      <path class="cls-2" d="M46.31,45.85c.17.76-.75,1.5-2.06,1.65s-2.48-.36-2.64-1.14c-.15-.77.77-1.51,2.06-1.65,1.29-.13,2.47.37,2.64,1.13Z"/>
      <path class="cls-2" d="M54.05,44.98c.2.74-.71,1.46-2.02,1.62-1.31.16-2.52-.33-2.7-1.08-.18-.75.73-1.48,2.02-1.62,1.3-.14,2.5.34,2.7,1.08Z"/>
      <path class="cls-2" d="M61.82,44.08c.23.71-.66,1.42-1.98,1.58-1.32.16-2.55-.3-2.76-1.03-.21-.73.68-1.44,1.98-1.58,1.3-.14,2.53.32,2.76,1.03Z"/>
      <path class="cls-2" d="M69.59,43.17c.25.69-.61,1.38-1.93,1.54-1.32.16-2.58-.28-2.82-.98-.24-.7.63-1.39,1.93-1.54,1.3-.15,2.56.3,2.81.98Z"/>
      <path class="cls-2" d="M77.37,42.26c.28.66-.55,1.33-1.87,1.49s-2.6-.26-2.87-.94c-.27-.68.57-1.35,1.87-1.49,1.3-.14,2.58.28,2.86.94Z"/>
      <path class="cls-2" d="M85.12,41.38c.31.64-.5,1.28-1.81,1.44-1.31.16-2.62-.25-2.91-.9-.29-.66.52-1.3,1.82-1.44,1.3-.14,2.59.27,2.91.91Z"/>
      <path class="cls-2" d="M92.83,40.53c.34.62-.44,1.23-1.74,1.38-1.31.15-2.63-.24-2.95-.87-.32-.63.46-1.26,1.75-1.39,1.29-.14,2.6.26,2.94.88Z"/>
      <path class="cls-2" d="M100.48,39.72c.37.6-.38,1.19-1.67,1.33-1.29.14-2.63-.24-2.98-.84-.35-.61.41-1.21,1.69-1.34,1.28-.13,2.61.26,2.97.85Z"/>
      <path class="cls-2" d="M108.05,38.99c.39.57-.32,1.14-1.6,1.27-1.28.13-2.63-.24-3.01-.82-.38-.59.35-1.16,1.62-1.28,1.27-.12,2.6.26,2.99.84Z"/>
      <path class="cls-2" d="M115.54,38.33c.42.55-.26,1.09-1.53,1.2-1.26.11-2.62-.25-3.02-.81-.4-.57.29-1.11,1.54-1.22,1.25-.1,2.59.27,3.01.83Z"/>
      <path class="cls-2" d="M122.9,37.76c.44.54-.21,1.04-1.45,1.14-1.24.1-2.6-.26-3.03-.81-.42-.55.24-1.07,1.47-1.16,1.23-.09,2.57.29,3.01.82Z"/>
      <path class="cls-2" d="M130.14,37.3c.45.52-.16,1-1.38,1.08-1.22.08-2.58-.28-3.02-.81-.44-.53.19-1.02,1.39-1.09,1.21-.07,2.55.31,3,.83Z"/>
      <path class="cls-2" d="M137.24,36.97c.47.51-.1.96-1.3,1.01-1.19.06-2.55-.31-3.01-.82-.46-.52.14-.98,1.32-1.03s2.52.33,2.99.84Z"/>
      <path class="cls-2" d="M144.16,36.77c.48.5-.06.92-1.22.95-1.16.03-2.51-.34-2.98-.85-.48-.5.09-.94,1.24-.97,1.16-.03,2.47.37,2.96.86Z"/>
      <path class="cls-2" d="M150.9,36.73c.49.49-.01.88-1.14.88-1.13,0-2.46-.38-2.94-.88-.49-.49.04-.9,1.17-.9,1.13,0,2.43.41,2.92.9Z"/>
      <path class="cls-2" d="M1.72,54.56c.03.88-.93,1.65-2.14,1.71-1.21.07-2.19-.6-2.22-1.49-.02-.88.92-1.64,2.12-1.7,1.2-.06,2.2.6,2.23,1.47Z"/>
      <path class="cls-2" d="M8.99,54.08c.05.86-.92,1.64-2.16,1.73-1.24.09-2.26-.55-2.3-1.42-.04-.87.92-1.64,2.14-1.72,1.22-.08,2.26.54,2.31,1.4Z"/>
      <path class="cls-2" d="M16.42,53.46c.07.84-.9,1.62-2.16,1.74-1.26.11-2.32-.49-2.38-1.35-.06-.85.9-1.62,2.15-1.73,1.25-.1,2.32.49,2.39,1.34Z"/>
      <path class="cls-2" d="M23.98,52.73c.09.82-.88,1.6-2.16,1.74-1.28.13-2.38-.44-2.46-1.28-.08-.84.88-1.61,2.15-1.73,1.27-.12,2.38.45,2.47,1.27Z"/>
      <path class="cls-2" d="M31.65,51.91c.12.8-.85,1.58-2.15,1.73-1.3.15-2.44-.4-2.54-1.22-.1-.82.86-1.58,2.14-1.72,1.29-.13,2.43.4,2.55,1.21Z"/>
      <path class="cls-2" d="M39.42,51.02c.14.78-.81,1.55-2.13,1.71-1.32.16-2.49-.36-2.61-1.15-.13-.8.82-1.56,2.12-1.7,1.3-.15,2.48.37,2.62,1.15Z"/>
      <path class="cls-2" d="M47.26,50.06c.17.76-.77,1.51-2.1,1.68-1.33.17-2.53-.32-2.69-1.09-.15-.77.78-1.52,2.1-1.68,1.31-.16,2.52.33,2.69,1.09Z"/>
      <path class="cls-2" d="M55.15,49.05c.2.73-.73,1.48-2.06,1.65-1.34.18-2.57-.29-2.75-1.04-.18-.75.74-1.49,2.06-1.65,1.32-.16,2.56.3,2.76,1.03Z"/>
      <path class="cls-2" d="M63.08,48.02c.23.71-.68,1.43-2.02,1.62-1.34.18-2.6-.26-2.82-.98s.69-1.45,2.02-1.62c1.33-.17,2.59.27,2.82.98Z"/>
      <path class="cls-2" d="M71.02,46.97c.26.69-.62,1.39-1.97,1.57-1.35.18-2.63-.24-2.87-.94-.24-.7.64-1.41,1.97-1.57,1.33-.17,2.61.25,2.87.94Z"/>
      <path class="cls-2" d="M78.95,45.93c.29.66-.57,1.34-1.91,1.53-1.34.18-2.65-.22-2.92-.89-.27-.68.59-1.36,1.91-1.53,1.33-.17,2.63.23,2.92.9Z"/>
      <path class="cls-2" d="M86.86,44.92c.32.64-.51,1.3-1.85,1.47-1.34.18-2.67-.2-2.97-.86-.3-.65.53-1.31,1.85-1.48,1.32-.16,2.65.22,2.96.86Z"/>
      <path class="cls-2" d="M94.73,43.93c.34.61-.45,1.25-1.78,1.42-1.33.17-2.68-.2-3.01-.82-.33-.63.48-1.27,1.79-1.42,1.31-.16,2.66.22,3,.83Z"/>
      <path class="cls-2" d="M102.53,43.01c.37.59-.39,1.2-1.71,1.36-1.32.16-2.68-.2-3.04-.8-.36-.6.42-1.22,1.72-1.36,1.3-.15,2.66.22,3.03.81Z"/>
      <path class="cls-2" d="M110.24,42.15c.4.57-.33,1.15-1.64,1.29-1.3.15-2.68-.2-3.06-.78-.38-.58.36-1.17,1.65-1.3,1.29-.14,2.65.22,3.05.79Z"/>
      <path class="cls-2" d="M117.85,41.38c.42.55-.27,1.1-1.56,1.23-1.29.13-2.66-.21-3.07-.77-.41-.56.3-1.12,1.57-1.24,1.27-.12,2.64.23,3.06.78Z"/>
      <path class="cls-2" d="M125.34,40.72c.44.53-.22,1.05-1.48,1.16-1.26.11-2.64-.23-3.07-.77-.43-.54.24-1.07,1.49-1.17,1.25-.1,2.61.25,3.06.78Z"/>
      <path class="cls-2" d="M132.69,40.17c.46.52-.16,1-1.4,1.09-1.24.09-2.61-.25-3.06-.78-.45-.53.19-1.02,1.41-1.11,1.23-.08,2.59.27,3.05.79Z"/>
      <path class="cls-2" d="M139.87,39.76c.48.5-.11.96-1.31,1.02-1.21.07-2.58-.28-3.04-.79-.47-.51.13-.98,1.33-1.04,1.2-.06,2.55.31,3.03.81Z"/>
      <path class="cls-2" d="M146.86,39.51c.49.49-.05.91-1.23.96s-2.53-.32-3.01-.82c-.48-.5.08-.94,1.25-.97,1.17-.03,2.5.34,2.99.84Z"/>
      <path class="cls-2" d="M153.66,39.42c.5.48,0,.87-1.15.89-1.14.01-2.48-.37-2.97-.85-.49-.49.03-.9,1.17-.9,1.13,0,2.45.39,2.95.87Z"/>
      <path class="cls-2" d="M1.89,59.41c.03.88-.94,1.66-2.16,1.74-1.22.08-2.22-.58-2.24-1.46-.02-.88.93-1.65,2.15-1.72,1.21-.07,2.23.57,2.26,1.45Z"/>
      <path class="cls-2" d="M9.26,58.84c.05.86-.94,1.65-2.19,1.76-1.25.11-2.29-.52-2.33-1.39-.04-.87.93-1.65,2.17-1.74,1.24-.1,2.3.52,2.35,1.38Z"/>
      <path class="cls-2" d="M16.81,58.13c.07.84-.92,1.64-2.2,1.77-1.28.13-2.36-.46-2.42-1.32-.06-.85.92-1.64,2.19-1.76,1.27-.12,2.36.46,2.43,1.31Z"/>
      <path class="cls-2" d="M24.49,57.3c.09.82-.9,1.62-2.2,1.77s-2.42-.41-2.5-1.25c-.08-.84.9-1.62,2.19-1.76,1.29-.14,2.42.41,2.51,1.24Z"/>
      <path class="cls-2" d="M32.3,56.37c.12.8-.87,1.6-2.2,1.76-1.33.17-2.48-.36-2.58-1.18-.1-.82.87-1.6,2.18-1.75,1.31-.15,2.47.37,2.59,1.17Z"/>
      <path class="cls-2" d="M40.21,55.35c.14.78-.83,1.57-2.18,1.75-1.34.18-2.53-.32-2.66-1.12-.13-.8.84-1.57,2.17-1.74,1.33-.17,2.52.33,2.67,1.11Z"/>
      <path class="cls-2" d="M48.21,54.26c.17.76-.79,1.53-2.15,1.73-1.36.19-2.58-.28-2.73-1.05-.15-.77.8-1.54,2.14-1.72,1.34-.18,2.57.29,2.74,1.05Z"/>
      <path class="cls-2" d="M56.26,53.12c.2.73-.75,1.5-2.12,1.7-1.37.2-2.62-.25-2.8-1-.18-.75.76-1.51,2.11-1.69s2.61.26,2.81.99Z"/>
      <path class="cls-2" d="M64.35,51.95c.23.71-.7,1.45-2.07,1.66-1.37.2-2.65-.22-2.86-.94-.21-.73.71-1.47,2.07-1.66,1.35-.19,2.64.23,2.87.94Z"/>
      <path class="cls-2" d="M72.45,50.77c.26.69-.65,1.41-2.02,1.62-1.37.21-2.68-.2-2.92-.9-.24-.7.66-1.42,2.02-1.62,1.36-.19,2.66.21,2.92.89Z"/>
      <path class="cls-2" d="M80.55,49.6c.29.66-.59,1.36-1.96,1.57-1.37.21-2.7-.18-2.97-.85-.27-.68.61-1.38,1.96-1.57,1.35-.19,2.68.19,2.97.85Z"/>
      <path class="cls-2" d="M88.62,48.44c.32.64-.53,1.32-1.9,1.52-1.37.2-2.72-.16-3.02-.82-.3-.65.55-1.33,1.9-1.52s2.7.18,3.01.82Z"/>
      <path class="cls-2" d="M96.64,47.33c.34.61-.48,1.27-1.83,1.46-1.36.19-2.72-.16-3.05-.79-.33-.63.5-1.28,1.84-1.46,1.34-.18,2.7.18,3.05.79Z"/>
      <path class="cls-2" d="M104.59,46.28c.37.59-.41,1.22-1.76,1.4-1.34.18-2.72-.16-3.08-.76-.35-.6.44-1.23,1.76-1.4,1.33-.17,2.7.18,3.07.77Z"/>
      <path class="cls-2" d="M112.44,45.31c.4.57-.35,1.16-1.68,1.33-1.33.17-2.72-.17-3.1-.75-.38-.58.38-1.18,1.69-1.34,1.31-.15,2.69.19,3.09.76Z"/>
      <path class="cls-2" d="M120.19,44.43c.42.55-.29,1.11-1.6,1.26-1.31.15-2.7-.18-3.11-.74-.41-.56.32-1.13,1.61-1.27,1.29-.14,2.68.2,3.1.75Z"/>
      <path class="cls-2" d="M127.79,43.66c.44.53-.23,1.06-1.52,1.19-1.28.13-2.68-.2-3.1-.74-.43-.54.26-1.08,1.53-1.2,1.27-.12,2.65.22,3.09.75Z"/>
      <path class="cls-2" d="M135.24,43.03c.46.52-.18,1.02-1.43,1.12-1.25.11-2.64-.23-3.09-.75-.45-.53.2-1.04,1.44-1.13,1.24-.1,2.62.25,3.08.76Z"/>
      <path class="cls-2" d="M142.51,42.54c.48.5-.12.97-1.34,1.05-1.22.08-2.6-.26-3.07-.77-.47-.51.15-.99,1.36-1.06,1.21-.07,2.58.28,3.05.79Z"/>
      <path class="cls-2" d="M149.58,42.23c.49.49-.07.92-1.25.98-1.19.05-2.55-.31-3.03-.8-.48-.5.09-.95,1.27-.99,1.18-.04,2.52.33,3.01.82Z"/>
      <path class="cls-2" d="M2.06,64.27c.03.88-.96,1.67-2.19,1.76-1.24.09-2.24-.56-2.26-1.45-.02-.88.95-1.66,2.17-1.74,1.23-.08,2.25.55,2.28,1.43Z"/>
      <path class="cls-2" d="M9.53,63.62c.05.86-.95,1.67-2.22,1.79-1.27.12-2.32-.5-2.36-1.37-.04-.87.95-1.66,2.2-1.77,1.26-.11,2.33.49,2.37,1.35Z"/>
      <path class="cls-2" d="M17.19,62.81c.07.85-.94,1.66-2.24,1.8-1.3.15-2.39-.44-2.45-1.29-.06-.86.94-1.65,2.22-1.79,1.29-.13,2.4.43,2.46,1.28Z"/>
      <path class="cls-2" d="M25,61.88c.09.83-.92,1.64-2.25,1.81-1.33.17-2.46-.38-2.53-1.22-.08-.84.92-1.64,2.23-1.79,1.31-.16,2.46.38,2.55,1.21Z"/>
      <path class="cls-2" d="M32.94,60.83c.11.81-.89,1.62-2.24,1.8-1.35.19-2.52-.33-2.62-1.15-.1-.82.9-1.62,2.23-1.79,1.33-.17,2.52.33,2.63,1.14Z"/>
      <path class="cls-2" d="M41,59.68c.14.78-.86,1.59-2.23,1.79-1.37.2-2.57-.29-2.7-1.08-.12-.8.87-1.59,2.22-1.78,1.35-.19,2.57.29,2.71,1.08Z"/>
      <path class="cls-2" d="M49.14,58.47c.17.76-.82,1.56-2.21,1.77-1.38.21-2.62-.25-2.77-1.02-.15-.78.83-1.56,2.2-1.76,1.37-.2,2.61.25,2.78,1.01Z"/>
      <path class="cls-2" d="M57.35,57.2c.2.74-.78,1.52-2.17,1.74-1.39.22-2.66-.21-2.84-.96-.18-.75.79-1.53,2.16-1.74,1.38-.21,2.65.22,2.85.96Z"/>
      <path class="cls-2" d="M65.6,55.9c.22.71-.73,1.48-2.13,1.71-1.4.23-2.7-.18-2.9-.91-.21-.73.74-1.49,2.12-1.7,1.38-.21,2.69.19,2.91.91Z"/>
      <path class="cls-2" d="M73.87,54.58c.25.69-.68,1.44-2.08,1.67-1.4.23-2.72-.16-2.96-.86-.24-.7.69-1.45,2.08-1.66,1.38-.21,2.71.17,2.96.86Z"/>
      <path class="cls-2" d="M82.13,53.27c.28.67-.63,1.39-2.02,1.62-1.4.23-2.75-.14-3.01-.82-.26-.68.64-1.4,2.02-1.62,1.38-.21,2.73.15,3.01.82Z"/>
      <path class="cls-2" d="M90.35,51.99c.31.64-.57,1.34-1.96,1.57-1.39.22-2.76-.13-3.05-.79-.29-.66.58-1.36,1.96-1.57,1.38-.21,2.74.14,3.05.79Z"/>
      <path class="cls-2" d="M98.53,50.75c.34.62-.51,1.29-1.89,1.51-1.38.21-2.76-.13-3.09-.76-.32-.63.53-1.31,1.89-1.51,1.37-.2,2.75.14,3.08.76Z"/>
      <path class="cls-2" d="M106.63,49.57c.36.6-.45,1.24-1.82,1.45-1.37.2-2.76-.13-3.11-.74-.35-.61.47-1.26,1.82-1.45,1.35-.19,2.74.14,3.11.74Z"/>
      <path class="cls-2" d="M114.62,48.48c.39.58-.39,1.19-1.74,1.38-1.35.19-2.75-.14-3.12-.73-.37-.59.41-1.21,1.74-1.38,1.34-.17,2.73.15,3.12.73Z"/>
      <path class="cls-2" d="M122.5,47.49c.41.56-.33,1.14-1.65,1.31-1.33.17-2.73-.15-3.13-.72-.4-.57.35-1.16,1.66-1.32,1.31-.16,2.71.17,3.12.73Z"/>
      <path class="cls-2" d="M130.22,46.63c.43.54-.27,1.09-1.57,1.24-1.3.15-2.7-.18-3.12-.73-.42-.55.29-1.11,1.58-1.24,1.29-.14,2.68.19,3.11.73Z"/>
      <path class="cls-2" d="M137.77,45.91c.45.52-.21,1.04-1.48,1.16-1.27.12-2.66-.21-3.11-.74-.44-.53.23-1.06,1.49-1.17,1.26-.11,2.64.23,3.1.75Z"/>
      <path class="cls-2" d="M145.13,45.35c.47.51-.15.99-1.39,1.09-1.24.09-2.62-.25-3.08-.77-.46-.52.17-1.01,1.4-1.1,1.23-.08,2.6.27,3.06.78Z"/>
      <path class="cls-2" d="M152.27,44.98c.48.5-.1.95-1.29,1.01-1.2.06-2.56-.3-3.03-.8-.47-.51.12-.97,1.31-1.02,1.19-.05,2.54.31,3.02.81Z"/>
      <path class="cls-2" d="M2.22,69.13c.03.88-.97,1.68-2.22,1.78-1.25.1-2.26-.54-2.28-1.43-.02-.89.96-1.67,2.2-1.77,1.24-.09,2.28.53,2.31,1.41Z"/>
      <path class="cls-2" d="M9.79,68.4c.04.86-.97,1.68-2.26,1.82-1.29.13-2.35-.48-2.38-1.35-.03-.87.96-1.67,2.24-1.8,1.28-.12,2.36.47,2.4,1.33Z"/>
      <path class="cls-2" d="M17.55,67.5c.06.85-.96,1.67-2.28,1.84-1.32.16-2.42-.41-2.47-1.27-.05-.86.96-1.67,2.26-1.82,1.31-.15,2.43.41,2.49,1.26Z"/>
      <path class="cls-2" d="M25.48,66.47c.09.83-.95,1.66-2.29,1.85-1.35.18-2.49-.36-2.56-1.2-.07-.84.94-1.66,2.28-1.83,1.33-.17,2.49.35,2.58,1.18Z"/>
      <path class="cls-2" d="M33.56,65.31c.11.81-.92,1.64-2.3,1.85-1.37.21-2.55-.3-2.65-1.13-.09-.82.92-1.64,2.28-1.83,1.36-.19,2.55.3,2.66,1.11Z"/>
      <path class="cls-2" d="M41.76,64.05c.13.79-.89,1.62-2.29,1.84-1.39.22-2.61-.26-2.73-1.06s.89-1.62,2.27-1.83c1.38-.21,2.61.26,2.74,1.05Z"/>
      <path class="cls-2" d="M50.05,62.71c.16.77-.86,1.59-2.26,1.82s-2.66-.21-2.8-1,.86-1.59,2.25-1.81c1.39-.22,2.65.22,2.81.99Z"/>
      <path class="cls-2" d="M58.41,61.31c.19.75-.82,1.55-2.23,1.79-1.42.24-2.7-.18-2.87-.94-.17-.76.82-1.56,2.22-1.79s2.69.18,2.88.93Z"/>
      <path class="cls-2" d="M66.82,59.88c.22.72-.77,1.51-2.19,1.76-1.43.25-2.74-.15-2.93-.88-.2-.74.78-1.52,2.19-1.75,1.41-.24,2.73.16,2.94.88Z"/>
      <path class="cls-2" d="M75.24,58.43c.24.7-.72,1.47-2.15,1.72-1.43.25-2.76-.13-2.99-.84-.23-.71.73-1.48,2.14-1.72,1.41-.24,2.75.13,3,.83Z"/>
      <path class="cls-2" d="M83.66,56.98c.27.67-.67,1.43-2.09,1.68-1.43.25-2.78-.11-3.04-.8-.25-.69.68-1.44,2.09-1.67,1.41-.24,2.77.12,3.04.79Z"/>
      <path class="cls-2" d="M92.04,55.57c.3.65-.61,1.38-2.03,1.62-1.42.24-2.8-.1-3.08-.76-.28-.67.62-1.39,2.03-1.62,1.4-.23,2.78.11,3.08.76Z"/>
      <path class="cls-2" d="M100.37,54.2c.33.63-.55,1.33-1.96,1.57-1.41.24-2.8-.1-3.11-.74-.31-.64.57-1.34,1.96-1.56,1.39-.22,2.78.11,3.11.74Z"/>
      <path class="cls-2" d="M108.61,52.9c.35.61-.49,1.28-1.88,1.5-1.39.22-2.79-.1-3.13-.72-.34-.62.51-1.29,1.89-1.5,1.38-.21,2.78.11,3.13.72Z"/>
      <path class="cls-2" d="M116.75,51.7c.38.59-.43,1.23-1.8,1.44-1.37.21-2.78-.11-3.14-.71-.36-.6.45-1.24,1.81-1.44,1.36-.19,2.76.13,3.14.71Z"/>
      <path class="cls-2" d="M124.75,50.61c.4.57-.37,1.18-1.72,1.36s-2.76-.13-3.14-.71c-.38-.58.39-1.19,1.72-1.37,1.34-.17,2.74.15,3.14.72Z"/>
      <path class="cls-2" d="M132.58,49.65c.42.55-.31,1.13-1.63,1.29-1.32.16-2.72-.16-3.13-.72s.33-1.14,1.64-1.29c1.31-.15,2.7.17,3.12.73Z"/>
      <path class="cls-2" d="M140.24,48.84c.44.54-.25,1.08-1.54,1.21-1.29.13-2.68-.2-3.1-.74-.43-.55.27-1.09,1.55-1.22,1.28-.13,2.66.21,3.1.75Z"/>
      <path class="cls-2" d="M147.68,48.21c.45.52-.19,1.03-1.44,1.13-1.25.1-2.63-.24-3.07-.77-.44-.53.21-1.04,1.45-1.14,1.24-.1,2.61.26,3.06.78Z"/>
      <path class="cls-2" d="M154.89,47.78c.46.51-.14.98-1.35,1.05-1.21.07-2.56-.29-3.02-.81-.46-.52.15-1,1.36-1.06,1.2-.06,2.55.31,3.01.82Z"/>
      <path class="cls-2" d="M2.37,74c.02.88-.99,1.7-2.25,1.81-1.26.11-2.28-.53-2.3-1.41-.02-.89.97-1.68,2.23-1.79,1.25-.11,2.3.51,2.33,1.39Z"/>
      <path class="cls-2" d="M10.02,73.2c.04.87-.99,1.7-2.29,1.85-1.3.15-2.37-.46-2.4-1.33-.03-.88.98-1.69,2.27-1.83,1.29-.14,2.38.45,2.42,1.31Z"/>
      <path class="cls-2" d="M17.89,72.22c.06.85-.99,1.7-2.33,1.87-1.34.18-2.45-.39-2.49-1.25-.05-.86.98-1.69,2.3-1.85,1.33-.17,2.46.38,2.52,1.24Z"/>
      <path class="cls-2" d="M25.94,71.08c.08.84-.98,1.69-2.34,1.89-1.37.2-2.52-.33-2.58-1.18-.07-.85.97-1.68,2.32-1.87s2.53.32,2.6,1.16Z"/>
      <path class="cls-2" d="M34.14,69.82c.1.82-.96,1.67-2.35,1.89-1.39.22-2.58-.28-2.67-1.11-.09-.83.95-1.67,2.33-1.88,1.38-.21,2.59.27,2.69,1.09Z"/>
      <path class="cls-2" d="M42.48,68.44c.12.8-.93,1.65-2.34,1.89-1.41.24-2.64-.23-2.75-1.04-.11-.81.93-1.64,2.33-1.87,1.4-.23,2.64.23,2.77,1.02Z"/>
      <path class="cls-2" d="M50.91,66.98c.15.78-.9,1.62-2.33,1.87-1.43.25-2.69-.19-2.83-.97-.13-.79.9-1.62,2.31-1.86,1.42-.24,2.69.19,2.84.96Z"/>
      <path class="cls-2" d="M59.42,65.46c.18.75-.86,1.59-2.3,1.85-1.44.26-2.74-.15-2.9-.92-.16-.77.86-1.59,2.29-1.84,1.43-.25,2.73.15,2.91.91Z"/>
      <path class="cls-2" d="M67.98,63.9c.2.73-.81,1.55-2.26,1.82-1.45.27-2.77-.12-2.96-.87-.19-.75.82-1.55,2.25-1.81,1.43-.26,2.77.12,2.97.86Z"/>
      <path class="cls-2" d="M76.56,62.33c.23.71-.77,1.51-2.22,1.78-1.45.27-2.8-.1-3.01-.82-.21-.72.77-1.52,2.21-1.78,1.44-.26,2.79.1,3.02.81Z"/>
      <path class="cls-2" d="M85.12,60.76c.26.69-.72,1.47-2.17,1.74-1.45.27-2.82-.08-3.06-.78-.24-.7.72-1.47,2.16-1.73,1.43-.26,2.81.09,3.06.78Z"/>
      <path class="cls-2" d="M93.66,59.22c.28.67-.66,1.42-2.1,1.69-1.44.26-2.83-.07-3.09-.75-.27-.68.67-1.43,2.1-1.68s2.82.08,3.1.75Z"/>
      <path class="cls-2" d="M102.13,57.73c.31.64-.6,1.37-2.04,1.63-1.43.26-2.83-.07-3.12-.73-.29-.66.62-1.38,2.03-1.63,1.42-.24,2.82.08,3.12.73Z"/>
      <path class="cls-2" d="M110.51,56.31c.33.62-.55,1.33-1.96,1.57-1.42.24-2.82-.08-3.14-.72-.32-.64.56-1.34,1.96-1.56,1.4-.23,2.81.09,3.14.71Z"/>
      <path class="cls-2" d="M118.77,55c.36.6-.49,1.28-1.88,1.5-1.39.22-2.8-.09-3.14-.71-.34-.62.5-1.29,1.88-1.5,1.38-.21,2.79.11,3.14.71Z"/>
      <path class="cls-2" d="M126.89,53.8c.38.59-.43,1.23-1.8,1.43-1.37.2-2.77-.12-3.14-.72-.36-.6.44-1.24,1.8-1.43,1.36-.19,2.76.13,3.14.72Z"/>
      <path class="cls-2" d="M134.84,52.75c.4.57-.37,1.18-1.7,1.35-1.34.18-2.74-.15-3.12-.73-.38-.58.38-1.19,1.71-1.35,1.33-.17,2.72.16,3.12.73Z"/>
      <path class="cls-2" d="M142.59,51.87c.41.56-.31,1.13-1.61,1.27-1.3.15-2.69-.19-3.09-.76-.4-.57.32-1.14,1.61-1.28,1.29-.14,2.67.2,3.09.76Z"/>
      <path class="cls-2" d="M150.11,51.18c.43.55-.25,1.08-1.51,1.19-1.26.11-2.63-.24-3.05-.79-.42-.55.26-1.09,1.52-1.2,1.25-.11,2.61.25,3.04.8Z"/>
      <path class="cls-2" d="M2.5,78.89c.02.88-1.01,1.71-2.28,1.83-1.27.12-2.3-.51-2.31-1.4-.01-.89.99-1.69,2.25-1.81,1.26-.12,2.32.5,2.34,1.38Z"/>
      <path class="cls-2" d="M10.23,78.02c.03.87-1.02,1.72-2.33,1.88-1.31.16-2.39-.44-2.41-1.32-.03-.88,1-1.7,2.31-1.85,1.31-.15,2.4.43,2.44,1.3Z"/>
      <path class="cls-2" d="M18.19,76.96c.05.86-1.02,1.72-2.37,1.91-1.35.19-2.47-.37-2.51-1.24-.04-.87,1-1.71,2.35-1.89s2.48.36,2.53,1.22Z"/>
      <path class="cls-2" d="M26.35,75.73c.07.84-1.01,1.71-2.39,1.93-1.39.22-2.54-.31-2.6-1.16-.06-.85,1-1.7,2.37-1.91,1.37-.21,2.55.3,2.62,1.14Z"/>
      <path class="cls-2" d="M34.67,74.37c.09.83-.99,1.7-2.41,1.94-1.41.24-2.61-.25-2.69-1.09-.08-.84.99-1.69,2.39-1.92,1.4-.23,2.62.25,2.71,1.07Z"/>
      <path class="cls-2" d="M43.13,72.89c.11.81-.97,1.68-2.41,1.94-1.44.26-2.67-.2-2.77-1.02-.1-.82.97-1.68,2.39-1.92,1.42-.25,2.68.2,2.79,1.01Z"/>
      <path class="cls-2" d="M51.7,71.32c.14.79-.94,1.66-2.39,1.93-1.45.27-2.72-.16-2.84-.96-.12-.8.94-1.65,2.38-1.91,1.44-.26,2.72.16,2.86.95Z"/>
      <path class="cls-2" d="M60.35,69.68c.16.77-.91,1.63-2.37,1.91-1.47.28-2.76-.12-2.91-.9-.15-.78.91-1.63,2.36-1.9,1.45-.27,2.77.12,2.93.89Z"/>
      <path class="cls-2" d="M69.06,68c.19.75-.87,1.59-2.34,1.88-1.47.29-2.8-.1-2.97-.86-.17-.76.87-1.59,2.33-1.87,1.46-.28,2.8.1,2.98.84Z"/>
      <path class="cls-2" d="M77.78,66.3c.21.73-.82,1.56-2.3,1.85-1.48.29-2.83-.07-3.02-.81-.2-.74.82-1.56,2.29-1.84,1.46-.28,2.82.08,3.03.8Z"/>
      <path class="cls-2" d="M86.49,64.61c.24.7-.77,1.52-2.25,1.81s-2.84-.06-3.06-.78c-.22-.72.78-1.52,2.24-1.8,1.46-.28,2.84.06,3.07.77Z"/>
      <path class="cls-2" d="M95.17,62.95c.26.68-.72,1.47-2.19,1.76-1.47.28-2.85-.05-3.1-.75s.73-1.48,2.18-1.75,2.84.06,3.1.74Z"/>
      <path class="cls-2" d="M103.77,61.35c.28.66-.67,1.43-2.12,1.7-1.45.27-2.85-.05-3.12-.73-.27-.68.67-1.43,2.11-1.69,1.44-.26,2.84.06,3.13.72Z"/>
      <path class="cls-2" d="M112.29,59.82c.31.64-.61,1.38-2.05,1.64-1.44.26-2.84-.06-3.13-.72-.29-.66.62-1.39,2.04-1.63,1.42-.25,2.83.07,3.14.72Z"/>
      <path class="cls-2" d="M120.67,58.41c.33.63-.55,1.33-1.97,1.57-1.41.24-2.81-.08-3.13-.72-.32-.64.56-1.34,1.96-1.57,1.4-.23,2.81.09,3.13.72Z"/>
      <path class="cls-2" d="M128.91,57.12c.35.61-.49,1.28-1.88,1.5-1.39.22-2.78-.11-3.12-.73-.34-.62.5-1.29,1.88-1.5,1.37-.21,2.77.12,3.12.73Z"/>
      <path class="cls-2" d="M136.96,55.98c.37.6-.43,1.23-1.79,1.42-1.35.19-2.74-.15-3.1-.75-.36-.6.44-1.24,1.79-1.42,1.34-.18,2.73.15,3.1.75Z"/>
      <path class="cls-2" d="M144.79,55.02c.38.58-.38,1.18-1.69,1.34-1.32.16-2.69-.19-3.06-.78-.37-.59.39-1.19,1.69-1.34,1.31-.15,2.68.2,3.06.78Z"/>
      <path class="cls-2" d="M152.38,54.27c.39.57-.32,1.14-1.59,1.26-1.27.12-2.62-.25-3.01-.82s.33-1.14,1.6-1.26c1.27-.12,2.61.25,3,.83Z"/>
      <path class="cls-2" d="M2.6,83.8c.02.89-1.02,1.73-2.31,1.85-1.28.13-2.31-.5-2.32-1.4,0-.89,1-1.71,2.28-1.83,1.27-.12,2.34.48,2.35,1.37Z"/>
      <path class="cls-2" d="M10.4,82.87c.03.88-1.04,1.74-2.37,1.91-1.33.17-2.4-.43-2.42-1.31-.02-.89,1.02-1.72,2.34-1.88,1.32-.16,2.42.41,2.45,1.29Z"/>
      <path class="cls-2" d="M18.45,81.74c.04.87-1.05,1.74-2.41,1.94-1.37.2-2.49-.36-2.52-1.23-.03-.87,1.03-1.73,2.39-1.92,1.36-.19,2.5.34,2.55,1.21Z"/>
      <path class="cls-2" d="M26.7,80.43c.06.85-1.04,1.74-2.44,1.97-1.4.23-2.56-.29-2.61-1.15-.05-.86,1.03-1.73,2.42-1.95,1.39-.22,2.58.28,2.64,1.13Z"/>
      <path class="cls-2" d="M35.14,78.98c.08.84-1.03,1.73-2.46,1.99-1.43.25-2.63-.24-2.7-1.08-.07-.85,1.02-1.72,2.44-1.97,1.42-.24,2.64.23,2.72,1.06Z"/>
      <path class="cls-2" d="M43.72,77.4c.1.82-1.01,1.72-2.47,1.99-1.46.27-2.69-.18-2.78-1.02-.08-.83,1.01-1.71,2.45-1.97,1.44-.26,2.7.18,2.8,1Z"/>
      <path class="cls-2" d="M52.41,75.72c.12.8-.99,1.7-2.46,1.99s-2.75-.14-2.85-.95c-.11-.81.98-1.69,2.44-1.97,1.46-.28,2.75.14,2.87.94Z"/>
      <path class="cls-2" d="M61.19,73.97c.14.78-.96,1.67-2.45,1.97-1.49.3-2.79-.11-2.92-.9-.13-.8.96-1.67,2.43-1.96,1.47-.29,2.79.1,2.93.89Z"/>
      <path class="cls-2" d="M70.03,72.18c.16.76-.92,1.64-2.42,1.95-1.5.31-2.82-.08-2.97-.85-.15-.78.92-1.64,2.4-1.94,1.48-.3,2.82.08,2.99.84Z"/>
      <path class="cls-2" d="M78.88,70.37c.19.74-.88,1.61-2.38,1.92-1.5.31-2.85-.06-3.02-.81-.17-.76.88-1.61,2.37-1.91,1.48-.3,2.85.06,3.04.8Z"/>
      <path class="cls-2" d="M87.73,68.57c.21.73-.84,1.57-2.33,1.88-1.5.31-2.86-.04-3.06-.78-.2-.74.84-1.57,2.32-1.87,1.48-.3,2.86.04,3.07.77Z"/>
      <path class="cls-2" d="M96.54,66.8c.23.71-.79,1.53-2.28,1.83-1.49.3-2.87-.04-3.09-.76-.22-.72.79-1.53,2.27-1.82,1.47-.29,2.86.04,3.1.75Z"/>
      <path class="cls-2" d="M105.28,65.09c.26.69-.74,1.49-2.21,1.78-1.47.29-2.86-.04-3.1-.74-.24-.7.74-1.49,2.2-1.77,1.46-.28,2.86.05,3.11.73Z"/>
      <path class="cls-2" d="M113.91,63.46c.28.67-.68,1.44-2.14,1.72-1.46.28-2.85-.06-3.11-.74-.26-.68.69-1.44,2.13-1.71,1.44-.27,2.84.06,3.12.73Z"/>
      <path class="cls-2" d="M122.41,61.95c.3.65-.63,1.39-2.06,1.65-1.43.26-2.82-.08-3.11-.74-.28-.66.63-1.4,2.05-1.64,1.42-.25,2.82.08,3.11.74Z"/>
      <path class="cls-2" d="M130.75,60.57c.31.64-.57,1.35-1.97,1.58-1.4.23-2.78-.11-3.09-.76-.3-.65.58-1.35,1.97-1.57,1.39-.22,2.78.11,3.09.75Z"/>
      <path class="cls-2" d="M138.89,59.36c.33.63-.51,1.3-1.88,1.5-1.37.2-2.74-.15-3.06-.78-.32-.63.52-1.3,1.88-1.5,1.36-.19,2.73.15,3.06.78Z"/>
      <path class="cls-2" d="M146.8,58.34c.34.62-.46,1.25-1.79,1.42-1.33.17-2.68-.2-3.01-.82-.33-.62.46-1.26,1.78-1.42,1.32-.16,2.67.2,3.01.82Z"/>
      <path class="cls-2" d="M154.45,57.54c.35.61-.4,1.21-1.68,1.34s-2.6-.26-2.95-.87c-.35-.61.41-1.21,1.68-1.34,1.28-.13,2.6.26,2.95.87Z"/>
      <path class="cls-2" d="M2.67,88.74c0,.89-1.04,1.74-2.33,1.88-1.29.13-2.32-.5-2.32-1.39,0-.9,1.02-1.72,2.3-1.85,1.28-.13,2.35.47,2.36,1.37Z"/>
      <path class="cls-2" d="M10.53,87.76c.02.89-1.06,1.76-2.4,1.93-1.34.17-2.41-.42-2.43-1.31-.01-.89,1.04-1.74,2.37-1.91,1.33-.17,2.44.4,2.46,1.28Z"/>
      <path class="cls-2" d="M18.65,86.57c.03.88-1.08,1.77-2.46,1.98-1.38.21-2.5-.35-2.52-1.23-.02-.88,1.06-1.75,2.43-1.96,1.37-.2,2.52.33,2.55,1.2Z"/>
      <path class="cls-2" d="M26.99,85.19c.05.86-1.08,1.77-2.5,2.01-1.42.24-2.58-.28-2.62-1.15-.04-.87,1.06-1.76,2.47-1.99,1.41-.23,2.6.27,2.64,1.13Z"/>
      <path class="cls-2" d="M35.52,83.65c.06.85-1.07,1.77-2.52,2.04-1.45.27-2.65-.22-2.7-1.08-.05-.86,1.06-1.76,2.5-2.01,1.44-.26,2.66.21,2.73,1.06Z"/>
      <path class="cls-2" d="M44.21,81.98c.08.84-1.06,1.76-2.54,2.05-1.47.29-2.71-.17-2.78-1.02-.07-.84,1.05-1.75,2.51-2.03,1.46-.28,2.72.16,2.8,1Z"/>
      <path class="cls-2" d="M53.02,80.21c.1.82-1.04,1.74-2.54,2.05-1.49.31-2.76-.13-2.85-.96-.09-.83,1.03-1.73,2.51-2.03,1.48-.3,2.77.12,2.87.94Z"/>
      <path class="cls-2" d="M61.91,78.37c.12.8-1.02,1.72-2.52,2.04-1.51.32-2.8-.09-2.91-.9-.11-.81,1.01-1.71,2.5-2.02,1.49-.31,2.81.08,2.93.89Z"/>
      <path class="cls-2" d="M70.87,76.47c.14.79-.99,1.69-2.5,2.02-1.52.33-2.84-.06-2.96-.86-.13-.8.98-1.69,2.48-2,1.5-.31,2.84.06,2.98.84Z"/>
      <path class="cls-2" d="M79.85,74.56c.16.77-.95,1.66-2.47,1.99-1.52.33-2.86-.04-3.01-.82-.15-.78.95-1.66,2.45-1.98,1.51-.32,2.87.04,3.03.81Z"/>
      <path class="cls-2" d="M88.82,72.65c.18.75-.91,1.63-2.42,1.95-1.52.33-2.87-.03-3.04-.79-.17-.76.91-1.63,2.41-1.94,1.5-.31,2.88.03,3.06.78Z"/>
      <path class="cls-2" d="M97.75,70.78c.2.73-.86,1.59-2.37,1.91-1.51.32-2.88-.03-3.07-.78-.19-.74.86-1.59,2.36-1.9,1.5-.31,2.88.03,3.08.76Z"/>
      <path class="cls-2" d="M106.6,68.98c.22.72-.82,1.55-2.31,1.86-1.49.31-2.87-.04-3.08-.77-.21-.73.82-1.55,2.3-1.85,1.48-.3,2.87.04,3.09.75Z"/>
      <path class="cls-2" d="M115.34,67.26c.24.7-.77,1.51-2.24,1.8-1.47.29-2.85-.06-3.08-.77-.23-.71.77-1.51,2.23-1.79,1.46-.28,2.85.06,3.09.76Z"/>
      <path class="cls-2" d="M123.95,65.66c.26.69-.71,1.47-2.16,1.73-1.45.27-2.82-.08-3.06-.78-.25-.7.71-1.47,2.15-1.73,1.44-.26,2.82.08,3.07.77Z"/>
      <path class="cls-2" d="M132.37,64.21c.27.67-.66,1.42-2.08,1.66-1.42.24-2.78-.12-3.04-.8-.26-.68.66-1.42,2.07-1.66,1.41-.24,2.77.12,3.05.79Z"/>
      <path class="cls-2" d="M140.59,62.93c.29.66-.61,1.38-1.99,1.59-1.38.21-2.72-.16-3-.83-.28-.67.61-1.38,1.98-1.58,1.37-.21,2.72.16,3,.83Z"/>
      <path class="cls-2" d="M148.57,61.86c.3.65-.55,1.33-1.89,1.51-1.34.18-2.65-.22-2.94-.88-.29-.66.55-1.33,1.88-1.5,1.33-.17,2.65.22,2.95.87Z"/>
      <path class="cls-2" d="M156.27,61.01c.3.65-.5,1.28-1.79,1.42-1.29.14-2.58-.28-2.88-.93-.3-.65.5-1.29,1.78-1.42,1.29-.13,2.58.28,2.88.93Z"/>
      <path class="cls-2" d="M2.7,93.71c0,.9-1.06,1.76-2.35,1.89-1.29.14-2.32-.5-2.32-1.4,0-.9,1.03-1.73,2.32-1.87,1.29-.14,2.35.47,2.36,1.37Z"/>
      <path class="cls-2" d="M10.61,92.69c0,.89-1.09,1.78-2.43,1.96-1.34.18-2.42-.41-2.42-1.31,0-.9,1.06-1.76,2.4-1.93,1.34-.18,2.45.39,2.46,1.29Z"/>
      <path class="cls-2" d="M18.79,91.45c.02.89-1.11,1.8-2.5,2.01-1.39.22-2.51-.34-2.52-1.23-.01-.89,1.08-1.78,2.47-1.99,1.38-.21,2.53.32,2.55,1.21Z"/>
      <path class="cls-2" d="M27.2,90.01c.03.88-1.12,1.8-2.55,2.06-1.43.25-2.59-.27-2.61-1.16-.02-.88,1.1-1.79,2.52-2.03,1.42-.25,2.61.25,2.64,1.13Z"/>
      <path class="cls-2" d="M35.81,88.4c.04.87-1.12,1.81-2.58,2.08-1.46.28-2.66-.21-2.69-1.09-.03-.87,1.1-1.79,2.55-2.06,1.45-.27,2.68.2,2.72,1.06Z"/>
      <path class="cls-2" d="M44.59,86.66c.06.85-1.11,1.8-2.6,2.1-1.49.3-2.72-.16-2.77-1.02-.05-.86,1.1-1.79,2.58-2.08,1.48-.29,2.74.15,2.79,1Z"/>
      <path class="cls-2" d="M53.5,84.81c.07.84-1.1,1.79-2.61,2.11-1.51.32-2.77-.12-2.84-.97-.06-.85,1.09-1.78,2.58-2.09,1.5-.31,2.79.11,2.86.95Z"/>
      <path class="cls-2" d="M62.5,82.87c.09.82-1.08,1.77-2.6,2.1s-2.81-.08-2.9-.92c-.08-.83,1.07-1.76,2.58-2.09s2.83.07,2.92.9Z"/>
      <path class="cls-2" d="M71.56,80.89c.11.81-1.05,1.75-2.59,2.09-1.53.34-2.85-.06-2.94-.88-.1-.82,1.04-1.74,2.57-2.07,1.52-.33,2.86.05,2.97.86Z"/>
      <path class="cls-2" d="M80.65,78.88c.13.79-1.02,1.72-2.56,2.07-1.54.34-2.87-.04-2.98-.84-.12-.8,1.01-1.72,2.54-2.05,1.53-.33,2.88.03,3,.83Z"/>
      <path class="cls-2" d="M89.73,76.89c.15.78-.99,1.69-2.52,2.03-1.53.34-2.88-.03-3.01-.82-.14-.79.98-1.69,2.5-2.02,1.52-.33,2.88.03,3.03.8Z"/>
      <path class="cls-2" d="M98.76,74.93c.16.76-.95,1.66-2.47,1.99-1.52.33-2.88-.03-3.03-.81-.15-.77.94-1.66,2.45-1.98,1.51-.32,2.88.03,3.05.79Z"/>
      <path class="cls-2" d="M107.72,73.04c.18.75-.9,1.62-2.41,1.94-1.51.32-2.86-.04-3.04-.8-.17-.76.9-1.62,2.4-1.93,1.5-.31,2.87.04,3.05.79Z"/>
      <path class="cls-2" d="M116.56,71.24c.2.74-.86,1.59-2.35,1.89-1.49.3-2.84-.06-3.03-.81-.19-.74.85-1.58,2.33-1.88,1.48-.29,2.84.06,3.04.79Z"/>
      <path class="cls-2" d="M125.25,69.57c.21.73-.81,1.55-2.27,1.83-1.46.28-2.81-.09-3.01-.82-.2-.73.81-1.54,2.26-1.82,1.45-.27,2.81.09,3.02.81Z"/>
      <path class="cls-2" d="M133.75,68.05c.22.71-.76,1.5-2.19,1.76-1.43.25-2.76-.13-2.97-.85-.22-.72.76-1.5,2.18-1.75,1.42-.25,2.76.13,2.98.84Z"/>
      <path class="cls-2" d="M142.03,66.72c.23.71-.71,1.46-2.1,1.68-1.39.22-2.7-.18-2.93-.89-.23-.71.7-1.46,2.09-1.67,1.38-.22,2.7.18,2.93.88Z"/>
      <path class="cls-2" d="M150.06,65.6c.24.7-.66,1.42-2,1.6-1.35.18-2.62-.24-2.86-.95-.24-.7.65-1.42,1.99-1.59,1.34-.18,2.63.24,2.87.94Z"/>
      <path class="cls-2" d="M2.69,98.72c0,.91-1.08,1.77-2.37,1.91-1.29.14-2.32-.5-2.31-1.41,0-.91,1.04-1.74,2.34-1.88,1.29-.14,2.35.47,2.35,1.38Z"/>
      <path class="cls-2" d="M10.63,97.68c0,.9-1.11,1.8-2.46,1.99-1.35.18-2.42-.41-2.41-1.32,0-.91,1.08-1.77,2.43-1.96,1.34-.18,2.45.39,2.45,1.29Z"/>
      <path class="cls-2" d="M18.85,96.4c0,.9-1.14,1.82-2.54,2.05-1.39.22-2.51-.34-2.51-1.24,0-.9,1.11-1.8,2.5-2.02,1.39-.22,2.54.32,2.54,1.21Z"/>
      <path class="cls-2" d="M27.31,94.91c.01.89-1.16,1.84-2.59,2.1-1.44.26-2.59-.27-2.6-1.17s1.13-1.82,2.56-2.07c1.43-.25,2.62.25,2.63,1.14Z"/>
      <path class="cls-2" d="M35.99,93.25c.02.88-1.17,1.84-2.64,2.13-1.47.29-2.66-.21-2.68-1.1-.02-.89,1.14-1.83,2.61-2.11,1.46-.28,2.68.19,2.71,1.07Z"/>
      <path class="cls-2" d="M44.85,91.44c.03.87-1.17,1.85-2.67,2.16-1.5.31-2.72-.16-2.75-1.04-.03-.88,1.15-1.83,2.64-2.13,1.49-.31,2.74.14,2.78,1.02Z"/>
      <path class="cls-2" d="M53.84,89.52c.05.86-1.16,1.84-2.68,2.17-1.52.33-2.77-.12-2.81-.99-.04-.87,1.14-1.82,2.66-2.15,1.51-.32,2.79.1,2.84.96Z"/>
      <path class="cls-2" d="M62.93,87.51c.06.85-1.15,1.83-2.69,2.17-1.54.34-2.81-.08-2.87-.94-.05-.86,1.13-1.81,2.66-2.15,1.53-.34,2.83.07,2.89.92Z"/>
      <path class="cls-2" d="M72.08,85.45c.08.84-1.13,1.81-2.67,2.16-1.55.35-2.84-.06-2.91-.9-.07-.85,1.11-1.8,2.65-2.14,1.54-.34,2.86.05,2.94.88Z"/>
      <path class="cls-2" d="M81.26,83.37c.09.82-1.1,1.79-2.65,2.15-1.55.35-2.86-.04-2.95-.87-.08-.83,1.09-1.78,2.63-2.13,1.54-.35,2.88.03,2.97.86Z"/>
      <path class="cls-2" d="M90.44,81.29c.11.81-1.07,1.77-2.62,2.12-1.55.35-2.87-.04-2.97-.86-.1-.82,1.06-1.76,2.6-2.1,1.54-.34,2.88.03,2.99.84Z"/>
      <path class="cls-2" d="M99.56,79.26c.12.8-1.04,1.74-2.58,2.08-1.54.34-2.87-.04-2.98-.85-.11-.81,1.03-1.73,2.56-2.06,1.53-.34,2.88.03,3,.83Z"/>
      <path class="cls-2" d="M108.6,77.3c.14.79-1,1.7-2.52,2.04-1.52.33-2.85-.05-2.98-.85-.13-.8.99-1.7,2.5-2.02,1.51-.32,2.86.04,3,.83Z"/>
      <path class="cls-2" d="M117.51,75.44c.15.78-.96,1.67-2.46,1.98-1.5.31-2.82-.08-2.96-.86-.14-.78.95-1.66,2.44-1.97,1.49-.31,2.83.07,2.98.85Z"/>
      <path class="cls-2" d="M126.27,73.71c.16.77-.91,1.63-2.39,1.92-1.47.29-2.78-.11-2.93-.88-.15-.77.9-1.63,2.37-1.91,1.47-.28,2.79.1,2.95.87Z"/>
      <path class="cls-2" d="M134.84,72.14c.17.76-.87,1.59-2.31,1.85-1.44.26-2.73-.16-2.89-.92-.16-.77.86-1.59,2.29-1.84,1.43-.26,2.74.15,2.91.91Z"/>
      <path class="cls-2" d="M143.17,70.77c.18.75-.82,1.56-2.22,1.78-1.4.23-2.66-.21-2.83-.97-.17-.76.81-1.55,2.21-1.77,1.39-.22,2.67.2,2.85.96Z"/>
      <path class="cls-2" d="M151.23,69.62c.18.75-.77,1.52-2.12,1.7-1.35.19-2.58-.28-2.76-1.03-.18-.75.76-1.51,2.11-1.69,1.35-.18,2.59.27,2.77,1.02Z"/>
      <path class="cls-2" d="M2.63,103.76c-.02.91-1.09,1.78-2.39,1.92-1.29.14-2.31-.51-2.3-1.42.01-.91,1.05-1.75,2.35-1.89,1.29-.14,2.35.47,2.33,1.39Z"/>
      <path class="cls-2" d="M10.58,102.71c-.02.91-1.14,1.82-2.49,2.01-1.35.19-2.41-.42-2.4-1.34.02-.91,1.1-1.79,2.45-1.98,1.35-.19,2.45.39,2.43,1.31Z"/>
      <path class="cls-2" d="M18.82,101.41c-.01.91-1.17,1.85-2.57,2.08-1.4.23-2.5-.34-2.49-1.26.01-.91,1.14-1.82,2.54-2.05,1.4-.23,2.54.32,2.52,1.23Z"/>
      <path class="cls-2" d="M27.33,99.9c0,.91-1.2,1.87-2.64,2.14-1.44.26-2.58-.28-2.57-1.19.01-.91,1.17-1.85,2.61-2.11,1.44-.26,2.61.25,2.61,1.16Z"/>
      <path class="cls-2" d="M36.05,98.19c0,.9-1.22,1.89-2.69,2.18-1.48.29-2.66-.22-2.65-1.12,0-.91,1.19-1.86,2.66-2.15,1.47-.29,2.68.19,2.68,1.09Z"/>
      <path class="cls-2" d="M44.97,96.34c0,.9-1.22,1.89-2.73,2.21-1.51.32-2.72-.16-2.72-1.06,0-.9,1.2-1.87,2.7-2.19,1.5-.31,2.74.14,2.75,1.04Z"/>
      <path class="cls-2" d="M54.02,94.36c.02.89-1.23,1.89-2.76,2.23-1.53.34-2.77-.12-2.78-1.01-.01-.89,1.2-1.87,2.73-2.21,1.53-.33,2.79.1,2.81.99Z"/>
      <path class="cls-2" d="M63.18,92.3c.03.88-1.22,1.89-2.77,2.24-1.55.35-2.81-.09-2.83-.97-.02-.88,1.2-1.87,2.74-2.22,1.54-.35,2.83.07,2.86.95Z"/>
      <path class="cls-2" d="M72.41,90.17c.04.87-1.21,1.88-2.76,2.24-1.56.36-2.84-.07-2.87-.94-.03-.87,1.19-1.86,2.74-2.22,1.55-.36,2.85.05,2.89.92Z"/>
      <path class="cls-2" d="M81.66,88.03c.05.86-1.19,1.86-2.75,2.23-1.56.36-2.85-.05-2.9-.92-.04-.86,1.17-1.85,2.72-2.2,1.56-.36,2.87.04,2.92.9Z"/>
      <path class="cls-2" d="M90.91,85.9c.06.85-1.16,1.84-2.72,2.2-1.56.36-2.86-.05-2.91-.9-.06-.86,1.15-1.83,2.7-2.18,1.55-.36,2.87.03,2.94.88Z"/>
      <path class="cls-2" d="M100.1,83.8c.07.84-1.13,1.82-2.68,2.17-1.55.35-2.85-.06-2.92-.9-.07-.85,1.12-1.8,2.66-2.15,1.54-.35,2.86.04,2.94.88Z"/>
      <path class="cls-2" d="M109.21,81.78c.08.83-1.1,1.79-2.63,2.13-1.53.34-2.83-.07-2.91-.91-.08-.84,1.09-1.78,2.61-2.11,1.53-.33,2.84.06,2.93.89Z"/>
      <path class="cls-2" d="M118.18,79.87c.09.82-1.07,1.76-2.57,2.08-1.51.32-2.79-.1-2.88-.93-.09-.83,1.05-1.75,2.56-2.06,1.5-.32,2.81.09,2.9.91Z"/>
      <path class="cls-2" d="M127,78.1c.1.82-1.03,1.73-2.51,2.02-1.48.3-2.75-.14-2.84-.96-.1-.82,1.01-1.72,2.49-2.01,1.48-.29,2.76.13,2.86.94Z"/>
      <path class="cls-2" d="M135.6,76.5c.11.81-.99,1.69-2.43,1.96-1.44.26-2.69-.19-2.79-1-.1-.82.97-1.68,2.41-1.94,1.44-.26,2.7.18,2.81.99Z"/>
      <path class="cls-2" d="M143.96,75.1c.11.81-.94,1.66-2.34,1.89-1.4.23-2.62-.25-2.72-1.06-.11-.81.93-1.65,2.33-1.87,1.4-.23,2.63.24,2.74,1.05Z"/>
      <path class="cls-2" d="M152.04,73.94c.11.81-.9,1.62-2.25,1.81-1.35.19-2.53-.32-2.64-1.13-.11-.81.89-1.61,2.24-1.8,1.35-.19,2.54.31,2.65,1.12Z"/>
      <path class="cls-2" d="M2.52,108.85c-.03.92-1,1.73-2.29,1.87-1.29.14-2.4-.46-2.38-1.38.02-.92,1.07-1.76,2.36-1.9,1.29-.14,2.34.48,2.31,1.41Z"/>
      <path class="cls-2" d="M10.45,107.81c-.03.93-1.03,1.76-2.38,1.95-1.35.18-2.53-.36-2.5-1.28.03-.92,1.12-1.81,2.47-1.99,1.35-.19,2.44.4,2.41,1.33Z"/>
      <path class="cls-2" d="M18.7,106.51c-.03.93-1.07,1.8-2.47,2.02-1.4.23-2.63-.27-2.6-1.2.03-.93,1.17-1.85,2.57-2.08,1.4-.23,2.53.32,2.5,1.25Z"/>
      <path class="cls-2" d="M27.22,104.98c-.03.93-1.1,1.83-2.55,2.09-1.44.26-2.71-.2-2.68-1.13.03-.93,1.21-1.88,2.65-2.14,1.44-.26,2.61.26,2.58,1.18Z"/>
      <path class="cls-2" d="M35.98,103.25c-.03.92-1.14,1.85-2.62,2.15-1.48.3-2.77-.15-2.74-1.08.03-.93,1.24-1.9,2.72-2.2,1.48-.3,2.68.2,2.65,1.12Z"/>
      <path class="cls-2" d="M44.93,101.37c-.02.92-1.18,1.88-2.69,2.2-1.51.32-2.81-.11-2.79-1.03.03-.92,1.25-1.92,2.76-2.24,1.51-.32,2.73.15,2.71,1.07Z"/>
      <path class="cls-2" d="M54.03,99.35c-.02.92-1.21,1.9-2.74,2.24-1.53.34-2.84-.08-2.82-1,.02-.92,1.26-1.93,2.8-2.27,1.53-.34,2.78.11,2.76,1.03Z"/>
      <path class="cls-2" d="M63.23,97.25c0,.91-1.24,1.92-2.79,2.27-1.55.36-2.85-.07-2.83-.98.01-.91,1.27-1.93,2.82-2.28,1.55-.36,2.82.08,2.81.99Z"/>
      <path class="cls-2" d="M72.51,95.08c0,.9-1.27,1.93-2.83,2.3-1.56.36-2.84-.06-2.83-.97,0-.91,1.26-1.93,2.83-2.29,1.56-.36,2.84.06,2.84.96Z"/>
      <path class="cls-2" d="M81.82,92.89c0,.9-1.29,1.94-2.86,2.31-1.56.37-2.82-.07-2.82-.97,0-.9,1.25-1.92,2.82-2.28,1.57-.37,2.85.05,2.86.95Z"/>
      <path class="cls-2" d="M91.12,90.71c.01.89-1.31,1.95-2.87,2.31-1.56.36-2.79-.09-2.8-.98,0-.89,1.24-1.9,2.8-2.27,1.56-.36,2.85.05,2.87.94Z"/>
      <path class="cls-2" d="M100.36,88.58c.02.88-1.32,1.95-2.87,2.3-1.55.36-2.74-.12-2.76-1.01-.02-.89,1.22-1.89,2.77-2.24,1.55-.36,2.84.06,2.86.95Z"/>
      <path class="cls-2" d="M109.51,86.52c.03.88-1.32,1.94-2.86,2.28-1.53.34-2.69-.16-2.71-1.04-.02-.88,1.19-1.87,2.73-2.21,1.54-.34,2.81.08,2.84.96Z"/>
      <path class="cls-2" d="M118.53,84.58c.03.88-1.32,1.93-2.83,2.25-1.51.32-2.62-.2-2.65-1.08-.03-.88,1.16-1.84,2.67-2.16,1.51-.32,2.77.12,2.81.99Z"/>
      <path class="cls-2" d="M127.38,82.78c.04.87-1.3,1.91-2.78,2.21-1.48.3-2.55-.26-2.59-1.13-.03-.87,1.13-1.81,2.61-2.11,1.48-.3,2.72.16,2.76,1.03Z"/>
      <path class="cls-2" d="M136,81.16c.04.87-1.27,1.89-2.72,2.15-1.44.27-2.48-.32-2.51-1.19-.04-.87,1.1-1.78,2.54-2.05,1.44-.27,2.66.22,2.69,1.09Z"/>
      <path class="cls-2" d="M144.38,79.75c.04.87-1.24,1.86-2.64,2.08-1.4.23-2.4-.39-2.43-1.26-.04-.87,1.06-1.75,2.46-1.98,1.4-.23,2.58.28,2.61,1.15Z"/>
      <path class="cls-2" d="M152.45,78.59c.03.87-1.19,1.82-2.54,2-1.35.19-2.31-.46-2.35-1.33-.04-.87,1.02-1.72,2.37-1.91,1.35-.19,2.48.36,2.52,1.23Z"/>
      <path class="cls-2" d="M27.45,109.87c.02.89-1.14,1.84-2.58,2.1-1.43.26-2.6-.26-2.63-1.15-.03-.89,1.09-1.81,2.53-2.07,1.44-.26,2.65.23,2.68,1.12Z"/>
      <path class="cls-2" d="M36.16,108.17c.01.9-1.2,1.87-2.66,2.16-1.47.29-2.65-.21-2.67-1.11-.02-.89,1.14-1.84,2.61-2.13,1.48-.29,2.71.18,2.72,1.08Z"/>
      <path class="cls-2" d="M45.04,106.31c0,.91-1.25,1.91-2.74,2.22-1.49.31-2.68-.17-2.69-1.08,0-.9,1.19-1.87,2.69-2.19,1.51-.32,2.75.14,2.74,1.05Z"/>
      <path class="cls-2" d="M54.05,104.34c-.03.91-1.31,1.94-2.82,2.27-1.52.33-2.71-.15-2.69-1.06.02-.91,1.24-1.91,2.77-2.25,1.53-.34,2.77.11,2.74,1.03Z"/>
      <path class="cls-2" d="M63.17,102.28c-.05.93-1.36,1.97-2.89,2.32-1.53.35-2.71-.13-2.68-1.05.04-.92,1.29-1.94,2.84-2.29,1.54-.35,2.78.1,2.73,1.02Z"/>
      <path class="cls-2" d="M72.35,100.16c-.08.94-1.41,2-2.95,2.35-1.54.35-2.71-.13-2.65-1.06.06-.93,1.34-1.96,2.9-2.32,1.55-.36,2.78.09,2.71,1.03Z"/>
      <path class="cls-2" d="M81.55,98.01c-.1.95-1.46,2.02-3,2.38-1.54.36-2.7-.13-2.61-1.07.09-.94,1.39-1.99,2.95-2.35,1.56-.36,2.77.1,2.67,1.04Z"/>
      <path class="cls-2" d="M90.75,95.88c-.12.96-1.5,2.04-3.04,2.39-1.54.35-2.67-.14-2.56-1.1.11-.95,1.43-2.01,2.98-2.37,1.55-.36,2.74.11,2.62,1.07Z"/>
      <path class="cls-2" d="M99.89,93.79c-.15.97-1.54,2.05-3.07,2.4-1.53.35-2.63-.17-2.5-1.13.13-.96,1.47-2.02,3.01-2.37,1.54-.35,2.71.13,2.56,1.1Z"/>
      <path class="cls-2" d="M108.96,91.77c-.17.98-1.57,2.06-3.08,2.39-1.52.33-2.59-.2-2.43-1.17.16-.97,1.49-2.03,3.02-2.37,1.53-.34,2.66.17,2.49,1.15Z"/>
      <path class="cls-2" d="M117.9,89.86c-.19.99-1.59,2.06-3.08,2.37-1.5.32-2.53-.24-2.35-1.22.18-.98,1.51-2.03,3.02-2.35,1.51-.32,2.61.21,2.42,1.2Z"/>
      <path class="cls-2" d="M126.68,88.09c-.21,1-1.59,2.05-3.06,2.34-1.47.29-2.47-.29-2.27-1.28.2-.99,1.52-2.03,3-2.32,1.48-.3,2.54.26,2.34,1.26Z"/>
      <path class="cls-2" d="M135.27,86.49c-.22,1-1.59,2.04-3.03,2.3-1.44.26-2.4-.35-2.19-1.35.21-1,1.52-2.01,2.96-2.28,1.44-.27,2.47.32,2.25,1.32Z"/>
      <path class="cls-2" d="M143.63,85.09c-.22,1.01-1.57,2.02-2.97,2.24-1.4.23-2.32-.41-2.1-1.42.22-1,1.5-1.99,2.9-2.22,1.4-.23,2.39.39,2.16,1.4Z"/>
      <path class="cls-2" d="M151.72,83.93c-.23,1.01-1.54,1.99-2.89,2.17-1.35.19-2.23-.49-2.01-1.49.23-1.01,1.47-1.96,2.82-2.15,1.35-.19,2.3.47,2.08,1.47Z"/>
      <path class="cls-2" d="M53.7,109.5c-.1.95-1.41,1.99-2.9,2.31-1.49.32-2.61-.19-2.53-1.13.08-.94,1.34-1.95,2.85-2.28,1.51-.33,2.67.16,2.58,1.11Z"/>
      <path class="cls-2" d="M62.66,107.51c-.13.96-1.48,2.02-2.98,2.36-1.5.33-2.61-.18-2.5-1.13.11-.95,1.41-1.99,2.93-2.33,1.52-.34,2.68.15,2.55,1.11Z"/>
      <path class="cls-2" d="M71.69,105.46c-.16.98-1.54,2.06-3.05,2.4-1.51.34-2.6-.18-2.45-1.15.14-.97,1.47-2.02,3-2.37,1.53-.35,2.67.14,2.5,1.12Z"/>
      <path class="cls-2" d="M80.73,103.39c-.19.99-1.6,2.09-3.12,2.43-1.51.34-2.57-.19-2.4-1.17.17-.98,1.53-2.05,3.07-2.41,1.53-.35,2.65.15,2.45,1.14Z"/>
      <path class="cls-2" d="M89.77,101.33c-.23,1.01-1.66,2.11-3.17,2.45-1.51.34-2.54-.2-2.34-1.2.21-1,1.59-2.08,3.12-2.43,1.53-.35,2.61.17,2.39,1.18Z"/>
      <path class="cls-2" d="M98.76,99.31c-.26,1.02-1.71,2.13-3.22,2.47-1.5.33-2.5-.23-2.26-1.24.24-1.01,1.64-2.1,3.16-2.44,1.52-.34,2.57.2,2.32,1.22Z"/>
      <path class="cls-2" d="M107.68,97.36c-.29,1.04-1.76,2.15-3.25,2.47-1.49.32-2.45-.26-2.18-1.29.27-1.03,1.68-2.12,3.19-2.45,1.51-.33,2.52.23,2.24,1.27Z"/>
      <path class="cls-2" d="M116.49,95.51c-.32,1.05-1.79,2.16-3.26,2.46-1.47.3-2.39-.3-2.1-1.34.3-1.04,1.72-2.13,3.21-2.44,1.49-.31,2.47.27,2.15,1.32Z"/>
      <path class="cls-2" d="M125.17,93.79c-.34,1.06-1.82,2.16-3.27,2.44-1.45.28-2.33-.35-2-1.41.32-1.05,1.74-2.13,3.21-2.42,1.46-.29,2.4.33,2.06,1.39Z"/>
      <path class="cls-2" d="M133.67,92.23c-.36,1.07-1.83,2.15-3.25,2.41-1.42.25-2.26-.41-1.91-1.47.35-1.06,1.76-2.13,3.19-2.39,1.43-.26,2.33.39,1.97,1.45Z"/>
      <path class="cls-2" d="M141.96,90.86c-.37,1.08-1.83,2.14-3.22,2.36-1.39.22-2.18-.48-1.82-1.55.37-1.07,1.76-2.11,3.15-2.34,1.39-.23,2.25.45,1.88,1.53Z"/>
      <path class="cls-2" d="M150.02,89.71c-.38,1.08-1.82,2.11-3.16,2.3-1.35.18-2.1-.55-1.72-1.63.38-1.08,1.75-2.09,3.1-2.28,1.35-.19,2.17.53,1.78,1.61Z"/>
      <path class="cls-2" d="M70.58,110.97c-.24,1.01-1.65,2.11-3.12,2.43-1.47.32-2.48-.23-2.26-1.24.21-1,1.58-2.07,3.08-2.41,1.5-.34,2.54.2,2.31,1.21Z"/>
      <path class="cls-2" d="M79.42,109c-.28,1.03-1.72,2.14-3.2,2.47-1.48.33-2.45-.24-2.19-1.26.25-1.02,1.65-2.11,3.15-2.45,1.5-.34,2.52.21,2.24,1.24Z"/>
      <path class="cls-2" d="M88.26,107.03c-.32,1.05-1.79,2.17-3.27,2.5-1.47.32-2.41-.26-2.12-1.3.29-1.04,1.72-2.14,3.22-2.48,1.5-.34,2.48.23,2.16,1.28Z"/>
      <path class="cls-2" d="M97.06,105.1c-.36,1.07-1.86,2.2-3.33,2.52-1.47.32-2.37-.29-2.03-1.35.33-1.06,1.79-2.17,3.28-2.5,1.49-.33,2.44.26,2.08,1.33Z"/>
      <path class="cls-2" d="M105.79,103.24c-.39,1.08-1.92,2.22-3.37,2.53-1.46.31-2.31-.33-1.94-1.4.37-1.07,1.85-2.19,3.32-2.51,1.48-.32,2.38.3,1.99,1.38Z"/>
      <path class="cls-2" d="M114.43,101.47c-.43,1.1-1.97,2.24-3.41,2.53-1.44.29-2.25-.37-1.85-1.46.41-1.09,1.9-2.21,3.36-2.51,1.46-.3,2.33.34,1.9,1.44Z"/>
      <path class="cls-2" d="M122.95,99.82c-.46,1.11-2.01,2.25-3.43,2.51-1.42.27-2.19-.42-1.75-1.52.44-1.11,1.94-2.22,3.38-2.5s2.26.39,1.8,1.51Z"/>
      <path class="cls-2" d="M131.32,98.32c-.49,1.13-2.04,2.25-3.43,2.49s-2.12-.48-1.65-1.6c.47-1.12,1.97-2.22,3.38-2.47,1.41-.25,2.19.45,1.7,1.58Z"/>
      <path class="cls-2" d="M139.51,97c-.51,1.14-2.06,2.24-3.42,2.45-1.37.21-2.05-.54-1.55-1.67.49-1.13,1.99-2.22,3.37-2.44,1.38-.22,2.11.52,1.61,1.66Z"/>
      <path class="cls-2" d="M147.5,95.88c-.52,1.15-2.06,2.23-3.39,2.4-1.33.18-1.97-.61-1.45-1.75.51-1.14,1.99-2.21,3.33-2.39,1.34-.18,2.03.59,1.51,1.74Z"/>
      <path class="cls-2" d="M155.25,95c-.53,1.15-2.05,2.2-3.34,2.34-1.29.14-1.89-.69-1.36-1.83.53-1.15,1.98-2.19,3.28-2.33,1.3-.14,1.95.67,1.41,1.82Z"/>
      <path class="cls-2" d="M94.84,111.13c-.44,1.11-1.98,2.26-3.41,2.55-1.43.3-2.23-.35-1.81-1.45.41-1.09,1.91-2.23,3.36-2.54s2.3.33,1.85,1.43Z"/>
      <path class="cls-2" d="M103.35,109.37c-.49,1.13-2.05,2.28-3.47,2.57-1.42.29-2.17-.39-1.71-1.51.46-1.12,1.98-2.25,3.42-2.55,1.44-.3,2.24.36,1.76,1.49Z"/>
      <path class="cls-2" d="M111.78,107.69c-.53,1.15-2.11,2.3-3.52,2.58-1.4.27-2.11-.43-1.61-1.57.5-1.13,2.04-2.28,3.47-2.56,1.43-.28,2.18.41,1.66,1.55Z"/>
      <path class="cls-2" d="M120.11,106.13c-.56,1.16-2.17,2.32-3.56,2.57-1.39.25-2.05-.48-1.51-1.64.54-1.15,2.1-2.3,3.51-2.56,1.41-.26,2.12.46,1.56,1.62Z"/>
      <path class="cls-2" d="M128.32,104.71c-.6,1.18-2.21,2.33-3.58,2.56-1.37.23-1.98-.54-1.41-1.71.58-1.17,2.15-2.31,3.53-2.54,1.39-.24,2.05.52,1.45,1.7Z"/>
      <path class="cls-2" d="M136.37,103.45c-.63,1.19-2.24,2.33-3.59,2.53-1.34.2-1.91-.6-1.3-1.79.61-1.18,2.18-2.31,3.54-2.52,1.36-.21,1.98.58,1.35,1.77Z"/>
      <path class="cls-2" d="M144.24,102.39c-.65,1.2-2.26,2.32-3.58,2.49-1.31.17-1.84-.67-1.2-1.87.64-1.2,2.2-2.3,3.53-2.48,1.33-.18,1.9.65,1.25,1.85Z"/>
      <path class="cls-2" d="M151.92,101.54c-.66,1.21-2.27,2.31-3.55,2.44-1.28.13-1.76-.74-1.11-1.95.66-1.21,2.21-2.29,3.5-2.43,1.29-.14,1.82.73,1.16,1.94Z"/>
      <path class="cls-2" d="M124.73,111.37c-.69,1.22-2.36,2.39-3.69,2.61-1.33.21-1.85-.6-1.18-1.81.67-1.21,2.29-2.37,3.65-2.6,1.36-.22,1.91.58,1.22,1.8Z"/>
      <path class="cls-2" d="M132.61,110.2c-.73,1.24-2.4,2.4-3.71,2.59-1.31.19-1.78-.66-1.08-1.89.71-1.23,2.34-2.38,3.67-2.58,1.33-.2,1.84.64,1.12,1.88Z"/>
      <path class="cls-2" d="M140.35,109.2c-.76,1.25-2.43,2.4-3.72,2.56-1.29.16-1.71-.73-.98-1.97.74-1.25,2.37-2.38,3.68-2.55,1.31-.17,1.77.71,1.02,1.96Z"/>
      <path class="cls-2" d="M147.92,108.4c-.78,1.26-2.45,2.39-3.72,2.52-1.26.12-1.64-.8-.88-2.06.76-1.26,2.4-2.38,3.67-2.51,1.28-.13,1.7.78.92,2.05Z"/>
      <path class="cls-2" d="M155.31,107.83c-.79,1.27-2.46,2.37-3.69,2.46-1.23.09-1.58-.87-.79-2.14.78-1.27,2.4-2.36,3.65-2.45,1.24-.09,1.63.86.84,2.13Z"/>
    </g>
  </g>
</svg>