<?xml version="1.0" encoding="UTF-8"?>
<svg xmlns="http://www.w3.org/2000/svg" version="1.1" viewBox="0 0 151.57 109.96">
  <!-- Generator: Adobe Illustrator 29.8.5, SVG Export Plug-In . SVG Version: 2.1.1 Build 2)  -->
  <defs>
    <style>
      .st0 {
        fill: red;
      }

      .st0, .st1, .st2, .st3, .st4 {
        isolation: isolate;
      }

      .st0, .st1, .st3 {
        mix-blend-mode: screen;
      }

      .st1 {
        fill: #00e;
      }

      .st3, .st4 {
        fill: lime;
      }

      .st4 {
        mix-blend-mode: darken;
      }
    </style>
  </defs>
  <g class="st2">
    <g id="Layer_1">
      <path class="st4" d="M112.76,82.56c2.2-3.21,3.65-6.98,4.09-11.04,0-.04,0-.07.01-.11.03-.28.05-.57.07-.85,0-.12.02-.23.03-.35.01-.27.02-.54.03-.81,0-.13,0-.26,0-.38,0-.06,0-.12,0-.18,0-.23-.01-.47-.02-.7,0-.1,0-.19,0-.29-.01-.34-.04-.68-.06-1.01,0-.04,0-.08,0-.13-.27-3.17-1.16-6.17-2.53-8.87-.01-.03-.03-.06-.04-.09-.16-.31-.32-.61-.49-.9-.04-.06-.07-.13-.11-.19-.15-.27-.31-.53-.48-.79-.06-.09-.11-.18-.17-.26-.15-.24-.31-.47-.47-.7-.07-.1-.14-.2-.21-.3-.16-.22-.32-.44-.49-.65-.08-.1-.15-.2-.23-.3-.18-.22-.36-.44-.54-.65-.07-.08-.14-.17-.22-.25-.21-.23-.42-.46-.63-.69-.05-.05-.1-.11-.16-.16-.26-.26-.52-.52-.79-.77-.01-.01-.03-.03-.04-.04-2.24-2.1-4.89-3.78-7.8-4.92.35-1.64.53-3.33.53-5.08,0-4.69-1.33-9.07-3.64-12.79-.04-.07-.09-.13-.13-.2-.23-.36-.47-.72-.72-1.07-.08-.12-.16-.24-.25-.35-.28-.38-.58-.76-.88-1.13-.1-.12-.21-.24-.32-.37-.24-.28-.49-.55-.74-.82-.11-.12-.22-.23-.33-.35-.35-.36-.72-.7-1.09-1.04-.08-.07-.15-.13-.23-.2-.38-.33-.77-.65-1.17-.96-.03-.02-.05-.04-.08-.06-.01-.01-.03-.02-.04-.03-.31-.24-.63-.47-.96-.69,0,0,0,0-.01,0-3.21-2.2-6.96-3.64-11.02-4.09-.04,0-.08-.01-.13-.02-.28-.03-.56-.05-.85-.07-.12,0-.23-.02-.35-.03-.27-.01-.53-.02-.8-.03-.13,0-.26,0-.39,0-.06,0-.12,0-.18,0-.23,0-.46.01-.69.02-.1,0-.2,0-.3,0-.34.01-.67.04-1,.06-.04,0-.09,0-.13.01-3.17.27-6.16,1.16-8.87,2.53-.03.02-.06.03-.09.05-.3.16-.61.32-.9.49-.06.04-.13.07-.19.11-.27.15-.53.31-.79.48-.09.06-.18.11-.26.17-.24.15-.47.31-.7.47-.1.07-.2.14-.3.21-.22.16-.44.32-.65.49-.1.08-.2.15-.3.23-.22.18-.43.35-.65.54-.08.07-.17.14-.25.22-.23.21-.46.42-.69.63-.05.05-.11.1-.16.16-.26.26-.52.52-.77.78-.01.01-.03.03-.04.04-4.07,4.35-6.57,10.19-6.57,16.62,0,1.35.12,2.68.33,3.97-10.46,2.25-18.42,11.23-19.12,22.19,0,.06-.01.12-.01.19-.02.28-.02.57-.03.85,0,.12,0,.24,0,.35,0,.06,0,.12,0,.18,0,.23.01.45.02.68,0,.11,0,.22,0,.33.01.32.03.63.06.94,0,.07,0,.14.02.21.03.35.07.69.11,1.03,0,.03,0,.07.01.1.05.37.11.74.18,1.1,0,0,0,.02,0,.03.14.77.32,1.52.53,2.26,0,0,0,0,0,0,.1.36.22.72.34,1.08,0,.02.01.04.02.07.11.33.23.66.36.99.02.05.04.11.06.16.12.29.24.58.36.86.04.1.09.19.13.29.11.24.22.48.34.71.07.14.14.28.22.42.1.19.2.37.3.56.1.18.21.36.31.54.08.14.17.28.25.42.13.21.27.43.41.64.07.1.14.21.21.31.16.23.32.46.48.68.06.08.12.17.19.25.18.23.35.46.54.69.06.08.13.16.19.23.18.22.37.44.56.65.08.09.15.17.23.25.18.2.37.39.56.59.1.1.21.2.31.31.17.17.34.33.52.5.14.13.28.25.43.38.15.13.3.26.45.39.19.16.38.31.57.46.1.07.19.15.28.23.02.01.03.02.05.04.54.41,1.1.8,1.67,1.16.07.05.15.1.22.14.54.34,1.1.65,1.67.94.11.06.22.11.33.17.54.27,1.1.52,1.66.75.13.05.26.1.4.16.56.21,1.12.41,1.69.58.13.04.25.07.38.11.59.17,1.18.32,1.79.44.07.01.15.03.22.04.58.11,1.16.2,1.75.27.09.01.18.03.27.03.62.07,1.24.1,1.88.12.1,0,.2,0,.3,0,.15,0,.3.01.45.01,6.57,0,12.53-2.61,16.91-6.85.31.3.63.6.96.88.06.06.13.11.2.17.21.18.43.36.65.53.12.1.24.2.36.29,5.1,3.89,11.24,5.44,17.15,4.85.08,0,.16-.02.23-.03.3-.03.6-.07.91-.12.14-.02.27-.04.41-.06.24-.04.48-.08.72-.13.17-.03.35-.07.52-.11.2-.04.41-.09.61-.14.19-.05.38-.1.58-.15.19-.05.37-.1.56-.16.19-.06.39-.12.58-.18.19-.06.37-.12.56-.19.18-.06.36-.13.53-.2.2-.08.4-.16.6-.24.15-.06.3-.13.46-.19.23-.1.45-.2.67-.3.12-.06.24-.11.36-.17.25-.12.5-.25.75-.38.09-.05.17-.09.26-.14.27-.15.54-.3.81-.47.06-.03.12-.07.17-.11.28-.17.56-.35.84-.54.04-.03.08-.06.12-.08.28-.19.56-.39.84-.6.04-.03.08-.06.11-.09.27-.2.53-.41.79-.62.05-.04.1-.08.15-.12.24-.2.48-.41.72-.62.07-.06.14-.13.21-.19.21-.19.41-.38.61-.58.11-.1.21-.21.31-.32.16-.16.32-.33.48-.5.15-.16.29-.33.44-.49.11-.12.22-.25.32-.37.2-.23.39-.47.57-.72.04-.05.09-.11.13-.16.01-.01.02-.03.03-.04.24-.31.47-.63.69-.95,0,0,.01-.01.02-.02Z"/>
      <path d="M107.42,49.51c-1.86-1.42-3.86-2.51-5.94-3.31,1.9-8.91-1.28-18.53-9.01-24.42-10.68-8.14-25.93-6.08-34.07,4.6-4.23,5.55-5.68,12.34-4.62,18.72-5.47,1.17-10.57,4.21-14.23,9.01-8.14,10.68-6.08,25.93,4.6,34.07,9.69,7.39,23.14,6.35,31.63-1.89.68.66,1.4,1.3,2.17,1.89,10.68,8.14,25.93,6.08,34.07-4.6s6.08-25.93-4.6-34.07Z"/>
      <circle class="st1" cx="58.88" cy="68.84" r="24.31"/>
      <circle class="st0" cx="77.73" cy="41.11" r="24.31"/>
      <circle class="st3" cx="92.69" cy="68.84" r="24.31"/>
    </g>
  </g>
</svg>