<?xml version="1.0" encoding="UTF-8"?>
<svg id="Layer_1" data-name="Layer 1" xmlns="http://www.w3.org/2000/svg" viewBox="0 0 151.57 109.96">
  <defs>
    <style>
      .cls-1 {
        fill: #afd136;
      }
    </style>
  </defs>
  <path class="cls-1" d="M86.49,7.84c-.44.07-.9.23-1.49.52-.69.33-1.56,1.22-1.95,2-.41.81-.5,1.21-.5,2.14,0,.64.03.88.17,1.33.4,1.28,1.29,2.28,2.52,2.85.71.33,1.14.41,2.07.37,1.22-.04,2.04-.41,2.94-1.32.56-.57.92-1.16,1.19-1.98.2-.59.21-.68.18-1.5-.04-.96-.17-1.45-.62-2.21-.34-.59-1.2-1.41-1.74-1.67-.95-.46-1.94-.65-2.75-.51h0ZM85.62,9.16c.11.11.2.25.2.31,0,.18-1.05,1.53-1.59,2.06-.32.31-.58.33-.81.07-.28-.33.05-1.1.82-1.92.28-.3.91-.71,1.08-.71.05,0,.18.09.29.2h0Z"/>
  <path class="cls-1" d="M65.22,7.94c-.82.23-1.81.86-2.41,1.53-.9,1.02-1.29,2.72-.94,4.11.38,1.49,1.47,2.7,2.95,3.25.46.17.59.19,1.45.19.84,0,.99-.02,1.41-.18,1.82-.7,3-2.29,3.11-4.18.12-2.16-1.15-3.98-3.25-4.67-.53-.17-1.77-.2-2.32-.04h0ZM64.81,9.18c.29.31.2.5-.65,1.52-.87,1.03-1.08,1.19-1.35,1.01-.31-.21-.35-.56-.12-1.02.17-.33.95-1.26,1.24-1.46.34-.25.68-.26.88-.04h0Z"/>
  <path class="cls-1" d="M44.46,13.14c-1.01.29-1.94,1.25-2.28,2.35-.55,1.8.93,3.43,2.87,3.17,1.19-.16,2.32-1.28,2.59-2.57.11-.51.05-1.22-.13-1.63-.16-.37-.62-.9-.97-1.11-.55-.34-1.36-.42-2.09-.21h0Z"/>
  <path class="cls-1" d="M107.08,13.15c-.54.21-.95.61-1.26,1.23-.26.52-.27.57-.27,1.21,0,.61.02.7.25,1.19.31.67.92,1.28,1.58,1.61.44.22.51.23,1.24.23s.79-.01,1.18-.21c1.49-.76,1.86-2.36.87-3.84-.55-.83-1.34-1.36-2.21-1.5-.6-.1-.99-.08-1.38.08h0Z"/>
  <path class="cls-1" d="M55.15,15.4c-.48.18-.8.43-1.17.9-.72.92-.58,2.21.35,3.13.33.33.47.42.91.55.39.12.61.15.89.12.75-.08,1.51-.63,1.88-1.36.17-.33.2-.5.22-1.02.02-.54,0-.68-.15-1.01-.53-1.19-1.78-1.75-2.94-1.31h0ZM55.09,16c.15.09.12.3-.07.61-.23.36-.53.6-.72.57-.21-.03-.21-.22,0-.65.23-.47.55-.69.78-.53h0Z"/>
  <path class="cls-1" d="M96.75,15.37c-.64.17-1.11.57-1.44,1.24-.2.41-.23.52-.22,1.06,0,.51.03.67.21,1.05.53,1.16,1.92,1.69,3.06,1.17,1.76-.81,1.92-3.28.29-4.29-.38-.24-.44-.25-1.04-.27-.35,0-.73,0-.85.04h0ZM96.65,16.01c.18.1.17.16-.11.52-.32.42-.64.68-.77.63-.28-.11.03-.96.42-1.13.26-.11.29-.12.46-.02h0Z"/>
  <path class="cls-1" d="M75.89,16.58c-2.12.24-4.22,1.29-5.56,2.77-1.11,1.23-1.73,2.28-2.16,3.64-.42,1.35-.46,1.57-.46,3,0,1.54.05,1.93.46,3.16,1.06,3.23,3.6,5.62,6.8,6.39.63.15,2.79.17,3.42.03.61-.14,1.81-.54,2.22-.75.56-.28,1.56-.99,2.15-1.53,1.36-1.23,2.53-3.23,2.89-4.9.27-1.26.28-3.15.03-4.25-.47-2.07-1.3-3.57-2.76-4.99-.45-.44-1.03-.94-1.26-1.1-1.16-.79-2.57-1.29-4.14-1.48-.66-.08-.86-.08-1.63,0h0ZM73.78,19.25c.3.23.42.59.28.91-.05.12-.42.58-.82,1.02-.4.44-.93,1.05-1.18,1.35-.25.31-.63.74-.85.96-.45.46-.64.5-1.05.22-.86-.58-.29-2.17,1.34-3.74.68-.66,1.3-1,1.72-.95.17.02.4.11.54.22h0Z"/>
  <path class="cls-1" d="M87.63,20.62c-.34.09-.5.22-.63.52-.17.38-.09.72.26,1.02.3.26.57.27.94.04.34-.22.42-.36.42-.76,0-.25-.04-.37-.19-.53-.22-.24-.53-.35-.79-.28h0Z"/>
  <path class="cls-1" d="M65.13,20.75c-.27.18-.39.4-.39.77,0,.27.03.34.28.57.33.32.6.35.96.13.45-.28.58-.76.32-1.21-.24-.4-.77-.53-1.16-.26h0Z"/>
  <path class="cls-1" d="M56.47,22.9c-.5.04-1.73.3-2.16.45-.78.27-2.1.97-2.76,1.47-.52.4-1.48,1.34-2.13,2.1-.11.13-.52.73-.52.77,0,.02-.12.24-.27.48-.46.76-.8,1.63-1.12,2.85-.37,1.4-.39,3.31-.07,4.85.21,1,1.02,2.88,1.62,3.77,1.21,1.79,3,3.27,4.87,4.02.4.16.48.18,1.26.38.83.21,1.01.24,1.56.31.93.12,1.49.09,2.81-.14.58-.1.89-.19,1.54-.43,1.58-.58,2.7-1.31,3.91-2.53,1.04-1.05,2.03-2.62,2.47-3.92.44-1.27.59-2.23.59-3.7,0-.92-.03-1.27-.18-1.97-.49-2.33-1.38-4.07-2.86-5.59-.93-.96-1.6-1.47-2.57-1.99-1.28-.68-2.35-1.03-3.57-1.16-.61-.06-1.79-.07-2.39-.02h0ZM54.08,25.89c.28.18.39.39.45.81.05.34-.11.6-.96,1.52-.76.83-1.52,1.71-1.88,2.18-.13.17-.36.47-.49.64-.41.53-.84.66-1.32.39-.65-.37-.74-1.05-.27-2.04.46-.97,1.26-2.06,2.07-2.83.94-.89,1.74-1.11,2.4-.67h0Z"/>
  <path class="cls-1" d="M94.64,24.46c-.48.05-1.22.23-1.86.44-1.75.58-3.26,1.69-4.47,3.28-1.07,1.41-1.63,2.75-1.91,4.62-.26,1.76.05,3.61.9,5.35.54,1.11.91,1.66,1.64,2.43,1.28,1.35,2.61,2.16,4.38,2.66,1.21.34,2.69.38,4,.11.69-.14,1.49-.4,1.9-.6.06-.03.28-.14.47-.23,1.37-.68,2.79-1.97,3.68-3.35.67-1.04,1.15-2.31,1.45-3.89.14-.73.11-2.3-.06-3.12-.33-1.56-1.05-3.09-2.04-4.32-1.18-1.46-3.23-2.74-5.08-3.19-.84-.2-2.15-.28-3.01-.19h0ZM92.48,26.66c.26.14.43.34.5.59.11.43.03.59-.71,1.36-1.06,1.11-1.5,1.6-1.91,2.14-.31.42-.45.51-.76.51-.35,0-.56-.13-.73-.47-.33-.64-.05-1.38.93-2.45,1.28-1.38,2.18-1.95,2.69-1.68h0Z"/>
  <path class="cls-1" d="M76.25,41.17c-.53.06-1.35.25-2.06.49-1.94.65-3.62,1.87-4.96,3.64-1.19,1.57-1.81,3.05-2.12,5.13-.29,1.96.05,4.01,1,5.95.61,1.24,1.01,1.84,1.82,2.7,1.42,1.5,2.9,2.4,4.87,2.95,1.35.38,2.99.42,4.45.12.76-.16,1.66-.44,2.11-.67.07-.04.31-.15.52-.26,1.52-.76,3.1-2.19,4.09-3.73.75-1.16,1.27-2.57,1.61-4.32.16-.82.12-2.56-.06-3.46-.36-1.74-1.16-3.44-2.26-4.8-1.31-1.62-3.59-3.05-5.65-3.54-.94-.22-2.39-.31-3.34-.21h0ZM73.86,43.62c.29.15.48.37.55.65.13.48.03.65-.79,1.51-1.18,1.23-1.67,1.77-2.13,2.38-.35.46-.5.56-.85.57-.38,0-.62-.15-.81-.52-.37-.71-.06-1.54,1.03-2.72,1.42-1.54,2.42-2.16,2.99-1.87h0Z"/>
  <path class="cls-1" d="M116.86,25.26c-1.12.25-2.38.94-3.26,1.8-.39.38-1.08,1.4-1.34,2-1.11,2.5.2,5.36,2.86,6.23.38.12,2,.12,2.37,0,.73-.24,1.09-.42,1.57-.77,1-.73,1.51-1.35,2.11-2.56.65-1.31.91-2.81.63-3.74-.63-2.14-2.78-3.43-4.95-2.96h0ZM115.34,26.96c.2.3.13.57-.36,1.31-.2.31-.52.79-.7,1.08-.19.29-.41.59-.51.68-.21.2-.57.21-.79.03-.45-.37.05-1.67,1.05-2.76.61-.66,1.02-.76,1.31-.34h0Z"/>
  <path class="cls-1" d="M34.09,25.27c-.49.09-1.11.34-1.49.6-1.27.86-1.86,1.93-1.86,3.41,0,1.19.38,2.35,1.18,3.57.76,1.16,1.55,1.79,2.92,2.33.43.17.57.19,1.38.19,1.39,0,1.99-.25,3.01-1.25.67-.66.94-1.09,1.18-1.88.2-.64.19-2.14-.02-2.79-.53-1.65-2.03-3.16-3.89-3.9-.65-.26-.75-.28-1.47-.29-.43,0-.85,0-.94.02h0ZM33.7,27.19c.15.18.18.27.15.49-.06.46-.6.96-1.03.96-.47,0-.77-.41-.67-.9.09-.41.59-.77,1.06-.77.24,0,.32.04.48.22h0Z"/>
  <path class="cls-1" d="M43.42,36.03c-.23.09-.68.59-.75.84-.11.38-.09.61.08.96.29.61,1.01.88,1.57.6.56-.29.8-.66.8-1.24,0-.67-.56-1.22-1.22-1.21-.2,0-.4.03-.47.05h0Z"/>
  <path class="cls-1" d="M108.69,36.08c-.31.17-.43.3-.59.63-.3.63-.11,1.26.47,1.64.28.18.38.21.69.18.48-.04.86-.29,1.07-.71.26-.54.09-1.25-.39-1.62-.3-.23-.94-.3-1.25-.13h0Z"/>
  <path class="cls-1" d="M38.29,41.32c-.67.1-.86.17-1.49.54-.81.46-1.25.94-1.65,1.75-.42.85-.53,1.31-.53,2.25,0,.56.03.79.16,1.15.52,1.44,1.68,2.53,3.08,2.9.45.12,1.52.14,1.92.03,1.19-.31,2.25-1.05,2.79-1.95.42-.7.6-1.38.6-2.27,0-.87-.11-1.35-.44-2.02-.46-.94-1.5-1.89-2.4-2.2-.3-.1-1.39-.31-1.45-.28,0,0-.27.05-.59.1h0ZM37.54,42.33c.21.08.42.44.36.62-.02.07-.45.54-.94,1.05-.94.96-1.06,1.03-1.39.8-.14-.1-.16-.15-.12-.4.02-.16.11-.42.2-.58.21-.4,1-1.25,1.31-1.41.29-.16.36-.16.59-.07h0Z"/>
  <path class="cls-1" d="M114.07,41.26c-.69.08-1.12.21-1.77.53-.61.3-.79.43-1.2.86-.86.92-1.23,1.93-1.18,3.24.05,1.17.41,2.02,1.21,2.82.43.43.64.58,1.17.83.79.38,1.13.46,1.84.46,2.05-.01,3.71-1.31,4.27-3.35.63-2.28-.8-4.72-3.07-5.25-.54-.13-1-.18-1.29-.15h0ZM112.93,42.57s.05.17.05.29c0,.16-.16.4-.73,1.1-.4.49-.8.92-.88.97-.34.18-.75-.16-.67-.56.05-.27.65-1.14,1.04-1.52.48-.47.97-.58,1.18-.26h0Z"/>
  <path class="cls-1" d="M47.93,42.3c-.55.24-.6,1.24-.08,1.6.09.06.3.11.52.11.33,0,.38-.02.57-.24.71-.81-.03-1.9-1.01-1.47h0Z"/>
  <path class="cls-1" d="M104.38,42.3c-.36.19-.54.76-.37,1.16.3.72,1.25.75,1.61.06.41-.78-.46-1.64-1.24-1.22h0Z"/>
  <path class="cls-1" d="M52.14,45.86c-.08.02-.39.08-.7.14-1.96.37-3.36,1.12-4.82,2.57-.8.8-1.56,1.8-1.87,2.48-1.12,2.46-1.2,5.28-.21,7.61,1.49,3.51,4.91,5.86,8.52,5.86,1.35,0,3.1-.44,4.14-1.05.17-.1.36-.2.42-.22.23-.09,1.25-.9,1.72-1.36,1.44-1.43,2.29-2.99,2.72-5.02.18-.84.16-2.58-.03-3.49-.47-2.18-1.21-3.49-2.83-5.05-1.28-1.23-2.74-1.99-4.5-2.36-.52-.11-2.29-.2-2.56-.13h0ZM49.66,48.29c.31.13.52.36.65.71.09.27.09.31-.05.57-.08.16-.57.74-1.08,1.3s-1.08,1.21-1.27,1.45c-.68.87-.77.97-.99,1.08-.21.11-.24.11-.52-.05-.23-.12-.34-.25-.49-.54q-.19-.38-.07-.78c.22-.81.89-1.76,1.93-2.75.72-.69.99-.86,1.66-1.1,0,0,.11.04.24.1h0Z"/>
  <path class="cls-1" d="M99.12,45.9c-1.49.27-2.81.77-3.84,1.44-1.87,1.22-3.35,3.34-3.91,5.59-.54,2.17-.28,4.6.69,6.4.68,1.27,1.04,1.75,1.92,2.6,1.27,1.23,2.86,2.07,4.62,2.44,1.15.24,3.03.14,4.15-.22,2.91-.95,5.09-3.07,6.14-5.98.74-2.07.66-4.46-.23-6.59-.58-1.38-2.02-3.19-3.22-4.03-.88-.61-2.06-1.18-2.97-1.42-1.11-.29-2.5-.39-3.35-.23h0ZM106.55,57.34c-.05.08-.1.12-.11.11-.03-.03.12-.24.17-.24.02,0,0,.06-.06.14h0Z"/>
  <path class="cls-1" d="M38.07,59.04c-1.62.36-2.81,1.61-3.15,3.29-.11.54-.09,1.49.04,1.92.56,1.86,2.54,3.17,4.38,2.87,1.61-.26,2.72-1.15,3.29-2.65.44-1.13.39-2.23-.14-3.27-.82-1.62-2.72-2.54-4.43-2.16h0Z"/>
  <path class="cls-1" d="M26.64,49.47c-1.62.36-2.81,1.61-3.15,3.29-.11.54-.09,1.49.04,1.92.56,1.86,2.54,3.17,4.38,2.87,1.61-.26,2.72-1.15,3.29-2.65.44-1.13.39-2.23-.14-3.27-.82-1.62-2.72-2.54-4.43-2.16h0Z"/>
  <path class="cls-1" d="M26.64,61.35c-1.62.36-2.81,1.61-3.15,3.29-.11.54-.09,1.49.04,1.92.56,1.86,2.54,3.17,4.38,2.87,1.61-.26,2.72-1.15,3.29-2.65.44-1.13.39-2.23-.14-3.27-.82-1.62-2.72-2.54-4.43-2.16h0Z"/>
  <path class="cls-1" d="M113.68,59.03c-.42.07-.61.14-1.22.42-.94.44-1.54,1.12-1.99,2.24-.22.54-.24.63-.23,1.38,0,1.11.23,1.76.89,2.59.58.73,1.58,1.3,2.58,1.48,1.61.28,3.38-.68,4.15-2.25.37-.76.47-1.16.46-1.89,0-1.01-.39-1.94-1.13-2.73-.65-.7-1.4-1.09-2.38-1.24-.54-.09-.59-.09-1.12,0h0Z"/>
  <path class="cls-1" d="M123.51,49.2c-.42.07-.61.14-1.22.42-.94.44-1.54,1.12-1.99,2.24-.22.54-.24.63-.23,1.38,0,1.11.23,1.76.89,2.59.58.73,1.58,1.3,2.58,1.48,1.61.28,3.38-.68,4.15-2.25.37-.76.47-1.16.46-1.89,0-1.01-.39-1.94-1.13-2.73-.65-.7-1.4-1.09-2.38-1.24-.54-.09-.59-.09-1.12,0h0Z"/>
  <path class="cls-1" d="M123.51,65.43c-.42.07-.61.14-1.22.42-.94.44-1.54,1.12-1.99,2.24-.22.54-.24.63-.23,1.38,0,1.11.23,1.76.89,2.59.58.73,1.58,1.3,2.58,1.48,1.61.28,3.38-.68,4.15-2.25.37-.76.47-1.16.46-1.89,0-1.01-.39-1.94-1.13-2.73-.65-.7-1.4-1.09-2.38-1.24-.54-.09-.59-.09-1.12,0h0Z"/>
  <path class="cls-1" d="M61.75,62.84c-1.25.18-2.07.42-3.01.87-.89.43-1.58.93-2.32,1.67-.97.98-1.5,1.76-2.11,3.14-.13.28-.39,1.16-.47,1.58-.04.18-.09.48-.13.66-.09.46-.07,1.59.03,2.26.25,1.64.8,3,1.68,4.21.48.66,1.62,1.76,2.23,2.16.47.3,1.25.73,1.75.94.3.13,1.25.41,1.64.49.61.12,2.47.1,3.1-.03,1.73-.36,3.49-1.35,4.71-2.63.5-.53,1.24-1.53,1.48-2,.4-.8.76-1.76.88-2.37.19-.94.21-1.09.18-2.17-.04-1.52-.29-2.55-.91-3.79-.38-.76-.64-1.15-1.29-1.9-1.46-1.71-3.51-2.82-5.67-3.06-.52-.06-1.47-.07-1.8-.02h0ZM59.47,65.15c.19.12.45.56.45.76,0,.3-.25.67-1,1.49-.42.46-.96,1.06-1.19,1.33-.54.65-.62.71-.9.74-.3.04-.61-.12-.79-.4-.17-.26-.19-.78-.02-1.13.32-.7,1.47-2,2.2-2.49.61-.41.95-.49,1.25-.3h0Z"/>
  <path class="cls-1" d="M94.84,68.34c-.94.11-1.98.44-2.85.89-1.4.73-2.69,2.02-3.45,3.45-.97,1.81-1.24,4.22-.69,6.19.07.24.15.51.19.6.04.09.14.33.22.54.7,1.71,2.37,3.48,4.04,4.27.42.2,1.41.54,1.93.66.86.2,2.37.16,3.28-.08,1.23-.32,1.94-.66,2.85-1.33,1.36-1.01,2.22-2.07,2.89-3.57.72-1.61.87-3.84.37-5.5-.07-.22-.13-.47-.15-.56-.06-.32-.79-1.65-1.21-2.21-1.21-1.61-2.8-2.69-4.62-3.15-1-.25-1.86-.31-2.81-.2h0ZM93.04,70.49c.08.06.21.22.27.36.18.36.1.55-.5,1.18-.94.99-1.08,1.14-1.53,1.71-.5.63-.72.78-1.06.73-.14-.02-.26-.1-.41-.27-.2-.22-.21-.26-.21-.58,0-.21.04-.43.11-.57.28-.61,1.43-1.89,2.09-2.34.61-.41.9-.46,1.25-.22h0Z"/>
  <path class="cls-1" d="M46.68,67.38c-.33.15-.56.49-.63.9-.06.4.07.74.41,1.03.25.21.34.25.64.24.68,0,1.15-.46,1.15-1.1,0-.87-.82-1.43-1.58-1.07h0Z"/>
  <path class="cls-1" d="M105.74,67.33c-.43.09-.85.64-.85,1.12,0,.86,1.01,1.4,1.74.94.34-.22.48-.44.54-.86.1-.77-.61-1.37-1.42-1.2h0Z"/>
  <path class="cls-1" d="M39.99,70.5c-.71.17-1.2.52-1.57,1.1-.63.97-.51,2.12.3,2.98.53.57.96.74,1.79.74.6,0,.69-.02.98-.19.4-.24.9-.78,1.12-1.22.14-.29.17-.43.16-1.03,0-.58-.03-.75-.16-1.02-.34-.69-.9-1.16-1.63-1.36-.44-.12-.53-.12-1,0h0ZM39.73,71.43c.03.22-.82,1.1-.99,1.04-.24-.09-.08-.7.29-1.06.24-.24.67-.23.71.02h0Z"/>
  <path class="cls-1" d="M112.04,70.53c-1.03.27-1.78,1.29-1.78,2.4,0,.8.35,1.52.93,1.97.39.3,1.2.55,1.64.51,1.39-.14,2.45-1.56,2.18-2.92-.24-1.21-1.06-1.94-2.23-1.98-.29-.01-.62,0-.74.03h0ZM111.71,71.28c.2.05.2.19,0,.59-.27.54-.59.86-.8.78-.23-.08,0-.95.34-1.27.17-.16.22-.17.46-.1h0Z"/>
  <path class="cls-1" d="M75.63,74.28c-1.42.24-2.49.64-3.63,1.37-.83.53-1.27.91-1.98,1.73-1.15,1.32-1.71,2.47-2.24,4.6-.15.61-.22,2.32-.11,2.96.22,1.29.39,1.88.88,2.97.96,2.15,2.88,3.97,5.06,4.81.21.08.77.25,1.26.37.79.2.97.22,1.95.22,1.14,0,1.57-.07,2.48-.38,1.65-.56,3.19-1.57,4.17-2.74,1.15-1.36,1.76-2.63,2.19-4.57.16-.73.16-2.96,0-3.69-.28-1.26-.83-2.58-1.5-3.6-.71-1.08-2.29-2.48-3.49-3.1-1.34-.69-2.27-.93-3.78-.95-.59-.01-1.16,0-1.26,0h0ZM73.51,77.2c.19.21.23.31.23.56,0,.35-.07.45-.8,1.24-.27.29-.76.87-1.08,1.28-.84,1.08-1.12,1.36-1.36,1.36-.29,0-.64-.27-.81-.61-.12-.25-.13-.34-.06-.59.29-1.09,1.42-2.58,2.51-3.3.35-.23.42-.25.76-.23.33.02.41.06.61.28h0Z"/>
  <path class="cls-1" d="M116.47,75.22c-1.53.21-2.93,1.38-3.46,2.89-.44,1.27-.35,2.3.34,3.71.81,1.66,3.2,3.23,4.91,3.23.97,0,2.08-.45,2.83-1.14.78-.72,1.25-1.83,1.25-2.94,0-1.22-.43-2.28-1.45-3.65-.85-1.14-1.42-1.58-2.46-1.93-.62-.21-1.3-.27-1.95-.18h0ZM115.96,77.13c.25.29.22.72-.06,1.01-.29.3-.67.41-.98.29-.34-.13-.39-.19-.44-.49-.06-.34.12-.73.41-.92.31-.2.85-.15,1.06.11h0Z"/>
  <path class="cls-1" d="M34.86,75.32c-.57.16-1.45.61-1.93,1-.47.38-1.22,1.34-1.57,2-.12.23-.32.7-.44,1.05-.2.58-.22.71-.22,1.54,0,1.01.08,1.36.49,2.09.57,1.02,1.75,1.83,2.94,2,1.45.21,3.06-.45,4.36-1.79,2.05-2.11,2.3-4.82.62-6.61-.46-.49-1.17-.95-1.84-1.18-.57-.2-1.86-.25-2.43-.1h0ZM33.85,76.83c.21.23.17.69-.1,1.12-.12.2-.22.36-.22.38,0,.06-1.06,1.64-1.13,1.68-.15.09-.72.03-.81-.09-.3-.41.26-1.79,1.07-2.63.58-.6.94-.74,1.19-.46h0Z"/>
  <path class="cls-1" d="M65.36,87.27c-.4.06-.71.64-.6,1.09.02.1.14.27.26.39.17.17.28.22.52.22.26,0,.35-.04.59-.27.23-.22.28-.32.28-.53,0-.31-.16-.67-.34-.78-.16-.1-.49-.15-.72-.12h0Z"/>
  <path class="cls-1" d="M87.53,87.27c-.08.02-.23.12-.35.24-.17.18-.2.27-.2.59,0,.42.15.65.53.81.63.26,1.29-.48,1.02-1.14-.16-.38-.57-.58-1-.49h0Z"/>
  <path class="cls-1" d="M55.66,90.36c-.75.11-1.45.63-1.81,1.34-.19.37-.21.5-.21,1.04s.02.65.23,1.05c.18.35.32.52.71.8.56.42.94.54,1.52.49.83-.07,1.6-.63,2-1.43.17-.35.19-.47.19-.99,0-.46-.04-.67-.16-.92-.25-.52-.65-.93-1.14-1.16-.48-.23-.84-.29-1.31-.22h0ZM55.24,91.16c.12.14-.04.43-.48.83-.39.37-.57.38-.57.03,0-.28.16-.56.43-.78.26-.2.49-.23.61-.09h0Z"/>
  <path class="cls-1" d="M96.8,90.37c-1.23.24-2.12,1.56-1.9,2.8.14.76.57,1.31,1.32,1.68.39.19.53.22.98.22.64,0,1.13-.21,1.63-.71.77-.77.93-1.71.45-2.72-.42-.89-1.53-1.46-2.48-1.27h0ZM96.35,91.22c.14.14.1.28-.16.67-.29.43-.53.57-.7.43-.15-.12-.13-.34.04-.63.3-.49.62-.67.82-.47h0Z"/>
  <path class="cls-1" d="M44.05,91.9c-.73.13-1.41.65-1.74,1.31-.32.66-.23,1.86.2,2.6.27.46.97,1.09,1.48,1.34.39.19.55.22,1.17.25.66.03.74.02,1.1-.15.42-.21.99-.77,1.2-1.21.11-.22.13-.42.13-1.07,0-.79,0-.82-.26-1.33-.42-.84-.97-1.37-1.72-1.63-.37-.13-1.15-.19-1.57-.11h0Z"/>
  <path class="cls-1" d="M47.26,81.05c-.73.13-1.41.65-1.74,1.31-.32.66-.23,1.86.2,2.6.27.46.97,1.09,1.48,1.34.39.19.55.22,1.17.25.66.03.74.02,1.1-.15.42-.21.99-.77,1.2-1.21.11-.22.13-.42.13-1.07,0-.79,0-.82-.26-1.33-.42-.84-.97-1.37-1.72-1.63-.37-.13-1.15-.19-1.57-.11h0Z"/>
  <path class="cls-1" d="M107.96,91.91c-.55.11-1.01.39-1.49.91-.52.55-.68.84-.85,1.52-.14.57-.09,1.28.13,1.75.36.77,1.3,1.4,2.07,1.4.89,0,1.7-.35,2.41-1.04.67-.65.89-1.15.93-2.05.03-.66.02-.7-.19-1.13-.27-.54-.78-1.02-1.32-1.22-.44-.16-1.24-.23-1.69-.14h0Z"/>
  <path class="cls-1" d="M65.19,93.22c-1.37.46-2.4,1.46-2.9,2.81-.15.4-.17.57-.17,1.49s.02,1.11.16,1.52c.45,1.33,1.4,2.29,2.83,2.86.54.21.62.23,1.45.22.8,0,.92-.02,1.45-.22.31-.12.69-.29.84-.38.39-.25,1.25-1.07,1.5-1.42.24-.35.55-1.08.68-1.59.12-.48.11-1.58-.02-2.09-.26-1.02-.98-2.06-1.8-2.6-.98-.65-1.45-.79-2.58-.79-.74,0-.94.03-1.42.19h0ZM65.24,94.26c.14.12.16.31.05.52-.08.16-1.41,1.68-1.65,1.9-.34.3-.84-.06-.75-.53.09-.5,1.01-1.64,1.55-1.93.29-.16.6-.14.81.04h0Z"/>
  <path class="cls-1" d="M85.25,93.19c-1.4.49-2.5,1.61-2.94,3-.22.71-.22,2.09,0,2.79.41,1.31,1.35,2.32,2.63,2.83,1.22.49,2.39.45,3.65-.11.32-.14.84-.54,1.25-.96.96-.99,1.36-1.93,1.36-3.2,0-.82-.13-1.41-.43-2-.61-1.21-1.48-1.95-2.78-2.38-.66-.22-2.08-.21-2.74.03h0ZM85.16,94.11c.06.02.16.13.22.24.09.18.09.22,0,.4-.06.11-.15.25-.2.3-.15.16-.62.7-1,1.14-.56.65-.86.76-1.14.42-.23-.27-.09-.72.46-1.43.63-.82,1.26-1.23,1.67-1.08h0Z"/>
</svg>