<?xml version="1.0" encoding="UTF-8"?>
<svg id="Layer_1" data-name="Layer 1" xmlns="http://www.w3.org/2000/svg" xmlns:xlink="http://www.w3.org/1999/xlink" viewBox="0 0 151.57 109.96">
  <defs>
    <style>
      .cls-1 {
        fill: none;
      }

      .cls-2 {
        fill: #afd136;
      }

      .cls-3 {
        clip-path: url(#clippath);
      }
    </style>
    <clipPath id="clippath">
      <rect class="cls-1" x="34.39" y="13.59" width="82.78" height="82.78"/>
    </clipPath>
  </defs>
  <g class="cls-3">
    <g>
      <path class="cls-2" d="M52.76.22c.41,1.02-.12,1.64-1.18,1.36-1.06-.28-2.22-1.36-2.59-2.39-.37-1.03.17-1.62,1.19-1.33,1.02.29,2.18,1.33,2.58,2.35Z"/>
      <path class="cls-2" d="M58.97,1.63c.46,1.01-.02,1.66-1.08,1.44-1.06-.22-2.28-1.24-2.71-2.26-.43-1.02.06-1.63,1.09-1.4,1.03.23,2.24,1.22,2.7,2.22Z"/>
      <path class="cls-2" d="M65.21,2.68c.51,1,.07,1.69-1,1.53-1.07-.16-2.33-1.12-2.81-2.13-.48-1-.03-1.66,1.01-1.49,1.04.17,2.29,1.09,2.8,2.08Z"/>
      <path class="cls-2" d="M71.49,3.31c.55.99.13,1.74-.94,1.65-1.07-.09-2.37-.99-2.89-1.98-.53-.99-.1-1.7.95-1.6,1.05.1,2.33.95,2.88,1.94Z"/>
      <path class="cls-2" d="M77.9,3.43c.56.98.07,1.85-1,1.84-1.07-.01-2.4-.85-2.95-1.83-.56-.98-.14-1.74.92-1.73,1.06.02,2.47.74,3.03,1.72Z"/>
      <path class="cls-2" d="M84.6,2.71c.57.99.12,1.95-1.01,2.1-1.13.15-2.51-.57-3.08-1.55-.57-.98-.1-1.87,1.02-2.02,1.13-.15,2.5.49,3.07,1.47Z"/>
      <path class="cls-2" d="M91.38,1.19c.58.99.12,2.06-1.03,2.34-1.15.28-2.55-.33-3.12-1.32-.57-.99-.1-1.98,1.04-2.26,1.14-.28,2.53.26,3.11,1.25Z"/>
      <path class="cls-2" d="M98.23-1.03c.59,1,.13,2.16-1.03,2.55s-2.58-.13-3.16-1.12c-.58-1-.11-2.09,1.04-2.49,1.15-.4,2.56.06,3.15,1.06Z"/>
      <path class="cls-2" d="M35.33.2c.19,1.09-.58,1.67-1.72,1.29-1.14-.38-2.17-1.59-2.3-2.69-.13-1.1.64-1.66,1.72-1.27,1.08.39,2.11,1.58,2.3,2.67Z"/>
      <path class="cls-2" d="M41.92,2.34c.27,1.07-.42,1.66-1.56,1.31-1.13-.35-2.23-1.52-2.46-2.59-.22-1.08.48-1.65,1.56-1.29,1.08.36,2.18,1.5,2.45,2.57Z"/>
      <path class="cls-2" d="M48.49,4.26c.35,1.05-.28,1.66-1.41,1.35-1.13-.31-2.29-1.43-2.6-2.49-.3-1.06.33-1.64,1.42-1.32,1.08.32,2.24,1.41,2.59,2.46Z"/>
      <path class="cls-2" d="M55.05,5.9c.42,1.03-.15,1.67-1.27,1.4-1.12-.26-2.34-1.33-2.72-2.37-.38-1.04.2-1.65,1.28-1.37,1.08.27,2.3,1.31,2.71,2.34Z"/>
      <path class="cls-2" d="M61.58,7.23c.48,1.01-.03,1.68-1.15,1.47-1.12-.21-2.39-1.22-2.83-2.25-.44-1.02.08-1.66,1.16-1.44,1.08.22,2.34,1.2,2.82,2.21Z"/>
      <path class="cls-2" d="M68.09,8.21c.53,1,.06,1.71-1.05,1.56-1.11-.15-2.42-1.11-2.92-2.11-.5-1.01-.02-1.68,1.06-1.52,1.08.16,2.38,1.07,2.91,2.08Z"/>
      <path class="cls-2" d="M74.57,8.79c.57.99.14,1.75-.96,1.67-1.1-.08-2.44-.98-2.99-1.97-.55-1-.11-1.71.97-1.62,1.08.09,2.41.94,2.98,1.93Z"/>
      <path class="cls-2" d="M81.09,8.89c.59.99.13,1.84-.96,1.84-1.09,0-2.46-.84-3.03-1.83-.58-.99-.17-1.76.91-1.74,1.08.01,2.5.75,3.09,1.73Z"/>
      <path class="cls-2" d="M87.82,8.19c.59.99.15,1.95-.98,2.09-1.14.14-2.54-.58-3.13-1.57-.59-.99-.15-1.87.99-2.02,1.13-.15,2.53.5,3.13,1.49Z"/>
      <path class="cls-2" d="M94.65,6.71c.6,1,.16,2.06-1,2.33-1.15.27-2.58-.35-3.17-1.34-.6-.99-.15-1.99,1-2.26,1.15-.28,2.57.27,3.17,1.27Z"/>
      <path class="cls-2" d="M101.56,4.53c.61,1,.16,2.16-1.01,2.55-1.17.39-2.61-.14-3.22-1.14-.61-1-.15-2.1,1.01-2.49,1.16-.39,2.6.08,3.21,1.08Z"/>
      <path class="cls-2" d="M108.55,1.73c.63,1.01.18,2.26-1.01,2.74-1.18.49-2.64.04-3.26-.97-.62-1.01-.16-2.2,1.01-2.69,1.18-.49,2.63-.1,3.26.91Z"/>
      <path class="cls-2" d="M115.6-1.62c.64,1.02.19,2.34-1,2.92-1.19.58-2.68.2-3.31-.82-.63-1.02-.18-2.29,1.01-2.87,1.19-.58,2.66-.25,3.3.77Z"/>
      <path class="cls-2" d="M14.98-.77c-.1,1.16-1.18,1.77-2.42,1.36-1.24-.41-2.12-1.71-1.96-2.89.16-1.18,1.24-1.78,2.42-1.35,1.18.43,2.05,1.72,1.96,2.88Z"/>
      <path class="cls-2" d="M22.14,1.68c0,1.14-.99,1.74-2.23,1.34-1.23-.4-2.19-1.67-2.13-2.82.06-1.15,1.06-1.75,2.23-1.33,1.18.42,2.13,1.67,2.13,2.81Z"/>
      <path class="cls-2" d="M29.28,4.03c.1,1.11-.82,1.71-2.05,1.33-1.23-.38-2.26-1.62-2.3-2.75-.04-1.13.88-1.71,2.05-1.32,1.17.4,2.2,1.62,2.3,2.73Z"/>
      <path class="cls-2" d="M36.38,6.24c.19,1.09-.64,1.69-1.87,1.33-1.22-.36-2.32-1.56-2.46-2.66-.13-1.11.7-1.69,1.87-1.32,1.17.37,2.26,1.55,2.45,2.64Z"/>
      <path class="cls-2" d="M43.44,8.26c.28,1.07-.48,1.68-1.69,1.35-1.21-.33-2.38-1.48-2.6-2.57-.22-1.08.54-1.67,1.7-1.33,1.16.34,2.32,1.47,2.6,2.54Z"/>
      <path class="cls-2" d="M50.44,10.07c.35,1.05-.33,1.68-1.53,1.39-1.2-.29-2.43-1.4-2.74-2.46-.31-1.06.38-1.67,1.54-1.36,1.15.3,2.37,1.39,2.73,2.44Z"/>
      <path class="cls-2" d="M57.39,11.61c.43,1.03-.19,1.68-1.38,1.44-1.19-.25-2.47-1.3-2.85-2.35-.38-1.04.24-1.67,1.38-1.41,1.15.26,2.42,1.29,2.84,2.32Z"/>
      <path class="cls-2" d="M64.26,12.85c.49,1.02-.06,1.7-1.24,1.5-1.17-.19-2.5-1.2-2.95-2.22-.45-1.03.11-1.68,1.25-1.47,1.14.2,2.45,1.18,2.94,2.19Z"/>
      <path class="cls-2" d="M71.05,13.76c.54,1,.05,1.72-1.11,1.59-1.16-.14-2.51-1.08-3.02-2.1-.51-1.01,0-1.7,1.12-1.55,1.13.14,2.47,1.06,3.01,2.06Z"/>
      <path class="cls-2" d="M77.75,14.29c.58.99.14,1.76-1,1.69-1.14-.07-2.52-.96-3.07-1.96-.56-1-.1-1.73,1.02-1.65,1.11.08,2.48.93,3.06,1.92Z"/>
      <path class="cls-2" d="M84.4,14.37c.6.99.17,1.84-.95,1.83-1.12,0-2.51-.83-3.1-1.82-.59-.99-.17-1.77.93-1.76,1.1,0,2.52.76,3.12,1.74Z"/>
      <path class="cls-2" d="M91.16,13.69c.61.99.17,1.95-.98,2.09-1.14.14-2.56-.59-3.16-1.58-.6-.99-.17-1.87.97-2.02,1.14-.14,2.56.51,3.17,1.5Z"/>
      <path class="cls-2" d="M98.03,12.24c.62,1,.17,2.06-.99,2.33-1.16.27-2.6-.36-3.21-1.35-.61-1-.17-1.99.99-2.26,1.16-.27,2.6.29,3.22,1.29Z"/>
      <path class="cls-2" d="M105,10.1c.63,1.01.18,2.16-1,2.54-1.18.38-2.64-.16-3.26-1.16-.62-1-.17-2.1,1-2.48,1.17-.38,2.63.09,3.26,1.1Z"/>
      <path class="cls-2" d="M112.06,7.35c.64,1.02.19,2.25-1.01,2.73-1.19.48-2.67.02-3.31-.99-.63-1.01-.18-2.2,1-2.68,1.19-.49,2.67-.08,3.31.93Z"/>
      <path class="cls-2" d="M119.19,4.06c.65,1.03.2,2.34-1,2.91-1.21.57-2.71.18-3.35-.84-.65-1.02-.2-2.29,1-2.86,1.2-.57,2.7-.23,3.35.79Z"/>
      <path class="cls-2" d="M126.39.31c.67,1.04.22,2.41-.99,3.06-1.22.64-2.74.31-3.4-.72-.66-1.03-.21-2.37.99-3.02,1.21-.65,2.73-.35,3.4.68Z"/>
      <path class="cls-2" d="M6.72,3.31c-.2,1.19-1.44,1.84-2.77,1.44-1.34-.4-2.21-1.69-1.95-2.9C2.25.64,3.5,0,4.77.41c1.27.41,2.14,1.71,1.95,2.9Z"/>
      <path class="cls-2" d="M14.45,5.69c-.1,1.17-1.25,1.8-2.59,1.4-1.33-.39-2.29-1.67-2.13-2.85.16-1.18,1.32-1.81,2.59-1.4,1.27.41,2.22,1.68,2.13,2.84Z"/>
      <path class="cls-2" d="M22.16,8c0,1.14-1.07,1.76-2.4,1.38-1.33-.38-2.36-1.63-2.3-2.78.06-1.16,1.13-1.77,2.4-1.37,1.27.39,2.29,1.63,2.3,2.77Z"/>
      <path class="cls-2" d="M29.82,10.21c.1,1.12-.89,1.73-2.21,1.37-1.32-.36-2.42-1.58-2.46-2.71-.04-1.13.95-1.74,2.21-1.36,1.26.38,2.36,1.58,2.46,2.7Z"/>
      <path class="cls-2" d="M37.43,12.29c.19,1.09-.71,1.71-2.02,1.37-1.31-.34-2.48-1.52-2.61-2.62-.13-1.11.77-1.71,2.02-1.36,1.25.35,2.42,1.52,2.61,2.61Z"/>
      <path class="cls-2" d="M44.97,14.2c.28,1.07-.54,1.7-1.83,1.39-1.29-.31-2.53-1.44-2.75-2.53-.22-1.08.6-1.69,1.84-1.37,1.24.32,2.47,1.44,2.74,2.51Z"/>
      <path class="cls-2" d="M52.41,15.89c.36,1.05-.38,1.69-1.66,1.42-1.27-.27-2.56-1.36-2.87-2.43-.31-1.06.44-1.68,1.67-1.4,1.23.28,2.51,1.35,2.86,2.41Z"/>
      <path class="cls-2" d="M59.75,17.33c.43,1.03-.24,1.7-1.49,1.47-1.25-.23-2.59-1.27-2.97-2.32-.38-1.04.29-1.68,1.5-1.44,1.21.24,2.53,1.26,2.96,2.29Z"/>
      <path class="cls-2" d="M66.97,18.49c.49,1.02-.1,1.71-1.33,1.53-1.23-.18-2.6-1.17-3.05-2.2-.45-1.03.15-1.69,1.35-1.5,1.19.19,2.55,1.15,3.04,2.17Z"/>
      <path class="cls-2" d="M74.05,19.32c.54,1,.01,1.73-1.19,1.61-1.2-.13-2.6-1.06-3.11-2.07-.51-1.01.03-1.71,1.2-1.57,1.17.13,2.56,1.04,3.1,2.04Z"/>
      <path class="cls-2" d="M80.98,19.79c.58.99.11,1.77-1.06,1.7-1.17-.06-2.58-.94-3.14-1.94-.56-1-.07-1.74,1.08-1.67,1.15.07,2.55.91,3.13,1.91Z"/>
      <path class="cls-2" d="M87.74,19.85c.6.99.18,1.82-.96,1.83-1.14,0-2.55-.82-3.15-1.81-.59-.99-.16-1.77.97-1.77,1.12,0,2.54.76,3.14,1.75Z"/>
      <path class="cls-2" d="M94.54,19.19c.61.99.17,1.95-.99,2.08-1.15.14-2.57-.59-3.18-1.59-.61-.99-.17-1.87.97-2.01,1.15-.14,2.58.52,3.19,1.51Z"/>
      <path class="cls-2" d="M101.47,17.78c.62,1,.17,2.05-1.01,2.31-1.17.26-2.61-.37-3.23-1.37-.61-1-.17-1.98.99-2.25,1.17-.26,2.62.3,3.24,1.3Z"/>
      <path class="cls-2" d="M108.5,15.68c.63,1.01.17,2.15-1.02,2.53-1.19.37-2.66-.17-3.28-1.17-.62-1-.18-2.09,1.01-2.47,1.18-.38,2.66.1,3.29,1.11Z"/>
      <path class="cls-2" d="M115.62,12.97c.64,1.02.18,2.25-1.03,2.72-1.21.47-2.69,0-3.33-1-.64-1.01-.18-2.19,1.02-2.67,1.2-.48,2.7-.07,3.34.95Z"/>
      <path class="cls-2" d="M122.83,9.74c.66,1.03.2,2.33-1.02,2.89-1.22.56-2.73.16-3.38-.86-.65-1.02-.2-2.28,1.02-2.85,1.21-.56,2.73-.21,3.39.81Z"/>
      <path class="cls-2" d="M130.11,6.05c.67,1.04.21,2.41-1.02,3.04-1.23.63-2.77.29-3.43-.74-.66-1.03-.21-2.36,1.01-3,1.22-.64,2.76-.34,3.44.7Z"/>
      <path class="cls-2" d="M137.45,1.97c.69,1.05.24,2.47-1.01,3.17-1.24.69-2.8.4-3.48-.64-.68-1.04-.23-2.44,1-3.14,1.23-.7,2.79-.43,3.48.61Z"/>
      <path class="cls-2" d="M144.84-2.4c.71,1.06.26,2.53-.99,3.27-1.25.74-2.83.48-3.52-.57-.7-1.05-.26-2.5.98-3.25,1.24-.75,2.82-.51,3.53.55Z"/>
      <path class="cls-2" d="M5.63,9.9c-.19,1.19-1.51,1.85-2.94,1.47-1.43-.37-2.38-1.65-2.13-2.85.26-1.2,1.57-1.86,2.94-1.48,1.37.39,2.32,1.67,2.12,2.85Z"/>
      <path class="cls-2" d="M13.92,12.13c-.09,1.16-1.32,1.81-2.75,1.44-1.43-.37-2.46-1.62-2.3-2.8.16-1.18,1.39-1.82,2.76-1.44,1.36.38,2.39,1.63,2.3,2.8Z"/>
      <path class="cls-2" d="M22.17,14.31c0,1.14-1.14,1.77-2.56,1.42-1.42-.36-2.53-1.58-2.47-2.73.06-1.15,1.21-1.78,2.56-1.41,1.36.37,2.46,1.59,2.46,2.73Z"/>
      <path class="cls-2" d="M30.37,16.39c.1,1.11-.96,1.74-2.36,1.4s-2.58-1.53-2.62-2.66c-.04-1.13,1.02-1.75,2.37-1.4,1.35.35,2.52,1.54,2.62,2.65Z"/>
      <path class="cls-2" d="M38.48,18.34c.19,1.09-.78,1.72-2.17,1.41-1.39-.32-2.63-1.47-2.77-2.58-.13-1.1.84-1.72,2.18-1.39,1.34.33,2.57,1.48,2.76,2.57Z"/>
      <path class="cls-2" d="M46.49,20.12c.27,1.07-.61,1.71-1.98,1.42-1.37-.29-2.67-1.41-2.89-2.49-.22-1.08.67-1.71,1.99-1.41,1.32.3,2.61,1.4,2.88,2.47Z"/>
      <path class="cls-2" d="M54.38,21.71c.35,1.05-.45,1.7-1.79,1.45-1.35-.25-2.69-1.33-3-2.39-.31-1.06.5-1.7,1.8-1.43,1.3.27,2.63,1.32,2.99,2.37Z"/>
      <path class="cls-2" d="M62.11,23.05c.42,1.03-.3,1.71-1.61,1.49-1.32-.21-2.7-1.24-3.08-2.28-.38-1.04.35-1.69,1.63-1.47,1.28.22,2.65,1.23,3.07,2.26Z"/>
      <path class="cls-2" d="M69.67,24.12c.48,1.02-.16,1.72-1.44,1.55-1.29-.17-2.7-1.14-3.15-2.17-.45-1.02.21-1.7,1.46-1.52,1.25.18,2.65,1.13,3.13,2.14Z"/>
      <path class="cls-2" d="M77.04,24.88c.54,1-.04,1.74-1.28,1.62-1.25-.11-2.68-1.04-3.18-2.05-.51-1.01.08-1.72,1.3-1.59,1.22.12,2.63,1.02,3.17,2.02Z"/>
      <path class="cls-2" d="M84.19,25.3c.58.99.07,1.77-1.14,1.71-1.21-.06-2.64-.93-3.2-1.92-.55-1-.03-1.74,1.15-1.68,1.18.06,2.61.9,3.18,1.89Z"/>
      <path class="cls-2" d="M91.08,25.33c.6.99.18,1.81-.98,1.82-1.16,0-2.59-.8-3.18-1.79-.59-.99-.13-1.78,1.02-1.78,1.15,0,2.54.77,3.14,1.76Z"/>
      <path class="cls-2" d="M97.91,24.7c.6.99.14,1.94-1.02,2.07-1.16.13-2.57-.6-3.17-1.59-.6-.99-.16-1.87.99-2,1.15-.13,2.59.53,3.19,1.52Z"/>
      <path class="cls-2" d="M104.88,23.32c.61,1,.14,2.05-1.04,2.3-1.18.25-2.62-.38-3.23-1.37-.61-.99-.15-1.98,1.02-2.24,1.18-.26,2.63.31,3.24,1.31Z"/>
      <path class="cls-2" d="M111.97,21.26c.62,1.01.14,2.15-1.06,2.51-1.2.37-2.66-.18-3.28-1.18-.62-1-.16-2.08,1.04-2.45s2.68.12,3.3,1.12Z"/>
      <path class="cls-2" d="M119.17,18.6c.63,1.01.15,2.24-1.07,2.7-1.22.46-2.71,0-3.33-1.01-.63-1.01-.16-2.18,1.05-2.65,1.21-.47,2.72-.05,3.35.96Z"/>
      <path class="cls-2" d="M126.45,15.42c.65,1.02.17,2.32-1.07,2.87-1.23.55-2.74.15-3.39-.87-.64-1.02-.17-2.27,1.05-2.83,1.23-.56,2.75-.2,3.4.83Z"/>
      <path class="cls-2" d="M133.82,11.78c.66,1.03.18,2.39-1.06,3.02-1.25.62-2.78.28-3.44-.75-.65-1.03-.19-2.35,1.05-2.98,1.24-.63,2.79-.32,3.45.72Z"/>
      <path class="cls-2" d="M141.25,7.77c.68,1.05.2,2.46-1.05,3.14-1.26.68-2.81.38-3.48-.66-.67-1.04-.21-2.43,1.04-3.12,1.25-.69,2.82-.42,3.5.63Z"/>
      <path class="cls-2" d="M148.74,3.46c.7,1.06.23,2.52-1.04,3.25-1.27.73-2.84.46-3.53-.59-.69-1.05-.23-2.49,1.02-3.23,1.26-.74,2.85-.49,3.54.57Z"/>
      <path class="cls-2" d="M156.26-1.07c.72,1.07.26,2.56-1.02,3.33-1.27.77-2.87.52-3.57-.54-.7-1.06-.26-2.54,1-3.32,1.26-.77,2.87-.54,3.59.53Z"/>
      <path class="cls-2" d="M4.56,16.46c-.19,1.18-1.57,1.85-3.09,1.5-1.52-.35-2.56-1.6-2.31-2.79.25-1.19,1.64-1.87,3.1-1.5,1.46.36,2.49,1.62,2.3,2.79Z"/>
      <path class="cls-2" d="M13.4,18.55c-.09,1.15-1.39,1.81-2.91,1.46-1.52-.34-2.63-1.57-2.48-2.74.15-1.17,1.46-1.83,2.91-1.47,1.46.36,2.56,1.59,2.47,2.74Z"/>
      <path class="cls-2" d="M22.2,20.59c0,1.13-1.21,1.77-2.72,1.44-1.51-.33-2.69-1.53-2.64-2.68.05-1.14,1.27-1.79,2.72-1.44,1.45.35,2.62,1.55,2.63,2.67Z"/>
      <path class="cls-2" d="M30.91,22.54c.1,1.11-1.03,1.75-2.52,1.43-1.49-.32-2.74-1.49-2.78-2.61-.04-1.12,1.09-1.76,2.53-1.42,1.44.33,2.68,1.49,2.77,2.6Z"/>
      <path class="cls-2" d="M39.52,24.36c.19,1.08-.85,1.73-2.32,1.43-1.47-.3-2.78-1.43-2.91-2.53-.13-1.1.91-1.73,2.33-1.42,1.42.31,2.72,1.43,2.9,2.52Z"/>
      <path class="cls-2" d="M48,26.03c.27,1.06-.68,1.71-2.13,1.44-1.45-.27-2.8-1.36-3.02-2.44-.22-1.08.74-1.71,2.14-1.43,1.4.28,2.74,1.36,3.01,2.43Z"/>
      <path class="cls-2" d="M56.31,27.5c.35,1.04-.52,1.71-1.93,1.47-1.42-.24-2.81-1.29-3.11-2.34-.3-1.05.57-1.7,1.95-1.45,1.37.25,2.76,1.28,3.1,2.33Z"/>
      <path class="cls-2" d="M64.43,28.75c.41,1.03-.36,1.71-1.74,1.51-1.38-.2-2.81-1.21-3.18-2.24-.37-1.04.42-1.7,1.76-1.49,1.34.21,2.76,1.2,3.17,2.22Z"/>
      <path class="cls-2" d="M72.32,29.74c.47,1.01-.22,1.72-1.56,1.57-1.34-.15-2.79-1.11-3.22-2.13-.44-1.02.27-1.7,1.58-1.54,1.3.16,2.74,1.1,3.21,2.11Z"/>
      <path class="cls-2" d="M79.97,30.43c.52,1-.1,1.74-1.39,1.64-1.29-.1-2.75-1.01-3.24-2.02s.14-1.72,1.4-1.61c1.26.11,2.71.99,3.23,1.99Z"/>
      <path class="cls-2" d="M87.33,30.79c.56.99.01,1.77-1.23,1.72-1.24-.05-2.69-.91-3.23-1.9-.54-.99.02-1.74,1.24-1.69,1.22.05,2.65.88,3.21,1.87Z"/>
      <path class="cls-2" d="M94.34,30.8c.58.99.16,1.79-1.03,1.81-1.18.01-2.62-.79-3.18-1.78s-.08-1.78,1.1-1.79c1.17-.01,2.54.77,3.12,1.76Z"/>
      <path class="cls-2" d="M101.21,30.19c.58.99.1,1.93-1.06,2.06-1.16.13-2.56-.6-3.14-1.59-.58-.99-.12-1.86,1.04-1.99,1.16-.13,2.59.53,3.17,1.52Z"/>
      <path class="cls-2" d="M108.23,28.84c.59,1,.1,2.03-1.09,2.28-1.19.25-2.61-.38-3.2-1.38-.59-.99-.12-1.97,1.07-2.22,1.18-.25,2.64.32,3.23,1.31Z"/>
      <path class="cls-2" d="M115.37,26.82c.6,1,.1,2.13-1.11,2.49-1.21.36-2.66-.19-3.26-1.19-.6-1-.12-2.07,1.09-2.44,1.2-.36,2.68.13,3.28,1.13Z"/>
      <path class="cls-2" d="M122.64,24.21c.61,1.01.1,2.22-1.13,2.68-1.23.46-2.71-.01-3.31-1.02s-.12-2.17,1.1-2.63c1.22-.46,2.72-.04,3.34.97Z"/>
      <path class="cls-2" d="M130,21.08c.63,1.02.11,2.3-1.13,2.84-1.25.54-2.75.14-3.37-.88-.62-1.01-.13-2.26,1.11-2.8,1.24-.55,2.76-.18,3.39.84Z"/>
      <path class="cls-2" d="M137.45,17.5c.64,1.03.13,2.38-1.13,2.99-1.26.61-2.79.26-3.42-.76-.63-1.02-.14-2.34,1.11-2.96,1.25-.62,2.8-.3,3.44.73Z"/>
      <path class="cls-2" d="M144.97,13.56c.66,1.04.15,2.44-1.12,3.12-1.27.67-2.82.37-3.47-.67-.65-1.03-.16-2.41,1.1-3.09,1.26-.68,2.83-.4,3.49.64Z"/>
      <path class="cls-2" d="M152.55,9.31c.68,1.05.17,2.5-1.11,3.22-1.28.72-2.85.45-3.52-.6s-.18-2.47,1.09-3.2c1.27-.73,2.86-.47,3.54.58Z"/>
      <path class="cls-2" d="M3.55,22.95c-.18,1.16-1.62,1.84-3.23,1.51-1.61-.33-2.73-1.54-2.49-2.72.24-1.18,1.69-1.86,3.24-1.52,1.55.34,2.66,1.57,2.48,2.73Z"/>
      <path class="cls-2" d="M12.92,24.91c-.08,1.14-1.45,1.8-3.05,1.48-1.61-.32-2.8-1.52-2.66-2.67.14-1.15,1.52-1.82,3.06-1.49,1.55.34,2.73,1.54,2.65,2.68Z"/>
      <path class="cls-2" d="M22.23,26.82c0,1.12-1.27,1.77-2.87,1.46-1.59-.31-2.85-1.48-2.8-2.61.05-1.13,1.34-1.78,2.88-1.46,1.54.33,2.79,1.5,2.79,2.61Z"/>
      <path class="cls-2" d="M31.45,28.64c.1,1.09-1.1,1.74-2.67,1.45-1.58-.3-2.89-1.44-2.94-2.54-.04-1.11,1.16-1.75,2.68-1.44,1.52.31,2.83,1.45,2.93,2.54Z"/>
      <path class="cls-2" d="M40.54,30.34c.18,1.07-.92,1.72-2.47,1.45-1.55-.28-2.92-1.38-3.05-2.47-.13-1.09.99-1.73,2.49-1.44,1.5.29,2.86,1.39,3.04,2.46Z"/>
      <path class="cls-2" d="M49.47,31.89c.26,1.05-.75,1.71-2.27,1.46-1.52-.25-2.93-1.32-3.15-2.39-.21-1.07.81-1.71,2.29-1.45,1.47.26,2.87,1.32,3.13,2.38Z"/>
      <path class="cls-2" d="M58.19,33.26c.33,1.03-.59,1.7-2.07,1.48-1.48-.22-2.93-1.25-3.22-2.3-.29-1.05.65-1.7,2.09-1.47,1.44.23,2.87,1.25,3.2,2.28Z"/>
      <path class="cls-2" d="M66.68,34.42c.4,1.02-.44,1.71-1.88,1.52-1.44-.18-2.91-1.17-3.27-2.2-.36-1.03.49-1.7,1.89-1.51,1.4.19,2.85,1.16,3.25,2.18Z"/>
      <path class="cls-2" d="M74.89,35.32c.45,1-.3,1.72-1.69,1.58-1.39-.14-2.87-1.08-3.29-2.1-.42-1.01.35-1.7,1.7-1.56,1.36.15,2.82,1.07,3.27,2.08Z"/>
      <path class="cls-2" d="M82.8,35.95c.5.99-.17,1.74-1.5,1.64-1.33-.09-2.81-.99-3.28-1.99-.47-1,.21-1.72,1.52-1.62,1.31.1,2.76.97,3.26,1.96Z"/>
      <path class="cls-2" d="M90.36,36.26c.53.98-.06,1.76-1.33,1.73-1.27-.04-2.73-.89-3.24-1.88-.51-.99.09-1.74,1.35-1.7,1.25.04,2.69.86,3.22,1.85Z"/>
      <path class="cls-2" d="M97.47,36.25c.55.98.11,1.78-1.09,1.8-1.2.02-2.63-.78-3.17-1.76-.54-.98,0-1.78,1.18-1.79,1.19-.02,2.53.77,3.07,1.75Z"/>
      <path class="cls-2" d="M104.37,35.66c.56.99.04,1.92-1.13,2.04-1.17.12-2.55-.61-3.1-1.59-.55-.98-.07-1.85,1.1-1.97,1.17-.13,2.58.54,3.13,1.52Z"/>
      <path class="cls-2" d="M111.43,34.34c.56.99.03,2.02-1.17,2.26-1.2.24-2.6-.39-3.16-1.38-.56-.99-.06-1.96,1.13-2.2,1.19-.25,2.63.33,3.19,1.32Z"/>
      <path class="cls-2" d="M118.63,32.36c.57,1,.03,2.12-1.19,2.47-1.22.35-2.65-.19-3.22-1.19-.57-.99-.06-2.06,1.16-2.42,1.21-.36,2.68.14,3.25,1.13Z"/>
      <path class="cls-2" d="M125.96,29.79c.58,1,.03,2.2-1.21,2.65-1.24.45-2.7-.02-3.27-1.02-.58-1-.06-2.15,1.17-2.61s2.72-.03,3.31.98Z"/>
      <path class="cls-2" d="M133.4,26.71c.6,1.01.04,2.28-1.22,2.82-1.26.53-2.74.13-3.33-.88-.59-1.01-.07-2.24,1.19-2.78,1.25-.54,2.76-.17,3.36.84Z"/>
      <path class="cls-2" d="M140.92,23.19c.61,1.02.06,2.36-1.22,2.96-1.28.6-2.78.25-3.38-.76-.6-1.02-.08-2.32,1.19-2.93,1.27-.61,2.8-.29,3.41.73Z"/>
      <path class="cls-2" d="M148.53,19.3c.63,1.03.07,2.42-1.21,3.08-1.29.66-2.82.36-3.43-.67-.62-1.03-.09-2.39,1.19-3.06,1.28-.67,2.84-.39,3.46.65Z"/>
      <path class="cls-2" d="M156.2,15.12c.64,1.04.09,2.47-1.2,3.18-1.3.71-2.85.43-3.48-.6-.63-1.04-.11-2.45,1.17-3.17,1.29-.72,2.87-.46,3.51.59Z"/>
      <path class="cls-2" d="M2.6,29.35c-.16,1.15-1.67,1.82-3.36,1.52-1.7-.3-2.9-1.49-2.68-2.64.22-1.16,1.73-1.85,3.37-1.53,1.64.32,2.83,1.51,2.67,2.66Z"/>
      <path class="cls-2" d="M12.48,31.18c-.08,1.12-1.5,1.78-3.19,1.48-1.69-.3-2.96-1.46-2.83-2.6.13-1.14,1.57-1.81,3.2-1.49,1.63.31,2.89,1.48,2.82,2.61Z"/>
      <path class="cls-2" d="M22.29,32.96c.01,1.1-1.33,1.75-3.01,1.46-1.68-.29-3.01-1.43-2.97-2.54.04-1.11,1.4-1.77,3.02-1.47,1.62.3,2.94,1.45,2.95,2.55Z"/>
      <path class="cls-2" d="M31.99,34.66c.1,1.08-1.16,1.73-2.81,1.45-1.65-.28-3.04-1.39-3.08-2.48-.05-1.09,1.22-1.74,2.83-1.45,1.6.29,2.98,1.4,3.07,2.48Z"/>
      <path class="cls-2" d="M41.53,36.25c.18,1.06-.99,1.71-2.62,1.45-1.63-.26-3.05-1.34-3.18-2.41-.13-1.07,1.05-1.72,2.63-1.45,1.58.27,2.99,1.34,3.17,2.4Z"/>
      <path class="cls-2" d="M50.88,37.7c.25,1.04-.83,1.7-2.42,1.47-1.59-.23-3.05-1.28-3.26-2.33-.21-1.05.89-1.7,2.43-1.46,1.54.24,2.99,1.28,3.24,2.32Z"/>
      <path class="cls-2" d="M60,38.97c.32,1.02-.67,1.69-2.22,1.49-1.55-.2-3.03-1.21-3.31-2.24-.28-1.03.73-1.69,2.23-1.48,1.51.21,2.98,1.21,3.29,2.23Z"/>
      <path class="cls-2" d="M68.83,40.03c.38,1.01-.52,1.7-2.02,1.53-1.49-.17-2.99-1.14-3.33-2.15-.34-1.02.57-1.69,2.03-1.51,1.46.18,2.94,1.13,3.32,2.14Z"/>
      <path class="cls-2" d="M77.34,40.86c.43,1-.38,1.71-1.82,1.58-1.44-.13-2.93-1.05-3.33-2.06-.4-1,.43-1.7,1.83-1.56,1.41.14,2.89,1.04,3.31,2.04Z"/>
      <path class="cls-2" d="M85.48,41.43c.47.99-.25,1.73-1.62,1.64-1.37-.08-2.85-.96-3.3-1.96-.44-.99.29-1.71,1.64-1.62,1.35.09,2.81.95,3.28,1.93Z"/>
      <path class="cls-2" d="M93.22,41.7c.5.98-.14,1.76-1.44,1.72-1.3-.03-2.75-.87-3.23-1.85-.48-.98.18-1.74,1.46-1.7,1.28.04,2.71.85,3.21,1.82Z"/>
      <path class="cls-2" d="M100.41,41.67c.51.98.05,1.76-1.17,1.78-1.22.02-2.62-.76-3.12-1.74-.5-.98.07-1.77,1.28-1.79,1.21-.02,2.5.77,3.01,1.75Z"/>
      <path class="cls-2" d="M107.34,41.1c.51.98-.04,1.9-1.22,2.02-1.17.12-2.52-.61-3.03-1.58-.51-.98,0-1.83,1.17-1.96,1.17-.12,2.56.54,3.07,1.52Z"/>
      <path class="cls-2" d="M114.44,39.81c.52.98-.05,2-1.26,2.24-1.2.24-2.58-.39-3.09-1.37-.52-.98.02-1.94,1.21-2.18,1.2-.24,2.61.33,3.13,1.31Z"/>
      <path class="cls-2" d="M121.69,37.86c.53.99-.06,2.1-1.29,2.44-1.23.35-2.63-.2-3.15-1.18-.52-.99.02-2.04,1.24-2.39,1.22-.35,2.66.14,3.19,1.13Z"/>
      <path class="cls-2" d="M129.08,35.34c.54,1-.06,2.18-1.31,2.62-1.25.44-2.68-.03-3.21-1.02-.53-.99.02-2.13,1.27-2.58,1.24-.45,2.71-.02,3.25.97Z"/>
      <path class="cls-2" d="M136.58,32.3c.55,1-.05,2.26-1.32,2.79-1.27.52-2.72.12-3.27-.88-.54-1,.02-2.22,1.28-2.75,1.26-.53,2.75-.16,3.31.84Z"/>
      <path class="cls-2" d="M144.19,28.83c.57,1.01-.04,2.33-1.33,2.93-1.29.59-2.76.25-3.32-.76-.56-1.01,0-2.3,1.29-2.9,1.28-.6,2.79-.28,3.36.73Z"/>
      <path class="cls-2" d="M151.88,25c.58,1.02-.02,2.39-1.33,3.05-1.3.65-2.8.35-3.37-.67-.57-1.02,0-2.36,1.29-3.02,1.29-.66,2.83-.38,3.41.65Z"/>
      <path class="cls-2" d="M1.73,35.63c-.15,1.12-1.7,1.79-3.47,1.51-1.77-.28-3.06-1.43-2.86-2.56.2-1.13,1.76-1.82,3.49-1.52,1.72.3,2.99,1.46,2.85,2.58Z"/>
      <path class="cls-2" d="M12.09,37.34c-.06,1.1-1.54,1.76-3.31,1.48-1.77-.28-3.12-1.4-3-2.52s1.61-1.78,3.32-1.49c1.72.29,3.05,1.43,2.99,2.53Z"/>
      <path class="cls-2" d="M22.37,39c.02,1.08-1.38,1.73-3.13,1.46-1.75-.27-3.15-1.37-3.12-2.47.03-1.09,1.45-1.75,3.15-1.47,1.7.28,3.09,1.39,3.11,2.47Z"/>
      <path class="cls-2" d="M32.52,40.59c.09,1.06-1.22,1.71-2.95,1.45-1.73-.26-3.17-1.33-3.22-2.41-.05-1.07,1.28-1.72,2.96-1.45s3.11,1.35,3.21,2.41Z"/>
      <path class="cls-2" d="M42.49,42.07c.17,1.04-1.06,1.69-2.76,1.45-1.69-.24-3.18-1.29-3.3-2.34-.12-1.05,1.12-1.7,2.77-1.45,1.65.25,3.12,1.3,3.29,2.34Z"/>
      <path class="cls-2" d="M52.23,43.42c.24,1.02-.9,1.68-2.56,1.46-1.65-.22-3.16-1.23-3.36-2.27-.2-1.03.96-1.69,2.57-1.46,1.61.23,3.1,1.24,3.34,2.26Z"/>
      <path class="cls-2" d="M61.7,44.6c.3,1.01-.75,1.68-2.36,1.49-1.6-.19-3.12-1.17-3.38-2.19-.26-1.02.81-1.68,2.37-1.48,1.57.2,3.07,1.17,3.37,2.18Z"/>
      <path class="cls-2" d="M70.85,45.59c.35,1-.61,1.68-2.15,1.53-1.54-.16-3.06-1.1-3.38-2.1-.32-1,.66-1.68,2.17-1.51,1.51.16,3.02,1.1,3.37,2.09Z"/>
      <path class="cls-2" d="M79.62,46.35c.39.98-.47,1.69-1.95,1.58-1.48-.12-2.98-1.02-3.35-2.01-.37-.99.52-1.69,1.97-1.56,1.45.12,2.94,1.02,3.33,2Z"/>
      <path class="cls-2" d="M87.97,46.86c.43.98-.35,1.71-1.75,1.64-1.4-.08-2.88-.94-3.29-1.92-.41-.98.39-1.7,1.77-1.62,1.38.08,2.84.93,3.27,1.9Z"/>
      <path class="cls-2" d="M95.85,47.09c.45.97-.24,1.74-1.56,1.72-1.32-.03-2.75-.85-3.19-1.82-.44-.97.27-1.73,1.58-1.69,1.3.03,2.72.83,3.17,1.8Z"/>
      <path class="cls-2" d="M103.1,47.06c.46.97-.04,1.74-1.27,1.77-1.22.02-2.6-.75-3.05-1.72-.46-.97.17-1.76,1.39-1.78,1.22-.02,2.47.77,2.93,1.74Z"/>
      <path class="cls-2" d="M110.05,46.5c.46.97-.14,1.88-1.32,2-1.18.12-2.48-.6-2.94-1.57-.46-.97.09-1.82,1.27-1.94,1.18-.12,2.53.54,2.99,1.51Z"/>
      <path class="cls-2" d="M117.19,45.23c.47.97-.16,1.98-1.37,2.22-1.21.24-2.54-.39-3.01-1.36-.47-.97.11-1.92,1.32-2.16,1.21-.24,2.59.33,3.06,1.31Z"/>
      <path class="cls-2" d="M124.48,43.32c.48.98-.16,2.07-1.4,2.41-1.24.34-2.6-.2-3.07-1.17-.47-.98.12-2.02,1.35-2.37,1.23-.34,2.64.15,3.12,1.12Z"/>
      <path class="cls-2" d="M131.92,40.83c.49.99-.17,2.16-1.43,2.59s-2.65-.03-3.13-1.01c-.48-.98.12-2.11,1.38-2.55,1.25-.44,2.69-.02,3.17.97Z"/>
      <path class="cls-2" d="M139.49,37.84c.5.99-.16,2.23-1.45,2.75-1.28.52-2.69.12-3.18-.87-.49-.99.12-2.19,1.4-2.72,1.27-.52,2.73-.16,3.23.84Z"/>
      <path class="cls-2" d="M147.17,34.42c.51,1-.16,2.3-1.46,2.89-1.3.59-2.74.24-3.24-.75-.5-1,.12-2.27,1.41-2.86,1.29-.59,2.77-.27,3.28.73Z"/>
      <path class="cls-2" d="M154.93,30.64c.52,1.01-.14,2.36-1.46,3.01-1.31.64-2.77.34-3.29-.66-.51-1,.11-2.34,1.41-2.99,1.31-.65,2.81-.37,3.33.64Z"/>
      <path class="cls-2" d="M.98,41.76c-.13,1.09-1.72,1.75-3.56,1.48-1.85-.27-3.21-1.37-3.04-2.47.17-1.1,1.78-1.78,3.58-1.5,1.8.28,3.15,1.4,3.02,2.49Z"/>
      <path class="cls-2" d="M11.77,43.36c-.05,1.07-1.57,1.72-3.41,1.46-1.84-.26-3.26-1.35-3.16-2.43.1-1.08,1.64-1.75,3.43-1.47,1.79.27,3.2,1.37,3.15,2.45Z"/>
      <path class="cls-2" d="M22.48,44.92c.02,1.05-1.43,1.7-3.25,1.44-1.82-.25-3.29-1.32-3.27-2.38.02-1.07,1.49-1.72,3.26-1.45,1.78.27,3.23,1.34,3.25,2.4Z"/>
      <path class="cls-2" d="M33.04,46.4c.09,1.04-1.28,1.68-3.07,1.44-1.79-.24-3.3-1.28-3.35-2.33-.05-1.05,1.34-1.69,3.09-1.44,1.75.25,3.24,1.3,3.33,2.34Z"/>
      <path class="cls-2" d="M43.4,47.78c.16,1.02-1.13,1.66-2.88,1.44-1.76-.22-3.29-1.24-3.41-2.27s1.18-1.68,2.9-1.44c1.72.23,3.23,1.25,3.39,2.27Z"/>
      <path class="cls-2" d="M53.5,49.04c.22,1-.98,1.66-2.69,1.45-1.71-.2-3.25-1.19-3.44-2.2-.18-1.01,1.03-1.66,2.71-1.45,1.67.21,3.2,1.2,3.42,2.2Z"/>
      <path class="cls-2" d="M63.28,50.14c.27.99-.84,1.65-2.49,1.48s-3.2-1.13-3.44-2.13c-.24-1,.89-1.66,2.51-1.47,1.62.18,3.15,1.13,3.42,2.12Z"/>
      <path class="cls-2" d="M72.7,51.06c.32.98-.7,1.66-2.29,1.52-1.59-.14-3.12-1.07-3.41-2.05-.29-.99.75-1.66,2.3-1.51,1.56.15,3.07,1.06,3.39,2.04Z"/>
      <path class="cls-2" d="M81.7,51.77c.36.97-.57,1.67-2.08,1.56-1.51-.11-3.02-.99-3.35-1.97-.33-.98.61-1.67,2.1-1.55,1.49.11,2.98.99,3.33,1.96Z"/>
      <path class="cls-2" d="M90.22,52.24c.38.96-.45,1.7-1.88,1.63-1.42-.07-2.89-.92-3.25-1.88-.37-.97.49-1.68,1.9-1.61,1.41.07,2.85.9,3.24,1.87Z"/>
      <path class="cls-2" d="M98.2,52.44c.4.96-.35,1.73-1.68,1.7-1.33-.02-2.73-.83-3.12-1.8-.39-.96.38-1.71,1.7-1.68,1.32.03,2.71.82,3.1,1.78Z"/>
      <path class="cls-2" d="M105.49,52.4c.4.96-.16,1.72-1.38,1.75-1.22.02-2.55-.74-2.95-1.7-.4-.96.28-1.75,1.5-1.77,1.22-.02,2.43.77,2.82,1.72Z"/>
      <path class="cls-2" d="M112.45,51.85c.4.96-.26,1.86-1.44,1.98-1.18.12-2.43-.6-2.83-1.56-.4-.96.2-1.8,1.38-1.92,1.18-.12,2.49.54,2.89,1.5Z"/>
      <path class="cls-2" d="M119.61,50.6c.41.96-.28,1.96-1.49,2.19-1.21.23-2.49-.39-2.9-1.35-.4-.96.22-1.9,1.43-2.14,1.21-.23,2.55.33,2.95,1.29Z"/>
      <path class="cls-2" d="M126.95,48.71c.41.97-.29,2.05-1.53,2.38-1.24.34-2.55-.2-2.96-1.16-.41-.96.24-2,1.48-2.34,1.24-.34,2.6.15,3.01,1.11Z"/>
      <path class="cls-2" d="M134.44,46.25c.42.97-.3,2.13-1.57,2.56-1.27.43-2.6-.03-3.02-1-.41-.97.25-2.09,1.51-2.52,1.26-.43,2.65-.02,3.07.96Z"/>
      <path class="cls-2" d="M142.06,43.3c.43.98-.3,2.2-1.59,2.71-1.29.51-2.65.12-3.07-.86-.42-.98.25-2.17,1.53-2.68,1.28-.51,2.7-.15,3.13.82Z"/>
      <path class="cls-2" d="M149.8,39.92c.44.99-.29,2.27-1.6,2.85-1.31.58-2.69.24-3.13-.74-.43-.98.25-2.24,1.55-2.82,1.3-.58,2.74-.27,3.18.72Z"/>
      <path class="cls-2" d="M.35,47.72c-.1,1.06-1.72,1.7-3.63,1.45-1.91-.25-3.36-1.31-3.21-2.38.14-1.07,1.78-1.73,3.65-1.47,1.87.26,3.29,1.34,3.19,2.4Z"/>
      <path class="cls-2" d="M11.54,49.22c-.03,1.04-1.59,1.68-3.49,1.43-1.9-.25-3.39-1.29-3.32-2.34.07-1.05,1.65-1.7,3.51-1.45,1.86.26,3.33,1.32,3.3,2.36Z"/>
      <path class="cls-2" d="M22.63,50.68c.03,1.02-1.46,1.65-3.34,1.41-1.88-.24-3.41-1.26-3.4-2.3,0-1.03,1.52-1.68,3.36-1.43,1.84.25,3.35,1.29,3.38,2.31Z"/>
      <path class="cls-2" d="M33.55,52.07c.09,1.01-1.33,1.64-3.18,1.41-1.85-.23-3.41-1.23-3.46-2.25-.05-1.02,1.38-1.66,3.2-1.42,1.81.24,3.35,1.25,3.44,2.26Z"/>
      <path class="cls-2" d="M44.25,53.37c.15.99-1.19,1.63-3,1.42-1.81-.21-3.38-1.19-3.49-2.19-.11-1,1.24-1.64,3.02-1.42,1.78.22,3.33,1.21,3.47,2.2Z"/>
      <path class="cls-2" d="M54.66,54.54c.2.98-1.05,1.62-2.81,1.43-1.76-.19-3.33-1.14-3.5-2.13-.17-.99,1.1-1.63,2.83-1.43,1.73.2,3.28,1.15,3.48,2.14Z"/>
      <path class="cls-2" d="M64.72,55.57c.24.97-.92,1.62-2.62,1.46-1.69-.17-3.26-1.09-3.47-2.07-.22-.98.97-1.63,2.64-1.46,1.67.17,3.21,1.1,3.45,2.07Z"/>
      <path class="cls-2" d="M74.37,56.43c.28.96-.8,1.63-2.42,1.5-1.62-.14-3.16-1.03-3.42-2-.26-.97.84-1.63,2.44-1.49,1.6.14,3.11,1.03,3.4,1.99Z"/>
      <path class="cls-2" d="M83.54,57.1c.31.95-.68,1.65-2.21,1.55-1.54-.1-3.03-.97-3.32-1.92-.29-.96.71-1.64,2.23-1.54,1.52.11,2.99.96,3.3,1.92Z"/>
      <path class="cls-2" d="M92.18,57.54c.33.95-.57,1.67-2.01,1.61-1.44-.07-2.88-.9-3.19-1.85-.32-.95.6-1.66,2.03-1.59,1.43.07,2.85.89,3.17,1.83Z"/>
      <path class="cls-2" d="M100.22,57.73c.33.95-.47,1.71-1.8,1.68-1.33-.02-2.69-.82-3.02-1.77-.33-.95.49-1.69,1.83-1.67,1.33.02,2.67.8,3,1.75Z"/>
      <path class="cls-2" d="M107.51,57.68c.33.95-.29,1.71-1.51,1.73-1.22.02-2.48-.74-2.81-1.69-.33-.95.4-1.73,1.63-1.75,1.22-.02,2.37.76,2.7,1.71Z"/>
      <path class="cls-2" d="M114.48,57.14c.33.95-.4,1.84-1.58,1.96-1.18.12-2.37-.59-2.7-1.54-.33-.95.33-1.78,1.51-1.9,1.18-.12,2.44.53,2.76,1.48Z"/>
      <path class="cls-2" d="M121.66,55.9c.33.95-.42,1.93-1.64,2.16-1.22.23-2.44-.38-2.76-1.33-.33-.95.36-1.88,1.57-2.11,1.21-.23,2.5.33,2.83,1.28Z"/>
      <path class="cls-2" d="M129.02,54.03c.33.95-.44,2.02-1.68,2.35-1.25.33-2.49-.19-2.83-1.14-.33-.95.38-1.97,1.62-2.31,1.24-.34,2.56.14,2.89,1.1Z"/>
      <path class="cls-2" d="M136.55,51.6c.34.96-.45,2.1-1.72,2.52-1.27.43-2.55-.02-2.89-.98-.34-.95.39-2.06,1.66-2.48,1.27-.43,2.61-.02,2.95.94Z"/>
      <path class="cls-2" d="M144.22,48.68c.35.96-.45,2.17-1.75,2.67-1.3.51-2.6.12-2.94-.84-.34-.96.4-2.13,1.69-2.64,1.29-.51,2.66-.16,3,.81Z"/>
      <path class="cls-2" d="M152.01,45.34c.36.97-.45,2.23-1.77,2.8-1.32.57-2.64.24-2.99-.72-.35-.97.4-2.2,1.71-2.78,1.31-.58,2.7-.27,3.06.7Z"/>
      <path class="cls-2" d="M11.4,54.88c-.02,1-1.6,1.62-3.56,1.38-1.96-.23-3.51-1.23-3.46-2.24.05-1.01,1.66-1.65,3.58-1.4,1.92.24,3.46,1.26,3.44,2.27Z"/>
      <path class="cls-2" d="M22.82,56.26c.04.99-1.49,1.6-3.42,1.37-1.93-.23-3.52-1.21-3.52-2.21,0-1,1.54-1.63,3.44-1.39,1.9.23,3.46,1.23,3.5,2.22Z"/>
      <path class="cls-2" d="M34.05,57.57c.09.98-1.37,1.59-3.27,1.37-1.9-.21-3.5-1.18-3.56-2.17-.06-.98,1.42-1.61,3.29-1.39,1.87.22,3.45,1.2,3.54,2.18Z"/>
      <path class="cls-2" d="M45.03,58.8c.14.97-1.25,1.58-3.1,1.38-1.85-.2-3.46-1.14-3.56-2.12-.11-.97,1.3-1.6,3.12-1.39,1.83.21,3.41,1.16,3.54,2.13Z"/>
      <path class="cls-2" d="M55.7,59.91c.18.95-1.13,1.58-2.92,1.4-1.8-.18-3.39-1.1-3.54-2.06-.15-.96,1.17-1.59,2.94-1.41,1.77.19,3.34,1.11,3.52,2.07Z"/>
      <path class="cls-2" d="M65.98,60.89c.21.95-1.01,1.59-2.73,1.43-1.73-.16-3.29-1.05-3.48-2.01-.19-.95,1.05-1.59,2.76-1.43,1.71.16,3.25,1.06,3.46,2.01Z"/>
      <path class="cls-2" d="M75.81,61.7c.24.94-.89,1.6-2.54,1.47-1.65-.13-3.17-1-3.39-1.94-.22-.94.93-1.6,2.56-1.46,1.63.13,3.13,1,3.37,1.94Z"/>
      <path class="cls-2" d="M85.1,62.33c.25.94-.79,1.62-2.34,1.52-1.55-.1-3.02-.94-3.27-1.88-.25-.94.82-1.61,2.36-1.51,1.54.1,2.99.94,3.24,1.87Z"/>
      <path class="cls-2" d="M93.81,62.75c.26.93-.69,1.64-2.13,1.58-1.45-.06-2.84-.88-3.1-1.81-.26-.93.71-1.63,2.16-1.57,1.44.06,2.82.87,3.08,1.8Z"/>
      <path class="cls-2" d="M101.86,62.94c.26.93-.6,1.68-1.93,1.65-1.33-.02-2.63-.81-2.89-1.74-.26-.93.62-1.66,1.95-1.64,1.33.02,2.61.79,2.87,1.73Z"/>
      <path class="cls-2" d="M109.1,62.91c.25.94-.46,1.69-1.66,1.71-1.2.02-2.39-.73-2.64-1.67-.25-.94.54-1.7,1.75-1.72,1.21-.02,2.3.75,2.55,1.68Z"/>
      <path class="cls-2" d="M116.07,62.36c.24.94-.55,1.82-1.73,1.93-1.18.12-2.3-.58-2.54-1.51-.25-.94.48-1.76,1.66-1.87,1.18-.12,2.37.52,2.62,1.46Z"/>
      <path class="cls-2" d="M123.26,61.13c.24.94-.58,1.91-1.8,2.13-1.22.23-2.36-.37-2.61-1.3-.24-.94.51-1.85,1.72-2.08,1.22-.23,2.44.32,2.68,1.25Z"/>
      <path class="cls-2" d="M130.64,59.27c.25.94-.6,1.99-1.85,2.32-1.25.33-2.43-.18-2.67-1.12-.25-.94.53-1.94,1.78-2.28,1.25-.33,2.5.14,2.74,1.07Z"/>
      <path class="cls-2" d="M138.19,56.86c.25.94-.62,2.06-1.9,2.48-1.28.42-2.48-.01-2.73-.95-.25-.94.55-2.02,1.83-2.45,1.28-.42,2.55-.02,2.8.92Z"/>
      <path class="cls-2" d="M145.9,53.97c.26.94-.63,2.13-1.93,2.63-1.3.5-2.53.13-2.79-.81-.25-.94.56-2.1,1.86-2.6,1.3-.5,2.6-.16,2.85.78Z"/>
      <path class="cls-2" d="M153.74,50.66c.26.95-.63,2.19-1.96,2.76-1.33.57-2.58.25-2.84-.69-.26-.95.57-2.17,1.89-2.74,1.32-.57,2.64-.28,2.91.67Z"/>
      <path class="cls-2" d="M11.37,60.33c0,.96-1.6,1.55-3.6,1.33-2-.22-3.61-1.18-3.59-2.14s1.65-1.58,3.62-1.35c1.97.23,3.56,1.21,3.57,2.17Z"/>
      <path class="cls-2" d="M23.05,61.64c.05.95-1.5,1.54-3.48,1.32s-3.61-1.16-3.63-2.11c-.02-.96,1.55-1.56,3.5-1.34,1.95.22,3.56,1.18,3.6,2.13Z"/>
      <path class="cls-2" d="M34.54,62.89c.09.94-1.4,1.53-3.34,1.32-1.94-.21-3.57-1.13-3.64-2.08-.06-.95,1.45-1.55,3.36-1.34,1.91.21,3.53,1.15,3.61,2.09Z"/>
      <path class="cls-2" d="M45.75,64.05c.12.93-1.3,1.53-3.19,1.34-1.89-.19-3.51-1.1-3.61-2.04-.1-.94,1.34-1.54,3.21-1.35,1.87.2,3.47,1.12,3.59,2.05Z"/>
      <path class="cls-2" d="M56.61,65.12c.15.93-1.19,1.53-3.02,1.36-1.82-.17-3.43-1.06-3.56-1.99-.13-.93,1.23-1.54,3.04-1.37,1.81.18,3.38,1.07,3.54,2Z"/>
      <path class="cls-2" d="M67.05,66.05c.17.92-1.09,1.54-2.84,1.39-1.75-.15-3.31-1.02-3.47-1.94-.16-.92,1.13-1.55,2.86-1.39,1.74.16,3.27,1.03,3.45,1.95Z"/>
      <path class="cls-2" d="M76.99,66.84c.19.92-.99,1.56-2.65,1.43-1.66-.13-3.16-.97-3.34-1.89-.18-.92,1.02-1.56,2.68-1.43,1.65.13,3.13.97,3.32,1.89Z"/>
      <path class="cls-2" d="M86.35,67.46c.19.91-.9,1.58-2.46,1.48-1.56-.1-2.99-.92-3.18-1.83-.19-.91.92-1.57,2.48-1.48,1.56.1,2.96.92,3.16,1.83Z"/>
      <path class="cls-2" d="M95.07,67.88c.19.92-.81,1.61-2.26,1.54-1.44-.06-2.78-.86-2.97-1.78-.19-.91.83-1.6,2.28-1.54,1.45.06,2.76.85,2.95,1.77Z"/>
      <path class="cls-2" d="M103.06,68.08c.17.92-.74,1.65-2.05,1.62-1.31-.03-2.54-.8-2.73-1.72-.18-.92.75-1.63,2.08-1.61,1.33.03,2.53.79,2.7,1.7Z"/>
      <path class="cls-2" d="M110.21,68.06c.15.92-.65,1.68-1.82,1.69-1.17.01-2.27-.73-2.43-1.65-.16-.92.68-1.67,1.87-1.69,1.19-.02,2.23.73,2.38,1.65Z"/>
      <path class="cls-2" d="M117.17,67.51c.15.92-.73,1.79-1.9,1.91-1.18.12-2.21-.56-2.37-1.48-.15-.92.64-1.73,1.82-1.85,1.18-.12,2.3.51,2.45,1.43Z"/>
      <path class="cls-2" d="M124.35,66.27c.15.92-.76,1.87-1.98,2.1-1.22.23-2.28-.35-2.43-1.27-.15-.92.68-1.83,1.89-2.06,1.22-.23,2.36.31,2.51,1.22Z"/>
      <path class="cls-2" d="M131.74,64.42c.15.92-.79,1.95-2.04,2.28-1.25.33-2.34-.17-2.49-1.09-.15-.92.71-1.91,1.96-2.24,1.25-.33,2.42.12,2.57,1.04Z"/>
      <path class="cls-2" d="M139.31,62.02c.15.92-.81,2.02-2.09,2.45-1.28.42-2.4,0-2.55-.92-.15-.92.73-1.99,2.01-2.41s2.48-.03,2.63.89Z"/>
      <path class="cls-2" d="M147.04,59.14c.15.92-.82,2.09-2.13,2.59-1.31.5-2.45.14-2.6-.78-.15-.92.75-2.06,2.05-2.56,1.31-.5,2.53-.17,2.68.75Z"/>
      <path class="cls-2" d="M154.91,55.86c.16.93-.83,2.15-2.16,2.71-1.33.57-2.5.26-2.65-.66-.16-.92.76-2.12,2.08-2.69,1.33-.57,2.57-.29,2.73.64Z"/>
      <path class="cls-2" d="M11.46,65.53c.03.92-1.58,1.47-3.61,1.26-2.03-.21-3.7-1.12-3.71-2.04,0-.92,1.63-1.5,3.64-1.28,2.01.22,3.65,1.15,3.68,2.07Z"/>
      <path class="cls-2" d="M23.35,66.79c.06.91-1.51,1.46-3.51,1.26-2-.21-3.67-1.1-3.72-2.02-.04-.91,1.55-1.49,3.54-1.28,1.99.21,3.63,1.13,3.69,2.04Z"/>
      <path class="cls-2" d="M35.01,67.99c.08.9-1.43,1.46-3.39,1.26-1.96-.2-3.62-1.08-3.69-1.99-.07-.91,1.47-1.48,3.42-1.28,1.95.2,3.58,1.11,3.67,2.01Z"/>
      <path class="cls-2" d="M46.38,69.12c.11.9-1.34,1.46-3.25,1.28-1.91-.19-3.55-1.06-3.64-1.96-.09-.9,1.38-1.48,3.28-1.29,1.9.19,3.51,1.08,3.61,1.97Z"/>
      <path class="cls-2" d="M57.37,70.15c.12.89-1.26,1.47-3.1,1.3-1.84-.17-3.44-1.02-3.55-1.92-.11-.89,1.29-1.49,3.12-1.31,1.83.17,3.4,1.04,3.53,1.93Z"/>
      <path class="cls-2" d="M67.9,71.07c.13.89-1.17,1.49-2.93,1.34-1.76-.15-3.3-.99-3.43-1.88-.13-.89,1.2-1.49,2.96-1.34,1.75.15,3.27,1,3.4,1.89Z"/>
      <path class="cls-2" d="M77.88,71.84c.13.89-1.09,1.51-2.75,1.38-1.66-.13-3.13-.95-3.27-1.83-.13-.89,1.12-1.51,2.78-1.38,1.66.13,3.11.95,3.24,1.84Z"/>
      <path class="cls-2" d="M87.24,72.46c.13.89-1.02,1.53-2.57,1.43-1.55-.1-2.93-.9-3.06-1.79-.13-.89,1.03-1.53,2.59-1.43,1.56.1,2.91.9,3.04,1.79Z"/>
      <path class="cls-2" d="M95.9,72.89c.11.9-.95,1.57-2.37,1.5-1.43-.07-2.69-.85-2.81-1.74-.12-.89.96-1.56,2.4-1.49,1.44.07,2.68.84,2.79,1.74Z"/>
      <path class="cls-2" d="M103.76,73.13c.08.9-.89,1.61-2.17,1.57-1.29-.04-2.42-.8-2.52-1.69-.1-.9.89-1.6,2.2-1.57,1.31.03,2.42.78,2.5,1.68Z"/>
      <path class="cls-2" d="M110.78,73.13c.05.91-.86,1.67-2,1.67-1.13,0-2.12-.74-2.18-1.64-.07-.91.83-1.64,1.99-1.65,1.16,0,2.14.71,2.19,1.62Z"/>
      <path class="cls-2" d="M117.71,72.56c.04.9-.92,1.76-2.09,1.88-1.17.12-2.12-.54-2.16-1.45-.05-.91.82-1.71,2-1.83,1.18-.12,2.21.49,2.25,1.39Z"/>
      <path class="cls-2" d="M124.87,71.31c.04.9-.96,1.84-2.17,2.07-1.21.23-2.19-.33-2.23-1.24-.04-.9.87-1.8,2.08-2.03,1.22-.23,2.28.29,2.32,1.19Z"/>
      <path class="cls-2" d="M132.26,69.46c.04.9-.99,1.92-2.24,2.25-1.25.33-2.25-.15-2.29-1.05-.04-.9.9-1.88,2.15-2.21,1.25-.33,2.34.11,2.38,1.01Z"/>
      <path class="cls-2" d="M139.84,67.06c.04.9-1.01,1.98-2.3,2.4-1.28.42-2.31.02-2.35-.88-.04-.9.93-1.95,2.21-2.37,1.28-.42,2.39-.05,2.43.85Z"/>
      <path class="cls-2" d="M147.58,64.19c.04.9-1.04,2.04-2.35,2.54-1.31.5-2.36.16-2.4-.74-.04-.9.95-2.02,2.26-2.52,1.31-.5,2.44-.18,2.48.72Z"/>
      <path class="cls-2" d="M155.47,60.92c.04.9-1.05,2.1-2.38,2.66-1.33.56-2.4.28-2.44-.62-.04-.9.97-2.08,2.3-2.64,1.33-.56,2.49-.3,2.53.6Z"/>
      <path class="cls-2" d="M11.41,70.29c-.06.89-1.74,1.43-3.75,1.22-2.01-.22-3.6-1.1-3.56-1.99.04-.89,1.72-1.44,3.74-1.23,2.03.21,3.63,1.12,3.56,2.01Z"/>
      <path class="cls-2" d="M23.28,71.53c-.1.89-1.79,1.44-3.77,1.23-1.98-.21-3.52-1.1-3.45-1.99.08-.89,1.76-1.45,3.76-1.24,2,.21,3.55,1.11,3.46,2Z"/>
      <path class="cls-2" d="M34.94,72.72c-.13.89-1.81,1.45-3.76,1.25-1.94-.2-3.43-1.08-3.32-1.97.11-.89,1.79-1.46,3.75-1.26,1.96.2,3.46,1.09,3.33,1.98Z"/>
      <path class="cls-2" d="M46.3,73.84c-.15.9-1.82,1.47-3.71,1.28-1.89-.19-3.31-1.06-3.17-1.95.14-.9,1.79-1.47,3.7-1.29,1.91.19,3.34,1.07,3.19,1.96Z"/>
      <path class="cls-2" d="M57.28,74.87c-.17.9-1.8,1.49-3.63,1.32-1.83-.17-3.18-1.03-3.02-1.93.16-.9,1.78-1.49,3.62-1.32,1.84.17,3.2,1.04,3.03,1.93Z"/>
      <path class="cls-2" d="M67.81,75.78c-.18.9-1.76,1.5-3.51,1.35-1.75-.15-3.02-1-2.84-1.9.18-.9,1.74-1.51,3.5-1.36,1.76.15,3.04,1,2.86,1.9Z"/>
      <path class="cls-2" d="M77.79,76.55c-.19.9-1.69,1.52-3.35,1.4-1.66-.13-2.85-.96-2.67-1.85.19-.9,1.68-1.52,3.34-1.4,1.66.13,2.87.96,2.68,1.85Z"/>
      <path class="cls-2" d="M87.16,77.17c-.18.9-1.59,1.55-3.15,1.45-1.56-.1-2.66-.91-2.48-1.81.18-.9,1.58-1.54,3.13-1.44,1.55.1,2.67.91,2.5,1.8Z"/>
      <path class="cls-2" d="M95.82,77.62c-.16.9-1.46,1.57-2.9,1.5-1.44-.07-2.46-.85-2.29-1.75.17-.9,1.46-1.57,2.88-1.5,1.43.07,2.47.85,2.31,1.75Z"/>
      <path class="cls-2" d="M103.7,77.87c-.12.89-1.3,1.6-2.61,1.56-1.31-.03-2.24-.79-2.1-1.69.14-.9,1.3-1.59,2.59-1.55,1.29.04,2.24.79,2.12,1.68Z"/>
      <path class="cls-2" d="M110.73,77.88c-.09.89-1.11,1.65-2.27,1.65-1.17,0-2.02-.73-1.91-1.62.11-.89,1.1-1.61,2.24-1.61,1.13,0,2.04.69,1.95,1.58Z"/>
      <path class="cls-2" d="M117.64,77.28c-.09.89-1.18,1.73-2.35,1.86-1.17.13-1.99-.52-1.9-1.41.09-.89,1.04-1.68,2.22-1.8,1.17-.12,2.12.47,2.03,1.35Z"/>
      <path class="cls-2" d="M124.8,76.01c-.09.88-1.2,1.81-2.42,2.05-1.21.24-2.06-.32-1.97-1.2.09-.88,1.07-1.76,2.29-2,1.21-.23,2.19.27,2.11,1.15Z"/>
      <path class="cls-2" d="M132.18,74.15c-.09.88-1.23,1.89-2.48,2.22s-2.13-.13-2.04-1.01c.09-.88,1.1-1.84,2.35-2.17,1.25-.33,2.26.09,2.17.97Z"/>
      <path class="cls-2" d="M139.75,71.75c-.09.88-1.26,1.95-2.54,2.37-1.28.42-2.19.03-2.1-.85.09-.88,1.13-1.91,2.41-2.33,1.28-.42,2.32-.07,2.23.81Z"/>
      <path class="cls-2" d="M147.5,68.88c-.09.88-1.28,2.01-2.59,2.51-1.31.5-2.24.17-2.15-.71.09-.88,1.15-1.98,2.46-2.48,1.31-.5,2.37-.2,2.28.68Z"/>
      <path class="cls-2" d="M155.4,65.62c-.09.88-1.3,2.07-2.63,2.63-1.33.56-2.28.29-2.2-.59.09-.88,1.17-2.04,2.51-2.6,1.33-.56,2.41-.32,2.32.57Z"/>
      <path class="cls-2" d="M10.99,75.15c-.09.86-1.76,1.38-3.72,1.16-1.96-.22-3.5-1.09-3.44-1.95.06-.86,1.72-1.39,3.71-1.18,1.99.22,3.54,1.1,3.45,1.96Z"/>
      <path class="cls-2" d="M22.62,76.41c-.14.87-1.83,1.39-3.77,1.18-1.94-.21-3.42-1.08-3.31-1.95.11-.87,1.79-1.4,3.76-1.19s3.45,1.09,3.31,1.96Z"/>
      <path class="cls-2" d="M34.06,77.61c-.19.87-1.89,1.41-3.79,1.21-1.9-.2-3.32-1.07-3.16-1.93.16-.87,1.85-1.41,3.78-1.21,1.93.2,3.35,1.07,3.17,1.94Z"/>
      <path class="cls-2" d="M45.24,78.74c-.23.87-1.92,1.43-3.78,1.24-1.86-.19-3.2-1.04-2.99-1.92.2-.87,1.89-1.43,3.77-1.24,1.88.19,3.23,1.05,3,1.92Z"/>
      <path class="cls-2" d="M56.07,79.78c-.26.87-1.94,1.44-3.74,1.27-1.8-.17-3.06-1.02-2.82-1.89.24-.87,1.91-1.45,3.73-1.28,1.82.17,3.09,1.02,2.83,1.89Z"/>
      <path class="cls-2" d="M66.49,80.69c-.29.88-1.93,1.46-3.66,1.31-1.73-.15-2.91-.98-2.64-1.86.27-.88,1.91-1.46,3.65-1.31,1.75.15,2.94.98,2.65,1.86Z"/>
      <path class="cls-2" d="M76.43,81.47c-.31.88-1.9,1.49-3.55,1.36-1.65-.13-2.74-.94-2.44-1.82.3-.88,1.88-1.48,3.53-1.36,1.66.13,2.76.94,2.46,1.82Z"/>
      <path class="cls-2" d="M85.8,82.09c-.31.88-1.84,1.51-3.39,1.41-1.56-.1-2.56-.89-2.25-1.77.31-.88,1.82-1.51,3.38-1.41,1.56.1,2.58.89,2.27,1.77Z"/>
      <path class="cls-2" d="M94.53,82.53c-.31.88-1.74,1.54-3.19,1.47-1.45-.07-2.37-.84-2.05-1.72.31-.88,1.73-1.53,3.17-1.46,1.45.07,2.38.83,2.07,1.71Z"/>
      <path class="cls-2" d="M102.55,82.78c-.29.88-1.61,1.56-2.95,1.53-1.33-.03-2.16-.78-1.86-1.65.3-.88,1.61-1.56,2.93-1.52,1.32.03,2.17.77,1.88,1.64Z"/>
      <path class="cls-2" d="M109.73,82.77c-.27.87-1.39,1.62-2.59,1.63-1.2,0-1.94-.71-1.67-1.58.28-.88,1.45-1.58,2.63-1.59,1.18,0,1.89.67,1.63,1.54Z"/>
      <path class="cls-2" d="M116.66,82.14c-.26.87-1.49,1.71-2.67,1.84-1.17.13-1.85-.5-1.59-1.37.27-.87,1.37-1.65,2.54-1.78,1.17-.13,1.97.45,1.71,1.32Z"/>
      <path class="cls-2" d="M123.82,80.86c-.26.87-1.52,1.79-2.74,2.03-1.21.24-1.92-.3-1.66-1.17.26-.87,1.4-1.74,2.61-1.98,1.21-.24,2.04.25,1.78,1.12Z"/>
      <path class="cls-2" d="M131.2,78.99c-.26.87-1.55,1.87-2.8,2.2-1.25.33-1.99-.12-1.73-.99.26-.87,1.43-1.82,2.68-2.15,1.25-.33,2.11.08,1.84.95Z"/>
      <path class="cls-2" d="M138.78,76.6c-.26.87-1.58,1.94-2.86,2.35-1.28.42-2.05.03-1.78-.84.26-.87,1.46-1.9,2.74-2.32,1.28-.42,2.17-.07,1.9.8Z"/>
      <path class="cls-2" d="M146.52,73.74c-.27.87-1.6,2-2.91,2.49-1.31.49-2.1.17-1.83-.7.27-.87,1.48-1.96,2.79-2.46,1.31-.5,2.21-.21,1.95.67Z"/>
      <path class="cls-2" d="M154.41,70.5c-.27.88-1.62,2.06-2.95,2.61-1.33.56-2.14.28-1.87-.59.27-.88,1.51-2.02,2.84-2.58,1.33-.56,2.25-.32,1.99.56Z"/>
      <path class="cls-2" d="M10.41,79.87c-.12.84-1.76,1.34-3.66,1.12-1.9-.22-3.38-1.08-3.3-1.91.08-.84,1.71-1.35,3.65-1.13,1.94.22,3.42,1.08,3.31,1.92Z"/>
      <path class="cls-2" d="M21.73,81.15c-.18.84-1.86,1.35-3.74,1.14-1.88-.21-3.29-1.07-3.15-1.91.14-.84,1.81-1.36,3.73-1.14,1.92.21,3.34,1.07,3.16,1.92Z"/>
      <path class="cls-2" d="M32.88,82.37c-.24.85-1.94,1.37-3.79,1.16-1.85-.2-3.19-1.05-2.98-1.9.2-.85,1.9-1.37,3.79-1.17,1.89.2,3.23,1.06,2.99,1.91Z"/>
      <path class="cls-2" d="M43.79,83.52c-.29.85-2.01,1.39-3.82,1.19-1.81-.19-3.06-1.03-2.8-1.88.26-.85,1.96-1.39,3.81-1.2,1.84.19,3.11,1.03,2.81,1.89Z"/>
      <path class="cls-2" d="M54.4,84.56c-.34.85-2.05,1.41-3.81,1.23-1.76-.17-2.93-1-2.61-1.86.31-.85,2.01-1.4,3.8-1.23,1.79.17,2.97,1,2.62,1.86Z"/>
      <path class="cls-2" d="M64.63,85.49c-.38.86-2.08,1.43-3.77,1.28-1.7-.15-2.78-.97-2.42-1.83.36-.86,2.04-1.43,3.76-1.27,1.72.15,2.81.97,2.43,1.82Z"/>
      <path class="cls-2" d="M74.43,86.28c-.41.86-2.07,1.45-3.7,1.32-1.62-.13-2.62-.93-2.22-1.79.4-.86,2.04-1.45,3.68-1.32,1.64.13,2.65.92,2.23,1.78Z"/>
      <path class="cls-2" d="M83.72,86.9c-.43.86-2.04,1.48-3.58,1.38-1.54-.1-2.44-.88-2.02-1.74.42-.86,2.02-1.47,3.57-1.37,1.55.1,2.47.87,2.03,1.73Z"/>
      <path class="cls-2" d="M92.45,87.35c-.44.86-1.98,1.51-3.43,1.44s-2.26-.82-1.82-1.68c.44-.86,1.96-1.5,3.41-1.43,1.45.07,2.28.82,1.84,1.68Z"/>
      <path class="cls-2" d="M100.54,87.58c-.44.86-1.89,1.54-3.23,1.5-1.34-.03-2.06-.76-1.62-1.62.44-.86,1.88-1.52,3.21-1.49,1.34.03,2.08.75,1.64,1.61Z"/>
      <path class="cls-2" d="M107.82,87.56c-.42.86-1.65,1.6-2.87,1.61-1.23,0-1.86-.69-1.43-1.55.43-.86,1.75-1.55,2.97-1.56,1.21,0,1.76.65,1.34,1.5Z"/>
      <path class="cls-2" d="M114.74,86.92c-.42.86-1.77,1.68-2.95,1.81-1.17.13-1.73-.49-1.31-1.34.42-.86,1.66-1.63,2.84-1.76,1.17-.13,1.84.43,1.42,1.29Z"/>
      <path class="cls-2" d="M121.91,85.64c-.42.86-1.8,1.77-3.02,2-1.21.24-1.8-.29-1.38-1.15.42-.86,1.69-1.72,2.91-1.95,1.21-.24,1.91.24,1.49,1.1Z"/>
      <path class="cls-2" d="M129.29,83.78c-.42.86-1.83,1.85-3.08,2.18-1.25.33-1.86-.12-1.44-.98.42-.86,1.73-1.8,2.97-2.13,1.25-.33,1.97.07,1.55.93Z"/>
      <path class="cls-2" d="M136.86,81.4c-.43.86-1.86,1.92-3.14,2.33-1.28.42-1.92.04-1.5-.83.42-.86,1.75-1.88,3.03-2.29,1.28-.42,2.03-.08,1.6.79Z"/>
      <path class="cls-2" d="M144.59,78.57c-.43.87-1.88,1.98-3.19,2.47-1.31.49-1.97.17-1.54-.7.43-.86,1.78-1.95,3.09-2.44,1.31-.49,2.07-.2,1.65.66Z"/>
      <path class="cls-2" d="M152.47,75.35c-.43.87-1.91,2.04-3.24,2.6-1.33.55-2.01.28-1.58-.59.43-.87,1.8-2.01,3.13-2.57,1.33-.56,2.11-.31,1.68.56Z"/>
      <path class="cls-2" d="M9.7,84.47c-.14.82-1.74,1.3-3.57,1.07-1.83-.23-3.24-1.07-3.15-1.88.09-.82,1.69-1.3,3.57-1.08,1.88.22,3.29,1.07,3.15,1.89Z"/>
      <path class="cls-2" d="M20.64,85.77c-.21.82-1.86,1.31-3.68,1.09-1.81-.22-3.15-1.06-2.98-1.88.17-.82,1.81-1.32,3.67-1.1,1.86.22,3.2,1.06,2.98,1.89Z"/>
      <path class="cls-2" d="M31.42,87.02c-.29.83-1.97,1.33-3.76,1.12-1.79-.21-3.04-1.05-2.8-1.87.24-.83,1.92-1.33,3.75-1.13,1.83.21,3.09,1.05,2.8,1.88Z"/>
      <path class="cls-2" d="M42,88.18c-.35.83-2.06,1.35-3.82,1.15-1.75-.19-2.92-1.02-2.6-1.85.31-.83,2.02-1.35,3.81-1.16,1.79.19,2.96,1.02,2.61,1.86Z"/>
      <path class="cls-2" d="M52.3,89.24c-.41.84-2.14,1.37-3.84,1.19-1.71-.18-2.78-1-2.4-1.83.38-.83,2.09-1.37,3.84-1.19,1.74.17,2.83.99,2.41,1.83Z"/>
      <path class="cls-2" d="M62.28,90.19c-.47.84-2.19,1.4-3.84,1.24-1.65-.16-2.64-.96-2.2-1.8.43-.84,2.15-1.39,3.83-1.24,1.68.15,2.68.96,2.21,1.8Z"/>
      <path class="cls-2" d="M71.87,90.99c-.51.84-2.21,1.42-3.8,1.29-1.59-.13-2.48-.92-2-1.76.48-.84,2.18-1.41,3.79-1.29,1.61.13,2.52.91,2.01,1.75Z"/>
      <path class="cls-2" d="M81.02,91.62c-.54.84-2.21,1.45-3.73,1.35-1.52-.1-2.31-.87-1.79-1.71.52-.84,2.18-1.44,3.72-1.34,1.53.1,2.34.86,1.8,1.71Z"/>
      <path class="cls-2" d="M89.67,92.07c-.56.84-2.18,1.48-3.62,1.41-1.43-.07-2.14-.81-1.59-1.66.55-.84,2.16-1.47,3.6-1.4,1.44.07,2.17.8,1.61,1.65Z"/>
      <path class="cls-2" d="M97.75,92.31c-.57.85-2.12,1.51-3.46,1.48-1.34-.03-1.96-.75-1.4-1.6.57-.84,2.11-1.5,3.45-1.46,1.34.03,1.98.74,1.41,1.58Z"/>
      <path class="cls-2" d="M105.07,92.28c-.56.84-1.88,1.58-3.12,1.59-1.24,0-1.78-.68-1.21-1.53.57-.84,2.02-1.53,3.25-1.53,1.23,0,1.64.63,1.08,1.47Z"/>
      <path class="cls-2" d="M112,91.64c-.56.84-2.02,1.66-3.2,1.79-1.17.13-1.62-.48-1.06-1.32.56-.84,1.92-1.61,3.1-1.74,1.17-.13,1.72.42,1.16,1.27Z"/>
      <path class="cls-2" d="M119.16,90.36c-.56.85-2.05,1.75-3.27,1.98-1.21.23-1.69-.29-1.13-1.13.56-.85,1.96-1.7,3.17-1.93,1.21-.24,1.79.24,1.23,1.08Z"/>
      <path class="cls-2" d="M126.54,88.51c-.57.85-2.08,1.83-3.33,2.15-1.25.33-1.75-.12-1.19-.96.56-.85,1.99-1.78,3.23-2.11,1.25-.33,1.85.07,1.28.92Z"/>
      <path class="cls-2" d="M134.1,86.16c-.57.86-2.11,1.9-3.39,2.31-1.28.41-1.81.03-1.24-.82.57-.85,2.01-1.86,3.29-2.27,1.28-.41,1.9-.08,1.34.78Z"/>
      <path class="cls-2" d="M141.82,83.36c-.57.86-2.14,1.97-3.44,2.45-1.3.48-1.86.16-1.29-.7.57-.86,2.04-1.93,3.35-2.42,1.31-.49,1.95-.2,1.38.66Z"/>
      <path class="cls-2" d="M149.68,80.18c-.57.87-2.16,2.03-3.49,2.58-1.33.54-1.9.27-1.32-.59.57-.87,2.07-2,3.4-2.55,1.33-.55,1.99-.3,1.41.57Z"/>
      <path class="cls-2" d="M8.87,88.96c-.16.8-1.71,1.26-3.46,1.03-1.75-.23-3.08-1.06-2.98-1.86.11-.8,1.65-1.27,3.46-1.04,1.81.23,3.14,1.06,2.98,1.87Z"/>
      <path class="cls-2" d="M19.36,90.29c-.24.81-1.85,1.28-3.59,1.05-1.74-.22-2.99-1.05-2.79-1.86.19-.8,1.8-1.28,3.59-1.06,1.79.22,3.04,1.06,2.8,1.86Z"/>
      <path class="cls-2" d="M29.72,91.56c-.33.81-1.99,1.3-3.7,1.08-1.71-.21-2.88-1.04-2.6-1.85.28-.81,1.93-1.3,3.69-1.09,1.76.21,2.93,1.04,2.6,1.85Z"/>
      <path class="cls-2" d="M39.9,92.75c-.4.82-2.1,1.32-3.78,1.12-1.68-.2-2.75-1.02-2.4-1.83.36-.81,2.05-1.31,3.78-1.12,1.73.2,2.81,1.02,2.4,1.83Z"/>
      <path class="cls-2" d="M49.84,93.83c-.47.82-2.2,1.34-3.84,1.16-1.64-.18-2.62-.99-2.19-1.81.43-.82,2.15-1.34,3.83-1.16,1.69.18,2.67.99,2.2,1.81Z"/>
      <path class="cls-2" d="M59.5,94.79c-.54.82-2.27,1.37-3.87,1.21-1.6-.16-2.48-.96-1.98-1.78.5-.82,2.23-1.36,3.86-1.2s2.53.95,1.99,1.77Z"/>
      <path class="cls-2" d="M68.82,95.61c-.59.83-2.33,1.39-3.87,1.26-1.54-.13-2.33-.91-1.77-1.74.56-.83,2.29-1.38,3.86-1.25,1.57.13,2.37.9,1.78,1.73Z"/>
      <path class="cls-2" d="M77.76,96.25c-.63.83-2.35,1.42-3.83,1.32-1.48-.1-2.18-.86-1.57-1.69.61-.83,2.32-1.41,3.82-1.31,1.5.1,2.21.85,1.58,1.68Z"/>
      <path class="cls-2" d="M86.26,96.71c-.66.83-2.35,1.45-3.76,1.38-1.41-.07-2.02-.81-1.37-1.64.65-.83,2.32-1.44,3.75-1.37,1.42.07,2.05.79,1.38,1.63Z"/>
      <path class="cls-2" d="M94.28,96.95c-.68.83-2.32,1.49-3.65,1.45-1.33-.03-1.85-.74-1.18-1.57.67-.83,2.3-1.47,3.64-1.44,1.34.03,1.87.73,1.19,1.56Z"/>
      <path class="cls-2" d="M101.6,96.92c-.69.83-2.1,1.56-3.34,1.56-1.24,0-1.69-.67-1-1.5.68-.83,2.24-1.5,3.48-1.51,1.24,0,1.54.62.86,1.45Z"/>
      <path class="cls-2" d="M108.53,96.29c-.69.83-2.24,1.64-3.41,1.77-1.17.13-1.53-.47-.84-1.3.69-.83,2.15-1.59,3.32-1.72,1.17-.13,1.62.41.93,1.25Z"/>
      <path class="cls-2" d="M115.69,95.03c-.69.84-2.27,1.73-3.48,1.96-1.21.23-1.59-.28-.91-1.12.69-.84,2.18-1.68,3.39-1.91,1.21-.23,1.68.23,1,1.07Z"/>
      <path class="cls-2" d="M123.05,93.2c-.69.84-2.3,1.81-3.55,2.13-1.25.32-1.66-.12-.97-.96.69-.84,2.21-1.76,3.46-2.09,1.25-.33,1.74.07,1.05.91Z"/>
      <path class="cls-2" d="M130.6,90.88c-.69.85-2.33,1.89-3.6,2.29-1.28.4-1.71.03-1.02-.82.69-.85,2.24-1.84,3.52-2.25,1.28-.41,1.79-.07,1.1.78Z"/>
      <path class="cls-2" d="M138.31,88.13c-.69.86-2.35,1.95-3.66,2.43-1.3.48-1.76.15-1.06-.7.69-.85,2.27-1.92,3.57-2.4,1.3-.48,1.84-.19,1.14.67Z"/>
      <path class="cls-2" d="M146.15,84.99c-.7.87-2.38,2.02-3.7,2.55-1.32.54-1.79.26-1.1-.6.7-.86,2.3-1.98,3.62-2.53,1.33-.54,1.88-.29,1.18.57Z"/>
      <path class="cls-2" d="M154.11,81.55c-.7.88-2.4,2.07-3.74,2.66-1.34.59-1.83.34-1.13-.53.7-.87,2.32-2.04,3.66-2.64,1.35-.59,1.91-.37,1.2.5Z"/>
      <path class="cls-2" d="M7.94,93.36c-.18.79-1.67,1.23-3.33.99-1.66-.24-2.91-1.06-2.8-1.84.12-.78,1.61-1.23,3.33-1,1.72.23,2.98,1.06,2.8,1.85Z"/>
      <path class="cls-2" d="M17.93,94.72c-.27.79-1.83,1.25-3.48,1.02-1.65-.23-2.81-1.05-2.6-1.84.21-.79,1.77-1.25,3.48-1.02,1.71.23,2.87,1.05,2.6,1.84Z"/>
      <path class="cls-2" d="M27.81,96.01c-.36.8-1.98,1.27-3.61,1.05-1.63-.22-2.7-1.04-2.4-1.83.31-.79,1.92-1.26,3.61-1.05,1.69.21,2.76,1.03,2.4,1.83Z"/>
      <path class="cls-2" d="M37.53,97.23c-.45.8-2.12,1.29-3.72,1.09-1.61-.2-2.58-1.02-2.19-1.82.4-.8,2.06-1.28,3.72-1.08,1.66.2,2.64,1.01,2.19,1.81Z"/>
      <path class="cls-2" d="M47.06,98.34c-.53.81-2.23,1.31-3.81,1.13-1.57-.18-2.46-.99-1.98-1.79.48-.8,2.18-1.31,3.8-1.12,1.62.18,2.51.98,1.98,1.79Z"/>
      <path class="cls-2" d="M56.34,99.32c-.6.81-2.33,1.34-3.87,1.18-1.53-.16-2.32-.95-1.77-1.76.56-.81,2.28-1.33,3.86-1.17,1.58.16,2.37.94,1.77,1.75Z"/>
      <path class="cls-2" d="M65.35,100.15c-.66.81-2.41,1.37-3.9,1.23-1.49-.14-2.18-.91-1.56-1.72.62-.81,2.36-1.36,3.89-1.22,1.52.13,2.23.9,1.57,1.71Z"/>
      <path class="cls-2" d="M74.02,100.82c-.71.82-2.46,1.4-3.89,1.29-1.43-.11-2.04-.86-1.36-1.68.68-.82,2.42-1.39,3.89-1.28,1.46.1,2.08.85,1.36,1.66Z"/>
      <path class="cls-2" d="M82.33,101.28c-.75.82-2.48,1.43-3.86,1.36-1.37-.07-1.89-.8-1.16-1.62.73-.82,2.45-1.42,3.85-1.35,1.4.07,1.92.79,1.17,1.61Z"/>
      <path class="cls-2" d="M90.23,101.53c-.78.82-2.48,1.47-3.79,1.43-1.31-.04-1.74-.74-.98-1.56.76-.82,2.45-1.45,3.78-1.42,1.32.03,1.77.72.99,1.54Z"/>
      <path class="cls-2" d="M97.51,101.51c-.79.82-2.28,1.54-3.52,1.54-1.23,0-1.59-.66-.81-1.49.79-.82,2.42-1.48,3.66-1.49,1.24,0,1.45.61.66,1.43Z"/>
      <path class="cls-2" d="M104.43,100.88c-.79.83-2.42,1.62-3.59,1.75-1.17.13-1.45-.47-.66-1.29.79-.82,2.34-1.57,3.52-1.69,1.17-.13,1.52.41.73,1.24Z"/>
      <path class="cls-2" d="M111.58,99.65c-.79.83-2.45,1.71-3.66,1.94-1.21.23-1.51-.29-.72-1.11.79-.83,2.38-1.66,3.59-1.89,1.21-.23,1.59.23.8,1.06Z"/>
      <path class="cls-2" d="M118.93,97.86c-.79.84-2.48,1.79-3.73,2.11-1.24.32-1.57-.12-.78-.96.79-.83,2.41-1.74,3.65-2.07,1.25-.32,1.65.08.85.91Z"/>
      <path class="cls-2" d="M126.46,95.58c-.8.84-2.51,1.87-3.78,2.27-1.27.4-1.62.02-.83-.82.8-.84,2.44-1.83,3.71-2.23,1.27-.4,1.7-.06.9.78Z"/>
      <path class="cls-2" d="M134.16,92.86c-.8.85-2.54,1.94-3.84,2.41-1.3.47-1.67.14-.87-.71.8-.85,2.46-1.9,3.77-2.37,1.3-.47,1.74-.18.94.67Z"/>
      <path class="cls-2" d="M141.98,89.79c-.8.86-2.56,2-3.88,2.53-1.32.53-1.71.24-.91-.61.8-.86,2.49-1.97,3.81-2.5,1.32-.53,1.78-.28.97.58Z"/>
      <path class="cls-2" d="M149.92,86.4c-.81.88-2.58,2.06-3.92,2.64-1.34.58-1.74.33-.93-.54.81-.87,2.51-2.03,3.85-2.62,1.34-.58,1.81-.36,1,.52Z"/>
      <path class="cls-2" d="M6.92,97.68c-.19.77-1.62,1.2-3.18.96-1.57-.24-2.73-1.06-2.61-1.83.13-.77,1.55-1.2,3.18-.97,1.63.24,2.8,1.06,2.61,1.83Z"/>
      <path class="cls-2" d="M16.37,99.07c-.29.78-1.79,1.22-3.35.99-1.56-.23-2.63-1.05-2.4-1.83.23-.78,1.73-1.22,3.35-.99,1.62.23,2.7,1.05,2.4,1.83Z"/>
      <path class="cls-2" d="M25.72,100.4c-.39.79-1.96,1.24-3.5,1.02-1.54-.22-2.52-1.04-2.19-1.82.33-.78,1.9-1.24,3.5-1.02,1.6.22,2.58,1.03,2.19,1.82Z"/>
      <path class="cls-2" d="M34.95,101.64c-.48.79-2.11,1.26-3.63,1.06-1.52-.21-2.4-1.02-1.98-1.8.43-.79,2.05-1.26,3.63-1.05,1.58.2,2.46,1.01,1.98,1.8Z"/>
      <path class="cls-2" d="M44.01,102.78c-.57.8-2.25,1.29-3.74,1.1-1.49-.19-2.28-.99-1.76-1.78.52-.79,2.19-1.28,3.74-1.1,1.55.19,2.34.98,1.77,1.78Z"/>
      <path class="cls-2" d="M52.88,103.78c-.65.8-2.37,1.32-3.83,1.15-1.46-.17-2.16-.95-1.55-1.75.6-.8,2.31-1.31,3.82-1.14,1.51.16,2.21.94,1.56,1.74Z"/>
      <path class="cls-2" d="M61.52,104.64c-.72.8-2.46,1.35-3.89,1.21-1.42-.14-2.03-.91-1.35-1.71.68-.8,2.41-1.34,3.88-1.2,1.47.14,2.07.9,1.35,1.7Z"/>
      <path class="cls-2" d="M69.88,105.32c-.78.81-2.53,1.38-3.92,1.27-1.38-.11-1.9-.86-1.15-1.66.74-.81,2.49-1.37,3.91-1.26,1.42.11,1.94.84,1.16,1.65Z"/>
      <path class="cls-2" d="M77.95,105.8c-.83.81-2.58,1.41-3.92,1.34-1.33-.07-1.76-.8-.96-1.61.8-.81,2.55-1.4,3.91-1.32,1.36.07,1.8.78.97,1.59Z"/>
      <path class="cls-2" d="M85.68,106.06c-.86.81-2.6,1.45-3.88,1.41-1.28-.04-1.63-.73-.79-1.54.84-.81,2.57-1.43,3.87-1.4,1.3.04,1.66.71.8,1.53Z"/>
      <path class="cls-2" d="M92.89,106.04c-.87.81-2.45,1.52-3.67,1.53-1.22,0-1.5-.66-.63-1.47.87-.81,2.57-1.47,3.8-1.47,1.23,0,1.38.61.5,1.42Z"/>
      <path class="cls-2" d="M99.81,105.43c-.88.82-2.57,1.61-3.74,1.73-1.17.12-1.38-.47-.5-1.28.88-.82,2.5-1.55,3.67-1.67,1.17-.12,1.45.41.57,1.23Z"/>
      <path class="cls-2" d="M106.95,104.23c-.88.82-2.6,1.69-3.81,1.92-1.21.22-1.44-.29-.57-1.11.88-.82,2.54-1.64,3.74-1.87,1.21-.22,1.51.24.63,1.06Z"/>
      <path class="cls-2" d="M114.28,102.47c-.88.83-2.63,1.78-3.87,2.09-1.24.31-1.5-.13-.62-.96.88-.83,2.57-1.73,3.81-2.04,1.24-.31,1.57.08.69.91Z"/>
      <path class="cls-2" d="M121.8,100.24c-.88.84-2.66,1.85-3.93,2.24-1.27.39-1.55,0-.67-.83.88-.83,2.6-1.81,3.87-2.2,1.27-.39,1.62-.05.73.79Z"/>
      <path class="cls-2" d="M129.47,97.58c-.89.85-2.69,1.93-3.98,2.38-1.3.46-1.6.13-.71-.72.89-.84,2.63-1.89,3.92-2.35,1.3-.46,1.66-.17.77.68Z"/>
      <path class="cls-2" d="M137.27,94.57c-.89.86-2.71,1.99-4.03,2.51-1.32.52-1.63.23-.74-.63.89-.85,2.65-1.96,3.97-2.48,1.32-.52,1.69-.26.8.6Z"/>
      <path class="cls-2" d="M145.18,91.24c-.9.87-2.73,2.05-4.07,2.62-1.33.56-1.66.31-.77-.56.89-.87,2.67-2.02,4.01-2.59,1.34-.57,1.72-.34.83.53Z"/>
      <path class="cls-2" d="M153.19,87.68c-.9.89-2.75,2.1-4.1,2.71-1.35.6-1.69.37-.79-.51.9-.88,2.7-2.08,4.05-2.69,1.35-.61,1.74-.4.84.49Z"/>
      <path class="cls-2" d="M5.84,101.94c-.2.76-1.55,1.18-3.02.93-1.47-.25-2.54-1.06-2.41-1.82.13-.76,1.48-1.18,3.02-.94,1.53.24,2.61,1.06,2.41,1.82Z"/>
      <path class="cls-2" d="M14.7,103.36c-.31.77-1.74,1.2-3.2.96-1.46-.24-2.44-1.05-2.2-1.82.24-.77,1.68-1.2,3.2-.96,1.52.24,2.51,1.05,2.2,1.82Z"/>
      <path class="cls-2" d="M23.49,104.72c-.41.78-1.92,1.22-3.37.99-1.45-.23-2.33-1.04-1.98-1.81.35-.77,1.86-1.21,3.37-.99,1.51.22,2.4,1.03,1.99,1.81Z"/>
      <path class="cls-2" d="M32.19,105.99c-.51.78-2.09,1.24-3.52,1.03-1.43-.21-2.22-1.02-1.77-1.8.45-.78,2.03-1.24,3.52-1.03,1.49.21,2.28,1.01,1.77,1.79Z"/>
      <path class="cls-2" d="M40.75,107.16c-.61.79-2.24,1.27-3.65,1.08-1.41-.19-2.11-.99-1.56-1.77.55-.78,2.18-1.26,3.65-1.07,1.47.19,2.16.98,1.56,1.77Z"/>
      <path class="cls-2" d="M49.16,108.19c-.69.79-2.37,1.3-3.76,1.13-1.39-.17-1.99-.95-1.35-1.74.64-.79,2.32-1.29,3.76-1.12,1.44.17,2.04.94,1.35,1.73Z"/>
      <path class="cls-2" d="M57.39,109.07c-.77.8-2.49,1.33-3.85,1.19-1.36-.14-1.87-.91-1.15-1.7.72-.79,2.44-1.32,3.84-1.18,1.4.14,1.92.9,1.15,1.69Z"/>
      <path class="cls-2" d="M65.42,109.77c-.83.8-2.58,1.36-3.9,1.25-1.32-.11-1.75-.86-.96-1.66.79-.8,2.54-1.35,3.9-1.24,1.36.11,1.8.84.97,1.64Z"/>
      <path class="cls-2" d="M73.21,110.27c-.88.8-2.65,1.4-3.93,1.32-1.29-.08-1.64-.8-.78-1.6.85-.8,2.61-1.38,3.93-1.31,1.32.08,1.67.78.79,1.58Z"/>
      <path class="cls-2" d="M80.73,110.54c-.92.81-2.69,1.44-3.93,1.4-1.25-.04-1.52-.73-.62-1.54.9-.8,2.66-1.42,3.93-1.38,1.27.04,1.55.71.63,1.52Z"/>
      <path class="cls-2" d="M87.85,110.53c-.94.81-2.58,1.51-3.78,1.51-1.2,0-1.41-.66-.48-1.46.93-.81,2.67-1.45,3.89-1.46,1.21,0,1.31.6.37,1.41Z"/>
      <path class="cls-2" d="M94.76,109.95c-.94.81-2.68,1.59-3.85,1.71-1.17.12-1.33-.47-.38-1.28.94-.81,2.63-1.54,3.8-1.66,1.17-.12,1.38.41.44,1.23Z"/>
      <path class="cls-2" d="M101.88,108.78c-.95.82-2.72,1.68-3.92,1.89-1.21.21-1.39-.3-.45-1.11.94-.81,2.66-1.63,3.87-1.85,1.21-.22,1.45.24.5,1.06Z"/>
      <path class="cls-2" d="M109.2,107.07c-.95.83-2.75,1.76-3.99,2.07-1.24.3-1.45-.14-.5-.96.95-.82,2.69-1.71,3.93-2.02,1.24-.31,1.5.09.55.92Z"/>
      <path class="cls-2" d="M116.7,104.88c-.95.84-2.78,1.84-4.04,2.22-1.27.38-1.5,0-.55-.84s2.72-1.8,3.99-2.18c1.27-.39,1.55-.04.6.8Z"/>
      <path class="cls-2" d="M124.35,102.29c-.96.85-2.8,1.91-4.09,2.36-1.29.45-1.54.11-.59-.73.95-.84,2.75-1.87,4.05-2.33,1.29-.45,1.59-.15.63.7Z"/>
      <path class="cls-2" d="M132.13,99.33c-.96.86-2.83,1.98-4.14,2.48-1.31.5-1.58.21-.62-.64.96-.85,2.78-1.94,4.09-2.46,1.32-.51,1.63-.24.66.62Z"/>
      <path class="cls-2" d="M140.01,96.08c-.97.87-2.85,2.04-4.18,2.59-1.33.55-1.61.29-.64-.58.96-.86,2.8-2.01,4.14-2.57,1.33-.56,1.65-.32.69.55Z"/>
      <path class="cls-2" d="M147.99,92.59c-.97.89-2.87,2.09-4.21,2.68-1.34.59-1.63.35-.66-.53.97-.88,2.82-2.07,4.17-2.66,1.35-.6,1.67-.37.7.51Z"/>
      <path class="cls-2" d="M156.03,88.93c-.98.9-2.89,2.14-4.24,2.76-1.35.62-1.64.39-.67-.5.97-.89,2.84-2.12,4.2-2.74,1.36-.63,1.69-.41.71.49Z"/>
      <path class="cls-2" d="M4.7,106.15c-.21.76-1.48,1.16-2.84.91-1.36-.25-2.35-1.07-2.21-1.82.14-.75,1.41-1.16,2.84-.91,1.43.25,2.42,1.06,2.21,1.82Z"/>
      <path class="cls-2" d="M12.95,107.6c-.32.76-1.68,1.18-3.03.94-1.35-.25-2.25-1.06-1.99-1.82.25-.76,1.61-1.18,3.03-.94,1.42.24,2.32,1.06,1.99,1.82Z"/>
      <path class="cls-2" d="M21.16,109c-.43.77-1.87,1.2-3.22.97s-2.14-1.05-1.78-1.81c.36-.77,1.8-1.2,3.21-.97,1.41.23,2.21,1.04,1.78,1.81Z"/>
      <path class="cls-2" d="M29.29,110.3c-.53.77-2.05,1.23-3.38,1.01-1.34-.22-2.03-1.02-1.56-1.8.47-.77,1.98-1.22,3.38-1,1.4.22,2.1,1.01,1.57,1.79Z"/>
      <path class="cls-2" d="M37.32,111.5c-.63.78-2.21,1.26-3.53,1.06-1.32-.2-1.93-1-1.36-1.77s2.15-1.24,3.53-1.05c1.38.2,1.99.98,1.36,1.76Z"/>
      <path class="cls-2" d="M111.27,109.51c-1,.83-2.86,1.83-4.12,2.2-1.26.37-1.46-.02-.46-.85,1-.83,2.82-1.78,4.08-2.16,1.27-.38,1.5-.02.49.81Z"/>
      <path class="cls-2" d="M118.9,106.98c-1.01.85-2.89,1.9-4.17,2.34-1.29.44-1.5.09-.49-.75,1-.84,2.85-1.86,4.14-2.3,1.29-.44,1.54-.13.53.71Z"/>
      <path class="cls-2" d="M126.65,104.09c-1.01.86-2.91,1.97-4.22,2.46-1.31.49-1.53.19-.52-.66,1.01-.85,2.87-1.93,4.18-2.43,1.31-.5,1.57-.22.56.63Z"/>
      <path class="cls-2" d="M134.51,100.91c-1.02.87-2.93,2.03-4.26,2.57-1.33.54-1.56.27-.55-.6,1.01-.86,2.9-2,4.22-2.54,1.33-.55,1.6-.3.58.58Z"/>
      <path class="cls-2" d="M142.45,97.5c-1.02.89-2.95,2.08-4.29,2.66-1.34.58-1.58.32-.56-.55s2.92-2.05,4.26-2.64c1.34-.59,1.62-.35.59.54Z"/>
      <path class="cls-2" d="M150.46,93.92c-1.03.9-2.97,2.13-4.32,2.73-1.35.6-1.6.36-.57-.53,1.02-.89,2.94-2.11,4.29-2.72,1.35-.61,1.63-.39.6.52Z"/>
      <path class="cls-2" d="M3.53,110.32c-.21.75-1.4,1.15-2.65.89-1.25-.26-2.15-1.08-2.01-1.82.14-.75,1.33-1.15,2.65-.89,1.32.26,2.22,1.07,2.01,1.82Z"/>
      <path class="cls-2" d="M11.15,111.81c-.33.76-1.61,1.17-2.86.92-1.25-.25-2.05-1.07-1.79-1.82s1.54-1.16,2.86-.91c1.32.25,2.12,1.06,1.79,1.82Z"/>
      <path class="cls-2" d="M120.94,108.84c-1.04.86-2.96,1.96-4.26,2.44-1.3.48-1.5.17-.46-.68,1.04-.85,2.93-1.92,4.24-2.41,1.31-.49,1.53-.2.49.65Z"/>
      <path class="cls-2" d="M128.77,105.74c-1.05.87-2.98,2.02-4.3,2.54-1.32.53-1.53.24-.49-.62,1.05-.86,2.96-1.98,4.28-2.52,1.32-.53,1.56-.27.51.6Z"/>
      <path class="cls-2" d="M136.69,102.41c-1.06.89-3,2.07-4.33,2.63-1.33.56-1.55.3-.5-.58,1.05-.88,2.98-2.04,4.31-2.61,1.34-.57,1.58-.33.52.56Z"/>
      <path class="cls-2" d="M144.67,98.91c-1.06.9-3.02,2.12-4.36,2.71-1.34.59-1.57.34-.51-.55,1.06-.89,3-2.09,4.34-2.69,1.35-.6,1.59-.36.53.54Z"/>
      <path class="cls-2" d="M152.69,95.3c-1.07.92-3.03,2.16-4.38,2.76-1.35.61-1.57.36-.51-.55,1.06-.91,3.01-2.14,4.37-2.76,1.35-.62,1.59-.38.53.54Z"/>
      <path class="cls-2" d="M122.91,110.57c-1.06.87-3,2-4.31,2.52-1.32.51-1.52.22-.46-.64,1.06-.86,2.98-1.97,4.3-2.49,1.32-.52,1.53-.25.47.62Z"/>
      <path class="cls-2" d="M130.8,107.32c-1.07.89-3.02,2.06-4.34,2.61-1.33.55-1.54.27-.47-.6,1.07-.88,3-2.03,4.34-2.59,1.33-.56,1.55-.3.48.59Z"/>
      <path class="cls-2" d="M138.74,103.91c-1.07.9-3.03,2.1-4.37,2.68-1.34.58-1.55.31-.48-.58,1.07-.89,3.02-2.08,4.36-2.67,1.34-.58,1.56-.33.49.57Z"/>
      <path class="cls-2" d="M146.73,100.38c-1.08.92-3.05,2.14-4.39,2.74-1.34.59-1.56.33-.48-.57,1.08-.91,3.04-2.13,4.39-2.73,1.35-.6,1.57-.35.49.57Z"/>
      <path class="cls-2" d="M154.74,96.79c-1.09.93-3.06,2.18-4.41,2.78-1.35.6-1.56.34-.48-.59,1.08-.92,3.05-2.17,4.4-2.78,1.35-.61,1.57-.35.48.59Z"/>
      <path class="cls-2" d="M132.8,108.9c-1.07.9-3.01,2.09-4.35,2.65-1.33.56-1.55.29-.49-.61,1.07-.89,3.01-2.07,4.35-2.64,1.34-.57,1.55-.31.48.59Z"/>
      <path class="cls-2" d="M140.75,105.46c-1.08.92-3.03,2.13-4.37,2.71-1.34.58-1.56.31-.49-.6,1.07-.91,3.03-2.12,4.37-2.7,1.34-.59,1.56-.32.48.59Z"/>
      <path class="cls-2" d="M148.73,101.96c-1.08.93-3.04,2.16-4.38,2.75-1.34.59-1.56.31-.48-.61,1.08-.92,3.05-2.15,4.39-2.75,1.35-.6,1.56-.32.47.61Z"/>
      <path class="cls-2" d="M156.7,98.46c-1.09.95-3.05,2.19-4.39,2.77-1.34.58-1.56.3-.47-.64,1.08-.94,3.06-2.18,4.4-2.78,1.34-.59,1.55-.3.46.65Z"/>
      <path class="cls-2" d="M134.85,110.54c-1.05.92-2.97,2.12-4.31,2.68-1.33.56-1.57.28-.53-.63,1.05-.91,2.99-2.1,4.33-2.68,1.34-.57,1.56-.3.51.62Z"/>
      <path class="cls-2" d="M142.79,107.13c-1.06.93-2.99,2.15-4.32,2.72s-1.58.28-.52-.64c1.05-.92,3-2.14,4.34-2.72,1.34-.58,1.56-.29.5.64Z"/>
      <path class="cls-2" d="M150.74,103.72c-1.06.95-3,2.18-4.33,2.74-1.34.57-1.57.27-.51-.67,1.06-.94,3.01-2.17,4.35-2.75,1.34-.58,1.55-.28.49.67Z"/>
      <path class="cls-2" d="M144.96,108.97c-1.02.95-2.91,2.16-4.24,2.72-1.33.55-1.6.25-.59-.69,1.02-.94,2.94-2.16,4.27-2.72,1.33-.56,1.57-.25.55.7Z"/>
      <path class="cls-2" d="M152.85,105.7c-1.03.96-2.91,2.18-4.24,2.72-1.33.54-1.59.22-.57-.73,1.02-.95,2.94-2.18,4.27-2.73,1.33-.55,1.56-.22.53.74Z"/>
      <path class="cls-2" d="M155.16,107.93c-.97.97-2.79,2.17-4.11,2.68-1.31.51-1.62.15-.66-.81.96-.96,2.84-2.17,4.16-2.7,1.32-.52,1.58-.15.61.83Z"/>
    </g>
  </g>
</svg>