<?xml version="1.0" encoding="UTF-8"?>
<svg id="Layer_1" data-name="Layer 1" xmlns="http://www.w3.org/2000/svg" xmlns:xlink="http://www.w3.org/1999/xlink" viewBox="0 0 151.57 109.96">
  <defs>
    <style>
      .cls-1, .cls-2, .cls-3 {
        fill: none;
      }

      .cls-4 {
        fill: #afd136;
      }

      .cls-2, .cls-5, .cls-6, .cls-3, .cls-7 {
        stroke-miterlimit: 10;
        stroke-width: 2px;
      }

      .cls-2, .cls-7 {
        stroke: #231f20;
      }

      .cls-5 {
        fill: #fff200;
      }

      .cls-5, .cls-6 {
        stroke: #fff;
      }

      .cls-6 {
        fill: #00aeef;
      }

      .cls-3 {
        stroke: #000;
      }

      .cls-7 {
        fill: #ec008c;
      }

      .cls-8 {
        clip-path: url(#clippath);
      }
    </style>
    <clipPath id="clippath">
      <rect class="cls-1" x="-176.47" y="13.59" width="82.78" height="82.78"/>
    </clipPath>
  </defs>
  <g>
    <path class="cls-2" d="M75.78,14.64c-22.28,0-40.34,18.06-40.34,40.34h40.34V14.64Z"/>
    <path class="cls-5" d="M35.45,54.98c0,22.28,18.06,40.34,40.34,40.34v-40.34s-40.34,0-40.34,0Z"/>
    <path class="cls-7" d="M75.78,95.32c22.28,0,40.34-18.06,40.34-40.34h-40.34s0,40.34,0,40.34Z"/>
    <path class="cls-6" d="M116.12,54.98c0-22.28-18.06-40.34-40.34-40.34v40.34s40.34,0,40.34,0Z"/>
    <circle cx="75.79" cy="54.98" r="15.11"/>
    <circle class="cls-3" cx="75.79" cy="54.98" r="26.04"/>
  </g>
  <g class="cls-8">
    <g>
      <path class="cls-4" d="M139.04-.09c.14.95-.47,1.44-1.33,1.08-.86-.36-1.68-1.44-1.84-2.39-.16-.95.42-1.42,1.31-1.05.89.37,1.73,1.42,1.87,2.37Z"/>
      <path class="cls-4" d="M144.4,1.83c.1.93-.56,1.46-1.46,1.15-.9-.31-1.71-1.33-1.83-2.28-.12-.94.52-1.43,1.44-1.12.92.31,1.76,1.31,1.85,2.25Z"/>
      <path class="cls-4" d="M149.97,3.38c.06.92-.65,1.49-1.59,1.24-.94-.25-1.75-1.22-1.83-2.15-.08-.93.61-1.46,1.56-1.21.95.25,1.79,1.19,1.86,2.11Z"/>
      <path class="cls-4" d="M130.04.62c.21.97-.26,1.42-1.03.99-.77-.43-1.58-1.57-1.81-2.55-.24-.98.21-1.41,1.01-.98.8.44,1.63,1.57,1.83,2.54Z"/>
      <path class="cls-4" d="M134.82,3.01c.17.96-.36,1.42-1.15,1.03-.8-.39-1.59-1.5-1.78-2.47-.19-.97.31-1.41,1.13-1.01.82.4,1.63,1.49,1.8,2.45Z"/>
      <path class="cls-4" d="M139.77,5.15c.13.94-.46,1.44-1.28,1.09-.83-.35-1.61-1.41-1.76-2.36-.15-.95.41-1.42,1.26-1.07.85.36,1.66,1.4,1.78,2.34Z"/>
      <path class="cls-4" d="M144.92,7c.09.93-.55,1.46-1.42,1.16-.86-.3-1.64-1.31-1.75-2.25-.11-.94.5-1.44,1.39-1.14.89.3,1.69,1.29,1.78,2.22Z"/>
      <path class="cls-4" d="M150.31,8.5c.06.92-.64,1.49-1.55,1.25-.91-.24-1.69-1.2-1.77-2.13-.08-.93.6-1.47,1.52-1.22.93.24,1.74,1.17,1.8,2.09Z"/>
      <path class="cls-4" d="M122.49.81c.28.99-.07,1.43-.76.97-.69-.46-1.49-1.65-1.8-2.65-.31-1,.02-1.44.74-.97.72.47,1.54,1.65,1.82,2.65Z"/>
      <path class="cls-4" d="M126.76,3.47c.23.98-.16,1.42-.87.98-.71-.44-1.48-1.6-1.74-2.59-.26-.99.11-1.42.85-.97.74.45,1.53,1.6,1.77,2.58Z"/>
      <path class="cls-4" d="M131.15,5.98c.19.96-.26,1.42-.99,1.01-.73-.41-1.48-1.54-1.7-2.52-.22-.97.21-1.41.97-.99.76.42,1.54,1.54,1.73,2.5Z"/>
      <path class="cls-4" d="M135.7,8.3c.15.95-.36,1.42-1.12,1.05-.76-.38-1.5-1.47-1.67-2.43-.17-.96.31-1.42,1.09-1.03.78.39,1.55,1.46,1.7,2.41Z"/>
      <path class="cls-4" d="M140.43,10.37c.11.94-.45,1.44-1.25,1.1-.79-.34-1.53-1.39-1.67-2.33-.13-.95.4-1.42,1.22-1.08.82.34,1.58,1.37,1.69,2.31Z"/>
      <path class="cls-4" d="M145.39,12.15c.08.93-.55,1.46-1.38,1.18-.83-.29-1.57-1.29-1.67-2.22-.1-.93.5-1.44,1.35-1.15.85.29,1.62,1.27,1.7,2.2Z"/>
      <path class="cls-4" d="M150.62,13.59c.05.92-.64,1.49-1.52,1.27-.88-.23-1.63-1.18-1.7-2.1-.07-.92.59-1.47,1.49-1.23.9.23,1.68,1.15,1.73,2.07Z"/>
      <path class="cls-4" d="M116.14.85c.34,1.01.08,1.46-.56,1-.64-.46-1.44-1.66-1.8-2.68-.36-1.02-.13-1.47.53-1,.67.47,1.49,1.68,1.83,2.69Z"/>
      <path class="cls-4" d="M120.02,3.6c.29,1,0,1.44-.65.98-.64-.46-1.41-1.64-1.73-2.65-.32-1.01-.05-1.45.62-.98.67.47,1.46,1.65,1.75,2.65Z"/>
      <path class="cls-4" d="M123.96,6.29c.25.98-.09,1.42-.74.98-.65-.45-1.39-1.61-1.66-2.61-.28-.99.04-1.43.72-.97s1.44,1.62,1.69,2.6Z"/>
      <path class="cls-4" d="M127.99,8.87c.21.97-.18,1.41-.85.99-.67-.43-1.38-1.57-1.62-2.55-.23-.98.13-1.42.82-.98.69.44,1.44,1.57,1.65,2.54Z"/>
      <path class="cls-4" d="M132.14,11.31c.17.96-.28,1.41-.97,1.01-.69-.4-1.39-1.51-1.59-2.48-.19-.96.22-1.41.94-1,.72.41,1.45,1.51,1.62,2.47Z"/>
      <path class="cls-4" d="M136.47,13.55c.13.94-.37,1.42-1.09,1.05-.72-.37-1.42-1.44-1.57-2.4-.15-.95.31-1.41,1.06-1.04.75.37,1.47,1.44,1.6,2.38Z"/>
      <path class="cls-4" d="M141.01,15.56c.1.93-.46,1.44-1.22,1.11-.76-.33-1.46-1.36-1.57-2.3-.12-.94.41-1.42,1.19-1.09.78.33,1.51,1.35,1.61,2.28Z"/>
      <path class="cls-4" d="M145.8,17.28c.07.92-.55,1.46-1.36,1.18-.81-.28-1.51-1.27-1.59-2.2-.08-.93.5-1.44,1.32-1.16.82.28,1.56,1.25,1.63,2.17Z"/>
      <path class="cls-4" d="M150.88,18.67c.04.92-.64,1.49-1.5,1.27-.86-.22-1.58-1.16-1.63-2.08s.59-1.47,1.46-1.24c.87.23,1.63,1.14,1.67,2.05Z"/>
      <path class="cls-4" d="M2.69,6.06c.55,1.06-.13,2.47-1.47,3.18-1.34.71-2.85.44-3.38-.62-.54-1.05.09-2.5,1.42-3.21,1.34-.71,2.89-.41,3.43.65Z"/>
      <path class="cls-4" d="M10.61,2.04c.56,1.07-.09,2.46-1.43,3.12-1.33.67-2.84.37-3.39-.7-.55-1.06.06-2.49,1.38-3.16,1.33-.67,2.88-.33,3.44.74Z"/>
      <path class="cls-4" d="M18.44-1.71c.57,1.08-.06,2.43-1.38,3.04-1.32.62-2.82.27-3.39-.8-.56-1.07.02-2.47,1.34-3.09,1.31-.62,2.86-.23,3.43.84Z"/>
      <path class="cls-4" d="M110.58,1.09c.37,1.03.16,1.49-.45,1.06-.61-.43-1.42-1.61-1.82-2.65-.4-1.03-.21-1.52.42-1.08.64.44,1.47,1.64,1.84,2.67Z"/>
      <path class="cls-4" d="M114.25,3.74c.33,1.01.1,1.46-.5,1.02-.6-.44-1.37-1.62-1.72-2.64-.36-1.02-.15-1.49.48-1.03.63.45,1.42,1.65,1.75,2.66Z"/>
      <path class="cls-4" d="M117.88,6.42c.29,1,.03,1.44-.57.99-.6-.45-1.33-1.62-1.64-2.63-.32-1.01-.08-1.46.54-1,.62.46,1.38,1.64,1.67,2.64Z"/>
      <path class="cls-4" d="M121.53,9.09c.25.99-.05,1.42-.65.98-.6-.44-1.3-1.61-1.58-2.6-.28-.99,0-1.43.62-.98s1.36,1.62,1.61,2.61Z"/>
      <path class="cls-4" d="M125.24,11.71c.21.97-.13,1.41-.75.98-.61-.43-1.29-1.58-1.52-2.56-.24-.98.07-1.42.71-.98.64.44,1.34,1.59,1.56,2.56Z"/>
      <path class="cls-4" d="M129.04,14.22c.17.96-.22,1.4-.85.99-.63-.42-1.29-1.54-1.49-2.5-.2-.97.16-1.41.81-.98.66.42,1.35,1.54,1.52,2.5Z"/>
      <path class="cls-4" d="M132.99,16.58c.14.95-.3,1.4-.96,1.02-.66-.39-1.31-1.48-1.47-2.44-.16-.95.25-1.4.93-1.01.68.4,1.36,1.48,1.5,2.43Z"/>
      <path class="cls-4" d="M137.13,18.76c.11.94-.39,1.41-1.08,1.06-.69-.36-1.34-1.42-1.46-2.36-.13-.94.33-1.41,1.05-1.04.71.36,1.39,1.41,1.5,2.35Z"/>
      <path class="cls-4" d="M141.49,20.71c.08.93-.48,1.43-1.21,1.11-.73-.32-1.38-1.34-1.48-2.27-.09-.93.42-1.42,1.17-1.09.75.32,1.44,1.33,1.52,2.25Z"/>
      <path class="cls-4" d="M146.12,22.38c.05.92-.56,1.46-1.35,1.19-.78-.27-1.45-1.25-1.51-2.17-.07-.92.51-1.44,1.31-1.16.8.27,1.5,1.23,1.55,2.15Z"/>
      <path class="cls-4" d="M151.07,23.73c.03.91-.65,1.49-1.49,1.28-.84-.21-1.53-1.15-1.57-2.06-.04-.92.59-1.47,1.45-1.25.85.22,1.58,1.12,1.61,2.03Z"/>
      <path class="cls-4" d="M5.46,11.86c.45,1.03-.31,2.42-1.67,3.12-1.36.7-2.79.45-3.23-.58-.44-1.03.26-2.45,1.61-3.15,1.35-.7,2.83-.42,3.29.62Z"/>
      <path class="cls-4" d="M13.44,7.88c.46,1.04-.28,2.4-1.63,3.06-1.34.66-2.78.38-3.23-.66-.46-1.04.23-2.44,1.57-3.1,1.34-.67,2.82-.34,3.29.7Z"/>
      <path class="cls-4" d="M21.34,4.18c.47,1.05-.25,2.37-1.58,2.98-1.33.61-2.76.29-3.23-.76-.47-1.04.2-2.41,1.53-3.03,1.32-.62,2.81-.24,3.28.81Z"/>
      <path class="cls-4" d="M29.13.82c.48,1.05-.22,2.33-1.53,2.88-1.31.55-2.73.17-3.21-.88-.48-1.05.17-2.38,1.48-2.93,1.31-.55,2.78-.12,3.26.93Z"/>
      <path class="cls-4" d="M36.81-2.12c.49,1.06-.19,2.27-1.48,2.75-1.29.48-2.7.04-3.19-1.01-.48-1.06.14-2.33,1.43-2.82,1.29-.48,2.75.02,3.24,1.08Z"/>
      <path class="cls-4" d="M101.46-.45c.41,1.04.18,1.58-.48,1.23-.66-.35-1.53-1.46-1.96-2.5-.42-1.04-.23-1.62.45-1.26.68.36,1.58,1.5,1.98,2.54Z"/>
      <path class="cls-4" d="M105.29,1.79c.38,1.03.16,1.53-.47,1.15-.63-.38-1.44-1.51-1.84-2.54-.4-1.03-.21-1.57.44-1.18.65.39,1.49,1.55,1.87,2.58Z"/>
      <path class="cls-4" d="M108.94,4.19c.34,1.02.12,1.5-.48,1.09-.6-.41-1.37-1.55-1.73-2.57-.36-1.02-.17-1.53.45-1.12.62.41,1.42,1.58,1.76,2.6Z"/>
      <path class="cls-4" d="M112.48,6.71c.31,1,.07,1.47-.51,1.04-.58-.42-1.3-1.58-1.64-2.59-.33-1.01-.13-1.49.47-1.06.6.43,1.36,1.6,1.67,2.61Z"/>
      <path class="cls-4" d="M115.93,9.29c.27.99.02,1.44-.55,1-.57-.43-1.25-1.59-1.55-2.59-.3-1-.07-1.46.52-1.02.59.44,1.31,1.61,1.58,2.6Z"/>
      <path class="cls-4" d="M119.36,11.91c.24.98-.04,1.42-.61.98-.57-.44-1.22-1.59-1.48-2.57-.26-.99-.01-1.44.57-.99.59.44,1.27,1.6,1.51,2.59Z"/>
      <path class="cls-4" d="M122.8,14.51c.2.97-.11,1.4-.68.97-.57-.43-1.2-1.57-1.42-2.55-.23-.98.05-1.41.64-.97.59.44,1.25,1.59,1.46,2.56Z"/>
      <path class="cls-4" d="M126.3,17.05c.17.96-.18,1.39-.77.97-.58-.42-1.19-1.55-1.38-2.51-.19-.96.13-1.4.73-.97.6.43,1.25,1.55,1.42,2.51Z"/>
      <path class="cls-4" d="M129.91,19.5c.14.95-.26,1.39-.86.98-.6-.4-1.2-1.51-1.35-2.46-.16-.95.2-1.39.82-.98.62.41,1.26,1.51,1.39,2.46Z"/>
      <path class="cls-4" d="M133.67,21.8c.1.94-.34,1.39-.97,1.01-.63-.38-1.22-1.46-1.34-2.4-.12-.94.28-1.39.93-1,.65.39,1.28,1.45,1.38,2.39Z"/>
      <path class="cls-4" d="M137.63,23.93c.08.93-.42,1.4-1.09,1.06-.67-.35-1.26-1.39-1.35-2.33-.09-.93.36-1.4,1.05-1.04.68.35,1.32,1.38,1.4,2.31Z"/>
      <path class="cls-4" d="M141.84,25.82c.05.92-.5,1.42-1.21,1.11-.71-.31-1.32-1.32-1.39-2.24-.07-.92.45-1.41,1.17-1.1.73.31,1.38,1.3,1.43,2.22Z"/>
      <path class="cls-4" d="M146.35,27.45c.03.91-.58,1.45-1.35,1.19-.76-.26-1.39-1.23-1.44-2.15-.04-.92.53-1.43,1.3-1.16.78.27,1.45,1.21,1.48,2.12Z"/>
      <path class="cls-4" d="M151.19,28.77c.01.91-.66,1.49-1.49,1.28-.82-.21-1.49-1.13-1.51-2.04-.02-.91.61-1.46,1.44-1.25.83.21,1.54,1.11,1.55,2.01Z"/>
      <path class="cls-4" d="M7.66,17.5c.34,1-.52,2.36-1.88,3.05-1.37.69-2.71.46-3.05-.54-.34-1,.46-2.39,1.82-3.08,1.36-.7,2.77-.43,3.11.57Z"/>
      <path class="cls-4" d="M15.7,13.56c.35,1.01-.49,2.34-1.85,2.99-1.35.65-2.7.39-3.05-.61-.35-1.01.44-2.37,1.78-3.03,1.35-.66,2.76-.35,3.11.66Z"/>
      <path class="cls-4" d="M23.65,9.89c.36,1.01-.46,2.3-1.8,2.91-1.34.61-2.68.3-3.03-.71-.35-1.01.41-2.35,1.74-2.96,1.33-.61,2.74-.26,3.1.76Z"/>
      <path class="cls-4" d="M31.49,6.56c.37,1.02-.44,2.26-1.75,2.81-1.32.55-2.65.19-3.01-.82-.36-1.02.38-2.31,1.69-2.86,1.31-.55,2.71-.14,3.07.88Z"/>
      <path class="cls-4" d="M39.2,3.65c.37,1.02-.41,2.21-1.7,2.68-1.3.48-2.62.06-2.98-.96-.37-1.02.35-2.27,1.64-2.75,1.29-.48,2.67,0,3.04,1.02Z"/>
      <path class="cls-4" d="M46.76,1.22c.38,1.03-.38,2.14-1.65,2.53-1.27.39-2.57-.09-2.95-1.11-.37-1.02.32-2.21,1.59-2.6,1.27-.39,2.63.16,3.01,1.18Z"/>
      <path class="cls-4" d="M54.15-.66c.38,1.03-.35,2.06-1.59,2.36-1.24.3-2.52-.25-2.9-1.28-.38-1.03.29-2.14,1.53-2.44,1.24-.3,2.58.33,2.96,1.36Z"/>
      <path class="cls-4" d="M61.35-1.93c.38,1.03-.32,1.97-1.52,2.17-1.2.19-2.46-.44-2.84-1.47-.38-1.03.26-2.06,1.47-2.25,1.2-.19,2.52.53,2.9,1.56Z"/>
      <path class="cls-4" d="M85.94-1.24c.38,1.03-.04,1.71-.92,1.56-.88-.15-1.9-1.08-2.28-2.11-.38-1.03,0-1.77.89-1.62.89.15,1.93,1.14,2.31,2.16Z"/>
      <path class="cls-4" d="M90.85-.06c.37,1.03,0,1.66-.81,1.45-.81-.21-1.76-1.18-2.14-2.21-.38-1.03-.04-1.72.78-1.5.82.21,1.79,1.24,2.17,2.26Z"/>
      <path class="cls-4" d="M95.38,1.44c.36,1.02.03,1.61-.72,1.35-.75-.26-1.63-1.28-2-2.3-.37-1.02-.07-1.66.68-1.4s1.67,1.33,2.03,2.35Z"/>
      <path class="cls-4" d="M99.57,3.21c.34,1.01.04,1.57-.65,1.26-.69-.3-1.52-1.36-1.87-2.37-.35-1.02-.09-1.62.62-1.31.7.31,1.56,1.4,1.9,2.42Z"/>
      <path class="cls-4" d="M103.48,5.21c.32,1.01.04,1.53-.6,1.19-.64-.34-1.42-1.42-1.75-2.43-.33-1.01-.09-1.57.57-1.22.66.35,1.46,1.46,1.78,2.47Z"/>
      <path class="cls-4" d="M107.15,7.41c.29,1,.03,1.49-.58,1.12-.6-.37-1.33-1.47-1.64-2.48-.31-1-.08-1.53.54-1.15.62.38,1.38,1.51,1.67,2.51Z"/>
      <path class="cls-4" d="M110.64,9.75c.27.99,0,1.46-.57,1.06-.57-.4-1.25-1.51-1.54-2.51-.28-1-.05-1.49.54-1.09.59.4,1.3,1.55,1.57,2.54Z"/>
      <path class="cls-4" d="M114,12.21c.24.98-.03,1.43-.59,1.02-.55-.41-1.19-1.54-1.45-2.52-.26-.99-.02-1.46.55-1.04.57.42,1.25,1.57,1.48,2.55Z"/>
      <path class="cls-4" d="M117.28,14.74c.21.97-.08,1.41-.62.98-.54-.42-1.14-1.55-1.37-2.53-.23-.98.02-1.43.58-1,.56.43,1.2,1.57,1.41,2.55Z"/>
      <path class="cls-4" d="M120.52,17.29c.18.96-.13,1.39-.67.96-.54-.43-1.11-1.55-1.31-2.52-.2-.97.07-1.41.63-.97.55.43,1.17,1.57,1.35,2.53Z"/>
      <path class="cls-4" d="M123.78,19.83c.15.95-.19,1.37-.73.95-.54-.42-1.09-1.54-1.26-2.5-.17-.96.13-1.39.69-.96.56.43,1.15,1.55,1.3,2.5Z"/>
      <path class="cls-4" d="M127.1,22.32c.12.94-.25,1.37-.81.95-.55-.41-1.09-1.51-1.23-2.46-.14-.95.19-1.38.77-.96.57.42,1.15,1.52,1.27,2.46Z"/>
      <path class="cls-4" d="M130.54,24.71c.09.93-.32,1.37-.9.97-.58-.4-1.11-1.48-1.22-2.42-.11-.94.26-1.37.85-.97.59.4,1.17,1.48,1.26,2.41Z"/>
      <path class="cls-4" d="M134.15,26.96c.07.92-.39,1.37-1,1-.61-.37-1.14-1.43-1.22-2.36-.08-.93.33-1.37.95-1,.62.38,1.2,1.43,1.27,2.35Z"/>
      <path class="cls-4" d="M137.97,29.03c.04.92-.47,1.39-1.11,1.05-.64-.34-1.19-1.37-1.25-2.29-.06-.92.41-1.38,1.07-1.04.66.35,1.25,1.36,1.29,2.28Z"/>
      <path class="cls-4" d="M142.06,30.89c.02.91-.54,1.41-1.23,1.11-.69-.3-1.26-1.3-1.29-2.21-.04-.91.48-1.4,1.19-1.09.7.31,1.32,1.28,1.34,2.19Z"/>
      <path class="cls-4" d="M146.46,32.49c0,.9-.61,1.44-1.36,1.18-.75-.26-1.34-1.21-1.36-2.12-.02-.91.56-1.42,1.32-1.16.76.26,1.4,1.19,1.41,2.1Z"/>
      <path class="cls-4" d="M151.23,33.78c0,.9-.69,1.48-1.5,1.27-.81-.21-1.45-1.12-1.45-2.02,0-.9.63-1.45,1.45-1.24.82.21,1.5,1.09,1.5,2Z"/>
      <path class="cls-4" d="M1.07,27.08c.21.96-.77,2.3-2.15,3.02-1.38.71-2.63.52-2.84-.44-.21-.96.71-2.33,2.08-3.05,1.38-.71,2.7-.5,2.91.47Z"/>
      <path class="cls-4" d="M9.22,22.97c.22.97-.75,2.29-2.12,2.98-1.37.69-2.62.48-2.84-.49-.22-.97.68-2.33,2.05-3.01,1.37-.69,2.69-.44,2.91.52Z"/>
      <path class="cls-4" d="M17.31,19.05c.23.97-.73,2.27-2.09,2.92-1.36.65-2.61.41-2.83-.56-.22-.97.66-2.31,2.02-2.96,1.36-.65,2.67-.37,2.9.6Z"/>
      <path class="cls-4" d="M25.3,15.41c.23.98-.7,2.23-2.05,2.83-1.34.6-2.58.33-2.81-.65-.23-.97.64-2.28,1.98-2.89,1.34-.6,2.65-.28,2.88.7Z"/>
      <path class="cls-4" d="M33.17,12.11c.24.98-.68,2.19-2,2.73-1.32.54-2.55.22-2.79-.76-.23-.98.61-2.24,1.93-2.79,1.32-.55,2.62-.16,2.86.82Z"/>
      <path class="cls-4" d="M40.91,9.21c.24.98-.65,2.13-1.95,2.6-1.3.47-2.51.09-2.75-.89-.24-.98.58-2.2,1.88-2.67,1.3-.47,2.58-.03,2.82.96Z"/>
      <path class="cls-4" d="M48.49,6.79c.24.98-.62,2.06-1.89,2.45-1.27.39-2.46-.05-2.71-1.04-.24-.98.56-2.14,1.83-2.53,1.27-.39,2.53.13,2.77,1.11Z"/>
      <path class="cls-4" d="M55.89,4.91c.24.99-.6,1.98-1.84,2.28-1.24.3-2.41-.22-2.65-1.21-.24-.99.53-2.06,1.77-2.36,1.24-.3,2.47.3,2.72,1.29Z"/>
      <path class="cls-4" d="M63.08,3.65c.24.98-.57,1.89-1.77,2.09-1.2.19-2.34-.41-2.59-1.39-.24-.98.5-1.98,1.71-2.17,1.2-.19,2.41.5,2.65,1.48Z"/>
      <path class="cls-4" d="M70.04,3.07c.24.98-.54,1.79-1.71,1.87-1.16.08-2.27-.61-2.51-1.59-.24-.98.48-1.89,1.64-1.96,1.17-.07,2.34.71,2.58,1.69Z"/>
      <path class="cls-4" d="M76.53,3.09c.25.98-.43,1.73-1.5,1.71-1.07-.02-2.11-.79-2.35-1.77-.24-.98.41-1.8,1.47-1.78,1.06.01,2.13.86,2.38,1.84Z"/>
      <path class="cls-4" d="M82.39,3.53c.26.99-.34,1.68-1.31,1.6-.97-.09-1.94-.92-2.19-1.91-.25-.98.31-1.75,1.28-1.66.97.09,1.97.99,2.23,1.97Z"/>
      <path class="cls-4" d="M87.72,4.35c.26.99-.27,1.64-1.15,1.48-.88-.15-1.79-1.04-2.05-2.03-.26-.99.23-1.69,1.11-1.54.88.15,1.82,1.1,2.08,2.09Z"/>
      <path class="cls-4" d="M92.6,5.52c.26.99-.21,1.59-1.01,1.38-.81-.21-1.65-1.15-1.91-2.13-.26-.99.17-1.65.98-1.44.81.21,1.69,1.2,1.94,2.19Z"/>
      <path class="cls-4" d="M97.06,6.99c.25.98-.17,1.55-.9,1.29-.74-.26-1.52-1.24-1.77-2.22-.25-.99.13-1.6.87-1.34s1.56,1.29,1.81,2.27Z"/>
      <path class="cls-4" d="M101.17,8.73c.24.98-.14,1.51-.82,1.21-.68-.3-1.4-1.32-1.65-2.3-.24-.98.1-1.56.78-1.25.68.3,1.45,1.36,1.68,2.34Z"/>
      <path class="cls-4" d="M104.98,10.7c.22.97-.13,1.47-.76,1.14-.63-.34-1.3-1.38-1.53-2.36-.23-.98.08-1.51.72-1.17.64.34,1.35,1.43,1.57,2.4Z"/>
      <path class="cls-4" d="M108.53,12.86c.2.97-.13,1.44-.72,1.07-.59-.37-1.21-1.43-1.43-2.41-.21-.97.08-1.48.68-1.11.6.37,1.26,1.47,1.47,2.44Z"/>
      <path class="cls-4" d="M111.89,15.16c.18.96-.14,1.41-.7,1.02-.55-.39-1.14-1.47-1.33-2.44-.19-.97.09-1.44.65-1.05.57.39,1.19,1.51,1.37,2.47Z"/>
      <path class="cls-4" d="M115.11,17.57c.16.95-.16,1.39-.7.98-.53-.41-1.08-1.5-1.25-2.46-.17-.96.11-1.42.65-1,.54.41,1.14,1.53,1.29,2.48Z"/>
      <path class="cls-4" d="M118.23,20.05c.13.95-.2,1.37-.71.95-.52-.42-1.04-1.51-1.18-2.47-.15-.95.14-1.39.67-.97.53.42,1.09,1.54,1.23,2.49Z"/>
      <path class="cls-4" d="M121.32,22.55c.11.94-.24,1.35-.75.93-.51-.42-1.01-1.52-1.13-2.46-.13-.94.18-1.37.71-.95.53.42,1.07,1.54,1.18,2.47Z"/>
      <path class="cls-4" d="M124.43,25.04c.09.93-.28,1.34-.8.93-.52-.42-1-1.51-1.1-2.44-.1-.94.23-1.36.76-.94.53.42,1.06,1.52,1.14,2.45Z"/>
      <path class="cls-4" d="M127.61,27.48c.06.92-.34,1.34-.87.93-.53-.41-1-1.48-1.08-2.41-.08-.93.28-1.35.82-.94.55.41,1.06,1.49,1.13,2.42Z"/>
      <path class="cls-4" d="M130.92,29.83c.04.92-.4,1.34-.95.95-.55-.39-1.03-1.45-1.08-2.37-.06-.92.34-1.35.9-.95.57.39,1.09,1.45,1.13,2.37Z"/>
      <path class="cls-4" d="M134.4,32.04c.02.91-.46,1.35-1.05.99-.59-.37-1.07-1.4-1.1-2.32-.03-.91.4-1.35,1-.98.6.37,1.13,1.4,1.15,2.31Z"/>
      <path class="cls-4" d="M138.11,34.08c0,.9-.52,1.37-1.15,1.03-.63-.34-1.13-1.35-1.14-2.25-.02-.91.46-1.36,1.1-1.02.64.34,1.19,1.34,1.19,2.24Z"/>
      <path class="cls-4" d="M142.11,35.9c0,.9-.59,1.39-1.27,1.1-.68-.3-1.2-1.28-1.21-2.18,0-.9.53-1.38,1.22-1.08.69.3,1.26,1.27,1.26,2.17Z"/>
      <path class="cls-4" d="M146.44,37.48c-.02.9-.65,1.43-1.39,1.17-.74-.26-1.3-1.2-1.29-2.1.01-.9.6-1.41,1.34-1.15.74.26,1.36,1.18,1.34,2.08Z"/>
      <path class="cls-4" d="M151.17,38.76c-.02.89-.72,1.47-1.53,1.26-.81-.21-1.42-1.11-1.4-2.01.02-.9.66-1.44,1.47-1.24.81.21,1.48,1.08,1.46,1.98Z"/>
      <path class="cls-4" d="M1.88,32.32c.08.93-1.02,2.23-2.41,2.94-1.39.71-2.53.55-2.61-.38-.07-.92.95-2.26,2.33-2.97,1.38-.71,2.61-.52,2.68.41Z"/>
      <path class="cls-4" d="M10.07,28.23c.08.93-1.01,2.22-2.38,2.9-1.38.68-2.52.5-2.6-.42-.08-.93.93-2.26,2.31-2.94,1.37-.68,2.6-.47,2.68.46Z"/>
      <path class="cls-4" d="M18.18,24.34c.09.93-.99,2.19-2.35,2.84-1.36.65-2.5.44-2.59-.49-.08-.93.91-2.24,2.27-2.88,1.36-.65,2.58-.39,2.66.54Z"/>
      <path class="cls-4" d="M26.2,20.71c.09.94-.97,2.15-2.31,2.75-1.35.6-2.47.36-2.56-.58-.09-.93.89-2.21,2.24-2.81,1.35-.6,2.55-.3,2.64.63Z"/>
      <path class="cls-4" d="M34.1,17.42c.09.94-.94,2.11-2.27,2.65-1.33.54-2.44.25-2.53-.69-.09-.94.87-2.17,2.19-2.71,1.32-.54,2.51-.19,2.61.75Z"/>
      <path class="cls-4" d="M41.85,14.54c.1.94-.92,2.05-2.22,2.52-1.3.47-2.39.13-2.49-.81-.09-.94.85-2.12,2.15-2.59,1.3-.47,2.47-.06,2.56.88Z"/>
      <path class="cls-4" d="M49.44,12.12c.09.94-.9,1.98-2.17,2.37-1.27.39-2.34-.02-2.44-.95-.1-.94.82-2.05,2.09-2.44,1.27-.39,2.42.09,2.51,1.03Z"/>
      <path class="cls-4" d="M56.83,10.24c.09.94-.87,1.9-2.11,2.19-1.24.3-2.28-.18-2.37-1.12-.09-.94.8-1.98,2.04-2.28,1.24-.3,2.36.26,2.45,1.2Z"/>
      <path class="cls-4" d="M64.01,8.97c.09.93-.85,1.8-2.05,2-1.2.19-2.21-.36-2.3-1.3-.09-.94.77-1.9,1.97-2.09,1.2-.19,2.29.45,2.37,1.39Z"/>
      <path class="cls-4" d="M70.94,8.36c.08.93-.83,1.7-1.98,1.78-1.16.08-2.13-.56-2.22-1.5-.09-.93.75-1.8,1.91-1.88,1.16-.08,2.21.66,2.29,1.59Z"/>
      <path class="cls-4" d="M77.48,8.4c.09.93-.73,1.63-1.81,1.61-1.09-.02-2.01-.76-2.09-1.69-.08-.93.7-1.7,1.78-1.68,1.07.02,2.04.83,2.13,1.76Z"/>
      <path class="cls-4" d="M83.4,8.86c.11.94-.62,1.59-1.6,1.5-.98-.09-1.84-.89-1.94-1.83-.1-.94.59-1.65,1.56-1.57.97.09,1.87.95,1.98,1.89Z"/>
      <path class="cls-4" d="M88.78,9.69c.12.94-.52,1.55-1.41,1.4-.89-.15-1.68-1.01-1.8-1.95-.11-.94.49-1.61,1.37-1.46.88.15,1.72,1.07,1.84,2.01Z"/>
      <path class="cls-4" d="M93.65,10.86c.12.94-.45,1.51-1.26,1.3-.81-.21-1.54-1.11-1.66-2.05-.12-.94.41-1.57,1.22-1.36.81.21,1.58,1.17,1.7,2.11Z"/>
      <path class="cls-4" d="M98.09,12.33c.12.94-.39,1.47-1.13,1.22-.73-.26-1.41-1.2-1.53-2.15-.12-.94.35-1.52,1.09-1.27.74.26,1.45,1.25,1.57,2.2Z"/>
      <path class="cls-4" d="M102.15,14.06c.12.94-.35,1.44-1.02,1.14-.67-.3-1.29-1.28-1.41-2.22-.12-.94.3-1.49.98-1.19.67.3,1.34,1.33,1.45,2.27Z"/>
      <path class="cls-4" d="M105.89,16c.11.94-.32,1.41-.94,1.07-.62-.33-1.19-1.35-1.3-2.29-.11-.94.27-1.45.9-1.11.62.34,1.24,1.39,1.35,2.33Z"/>
      <path class="cls-4" d="M109.36,18.13c.1.93-.31,1.38-.88,1.02-.57-.36-1.1-1.4-1.21-2.33-.11-.94.26-1.42.84-1.05.58.37,1.15,1.44,1.25,2.37Z"/>
      <path class="cls-4" d="M112.63,20.4c.08.93-.31,1.36-.85.97-.54-.39-1.03-1.44-1.12-2.37-.09-.93.25-1.39.8-1,.55.39,1.08,1.47,1.17,2.4Z"/>
      <path class="cls-4" d="M115.74,22.78c.07.92-.32,1.34-.83.93-.51-.4-.97-1.47-1.05-2.39-.08-.93.26-1.36.79-.96.52.4,1.03,1.49,1.1,2.42Z"/>
      <path class="cls-4" d="M118.75,25.22c.05.92-.34,1.32-.84.91-.5-.41-.93-1.48-.99-2.4-.06-.92.28-1.34.79-.93.51.41.99,1.51,1.04,2.42Z"/>
      <path class="cls-4" d="M121.73,27.68c.03.91-.36,1.31-.86.9-.5-.41-.91-1.48-.95-2.4-.04-.92.3-1.33.81-.91.51.42.97,1.5,1,2.42Z"/>
      <path class="cls-4" d="M124.73,30.14c.02.91-.4,1.31-.9.89-.5-.41-.9-1.48-.93-2.39-.03-.91.34-1.32.85-.91.51.41.96,1.49.98,2.4Z"/>
      <path class="cls-4" d="M127.8,32.54c0,.9-.44,1.31-.96.91-.52-.4-.92-1.46-.93-2.36-.01-.91.38-1.32.91-.91.53.4.98,1.47.98,2.37Z"/>
      <path class="cls-4" d="M131,34.85c-.01.9-.49,1.31-1.03.93-.54-.38-.95-1.43-.94-2.33,0-.9.43-1.32.98-.93.55.39,1.01,1.43,1,2.33Z"/>
      <path class="cls-4" d="M134.39,37.03c-.03.89-.54,1.33-1.11.97-.57-.36-1-1.38-.98-2.28.02-.9.48-1.32,1.06-.96.58.36,1.06,1.38,1.03,2.27Z"/>
      <path class="cls-4" d="M138.03,39.05c-.04.89-.59,1.35-1.21,1.01-.62-.33-1.07-1.33-1.04-2.22.03-.89.53-1.34,1.16-1.01.62.33,1.13,1.32,1.09,2.21Z"/>
      <path class="cls-4" d="M141.97,40.86c-.04.89-.65,1.37-1.32,1.08-.67-.3-1.16-1.26-1.12-2.15.04-.89.59-1.36,1.27-1.06.68.3,1.22,1.25,1.18,2.14Z"/>
      <path class="cls-4" d="M146.28,42.42c-.04.89-.7,1.41-1.44,1.16-.74-.25-1.27-1.19-1.23-2.08.04-.89.65-1.39,1.39-1.14.74.25,1.33,1.17,1.28,2.06Z"/>
      <path class="cls-4" d="M151,43.7c-.04.89-.76,1.45-1.57,1.25-.81-.21-1.4-1.1-1.36-1.99.04-.89.71-1.43,1.51-1.22.81.21,1.46,1.08,1.42,1.97Z"/>
      <path class="cls-4" d="M1.87,37.15c-.1.91-1.36,2.22-2.74,2.93-1.39.7-2.38.54-2.28-.37.1-.91,1.24-2.23,2.63-2.93,1.39-.71,2.49-.54,2.39.38Z"/>
      <path class="cls-4" d="M10.06,33.07c-.1.92-1.35,2.21-2.73,2.89-1.38.68-2.36.49-2.26-.42.1-.92,1.24-2.22,2.62-2.9,1.38-.68,2.47-.48,2.37.43Z"/>
      <path class="cls-4" d="M18.18,29.2c-.1.92-1.34,2.19-2.71,2.83-1.36.64-2.33.43-2.23-.49.1-.92,1.23-2.2,2.6-2.84,1.36-.65,2.44-.41,2.34.51Z"/>
      <path class="cls-4" d="M26.2,25.59c-.1.93-1.33,2.15-2.68,2.75-1.35.6-2.3.34-2.2-.58.1-.92,1.22-2.17,2.57-2.77,1.35-.6,2.41-.32,2.31.6Z"/>
      <path class="cls-4" d="M34.1,22.31c-.1.93-1.31,2.11-2.64,2.65-1.33.54-2.27.24-2.16-.69.1-.93,1.21-2.13,2.53-2.67,1.33-.54,2.37-.22,2.27.71Z"/>
      <path class="cls-4" d="M41.86,19.42c-.1.93-1.29,2.05-2.59,2.52-1.3.47-2.22.11-2.12-.81.1-.93,1.19-2.08,2.49-2.55,1.3-.47,2.32-.09,2.22.84Z"/>
      <path class="cls-4" d="M49.44,17c-.1.93-1.27,1.98-2.54,2.37s-2.17-.03-2.06-.96c.1-.93,1.17-2.02,2.44-2.41,1.27-.39,2.27.06,2.16.99Z"/>
      <path class="cls-4" d="M56.83,15.11c-.1.93-1.24,1.9-2.48,2.2-1.24.3-2.11-.19-2-1.12.1-.93,1.14-1.94,2.38-2.24,1.24-.3,2.21.23,2.1,1.16Z"/>
      <path class="cls-4" d="M64,13.82c-.1.92-1.21,1.81-2.41,2.01-1.2.2-2.04-.37-1.94-1.3.1-.93,1.11-1.86,2.31-2.05,1.2-.2,2.14.42,2.04,1.34Z"/>
      <path class="cls-4" d="M70.92,13.19c-.1.92-1.17,1.71-2.33,1.79-1.16.09-1.97-.57-1.87-1.49.1-.92,1.07-1.76,2.23-1.84,1.16-.08,2.06.62,1.96,1.54Z"/>
      <path class="cls-4" d="M77.45,13.24c-.12.92-1.11,1.63-2.18,1.6-1.07-.03-1.82-.78-1.72-1.7.1-.92,1.03-1.65,2.11-1.62,1.08.03,1.9.8,1.78,1.72Z"/>
      <path class="cls-4" d="M83.36,13.72c-.14.92-1.06,1.58-2.03,1.49-.97-.09-1.63-.91-1.5-1.83.12-.92.99-1.6,1.97-1.51.98.09,1.7.92,1.56,1.85Z"/>
      <path class="cls-4" d="M88.72,14.57c-.15.92-1.01,1.54-1.9,1.38-.88-.15-1.45-1.02-1.31-1.94.14-.92.95-1.55,1.84-1.4.89.15,1.52,1.04,1.37,1.96Z"/>
      <path class="cls-4" d="M93.6,15.74c-.15.92-.96,1.5-1.76,1.29-.8-.21-1.3-1.12-1.15-2.04.15-.92.9-1.51,1.7-1.3.81.21,1.37,1.13,1.21,2.06Z"/>
      <path class="cls-4" d="M98.04,17.21c-.15.92-.9,1.46-1.64,1.2-.74-.26-1.18-1.21-1.02-2.13.15-.92.84-1.47,1.57-1.21.73.26,1.24,1.22,1.08,2.14Z"/>
      <path class="cls-4" d="M102.1,18.93c-.15.92-.84,1.43-1.52,1.13s-1.07-1.28-.92-2.21c.15-.92.78-1.44,1.45-1.14.67.3,1.13,1.29.98,2.22Z"/>
      <path class="cls-4" d="M105.84,20.87c-.13.92-.78,1.4-1.4,1.06-.62-.33-.98-1.35-.84-2.27.14-.92.73-1.4,1.34-1.07.62.33,1.04,1.35.9,2.27Z"/>
      <path class="cls-4" d="M109.32,22.99c-.12.92-.72,1.37-1.3,1.01-.58-.36-.92-1.4-.79-2.32.13-.92.67-1.38,1.24-1.01.57.36.97,1.4.85,2.32Z"/>
      <path class="cls-4" d="M112.59,25.24c-.1.92-.66,1.35-1.21.97-.55-.38-.87-1.44-.76-2.36.11-.92.61-1.35,1.15-.97.54.38.92,1.44.82,2.36Z"/>
      <path class="cls-4" d="M115.71,27.6c-.08.91-.61,1.33-1.14.94-.53-.4-.85-1.47-.75-2.38.1-.92.56-1.33,1.08-.93.52.4.89,1.46.81,2.38Z"/>
      <path class="cls-4" d="M118.73,30.02c-.06.91-.56,1.32-1.07.91-.51-.41-.84-1.48-.76-2.4.08-.91.51-1.32,1.01-.91.5.41.89,1.48.82,2.39Z"/>
      <path class="cls-4" d="M121.72,32.46c-.04.91-.52,1.32-1.03.9-.51-.41-.85-1.49-.79-2.4.06-.91.47-1.31.97-.9.5.41.89,1.48.85,2.39Z"/>
      <path class="cls-4" d="M124.73,34.9c-.02.9-.49,1.31-1,.91-.51-.41-.87-1.48-.84-2.39.03-.91.44-1.3.94-.89.5.41.92,1.47.9,2.37Z"/>
      <path class="cls-4" d="M127.81,37.28c0,.9-.46,1.32-.99.92-.53-.4-.91-1.46-.9-2.36.01-.9.41-1.31.93-.91.52.4.96,1.45.96,2.35Z"/>
      <path class="cls-4" d="M131.02,39.57c.02.9-.45,1.33-1,.95-.55-.38-.97-1.43-.98-2.33,0-.9.4-1.31.94-.93.54.38,1.02,1.42,1.04,2.31Z"/>
      <path class="cls-4" d="M134.42,41.74c.03.9-.45,1.34-1.03.98-.58-.36-1.05-1.39-1.07-2.29-.02-.9.39-1.32.97-.96.58.36,1.1,1.37,1.13,2.27Z"/>
      <path class="cls-4" d="M138.06,43.75c.04.9-.46,1.36-1.08,1.03-.63-.33-1.13-1.34-1.17-2.23-.04-.9.41-1.34,1.02-1.01.62.33,1.19,1.32,1.23,2.21Z"/>
      <path class="cls-4" d="M142,45.55c.05.89-.49,1.39-1.16,1.1-.68-.3-1.23-1.27-1.28-2.17-.05-.89.43-1.37,1.1-1.07.67.3,1.29,1.25,1.34,2.14Z"/>
      <path class="cls-4" d="M146.31,47.11c.05.89-.53,1.43-1.27,1.17-.74-.25-1.35-1.2-1.4-2.09-.05-.89.47-1.4,1.21-1.14.74.25,1.41,1.17,1.46,2.06Z"/>
      <path class="cls-4" d="M151.02,48.39c.05.89-.59,1.47-1.4,1.26-.81-.21-1.48-1.11-1.53-2.01-.05-.89.53-1.44,1.34-1.23.81.21,1.54,1.08,1.59,1.98Z"/>
      <path class="cls-4" d="M.8,42.24c-.28.92-1.69,2.24-3.07,2.93-1.38.7-2.23.52-1.94-.4.28-.92,1.58-2.24,2.97-2.94,1.39-.7,2.33-.52,2.04.41Z"/>
      <path class="cls-4" d="M8.98,38.2c-.29.93-1.68,2.23-3.06,2.9-1.38.67-2.21.47-1.92-.45.29-.93,1.58-2.23,2.96-2.91,1.38-.68,2.31-.47,2.02.46Z"/>
      <path class="cls-4" d="M17.09,34.35c-.29.94-1.68,2.21-3.04,2.84-1.36.64-2.19.41-1.9-.52.29-.93,1.58-2.22,2.94-2.86,1.36-.64,2.28-.4,1.99.54Z"/>
      <path class="cls-4" d="M25.1,30.76c-.29.94-1.66,2.18-3.01,2.77-1.35.59-2.15.32-1.86-.62.29-.94,1.57-2.19,2.91-2.79,1.35-.6,2.25-.31,1.96.64Z"/>
      <path class="cls-4" d="M33,27.5c-.29.95-1.65,2.13-2.97,2.67-1.32.54-2.12.22-1.82-.72.29-.94,1.56-2.16,2.88-2.7,1.33-.54,2.21-.2,1.92.75Z"/>
      <path class="cls-4" d="M40.75,24.63c-.29.95-1.63,2.08-2.93,2.55-1.3.47-2.07.1-1.78-.85.29-.95,1.54-2.11,2.84-2.58,1.3-.47,2.16-.07,1.87.88Z"/>
      <path class="cls-4" d="M48.33,22.21c-.29.95-1.61,2.02-2.88,2.41-1.27.39-2.02-.05-1.72-1,.29-.95,1.52-2.05,2.79-2.45,1.27-.39,2.11.08,1.81,1.03Z"/>
      <path class="cls-4" d="M55.72,20.32c-.29.95-1.58,1.95-2.82,2.25-1.24.3-1.96-.21-1.66-1.16.29-.95,1.49-1.99,2.73-2.29,1.24-.3,2.05.25,1.75,1.2Z"/>
      <path class="cls-4" d="M62.89,19.01c-.29.95-1.55,1.86-2.75,2.06-1.2.2-1.89-.39-1.6-1.34.29-.95,1.46-1.91,2.66-2.1,1.2-.2,1.98.43,1.68,1.38Z"/>
      <path class="cls-4" d="M69.83,18.36c-.29.95-1.51,1.76-2.67,1.85-1.16.09-1.82-.58-1.53-1.53.29-.95,1.43-1.81,2.59-1.9,1.16-.09,1.9.64,1.61,1.58Z"/>
      <path class="cls-4" d="M76.27,18.41c-.3.95-1.43,1.68-2.48,1.65-1.05-.03-1.64-.81-1.34-1.76.29-.95,1.36-1.7,2.43-1.67,1.06.03,1.7.83,1.4,1.78Z"/>
      <path class="cls-4" d="M82.1,18.9c-.31.95-1.38,1.63-2.34,1.53-.96-.1-1.46-.93-1.15-1.88.31-.95,1.32-1.65,2.28-1.55.97.1,1.52.95,1.21,1.9Z"/>
      <path class="cls-4" d="M87.42,19.75c-.32.95-1.32,1.58-2.2,1.43-.88-.16-1.31-1.04-.99-1.99.32-.95,1.26-1.6,2.14-1.45.88.16,1.36,1.06,1.05,2.01Z"/>
      <path class="cls-4" d="M92.29,20.93c-.31.95-1.25,1.54-2.06,1.33-.81-.21-1.18-1.14-.86-2.09.32-.95,1.2-1.56,2-1.35.8.21,1.23,1.15.91,2.1Z"/>
      <path class="cls-4" d="M96.76,22.4c-.31.95-1.18,1.5-1.93,1.25-.74-.26-1.07-1.22-.75-2.17.31-.95,1.13-1.51,1.87-1.26.74.26,1.11,1.24.81,2.18Z"/>
      <path class="cls-4" d="M100.88,24.11c-.29.94-1.11,1.47-1.8,1.17-.69-.3-.98-1.3-.68-2.24.3-.95,1.07-1.48,1.74-1.18.68.3,1.02,1.31.73,2.25Z"/>
      <path class="cls-4" d="M104.71,26.04c-.27.94-1.04,1.44-1.68,1.11-.64-.33-.9-1.36-.62-2.3.28-.94,1-1.44,1.63-1.11.63.33.95,1.37.67,2.31Z"/>
      <path class="cls-4" d="M108.29,28.14c-.25.94-.97,1.41-1.57,1.05-.6-.36-.85-1.41-.59-2.35.26-.94.93-1.41,1.51-1.05.59.36.89,1.41.64,2.35Z"/>
      <path class="cls-4" d="M111.68,30.37c-.22.93-.9,1.38-1.47,1.01-.57-.38-.82-1.45-.58-2.38.24-.94.86-1.39,1.41-1.01.56.38.86,1.45.63,2.38Z"/>
      <path class="cls-4" d="M114.93,32.71c-.2.93-.83,1.37-1.38.97-.55-.39-.8-1.47-.59-2.41.21-.93.79-1.37,1.33-.97.54.4.84,1.47.64,2.4Z"/>
      <path class="cls-4" d="M118.09,35.11c-.17.93-.76,1.35-1.3.95-.54-.4-.8-1.49-.62-2.42.18-.93.73-1.35,1.25-.94.52.41.84,1.48.67,2.41Z"/>
      <path class="cls-4" d="M121.22,37.53c-.14.92-.71,1.34-1.24.94-.54-.41-.82-1.49-.66-2.42.15-.92.67-1.34,1.19-.93.52.41.85,1.49.72,2.41Z"/>
      <path class="cls-4" d="M124.36,39.95c-.11.92-.66,1.34-1.2.94-.54-.4-.85-1.48-.72-2.4.12-.92.62-1.33,1.14-.92.52.41.89,1.47.78,2.39Z"/>
      <path class="cls-4" d="M127.58,42.31c-.08.91-.62,1.34-1.17.95-.55-.39-.9-1.46-.8-2.38.1-.92.58-1.33,1.12-.93.54.4.93,1.45.85,2.37Z"/>
      <path class="cls-4" d="M130.91,44.59c-.05.91-.59,1.35-1.16.97-.57-.38-.96-1.43-.89-2.34.07-.91.55-1.33,1.11-.95.56.38,1,1.42.94,2.33Z"/>
      <path class="cls-4" d="M134.42,46.74c-.03.91-.57,1.36-1.17,1-.6-.36-1.03-1.39-.99-2.3.04-.91.53-1.34,1.12-.99.59.36,1.07,1.37,1.04,2.28Z"/>
      <path class="cls-4" d="M138.15,48.73c0,.9-.56,1.38-1.21,1.05-.64-.33-1.12-1.34-1.1-2.24.02-.9.52-1.36,1.15-1.03.63.33,1.16,1.32,1.16,2.22Z"/>
      <path class="cls-4" d="M142.17,50.52c0,.9-.57,1.4-1.26,1.11-.69-.29-1.22-1.28-1.22-2.18,0-.9.53-1.38,1.21-1.09.68.3,1.27,1.25,1.28,2.15Z"/>
      <path class="cls-4" d="M146.51,52.07c.02.9-.6,1.44-1.34,1.18-.75-.25-1.33-1.2-1.35-2.1-.01-.9.55-1.41,1.29-1.16.74.25,1.38,1.17,1.4,2.07Z"/>
      <path class="cls-4" d="M151.23,53.36c.03.9-.64,1.47-1.45,1.27-.81-.21-1.46-1.12-1.48-2.01-.02-.9.59-1.44,1.39-1.24.81.21,1.51,1.09,1.54,1.98Z"/>
      <path class="cls-4" d="M6.91,43.38c-.45.94-1.98,2.24-3.35,2.9-1.37.67-2.07.45-1.62-.48.45-.94,1.89-2.24,3.26-2.91,1.37-.67,2.16-.45,1.71.49Z"/>
      <path class="cls-4" d="M15.01,39.57c-.46.95-1.97,2.22-3.33,2.85-1.36.63-2.05.39-1.59-.56.46-.94,1.89-2.23,3.25-2.87,1.36-.64,2.14-.38,1.68.57Z"/>
      <path class="cls-4" d="M23.01,36.02c-.46.96-1.96,2.2-3.31,2.78-1.34.59-2.02.3-1.56-.65.46-.95,1.88-2.21,3.22-2.8,1.34-.59,2.1-.29,1.64.67Z"/>
      <path class="cls-4" d="M30.89,32.79c-.46.96-1.95,2.16-3.27,2.69-1.32.53-1.98.2-1.52-.76.46-.96,1.87-2.18,3.19-2.72,1.32-.53,2.06-.18,1.6.79Z"/>
      <path class="cls-4" d="M38.64,29.94c-.46.97-1.93,2.11-3.23,2.58-1.3.46-1.94.07-1.47-.89.46-.96,1.85-2.14,3.15-2.61,1.3-.47,2.02-.05,1.55.92Z"/>
      <path class="cls-4" d="M46.21,27.54c-.47.97-1.91,2.05-3.18,2.44-1.27.39-1.88-.07-1.42-1.03.46-.97,1.83-2.09,3.1-2.48,1.27-.39,1.96.1,1.5,1.07Z"/>
      <path class="cls-4" d="M53.6,25.65c-.47.97-1.89,1.98-3.12,2.28s-1.82-.23-1.36-1.2c.47-.97,1.81-2.02,3.05-2.32,1.24-.3,1.9.26,1.43,1.24Z"/>
      <path class="cls-4" d="M60.77,24.34c-.47.97-1.86,1.9-3.06,2.1-1.2.2-1.76-.4-1.29-1.38.47-.97,1.78-1.95,2.98-2.15,1.2-.2,1.83.45,1.37,1.42Z"/>
      <path class="cls-4" d="M67.71,23.68c-.47.97-1.82,1.81-2.98,1.9-1.16.09-1.69-.6-1.22-1.57.47-.97,1.75-1.86,2.91-1.95,1.16-.09,1.76.65,1.29,1.62Z"/>
      <path class="cls-4" d="M74.11,23.72c-.47.97-1.72,1.72-2.76,1.69-1.04-.03-1.48-.83-1.02-1.8.47-.97,1.67-1.74,2.72-1.71,1.05.03,1.53.86,1.06,1.83Z"/>
      <path class="cls-4" d="M79.9,24.22c-.48.97-1.66,1.67-2.62,1.58-.96-.1-1.33-.95-.85-1.92.47-.97,1.61-1.69,2.57-1.6.96.1,1.37.97.9,1.95Z"/>
      <path class="cls-4" d="M85.23,25.08c-.47.97-1.59,1.63-2.48,1.47-.88-.15-1.19-1.06-.72-2.03.47-.97,1.55-1.64,2.43-1.49.88.16,1.24,1.08.76,2.05Z"/>
      <path class="cls-4" d="M90.14,26.25c-.46.97-1.52,1.58-2.34,1.37-.82-.21-1.08-1.15-.61-2.13.47-.97,1.48-1.6,2.29-1.39.81.21,1.12,1.17.66,2.14Z"/>
      <path class="cls-4" d="M94.68,27.7c-.44.97-1.44,1.54-2.2,1.29-.76-.25-.98-1.24-.53-2.21.45-.97,1.41-1.55,2.15-1.3.75.25,1.02,1.25.58,2.22Z"/>
      <path class="cls-4" d="M98.91,29.4c-.42.96-1.36,1.5-2.07,1.21-.71-.29-.91-1.31-.47-2.27.44-.97,1.33-1.52,2.02-1.22s.94,1.32.52,2.28Z"/>
      <path class="cls-4" d="M102.86,31.31c-.39.96-1.28,1.47-1.94,1.14-.67-.33-.85-1.37-.44-2.33.41-.96,1.25-1.48,1.9-1.15.65.33.88,1.38.49,2.34Z"/>
      <path class="cls-4" d="M106.59,33.39c-.36.96-1.19,1.44-1.82,1.09-.63-.35-.81-1.42-.43-2.37.38-.96,1.16-1.45,1.78-1.09.61.36.84,1.42.47,2.38Z"/>
      <path class="cls-4" d="M110.14,35.6c-.33.95-1.11,1.42-1.71,1.04-.6-.37-.78-1.45-.43-2.41.35-.95,1.08-1.42,1.67-1.04.58.38.81,1.46.48,2.41Z"/>
      <path class="cls-4" d="M113.57,37.91c-.29.95-1.03,1.4-1.62,1.01-.58-.39-.78-1.48-.46-2.42.32-.95,1-1.4,1.57-1,.56.39.8,1.48.51,2.42Z"/>
      <path class="cls-4" d="M116.91,40.28c-.26.94-.96,1.38-1.53.98-.57-.4-.79-1.49-.5-2.43.28-.94.93-1.38,1.48-.98.55.4.81,1.49.55,2.43Z"/>
      <path class="cls-4" d="M120.23,42.68c-.22.93-.88,1.37-1.45.97-.57-.4-.81-1.49-.57-2.43.24-.94.86-1.37,1.41-.96.55.41.83,1.49.61,2.42Z"/>
      <path class="cls-4" d="M123.55,45.06c-.18.93-.82,1.36-1.39.96-.57-.4-.85-1.48-.64-2.42.21-.93.79-1.36,1.35-.95.55.4.87,1.48.69,2.41Z"/>
      <path class="cls-4" d="M126.95,47.4c-.15.92-.77,1.36-1.35.97s-.9-1.46-.73-2.39c.17-.93.74-1.35,1.3-.96s.92,1.45.78,2.38Z"/>
      <path class="cls-4" d="M130.45,49.65c-.11.92-.72,1.37-1.32.99-.6-.37-.96-1.43-.83-2.35.13-.92.69-1.36,1.28-.98.58.38.99,1.42.88,2.34Z"/>
      <path class="cls-4" d="M134.11,51.78c-.08.91-.68,1.38-1.32,1.03-.63-.35-1.04-1.39-.94-2.31.1-.92.65-1.36,1.27-1.01.61.36,1.07,1.37.99,2.29Z"/>
      <path class="cls-4" d="M137.98,53.75c-.05.91-.66,1.39-1.33,1.07-.67-.32-1.13-1.34-1.06-2.25.07-.91.63-1.38,1.28-1.05.65.33,1.16,1.32,1.11,2.23Z"/>
      <path class="cls-4" d="M142.11,55.52c-.03.91-.65,1.42-1.37,1.13-.71-.29-1.23-1.27-1.18-2.18.04-.91.62-1.4,1.32-1.1.7.29,1.26,1.25,1.23,2.16Z"/>
      <path class="cls-4" d="M146.53,57.07c-.01.9-.66,1.45-1.42,1.19-.76-.25-1.34-1.2-1.32-2.11.02-.9.62-1.42,1.37-1.17.75.25,1.38,1.18,1.36,2.08Z"/>
      <path class="cls-4" d="M151.31,58.34c0,.9-.68,1.48-1.51,1.28-.82-.2-1.46-1.12-1.45-2.02,0-.9.64-1.45,1.46-1.25.81.21,1.5,1.09,1.5,1.99Z"/>
      <path class="cls-4" d="M3.98,48.62c-.6.95-2.24,2.25-3.61,2.9-1.37.66-1.95.43-1.35-.51.6-.94,2.16-2.25,3.53-2.92,1.37-.66,2.03-.43,1.43.52Z"/>
      <path class="cls-4" d="M12.05,44.86c-.61.96-2.23,2.23-3.59,2.86-1.36.62-1.93.36-1.32-.59.6-.95,2.16-2.24,3.52-2.87,1.36-.63,2.01-.35,1.4.61Z"/>
      <path class="cls-4" d="M20.04,41.35c-.61.97-2.23,2.21-3.57,2.79-1.34.58-1.9.28-1.29-.68.61-.96,2.15-2.23,3.49-2.81,1.34-.58,1.97-.26,1.36.71Z"/>
      <path class="cls-4" d="M27.91,38.15c-.61.98-2.21,2.18-3.53,2.7-1.32.52-1.86.17-1.25-.8.61-.97,2.14-2.2,3.46-2.73,1.32-.53,1.93-.15,1.32.82Z"/>
      <path class="cls-4" d="M35.64,35.34c-.62.98-2.2,2.14-3.49,2.59-1.3.46-1.81.05-1.2-.93.61-.98,2.13-2.16,3.43-2.63,1.3-.46,1.89-.03,1.27.96Z"/>
      <path class="cls-4" d="M43.2,32.96c-.62.99-2.18,2.08-3.45,2.46-1.27.38-1.76-.09-1.15-1.07.62-.98,2.11-2.11,3.38-2.5s1.83.12,1.21,1.11Z"/>
      <path class="cls-4" d="M50.58,31.09c-.62.99-2.15,2.02-3.39,2.31-1.24.3-1.7-.25-1.09-1.23.62-.99,2.09-2.05,3.32-2.35,1.24-.3,1.77.28,1.15,1.28Z"/>
      <path class="cls-4" d="M57.76,29.79c-.62.99-2.13,1.94-3.33,2.14-1.2.2-1.64-.42-1.02-1.41.62-.99,2.06-1.98,3.26-2.18,1.2-.2,1.7.47,1.08,1.46Z"/>
      <path class="cls-4" d="M64.7,29.12c-.62.99-2.09,1.85-3.25,1.94-1.16.09-1.57-.62-.95-1.61.62-.99,2.03-1.9,3.19-1.99,1.16-.09,1.63.67,1.01,1.66Z"/>
      <path class="cls-4" d="M71.07,29.17c-.62.99-1.99,1.76-3.02,1.73-1.04-.03-1.35-.85-.73-1.85.62-.99,1.94-1.79,2.98-1.75,1.04.03,1.4.88.77,1.87Z"/>
      <path class="cls-4" d="M76.86,29.67c-.62.99-1.92,1.71-2.88,1.61-.96-.1-1.22-.97-.6-1.96.62-.99,1.88-1.73,2.84-1.64.96.1,1.25.99.64,1.98Z"/>
      <path class="cls-4" d="M82.23,30.52c-.61.99-1.84,1.66-2.74,1.51-.89-.15-1.1-1.07-.49-2.07.61-.99,1.81-1.68,2.7-1.53.89.15,1.13,1.09.53,2.08Z"/>
      <path class="cls-4" d="M87.22,31.68c-.59.99-1.76,1.62-2.6,1.41-.83-.2-1-1.16-.4-2.16.6-.99,1.73-1.64,2.56-1.43.82.21,1.03,1.18.44,2.17Z"/>
      <path class="cls-4" d="M91.88,33.11c-.57.99-1.68,1.58-2.46,1.33-.78-.25-.92-1.25-.34-2.23.58-.99,1.65-1.59,2.42-1.34.77.25.95,1.26.38,2.25Z"/>
      <path class="cls-4" d="M96.25,34.79c-.54.98-1.59,1.54-2.32,1.25-.74-.29-.86-1.31-.31-2.3.55-.98,1.56-1.55,2.28-1.26.72.29.88,1.33.35,2.31Z"/>
      <path class="cls-4" d="M100.37,36.67c-.5.98-1.49,1.5-2.19,1.18-.7-.32-.82-1.37-.29-2.35.52-.98,1.47-1.51,2.15-1.19.68.32.84,1.38.33,2.36Z"/>
      <path class="cls-4" d="M104.29,38.72c-.47.97-1.4,1.47-2.07,1.12-.67-.35-.79-1.42-.3-2.39.49-.97,1.38-1.48,2.03-1.13.64.35.81,1.43.34,2.4Z"/>
      <path class="cls-4" d="M108.04,40.91c-.43.96-1.31,1.45-1.95,1.08-.64-.37-.77-1.45-.32-2.42.45-.97,1.29-1.45,1.91-1.08.62.37.79,1.46.37,2.42Z"/>
      <path class="cls-4" d="M111.68,43.18c-.38.96-1.22,1.42-1.84,1.04-.62-.38-.78-1.48-.37-2.44.41-.96,1.2-1.43,1.8-1.04.6.39.79,1.48.41,2.44Z"/>
      <path class="cls-4" d="M115.25,45.52c-.34.95-1.13,1.41-1.74,1.01-.61-.39-.79-1.49-.43-2.44.37-.96,1.12-1.41,1.7-1.01.59.4.81,1.49.47,2.44Z"/>
      <path class="cls-4" d="M118.79,47.89c-.3.95-1.05,1.39-1.66,1-.61-.4-.82-1.49-.5-2.44.32-.95,1.03-1.39,1.62-.99.58.4.84,1.49.54,2.43Z"/>
      <path class="cls-4" d="M122.34,50.24c-.25.94-.97,1.39-1.59.99-.61-.39-.86-1.48-.58-2.42.28-.94.96-1.38,1.54-.98.59.4.88,1.48.63,2.41Z"/>
      <path class="cls-4" d="M125.95,52.54c-.21.93-.9,1.38-1.53,1-.62-.38-.92-1.46-.68-2.4.23-.94.89-1.38,1.48-.99.6.39.93,1.45.73,2.38Z"/>
      <path class="cls-4" d="M129.67,54.76c-.17.93-.84,1.39-1.49,1.02-.64-.37-.98-1.43-.79-2.36.19-.93.83-1.38,1.44-1,.62.37,1,1.42.83,2.34Z"/>
      <path class="cls-4" d="M133.52,56.86c-.13.92-.8,1.39-1.46,1.05-.67-.35-1.06-1.39-.91-2.31.15-.92.78-1.38,1.42-1.03.64.35,1.08,1.37.95,2.29Z"/>
      <path class="cls-4" d="M137.57,58.81c-.09.92-.76,1.41-1.46,1.09-.7-.32-1.15-1.33-1.03-2.25.12-.92.74-1.39,1.41-1.07.68.32,1.17,1.32,1.08,2.23Z"/>
      <path class="cls-4" d="M141.84,60.56c-.06.91-.73,1.43-1.47,1.14-.74-.29-1.25-1.27-1.17-2.19.08-.91.71-1.41,1.43-1.12.72.29,1.27,1.25,1.21,2.16Z"/>
      <path class="cls-4" d="M146.4,62.08c-.04.91-.73,1.46-1.51,1.21-.78-.25-1.35-1.2-1.3-2.11.05-.91.7-1.43,1.46-1.18.77.25,1.38,1.17,1.35,2.08Z"/>
      <path class="cls-4" d="M151.27,63.34c-.02.9-.73,1.49-1.57,1.29-.84-.2-1.47-1.11-1.44-2.02.03-.91.7-1.46,1.52-1.26.83.2,1.5,1.09,1.49,1.99Z"/>
      <path class="cls-4" d="M.27,53.91c-.73.96-2.46,2.25-3.83,2.9-1.36.65-1.85.41-1.12-.55.73-.95,2.4-2.26,3.76-2.91,1.37-.65,1.92-.4,1.18.56Z"/>
      <path class="cls-4" d="M8.32,50.2c-.74.97-2.46,2.24-3.81,2.86-1.35.61-1.82.34-1.09-.62.73-.96,2.4-2.25,3.75-2.87,1.36-.62,1.89-.33,1.15.64Z"/>
      <path class="cls-4" d="M16.29,46.74c-.74.98-2.45,2.22-3.79,2.79-1.34.57-1.79.25-1.05-.72.74-.97,2.39-2.24,3.73-2.82,1.34-.58,1.86-.24,1.12.74Z"/>
      <path class="cls-4" d="M24.14,43.59c-.74.99-2.44,2.19-3.76,2.71-1.32.52-1.75.15-1.01-.83.74-.98,2.38-2.21,3.7-2.74,1.32-.52,1.82-.13,1.07.86Z"/>
      <path class="cls-4" d="M31.85,40.82c-.75,1-2.43,2.15-3.72,2.61-1.29.45-1.71.03-.96-.96.74-.99,2.37-2.18,3.66-2.64,1.3-.46,1.77,0,1.02.99Z"/>
      <path class="cls-4" d="M39.41,38.48c-.75,1-2.41,2.1-3.68,2.48-1.27.38-1.66-.11-.91-1.11.75-1,2.35-2.14,3.62-2.52,1.27-.38,1.72.14.97,1.14Z"/>
      <path class="cls-4" d="M46.78,36.63c-.75,1.01-2.39,2.04-3.62,2.33-1.23.29-1.6-.27-.85-1.27.75-1.01,2.33-2.08,3.57-2.37,1.24-.29,1.66.3.9,1.31Z"/>
      <path class="cls-4" d="M53.95,35.35c-.75,1.01-2.36,1.97-3.56,2.16-1.2.2-1.54-.44-.78-1.45.75-1.01,2.31-2.01,3.51-2.21,1.2-.2,1.59.48.84,1.5Z"/>
      <path class="cls-4" d="M60.88,34.68c-.75,1.01-2.33,1.88-3.49,1.97-1.16.09-1.47-.63-.71-1.64.75-1.01,2.28-1.93,3.44-2.02,1.16-.09,1.52.68.76,1.7Z"/>
      <path class="cls-4" d="M67.26,34.73c-.75,1.01-2.22,1.8-3.26,1.76-1.04-.03-1.25-.87-.5-1.88.75-1.01,2.19-1.82,3.22-1.79,1.04.03,1.28.89.53,1.91Z"/>
      <path class="cls-4" d="M73.09,35.22c-.74,1.01-2.15,1.74-3.12,1.65-.97-.09-1.14-.98-.39-1.99.75-1.01,2.12-1.77,3.09-1.67.96.1,1.16,1,.42,2.02Z"/>
      <path class="cls-4" d="M78.53,36.06c-.73,1.01-2.07,1.7-2.98,1.54-.91-.15-1.04-1.08-.3-2.09.74-1.01,2.05-1.72,2.95-1.56.9.15,1.06,1.1.33,2.11Z"/>
      <path class="cls-4" d="M83.64,37.2c-.7,1.01-1.98,1.65-2.84,1.45-.86-.2-.95-1.17-.24-2.18.72-1.01,1.96-1.67,2.8-1.47.84.2.97,1.19.27,2.2Z"/>
      <path class="cls-4" d="M88.45,38.62c-.67,1-1.89,1.61-2.7,1.36-.81-.25-.89-1.25-.2-2.25.69-1,1.87-1.62,2.66-1.38.79.25.9,1.27.23,2.27Z"/>
      <path class="cls-4" d="M92.99,40.27c-.64,1-1.79,1.57-2.56,1.28-.77-.28-.84-1.32-.18-2.32.66-1,1.78-1.58,2.53-1.3.75.29.85,1.33.22,2.33Z"/>
      <path class="cls-4" d="M97.32,42.12c-.6.99-1.69,1.53-2.43,1.22-.73-.32-.81-1.37-.19-2.37.62-.99,1.68-1.54,2.39-1.22.71.32.82,1.39.22,2.38Z"/>
      <path class="cls-4" d="M101.46,44.14c-.55.98-1.59,1.5-2.3,1.16-.71-.34-.79-1.42-.21-2.41.58-.99,1.58-1.51,2.26-1.16.68.35.8,1.43.24,2.41Z"/>
      <path class="cls-4" d="M105.45,46.29c-.51.98-1.49,1.47-2.17,1.11-.68-.36-.78-1.45-.25-2.43.54-.98,1.48-1.48,2.14-1.11.65.37.79,1.46.28,2.44Z"/>
      <path class="cls-4" d="M109.34,48.53c-.46.97-1.39,1.45-2.06,1.07-.67-.38-.79-1.47-.3-2.45.49-.97,1.38-1.45,2.02-1.07.64.38.8,1.48.34,2.45Z"/>
      <path class="cls-4" d="M113.17,50.83c-.41.96-1.29,1.43-1.95,1.04-.66-.39-.82-1.49-.38-2.45.44-.97,1.29-1.43,1.92-1.04.63.39.82,1.49.41,2.45Z"/>
      <path class="cls-4" d="M116.97,53.15c-.36.96-1.2,1.42-1.86,1.03-.65-.39-.85-1.49-.46-2.45.39-.96,1.19-1.42,1.82-1.02.62.39.86,1.48.5,2.44Z"/>
      <path class="cls-4" d="M120.78,55.47c-.31.95-1.11,1.41-1.77,1.02-.66-.39-.9-1.48-.56-2.43.34-.95,1.11-1.4,1.73-1.01.63.39.9,1.47.59,2.42Z"/>
      <path class="cls-4" d="M124.65,57.73c-.26.94-1.03,1.4-1.7,1.03-.67-.38-.95-1.45-.66-2.4.29-.94,1.03-1.4,1.66-1.01s.96,1.45.7,2.39Z"/>
      <path class="cls-4" d="M128.6,59.92c-.22.93-.96,1.4-1.65,1.04-.68-.36-1.02-1.42-.78-2.36.24-.94.95-1.39,1.61-1.03.66.37,1.03,1.41.82,2.35Z"/>
      <path class="cls-4" d="M132.69,61.98c-.17.93-.9,1.41-1.61,1.07-.71-.34-1.1-1.38-.9-2.31.2-.93.89-1.4,1.57-1.05.68.35,1.11,1.37.94,2.3Z"/>
      <path class="cls-4" d="M136.94,63.9c-.13.92-.85,1.42-1.58,1.11-.74-.31-1.19-1.33-1.03-2.25.15-.92.84-1.41,1.55-1.09.71.32,1.2,1.31,1.07,2.23Z"/>
      <path class="cls-4" d="M141.41,65.62c-.09.92-.81,1.44-1.58,1.16-.77-.28-1.28-1.27-1.17-2.19.12-.92.79-1.42,1.54-1.14.75.29,1.3,1.25,1.21,2.16Z"/>
      <path class="cls-4" d="M146.12,67.12c-.06.91-.79,1.46-1.6,1.22-.81-.24-1.38-1.19-1.3-2.11.08-.91.77-1.44,1.56-1.2.79.25,1.41,1.17,1.34,2.08Z"/>
      <path class="cls-4" d="M151.12,68.36c-.04.91-.78,1.5-1.64,1.3-.86-.2-1.5-1.11-1.44-2.02.05-.91.76-1.47,1.6-1.27.84.2,1.52,1.09,1.48,1.99Z"/>
      <path class="cls-4" d="M3.93,55.59c-.85.98-2.65,2.25-4,2.85-1.35.6-1.73.31-.89-.66.84-.97,2.6-2.26,3.95-2.87,1.35-.61,1.79-.3.94.67Z"/>
      <path class="cls-4" d="M11.87,52.19c-.85.99-2.65,2.23-3.98,2.79-1.33.56-1.7.23-.85-.75.85-.98,2.59-2.25,3.93-2.81,1.34-.57,1.75-.21.9.77Z"/>
      <path class="cls-4" d="M19.7,49.1c-.86,1-2.64,2.21-3.95,2.71-1.31.51-1.66.13-.81-.87.85-.99,2.59-2.23,3.9-2.74,1.32-.51,1.71-.11.86.89Z"/>
      <path class="cls-4" d="M27.4,46.37c-.86,1.01-2.62,2.17-3.91,2.61-1.29.44-1.62,0-.76-1,.86-1,2.57-2.19,3.87-2.64,1.29-.45,1.67.02.81,1.03Z"/>
      <path class="cls-4" d="M34.94,44.07c-.86,1.02-2.61,2.12-3.87,2.49-1.26.37-1.57-.13-.71-1.14.86-1.01,2.56-2.15,3.82-2.53,1.26-.37,1.61.16.75,1.18Z"/>
      <path class="cls-4" d="M42.3,42.26c-.86,1.02-2.58,2.06-3.82,2.35-1.23.29-1.51-.29-.65-1.3.86-1.02,2.54-2.1,3.77-2.39s1.56.32.69,1.35Z"/>
      <path class="cls-4" d="M49.45,41c-.87,1.03-2.56,1.99-3.76,2.18-1.2.19-1.45-.46-.58-1.48.86-1.02,2.52-2.04,3.72-2.23,1.2-.2,1.49.5.62,1.53Z"/>
      <path class="cls-4" d="M56.39,40.35c-.87,1.03-2.53,1.91-3.69,2-1.16.09-1.38-.65-.51-1.68.87-1.03,2.49-1.96,3.65-2.05,1.16-.09,1.42.7.55,1.73Z"/>
      <path class="cls-4" d="M62.78,40.39c-.86,1.03-2.42,1.83-3.46,1.79-1.04-.03-1.18-.88-.31-1.91.87-1.03,2.4-1.85,3.44-1.82,1.04.03,1.2.91.33,1.94Z"/>
      <path class="cls-4" d="M68.67,40.87c-.85,1.03-2.35,1.77-3.33,1.68-.99-.09-1.08-.99-.22-2.02.86-1.03,2.33-1.8,3.31-1.7.98.09,1.09,1.01.24,2.04Z"/>
      <path class="cls-4" d="M74.23,41.69c-.83,1.02-2.26,1.72-3.2,1.58-.93-.15-.99-1.09-.15-2.11.84-1.03,2.25-1.75,3.17-1.6.92.15,1.01,1.11.18,2.14Z"/>
      <path class="cls-4" d="M79.48,42.82c-.8,1.02-2.17,1.68-3.06,1.48-.88-.2-.93-1.18-.11-2.2.82-1.02,2.16-1.7,3.03-1.5.87.2.94,1.2.14,2.22Z"/>
      <path class="cls-4" d="M84.47,44.2c-.76,1.01-2.08,1.63-2.92,1.39-.84-.24-.88-1.25-.09-2.27.78-1.02,2.07-1.65,2.89-1.41.82.24.88,1.27.12,2.29Z"/>
      <path class="cls-4" d="M89.22,45.82c-.72,1.01-1.97,1.6-2.78,1.32-.81-.28-.84-1.32-.09-2.33.75-1.01,1.97-1.61,2.75-1.33.78.28.84,1.33.12,2.34Z"/>
      <path class="cls-4" d="M93.78,47.64c-.68,1-1.87,1.56-2.64,1.25-.78-.31-.82-1.37-.11-2.38.7-1.01,1.87-1.57,2.62-1.26.75.31.82,1.39.14,2.39Z"/>
      <path class="cls-4" d="M98.17,49.62c-.63,1-1.76,1.53-2.51,1.19-.75-.34-.81-1.42-.15-2.41.66-1,1.76-1.54,2.48-1.2.72.34.81,1.43.18,2.42Z"/>
      <path class="cls-4" d="M102.44,51.73c-.58.99-1.65,1.5-2.38,1.14-.73-.36-.81-1.45-.2-2.44.61-.99,1.66-1.51,2.35-1.14.7.36.81,1.46.23,2.44Z"/>
      <path class="cls-4" d="M106.61,53.93c-.52.98-1.55,1.47-2.26,1.1-.72-.37-.83-1.47-.27-2.45.56-.98,1.55-1.48,2.23-1.1.68.38.83,1.47.3,2.45Z"/>
      <path class="cls-4" d="M110.73,56.19c-.47.97-1.44,1.45-2.15,1.07-.71-.38-.86-1.48-.35-2.46.5-.98,1.44-1.46,2.12-1.07.67.38.86,1.48.39,2.45Z"/>
      <path class="cls-4" d="M114.82,58.47c-.42.96-1.34,1.44-2.04,1.05-.71-.38-.9-1.48-.45-2.45.45-.97,1.34-1.44,2.01-1.05.67.39.9,1.48.48,2.44Z"/>
      <path class="cls-4" d="M118.92,60.74c-.36.96-1.24,1.43-1.95,1.05s-.95-1.47-.55-2.43c.39-.96,1.24-1.42,1.92-1.04.68.38.95,1.47.58,2.42Z"/>
      <path class="cls-4" d="M123.07,62.96c-.31.95-1.15,1.42-1.87,1.05-.72-.37-1.01-1.45-.67-2.4.34-.95,1.15-1.41,1.84-1.04.68.37,1.01,1.44.7,2.39Z"/>
      <path class="cls-4" d="M127.3,65.11c-.26.94-1.07,1.42-1.8,1.06-.73-.36-1.08-1.42-.79-2.36.29-.94,1.07-1.41,1.77-1.05.7.36,1.08,1.41.82,2.35Z"/>
      <path class="cls-4" d="M131.64,67.13c-.21.93-1,1.42-1.75,1.09-.75-.34-1.15-1.37-.92-2.31.24-.94.99-1.41,1.72-1.07.72.34,1.16,1.36.95,2.29Z"/>
      <path class="cls-4" d="M136.14,69.01c-.16.93-.94,1.43-1.71,1.13-.78-.31-1.24-1.32-1.05-2.25.19-.93.93-1.42,1.68-1.11.75.31,1.24,1.31,1.08,2.23Z"/>
      <path class="cls-4" d="M140.82,70.7c-.12.92-.89,1.45-1.69,1.17-.81-.28-1.33-1.26-1.19-2.18.14-.92.88-1.43,1.66-1.15.78.28,1.34,1.24,1.22,2.16Z"/>
      <path class="cls-4" d="M145.72,72.18c-.08.91-.85,1.47-1.69,1.23-.84-.24-1.43-1.19-1.32-2.1.1-.92.84-1.45,1.66-1.21.82.24,1.44,1.17,1.36,2.08Z"/>
      <path class="cls-4" d="M150.88,73.4c-.05.91-.83,1.5-1.71,1.31-.89-.19-1.53-1.11-1.46-2.02.07-.91.81-1.48,1.68-1.28.87.2,1.55,1.08,1.5,1.99Z"/>
      <path class="cls-4" d="M6.89,57.69c-.94,1-2.8,2.24-4.13,2.79-1.33.55-1.62.2-.68-.78.94-.99,2.76-2.25,4.09-2.81,1.33-.56,1.67-.19.72.81Z"/>
      <path class="cls-4" d="M14.7,54.66c-.95,1.01-2.79,2.21-4.1,2.71-1.31.5-1.59.1-.64-.9.94-1,2.75-2.23,4.07-2.74,1.31-.5,1.63-.08.68.93Z"/>
      <path class="cls-4" d="M22.38,51.98c-.95,1.02-2.78,2.18-4.07,2.61-1.29.43-1.54-.02-.6-1.03.95-1.01,2.74-2.2,4.03-2.64,1.29-.44,1.58.04.63,1.06Z"/>
      <path class="cls-4" d="M29.9,49.73c-.95,1.03-2.77,2.13-4.03,2.5-1.26.36-1.49-.15-.54-1.17.95-1.02,2.73-2.16,3.99-2.53,1.26-.37,1.53.19.57,1.21Z"/>
      <path class="cls-4" d="M37.24,47.96c-.96,1.03-2.74,2.08-3.97,2.36-1.23.28-1.44-.31-.48-1.34.96-1.03,2.71-2.12,3.94-2.4,1.23-.28,1.47.34.51,1.38Z"/>
      <path class="cls-4" d="M44.39,46.72c-.96,1.04-2.72,2.01-3.92,2.2-1.2.19-1.37-.48-.42-1.51.96-1.04,2.69-2.05,3.89-2.25,1.2-.19,1.41.52.45,1.56Z"/>
      <path class="cls-4" d="M51.31,46.09c-.96,1.04-2.69,1.93-3.85,2.02-1.16.08-1.31-.66-.35-1.71.96-1.04,2.66-1.98,3.82-2.07,1.16-.09,1.33.71.37,1.76Z"/>
      <path class="cls-4" d="M57.74,46.13c-.95,1.04-2.59,1.85-3.65,1.82-1.06-.03-1.12-.89-.16-1.93.96-1.04,2.58-1.88,3.63-1.85,1.05.03,1.13.92.18,1.96Z"/>
      <path class="cls-4" d="M63.73,46.6c-.93,1.04-2.52,1.8-3.52,1.71-1-.09-1.04-.99-.09-2.04.95-1.04,2.51-1.83,3.5-1.73.99.09,1.05,1.02.11,2.06Z"/>
      <path class="cls-4" d="M69.42,47.4c-.91,1.04-2.43,1.75-3.39,1.61-.96-.14-.97-1.09-.05-2.13.93-1.04,2.43-1.77,3.37-1.63.94.15.98,1.12.07,2.15Z"/>
      <path class="cls-4" d="M74.84,48.5c-.88,1.03-2.34,1.7-3.25,1.51-.92-.19-.92-1.18-.03-2.21.9-1.03,2.34-1.72,3.23-1.53.89.2.92,1.2.04,2.23Z"/>
      <path class="cls-4" d="M80.03,49.86c-.84,1.03-2.24,1.66-3.12,1.42-.88-.23-.88-1.25-.02-2.28.86-1.03,2.24-1.68,3.1-1.44.85.24.88,1.27.04,2.3Z"/>
      <path class="cls-4" d="M85.02,51.44c-.79,1.02-2.13,1.62-2.98,1.35-.85-.27-.86-1.32-.04-2.34.82-1.02,2.14-1.64,2.96-1.36.82.28.85,1.33.06,2.35Z"/>
      <path class="cls-4" d="M89.84,53.22c-.74,1.01-2.02,1.58-2.84,1.28-.82-.3-.85-1.37-.07-2.38.77-1.02,2.03-1.6,2.82-1.29.79.31.84,1.38.1,2.39Z"/>
      <path class="cls-4" d="M94.51,55.16c-.69,1-1.91,1.55-2.71,1.22-.8-.33-.85-1.41-.12-2.42.72-1.01,1.92-1.56,2.69-1.23.77.33.84,1.42.15,2.43Z"/>
      <path class="cls-4" d="M99.07,57.22c-.64,1-1.8,1.52-2.58,1.17-.78-.35-.86-1.44-.19-2.44.67-1,1.81-1.53,2.56-1.17.75.35.85,1.45.21,2.45Z"/>
      <path class="cls-4" d="M103.55,59.38c-.58.99-1.68,1.49-2.45,1.13-.77-.36-.88-1.46-.27-2.45.61-.99,1.69-1.5,2.43-1.13.73.37.87,1.47.29,2.46Z"/>
      <path class="cls-4" d="M107.98,61.59c-.52.98-1.57,1.47-2.33,1.1-.76-.37-.92-1.47-.36-2.45.56-.98,1.58-1.48,2.31-1.1.73.38.91,1.47.39,2.45Z"/>
      <path class="cls-4" d="M112.38,63.83c-.46.97-1.46,1.46-2.22,1.08-.76-.37-.96-1.47-.46-2.44.5-.98,1.47-1.46,2.2-1.08.72.38.95,1.47.49,2.44Z"/>
      <path class="cls-4" d="M116.8,66.05c-.4.96-1.36,1.44-2.12,1.07s-1.01-1.46-.57-2.43c.44-.97,1.37-1.44,2.1-1.07.73.38,1,1.46.6,2.42Z"/>
      <path class="cls-4" d="M121.26,68.23c-.34.95-1.26,1.44-2.03,1.07-.77-.36-1.07-1.44-.69-2.4.38-.96,1.27-1.43,2-1.06.73.37,1.06,1.43.72,2.39Z"/>
      <path class="cls-4" d="M125.79,70.33c-.29.94-1.17,1.43-1.95,1.09-.78-.35-1.14-1.41-.82-2.36.32-.95,1.18-1.43,1.92-1.07.75.35,1.13,1.4.85,2.34Z"/>
      <path class="cls-4" d="M130.42,72.31c-.24.94-1.09,1.44-1.89,1.11-.8-.33-1.22-1.36-.95-2.31.27-.94,1.09-1.43,1.86-1.09.77.33,1.21,1.35.98,2.29Z"/>
      <path class="cls-4" d="M135.18,74.15c-.19.93-1.01,1.45-1.84,1.14-.82-.3-1.3-1.31-1.08-2.25.22-.93,1.02-1.43,1.81-1.13.79.31,1.3,1.3,1.11,2.23Z"/>
      <path class="cls-4" d="M140.1,75.81c-.14.92-.95,1.46-1.8,1.19-.85-.27-1.39-1.25-1.22-2.18.17-.93.95-1.44,1.77-1.17.82.27,1.39,1.23,1.25,2.16Z"/>
      <path class="cls-4" d="M145.22,77.25c-.1.92-.91,1.48-1.79,1.25-.88-.23-1.48-1.18-1.36-2.1.12-.92.9-1.46,1.76-1.23.86.24,1.49,1.16,1.39,2.08Z"/>
      <path class="cls-4" d="M150.56,78.44c-.06.91-.87,1.51-1.79,1.32-.92-.19-1.58-1.1-1.49-2.01.08-.91.86-1.49,1.76-1.29.9.19,1.59,1.08,1.52,1.99Z"/>
      <path class="cls-4" d="M1.46,63.22c-1.01,1-2.92,2.24-4.25,2.77-1.32.54-1.56.18-.55-.82,1.01-.99,2.89-2.25,4.22-2.8,1.33-.54,1.59-.16.58.84Z"/>
      <path class="cls-4" d="M9.24,60.25c-1.02,1.01-2.92,2.22-4.22,2.7-1.31.49-1.53.08-.51-.93,1.02-1.01,2.89-2.24,4.2-2.73,1.31-.49,1.56-.06.54.96Z"/>
      <path class="cls-4" d="M16.9,57.64c-1.02,1.02-2.9,2.18-4.19,2.61-1.28.42-1.48-.04-.46-1.06,1.02-1.02,2.88-2.21,4.16-2.64,1.29-.43,1.51.07.49,1.09Z"/>
      <path class="cls-4" d="M24.4,55.44c-1.03,1.03-2.89,2.14-4.15,2.49-1.26.35-1.43-.18-.41-1.2,1.03-1.03,2.87-2.17,4.12-2.53,1.26-.36,1.46.21.43,1.24Z"/>
      <path class="cls-4" d="M31.73,53.71c-1.03,1.04-2.87,2.09-4.1,2.36-1.23.27-1.38-.33-.35-1.36,1.03-1.04,2.85-2.13,4.08-2.4,1.23-.28,1.4.36.37,1.41Z"/>
      <path class="cls-4" d="M38.86,52.51c-1.03,1.05-2.85,2.02-4.04,2.2-1.19.18-1.32-.49-.29-1.54,1.03-1.05,2.83-2.07,4.02-2.25,1.2-.19,1.34.54.3,1.59Z"/>
      <path class="cls-4" d="M45.78,51.9c-1.03,1.05-2.82,1.95-3.98,2.03-1.16.08-1.25-.68-.22-1.73,1.03-1.05,2.8-2,3.96-2.08,1.16-.08,1.27.73.23,1.78Z"/>
      <path class="cls-4" d="M52.25,51.94c-1.03,1.05-2.73,1.87-3.8,1.84-1.07-.03-1.09-.89-.06-1.95,1.03-1.06,2.73-1.9,3.79-1.87,1.06.03,1.09.92.07,1.98Z"/>
      <path class="cls-4" d="M58.35,52.4c-1,1.05-2.65,1.82-3.68,1.73-1.03-.09-1.03-1,0-2.05s2.66-1.85,3.67-1.76c1.01.09,1.02,1.02.02,2.08Z"/>
      <path class="cls-4" d="M64.2,53.17c-.97,1.05-2.57,1.77-3.55,1.63-.99-.14-.97-1.09.02-2.14.99-1.05,2.57-1.8,3.54-1.65.97.14.97,1.12,0,2.16Z"/>
      <path class="cls-4" d="M69.81,54.24c-.94,1.04-2.47,1.72-3.42,1.54-.95-.19-.94-1.18.03-2.22.96-1.04,2.48-1.75,3.41-1.56.93.19.93,1.2-.01,2.24Z"/>
      <path class="cls-4" d="M75.23,55.57c-.9,1.03-2.37,1.68-3.29,1.45-.92-.23-.91-1.25.01-2.29.92-1.04,2.39-1.7,3.28-1.47.89.23.9,1.27,0,2.3Z"/>
      <path class="cls-4" d="M80.47,57.11c-.85,1.03-2.27,1.64-3.16,1.37-.89-.27-.9-1.31-.02-2.34.88-1.03,2.28-1.66,3.14-1.39.86.27.88,1.33.03,2.36Z"/>
      <path class="cls-4" d="M85.57,58.85c-.8,1.02-2.15,1.6-3.02,1.3-.87-.3-.9-1.36-.07-2.39.83-1.02,2.17-1.62,3.01-1.32.84.3.88,1.38.08,2.4Z"/>
      <path class="cls-4" d="M90.54,60.75c-.74,1.01-2.04,1.57-2.89,1.25-.85-.32-.9-1.4-.13-2.42.77-1.02,2.06-1.58,2.87-1.25.82.33.89,1.41.15,2.43Z"/>
      <path class="cls-4" d="M95.41,62.76c-.68,1-1.92,1.54-2.76,1.2-.84-.34-.92-1.43-.21-2.44.72-1.01,1.94-1.55,2.74-1.2.8.35.9,1.44.22,2.44Z"/>
      <path class="cls-4" d="M100.22,64.87c-.62.99-1.8,1.51-2.63,1.16-.83-.35-.95-1.45-.29-2.45.66-1,1.82-1.52,2.61-1.16.79.36.93,1.46.31,2.45Z"/>
      <path class="cls-4" d="M104.98,67.03c-.56.98-1.69,1.49-2.51,1.13-.82-.36-.99-1.46-.39-2.45.6-.99,1.71-1.49,2.49-1.13.78.37.97,1.46.41,2.45Z"/>
      <path class="cls-4" d="M109.72,69.22c-.5.98-1.57,1.47-2.39,1.11-.82-.37-1.04-1.46-.5-2.44.54-.98,1.59-1.47,2.37-1.1.78.37,1.02,1.46.52,2.44Z"/>
      <path class="cls-4" d="M114.48,71.39c-.44.97-1.46,1.46-2.28,1.1-.82-.36-1.09-1.45-.62-2.42.47-.97,1.48-1.46,2.26-1.09.78.37,1.07,1.45.64,2.41Z"/>
      <path class="cls-4" d="M119.26,73.52c-.37.96-1.36,1.45-2.18,1.1-.83-.35-1.15-1.43-.74-2.39.41-.96,1.37-1.45,2.16-1.09.79.36,1.14,1.42.76,2.38Z"/>
      <path class="cls-4" d="M124.11,75.57c-.31.95-1.26,1.45-2.09,1.11-.84-.34-1.22-1.39-.87-2.35.35-.95,1.27-1.44,2.07-1.1.8.35,1.21,1.39.89,2.34Z"/>
      <path class="cls-4" d="M129.05,77.51c-.26.94-1.17,1.45-2.02,1.13-.85-.32-1.29-1.35-1-2.3s1.18-1.44,2-1.12c.82.33,1.28,1.34,1.02,2.28Z"/>
      <path class="cls-4" d="M134.1,79.31c-.2.93-1.09,1.46-1.96,1.16-.87-.29-1.37-1.3-1.14-2.24.24-.94,1.1-1.44,1.93-1.15.84.3,1.36,1.29,1.16,2.22Z"/>
      <path class="cls-4" d="M139.28,80.92c-.16.92-1.02,1.47-1.91,1.21-.89-.26-1.46-1.24-1.27-2.17.18-.93,1.02-1.45,1.89-1.19.86.27,1.45,1.23,1.29,2.15Z"/>
      <path class="cls-4" d="M144.64,82.33c-.11.92-.96,1.49-1.88,1.26-.92-.23-1.54-1.17-1.41-2.09.14-.92.96-1.47,1.86-1.24.89.23,1.54,1.15,1.43,2.07Z"/>
      <path class="cls-4" d="M150.18,83.49c-.07.91-.92,1.52-1.87,1.33-.95-.19-1.63-1.09-1.54-2.01.1-.92.91-1.49,1.84-1.3.93.19,1.64,1.07,1.56,1.98Z"/>
      <path class="cls-4" d="M3.44,65.89c-1.07,1.02-3,2.21-4.3,2.69-1.3.47-1.48.05-.41-.96,1.07-1.01,2.99-2.24,4.29-2.72,1.3-.48,1.5-.03.43.99Z"/>
      <path class="cls-4" d="M11.07,63.34c-1.08,1.03-2.99,2.18-4.27,2.6-1.28.41-1.44-.06-.36-1.09,1.07-1.02,2.98-2.21,4.26-2.63,1.28-.42,1.45.09.38,1.12Z"/>
      <path class="cls-4" d="M18.55,61.19c-1.08,1.04-2.98,2.14-4.23,2.49-1.25.34-1.39-.2-.31-1.23,1.08-1.03,2.96-2.18,4.22-2.53,1.26-.35,1.4.23.32,1.27Z"/>
      <path class="cls-4" d="M25.86,59.51c-1.08,1.05-2.96,2.09-4.18,2.36-1.22.26-1.34-.35-.25-1.39,1.08-1.04,2.95-2.13,4.17-2.4,1.23-.27,1.35.38.26,1.43Z"/>
      <path class="cls-4" d="M32.98,58.35c-1.09,1.06-2.94,2.03-4.13,2.21-1.19.18-1.27-.51-.19-1.56,1.09-1.05,2.93-2.08,4.12-2.26,1.19-.18,1.28.56.2,1.61Z"/>
      <path class="cls-4" d="M39.89,57.76c-1.09,1.06-2.91,1.96-4.06,2.03-1.16.08-1.21-.69-.12-1.75,1.09-1.06,2.9-2.01,4.06-2.09,1.16-.08,1.21.74.13,1.81Z"/>
      <path class="cls-4" d="M46.42,57.8c-1.08,1.06-2.83,1.89-3.92,1.86-1.08-.03-1.08-.89,0-1.96,1.09-1.06,2.84-1.92,3.91-1.89,1.07.03,1.07.92,0,1.99Z"/>
      <path class="cls-4" d="M52.64,58.24c-1.05,1.06-2.76,1.83-3.81,1.75-1.05-.08-1.03-1,.04-2.06,1.07-1.06,2.77-1.86,3.8-1.78,1.03.09,1.02,1.03-.03,2.08Z"/>
      <path class="cls-4" d="M58.66,58.99c-1.02,1.05-2.68,1.79-3.69,1.65-1.02-.14-.99-1.09.05-2.14,1.04-1.06,2.69-1.81,3.69-1.67,1,.14.98,1.12-.04,2.17Z"/>
      <path class="cls-4" d="M64.48,60.03c-.98,1.05-2.58,1.74-3.57,1.56-.99-.18-.97-1.17.04-2.22,1.01-1.05,2.6-1.76,3.56-1.58.96.19.95,1.2-.03,2.24Z"/>
      <path class="cls-4" d="M70.14,61.32c-.94,1.04-2.48,1.7-3.44,1.47-.96-.22-.95-1.24.01-2.29.97-1.04,2.5-1.72,3.44-1.49.93.23.93,1.26,0,2.3Z"/>
      <path class="cls-4" d="M75.65,62.82c-.89,1.03-2.37,1.65-3.31,1.4-.94-.26-.95-1.3-.03-2.34.92-1.04,2.4-1.67,3.31-1.41.91.26.93,1.32.04,2.35Z"/>
      <path class="cls-4" d="M81.04,64.52c-.83,1.03-2.26,1.62-3.18,1.33-.92-.29-.96-1.35-.09-2.38.87-1.03,2.29-1.63,3.17-1.34.89.29.93,1.37.1,2.39Z"/>
      <path class="cls-4" d="M86.33,66.37c-.78,1.02-2.14,1.58-3.05,1.27-.91-.31-.98-1.39-.16-2.41.81-1.02,2.17-1.6,3.04-1.28.87.32.95,1.41.17,2.42Z"/>
      <path class="cls-4" d="M91.54,68.33c-.72,1.01-2.02,1.55-2.92,1.22-.89-.33-1-1.42-.25-2.43.75-1.01,2.05-1.56,2.91-1.23.86.34.97,1.43.26,2.44Z"/>
      <path class="cls-4" d="M96.68,70.39c-.65,1-1.9,1.53-2.79,1.18-.88-.35-1.04-1.44-.34-2.44.69-1,1.93-1.54,2.78-1.18.85.35,1.01,1.45.36,2.45Z"/>
      <path class="cls-4" d="M101.8,72.5c-.59.99-1.78,1.5-2.66,1.15-.88-.35-1.08-1.45-.45-2.44.63-.99,1.81-1.51,2.65-1.15.84.36,1.05,1.45.46,2.44Z"/>
      <path class="cls-4" d="M106.89,74.63c-.52.98-1.67,1.49-2.54,1.13-.88-.36-1.13-1.44-.56-2.43.56-.99,1.69-1.49,2.53-1.13.84.36,1.1,1.45.58,2.43Z"/>
      <path class="cls-4" d="M112,76.75c-.46.97-1.55,1.47-2.43,1.12-.88-.35-1.18-1.43-.68-2.41.5-.98,1.58-1.47,2.42-1.11s1.16,1.43.7,2.4Z"/>
      <path class="cls-4" d="M117.13,78.83c-.4.96-1.44,1.46-2.33,1.12-.88-.35-1.24-1.41-.81-2.38.43-.97,1.46-1.46,2.31-1.11s1.22,1.41.82,2.37Z"/>
      <path class="cls-4" d="M122.31,80.83c-.33.95-1.34,1.46-2.23,1.13-.89-.33-1.31-1.38-.94-2.34.37-.96,1.36-1.45,2.21-1.12.86.34,1.29,1.38.95,2.33Z"/>
      <path class="cls-4" d="M127.57,82.73c-.27.94-1.24,1.46-2.14,1.15-.91-.31-1.38-1.34-1.07-2.29.31-.95,1.26-1.45,2.13-1.13.87.32,1.36,1.33,1.09,2.27Z"/>
      <path class="cls-4" d="M132.92,84.48c-.22.93-1.15,1.47-2.07,1.18-.92-.29-1.45-1.29-1.2-2.23.25-.94,1.17-1.46,2.06-1.16.89.29,1.44,1.28,1.22,2.21Z"/>
      <path class="cls-4" d="M138.39,86.05c-.17.93-1.07,1.48-2.01,1.22-.94-.26-1.53-1.23-1.33-2.16.2-.93,1.09-1.46,2-1.2.91.26,1.52,1.21,1.35,2.14Z"/>
      <path class="cls-4" d="M143.99,87.42c-.12.92-1.01,1.5-1.97,1.28-.96-.22-1.61-1.16-1.46-2.08.15-.92,1.02-1.48,1.95-1.25.93.23,1.6,1.14,1.48,2.06Z"/>
      <path class="cls-4" d="M149.76,88.55c-.08.91-.96,1.52-1.94,1.34-.99-.18-1.7-1.08-1.59-2,.1-.92.96-1.5,1.92-1.32.96.18,1.69,1.06,1.61,1.97Z"/>
      <path class="cls-4" d="M5,69.05c-1.11,1.03-3.04,2.18-4.32,2.58-1.27.4-1.41-.09-.3-1.11,1.11-1.03,3.04-2.21,4.32-2.62,1.28-.41,1.41.11.3,1.15Z"/>
      <path class="cls-4" d="M12.46,66.97c-1.11,1.04-3.03,2.14-4.28,2.48-1.25.33-1.36-.22-.25-1.25,1.11-1.04,3.03-2.18,4.28-2.52,1.25-.34,1.36.25.25,1.29Z"/>
      <path class="cls-4" d="M19.75,65.33c-1.12,1.05-3.01,2.09-4.23,2.35-1.22.26-1.31-.36-.19-1.41,1.12-1.05,3.01-2.13,4.24-2.39,1.22-.26,1.31.4.19,1.46Z"/>
      <path class="cls-4" d="M26.86,64.21c-1.12,1.06-2.99,2.03-4.18,2.2-1.19.17-1.25-.53-.13-1.58,1.12-1.06,2.99-2.08,4.18-2.25,1.19-.17,1.25.57.12,1.63Z"/>
      <path class="cls-4" d="M33.75,63.66c-1.12,1.07-2.96,1.96-4.12,2.03-1.15.07-1.18-.71-.06-1.77,1.12-1.06,2.97-2.01,4.12-2.09,1.15-.08,1.18.76.05,1.82Z"/>
      <path class="cls-4" d="M40.35,63.7c-1.11,1.07-2.9,1.9-4.01,1.87-1.1-.02-1.09-.89.04-1.96,1.12-1.07,2.92-1.93,4.01-1.9,1.09.02,1.07.92-.04,1.99Z"/>
      <path class="cls-4" d="M46.71,64.11c-1.09,1.06-2.83,1.85-3.91,1.77-1.07-.08-1.05-.99.05-2.06,1.1-1.07,2.85-1.88,3.91-1.79,1.06.08,1.03,1.02-.05,2.09Z"/>
      <path class="cls-4" d="M52.91,64.84c-1.05,1.06-2.75,1.8-3.8,1.67-1.05-.13-1.03-1.08.04-2.14,1.07-1.06,2.78-1.83,3.8-1.69,1.03.13,1.01,1.11-.05,2.17Z"/>
      <path class="cls-4" d="M58.95,65.84c-1.01,1.05-2.66,1.75-3.69,1.57-1.03-.18-1.02-1.16.02-2.22,1.04-1.06,2.69-1.78,3.69-1.6,1,.18.99,1.19-.02,2.24Z"/>
      <path class="cls-4" d="M64.86,67.1c-.97,1.04-2.56,1.71-3.57,1.49-1.01-.22-1.01-1.23-.02-2.28.99-1.05,2.59-1.73,3.57-1.51s.99,1.26.02,2.3Z"/>
      <path class="cls-4" d="M70.65,68.56c-.91,1.04-2.46,1.67-3.44,1.42-.99-.25-1.02-1.29-.07-2.33.95-1.04,2.49-1.69,3.44-1.43.96.26.99,1.31.08,2.35Z"/>
      <path class="cls-4" d="M76.35,70.21c-.86,1.03-2.34,1.63-3.32,1.35-.97-.28-1.04-1.34-.14-2.37.89-1.03,2.38-1.65,3.32-1.36.94.29,1,1.36.15,2.39Z"/>
      <path class="cls-4" d="M81.96,72.01c-.8,1.02-2.23,1.6-3.19,1.29-.96-.3-1.06-1.38-.23-2.4.84-1.03,2.26-1.61,3.18-1.3.92.31,1.03,1.39.23,2.41Z"/>
      <path class="cls-4" d="M87.51,73.93c-.74,1.01-2.11,1.56-3.06,1.24-.95-.32-1.09-1.41-.32-2.42.77-1.02,2.14-1.58,3.05-1.25.91.33,1.06,1.42.32,2.43Z"/>
      <path class="cls-4" d="M93.01,75.93c-.67,1-1.99,1.54-2.93,1.2-.94-.34-1.13-1.42-.42-2.43.71-1.01,2.02-1.55,2.92-1.21.91.34,1.1,1.43.43,2.44Z"/>
      <path class="cls-4" d="M98.48,77.99c-.61.99-1.86,1.52-2.8,1.17-.94-.34-1.18-1.43-.53-2.43.65-1,1.9-1.52,2.8-1.17.9.35,1.14,1.44.54,2.43Z"/>
      <path class="cls-4" d="M103.94,80.07c-.54.98-1.74,1.5-2.68,1.15-.94-.35-1.23-1.43-.65-2.42.58-.99,1.78-1.5,2.68-1.15.9.35,1.19,1.43.65,2.42Z"/>
      <path class="cls-4" d="M109.41,82.13c-.47.97-1.62,1.48-2.57,1.14-.94-.34-1.28-1.42-.77-2.4.51-.98,1.66-1.48,2.56-1.13.9.35,1.25,1.42.78,2.39Z"/>
      <path class="cls-4" d="M114.9,84.16c-.41.96-1.51,1.47-2.46,1.14-.95-.34-1.34-1.4-.89-2.37.45-.97,1.54-1.47,2.45-1.13.91.34,1.31,1.4.9,2.36Z"/>
      <path class="cls-4" d="M120.43,86.11c-.35.95-1.4,1.47-2.35,1.15-.95-.32-1.41-1.37-1.02-2.32.38-.96,1.43-1.46,2.34-1.14.91.33,1.38,1.36,1.03,2.32Z"/>
      <path class="cls-4" d="M126.01,87.95c-.29.94-1.3,1.47-2.26,1.17-.96-.3-1.47-1.33-1.15-2.28.32-.95,1.33-1.46,2.25-1.15.92.31,1.45,1.32,1.16,2.26Z"/>
      <path class="cls-4" d="M131.68,89.66c-.23.94-1.21,1.48-2.18,1.2-.97-.28-1.54-1.28-1.28-2.22.26-.94,1.23-1.46,2.17-1.18.94.28,1.52,1.27,1.29,2.2Z"/>
      <path class="cls-4" d="M137.44,91.19c-.18.93-1.12,1.49-2.11,1.24-.99-.25-1.62-1.22-1.41-2.15.21-.93,1.14-1.47,2.1-1.22.96.25,1.6,1.2,1.42,2.13Z"/>
      <path class="cls-4" d="M143.3,92.52c-.13.92-1.05,1.5-2.06,1.29-1.01-.21-1.69-1.15-1.53-2.07.16-.92,1.07-1.49,2.04-1.27.98.22,1.67,1.13,1.55,2.05Z"/>
      <path class="cls-4" d="M149.3,93.61c-.08.91-.99,1.53-2.02,1.35-1.03-.17-1.76-1.07-1.65-1.99.11-.92,1-1.51,2-1.33,1,.18,1.75,1.05,1.67,1.97Z"/>
      <path class="cls-4" d="M6.24,72.76c-1.13,1.05-3.05,2.14-4.29,2.46-1.25.32-1.35-.24-.22-1.28,1.13-1.04,3.06-2.17,4.31-2.5,1.25-.33,1.34.27.21,1.31Z"/>
      <path class="cls-4" d="M13.51,71.18c-1.13,1.06-3.03,2.09-4.25,2.34s-1.3-.38-.17-1.43c1.13-1.05,3.04-2.13,4.26-2.38,1.22-.25,1.28.42.15,1.47Z"/>
      <path class="cls-4" d="M20.6,70.1c-1.14,1.06-3.01,2.03-4.19,2.19-1.19.16-1.24-.54-.1-1.6,1.13-1.06,3.02-2.08,4.21-2.24,1.19-.17,1.22.59.09,1.65Z"/>
      <path class="cls-4" d="M27.48,69.58c-1.14,1.07-2.98,1.96-4.13,2.03-1.15.07-1.17-.72-.04-1.78,1.14-1.07,3-2.01,4.15-2.08,1.15-.07,1.16.77.02,1.84Z"/>
      <path class="cls-4" d="M34.14,69.62c-1.13,1.07-2.94,1.9-4.06,1.88-1.12-.02-1.11-.89.02-1.96,1.14-1.07,2.96-1.94,4.07-1.91,1.11.02,1.09.92-.04,1.99Z"/>
      <path class="cls-4" d="M40.65,70.01c-1.1,1.06-2.88,1.85-3.98,1.78-1.1-.08-1.09-.99.02-2.05,1.12-1.07,2.9-1.88,3.99-1.81,1.08.08,1.07,1.02-.03,2.08Z"/>
      <path class="cls-4" d="M47.03,70.71c-1.06,1.06-2.8,1.8-3.88,1.68-1.08-.13-1.08-1.08,0-2.14,1.09-1.06,2.83-1.83,3.89-1.7,1.06.13,1.05,1.1-.01,2.16Z"/>
      <path class="cls-4" d="M53.3,71.68c-1.02,1.05-2.71,1.76-3.78,1.59-1.06-.17-1.08-1.15-.03-2.21,1.05-1.06,2.75-1.79,3.79-1.61,1.04.17,1.05,1.18.02,2.23Z"/>
      <path class="cls-4" d="M59.47,72.89c-.98,1.05-2.62,1.72-3.67,1.51-1.05-.21-1.09-1.22-.08-2.27s2.65-1.74,3.67-1.53c1.02.21,1.05,1.25.08,2.29Z"/>
      <path class="cls-4" d="M65.55,74.31c-.93,1.04-2.51,1.67-3.55,1.43s-1.1-1.28-.15-2.32c.96-1.04,2.55-1.7,3.56-1.45,1,.25,1.07,1.3.14,2.34Z"/>
      <path class="cls-4" d="M71.56,75.92c-.87,1.03-2.4,1.64-3.43,1.37-1.03-.27-1.13-1.33-.22-2.36.9-1.04,2.44-1.66,3.43-1.38.99.28,1.09,1.35.22,2.38Z"/>
      <path class="cls-4" d="M77.5,77.67c-.81,1.02-2.29,1.6-3.3,1.31-1.02-.3-1.16-1.36-.31-2.39.85-1.03,2.33-1.62,3.31-1.32.98.3,1.12,1.38.31,2.4Z"/>
      <path class="cls-4" d="M83.4,79.53c-.75,1.01-2.17,1.57-3.18,1.26-1.01-.31-1.2-1.39-.41-2.41.78-1.02,2.21-1.59,3.18-1.27.97.32,1.15,1.4.41,2.42Z"/>
      <path class="cls-4" d="M89.26,81.48c-.68,1-2.05,1.55-3.05,1.22-1.01-.33-1.24-1.41-.52-2.42.72-1.01,2.09-1.56,3.05-1.22.97.33,1.2,1.42.52,2.42Z"/>
      <path class="cls-4" d="M95.1,83.48c-.61.99-1.92,1.52-2.93,1.19-1-.34-1.29-1.42-.63-2.41.65-1,1.97-1.53,2.93-1.19.96.34,1.25,1.42.63,2.42Z"/>
      <path class="cls-4" d="M100.93,85.51c-.55.98-1.8,1.51-2.81,1.17-1-.34-1.34-1.41-.75-2.4.59-.99,1.84-1.51,2.8-1.17.96.34,1.3,1.42.75,2.4Z"/>
      <path class="cls-4" d="M106.76,87.52c-.48.97-1.68,1.49-2.69,1.16-1-.34-1.39-1.4-.87-2.38.52-.98,1.72-1.49,2.68-1.15.96.34,1.35,1.4.87,2.38Z"/>
      <path class="cls-4" d="M112.61,89.49c-.41.96-1.57,1.48-2.57,1.15-1.01-.33-1.45-1.38-1-2.35.45-.97,1.6-1.48,2.57-1.15.97.33,1.42,1.38,1,2.34Z"/>
      <path class="cls-4" d="M118.49,91.39c-.35.95-1.46,1.48-2.47,1.16-1.01-.31-1.51-1.35-1.12-2.31.39-.96,1.49-1.47,2.46-1.15.97.32,1.48,1.35,1.13,2.3Z"/>
      <path class="cls-4" d="M124.42,93.19c-.29.94-1.35,1.48-2.37,1.18-1.02-.3-1.58-1.31-1.25-2.26.33-.95,1.38-1.47,2.36-1.17.98.3,1.54,1.3,1.25,2.25Z"/>
      <path class="cls-4" d="M130.4,94.84c-.23.94-1.26,1.48-2.28,1.21-1.03-.27-1.64-1.26-1.37-2.2.27-.94,1.28-1.47,2.28-1.2.99.28,1.61,1.25,1.38,2.19Z"/>
      <path class="cls-4" d="M136.45,96.33c-.18.93-1.17,1.49-2.21,1.25-1.04-.24-1.7-1.2-1.49-2.14.21-.93,1.19-1.48,2.2-1.23,1.01.25,1.68,1.19,1.5,2.12Z"/>
      <path class="cls-4" d="M142.59,97.62c-.13.92-1.09,1.51-2.14,1.3-1.05-.21-1.77-1.14-1.61-2.06.16-.93,1.11-1.49,2.13-1.28,1.02.21,1.75,1.12,1.62,2.04Z"/>
      <path class="cls-4" d="M148.82,98.68c-.09.91-1.03,1.53-2.09,1.36-1.07-.17-1.83-1.06-1.72-1.98.11-.92,1.04-1.51,2.08-1.34,1.04.17,1.82,1.04,1.73,1.96Z"/>
      <path class="cls-4" d="M155.16,99.48c-.05.91-.97,1.56-2.06,1.44-1.08-.12-1.9-.98-1.82-1.89.07-.91.98-1.54,2.04-1.41,1.06.13,1.89.95,1.84,1.86Z"/>
      <path class="cls-4" d="M-.01,78.56c-1.12,1.05-3.03,2.13-4.27,2.44-1.24.31-1.35-.25-.23-1.29,1.12-1.04,3.05-2.16,4.29-2.48,1.24-.32,1.33.29.21,1.33Z"/>
      <path class="cls-4" d="M7.24,77.03c-1.13,1.05-3.01,2.08-4.23,2.32-1.21.24-1.3-.39-.18-1.44,1.12-1.05,3.03-2.12,4.25-2.37,1.22-.25,1.28.43.15,1.49Z"/>
      <path class="cls-4" d="M14.31,75.99c-1.13,1.06-2.99,2.02-4.17,2.18-1.18.16-1.24-.55-.12-1.61s3.02-2.07,4.2-2.23c1.19-.16,1.22.6.09,1.66Z"/>
      <path class="cls-4" d="M21.19,75.5c-1.13,1.07-2.97,1.96-4.12,2.02-1.15.06-1.18-.72-.05-1.79,1.13-1.06,2.99-2.01,4.14-2.07,1.15-.07,1.15.78.02,1.84Z"/>
      <path class="cls-4" d="M27.91,75.54c-1.12,1.07-2.94,1.9-4.08,1.89-1.14-.02-1.15-.88-.02-1.95,1.13-1.07,2.97-1.94,4.1-1.92,1.13.02,1.12.92,0,1.98Z"/>
      <path class="cls-4" d="M34.57,75.91c-1.09,1.06-2.88,1.85-4.01,1.78-1.13-.07-1.15-.98-.04-2.05,1.11-1.07,2.92-1.89,4.03-1.81,1.11.07,1.11,1.01.02,2.08Z"/>
      <path class="cls-4" d="M41.14,76.58c-1.06,1.06-2.81,1.81-3.93,1.69-1.11-.12-1.15-1.07-.07-2.13,1.08-1.06,2.85-1.84,3.94-1.71,1.09.12,1.11,1.1.05,2.15Z"/>
      <path class="cls-4" d="M47.63,77.51c-1.02,1.05-2.73,1.76-3.84,1.6-1.1-.16-1.16-1.14-.11-2.2,1.04-1.06,2.77-1.79,3.85-1.62,1.08.17,1.12,1.17.1,2.22Z"/>
      <path class="cls-4" d="M54.06,78.69c-.97,1.05-2.64,1.72-3.74,1.52-1.09-.2-1.18-1.21-.17-2.26,1-1.05,2.68-1.74,3.75-1.54,1.07.21,1.13,1.23.16,2.28Z"/>
      <path class="cls-4" d="M60.43,80.07c-.92,1.04-2.54,1.68-3.63,1.44-1.09-.24-1.2-1.26-.25-2.31.95-1.04,2.59-1.7,3.64-1.46,1.05.24,1.16,1.29.24,2.33Z"/>
      <path class="cls-4" d="M66.75,81.63c-.86,1.03-2.44,1.64-3.52,1.38-1.08-.26-1.23-1.31-.33-2.35.9-1.04,2.48-1.66,3.53-1.39,1.04.27,1.19,1.33.32,2.36Z"/>
      <path class="cls-4" d="M73.02,83.33c-.8,1.02-2.32,1.61-3.4,1.32-1.07-.29-1.27-1.35-.43-2.37.84-1.03,2.37-1.63,3.41-1.33,1.04.29,1.22,1.37.42,2.39Z"/>
      <path class="cls-4" d="M79.27,85.14c-.74,1.01-2.21,1.58-3.28,1.27-1.07-.31-1.31-1.37-.53-2.39.78-1.02,2.25-1.59,3.28-1.28,1.03.31,1.26,1.39.52,2.4Z"/>
      <path class="cls-4" d="M85.49,87.04c-.68,1-2.09,1.55-3.15,1.23-1.07-.32-1.35-1.39-.64-2.4.72-1.01,2.13-1.57,3.16-1.24,1.03.32,1.31,1.4.63,2.41Z"/>
      <path class="cls-4" d="M91.7,88.98c-.61.99-1.97,1.53-3.03,1.2-1.06-.33-1.4-1.4-.75-2.4.65-1,2.01-1.54,3.04-1.21,1.02.33,1.36,1.41.75,2.4Z"/>
      <path class="cls-4" d="M97.9,90.95c-.54.98-1.85,1.51-2.91,1.18-1.06-.33-1.46-1.4-.87-2.38.59-.99,1.89-1.52,2.91-1.18,1.02.33,1.41,1.4.87,2.39Z"/>
      <path class="cls-4" d="M104.1,92.91c-.48.97-1.73,1.5-2.79,1.17-1.07-.33-1.51-1.38-.99-2.36.52-.98,1.77-1.5,2.8-1.17,1.02.33,1.47,1.39.99,2.36Z"/>
      <path class="cls-4" d="M110.32,94.83c-.41.96-1.61,1.49-2.68,1.17-1.07-.32-1.57-1.36-1.11-2.33.45-.97,1.65-1.49,2.68-1.16,1.03.32,1.52,1.36,1.11,2.33Z"/>
      <path class="cls-4" d="M116.55,96.68c-.35.95-1.5,1.48-2.57,1.18-1.07-.31-1.62-1.33-1.24-2.29.39-.96,1.54-1.48,2.57-1.17,1.03.31,1.58,1.33,1.24,2.29Z"/>
      <path class="cls-4" d="M122.82,98.42c-.29.94-1.39,1.48-2.47,1.2-1.07-.29-1.68-1.3-1.36-2.25.32-.95,1.43-1.48,2.47-1.18,1.04.29,1.65,1.29,1.36,2.23Z"/>
      <path class="cls-4" d="M129.12,100.03c-.23.94-1.29,1.49-2.37,1.22-1.08-.26-1.74-1.25-1.48-2.19.27-.94,1.33-1.48,2.37-1.21,1.05.27,1.71,1.24,1.48,2.17Z"/>
      <path class="cls-4" d="M135.47,101.47c-.18.93-1.2,1.5-2.29,1.26-1.09-.24-1.8-1.19-1.59-2.12.21-.93,1.23-1.49,2.29-1.25,1.05.24,1.77,1.18,1.59,2.11Z"/>
      <path class="cls-4" d="M141.87,102.72c-.13.92-1.12,1.51-2.22,1.31-1.09-.2-1.85-1.12-1.7-2.05.16-.93,1.15-1.5,2.21-1.29,1.07.21,1.83,1.11,1.7,2.03Z"/>
      <path class="cls-4" d="M148.34,103.75c-.09.91-1.05,1.54-2.16,1.37-1.1-.16-1.91-1.05-1.8-1.97.11-.92,1.07-1.52,2.15-1.35,1.08.17,1.89,1.03,1.8,1.95Z"/>
      <path class="cls-4" d="M154.89,104.51c-.05.91-1,1.56-2.11,1.44-1.11-.12-1.96-.97-1.89-1.88.07-.91,1.01-1.54,2.1-1.42,1.09.12,1.94.94,1.89,1.85Z"/>
      <path class="cls-4" d="M1.06,82.86c-1.1,1.05-2.96,2.07-4.17,2.3-1.21.23-1.32-.41-.22-1.45,1.1-1.05,2.99-2.11,4.21-2.35,1.21-.24,1.29.45.18,1.5Z"/>
      <path class="cls-4" d="M8.12,81.87c-1.1,1.06-2.94,2.01-4.12,2.16-1.18.15-1.26-.56-.16-1.61,1.1-1.05,2.97-2.06,4.16-2.21,1.18-.15,1.23.61.12,1.67Z"/>
      <path class="cls-4" d="M14.98,81.41c-1.11,1.06-2.91,1.95-4.06,2-1.15.06-1.2-.73-.1-1.79,1.11-1.06,2.95-2,4.1-2.06,1.15-.06,1.16.78.06,1.85Z"/>
      <path class="cls-4" d="M21.77,81.44c-1.1,1.06-2.91,1.9-4.06,1.88-1.16-.01-1.21-.87-.1-1.94s2.94-1.93,4.09-1.92c1.15.02,1.17.91.08,1.97Z"/>
      <path class="cls-4" d="M28.57,81.79c-1.07,1.06-2.86,1.85-4.01,1.78-1.15-.07-1.22-.97-.13-2.03,1.09-1.06,2.9-1.88,4.03-1.81,1.13.07,1.18,1,.11,2.06Z"/>
      <path class="cls-4" d="M35.32,82.43c-1.04,1.06-2.8,1.8-3.94,1.69-1.15-.12-1.23-1.05-.17-2.11,1.06-1.06,2.84-1.83,3.97-1.72,1.13.12,1.19,1.08.15,2.14Z"/>
      <path class="cls-4" d="M42.04,83.34c-1,1.05-2.72,1.76-3.86,1.6-1.14-.16-1.25-1.13-.23-2.18,1.02-1.05,2.77-1.79,3.89-1.63,1.12.16,1.2,1.16.21,2.21Z"/>
      <path class="cls-4" d="M48.72,84.48c-.95,1.04-2.64,1.72-3.78,1.52-1.14-.2-1.28-1.19-.29-2.24.98-1.05,2.69-1.74,3.8-1.54,1.11.2,1.23,1.22.27,2.26Z"/>
      <path class="cls-4" d="M55.37,85.81c-.9,1.04-2.54,1.68-3.68,1.45-1.13-.23-1.31-1.25-.37-2.29.93-1.04,2.59-1.7,3.7-1.47,1.1.23,1.26,1.27.36,2.31Z"/>
      <path class="cls-4" d="M62,87.33c-.85,1.03-2.44,1.64-3.57,1.39-1.13-.26-1.34-1.29-.46-2.33.88-1.03,2.49-1.66,3.59-1.4,1.1.26,1.29,1.32.45,2.34Z"/>
      <path class="cls-4" d="M68.6,88.98c-.79,1.02-2.34,1.61-3.46,1.33-1.13-.28-1.39-1.33-.56-2.35.82-1.02,2.39-1.63,3.48-1.34,1.09.29,1.33,1.35.55,2.37Z"/>
      <path class="cls-4" d="M75.19,90.74c-.73,1.01-2.22,1.58-3.35,1.28-1.13-.3-1.43-1.36-.67-2.37.76-1.02,2.27-1.6,3.37-1.29,1.09.3,1.38,1.37.65,2.38Z"/>
      <path class="cls-4" d="M81.77,92.58c-.66,1-2.11,1.56-3.23,1.25-1.13-.31-1.48-1.37-.78-2.38.7-1.01,2.16-1.57,3.25-1.25,1.09.32,1.43,1.39.76,2.39Z"/>
      <path class="cls-4" d="M88.34,94.48c-.6.99-1.99,1.53-3.12,1.22-1.13-.32-1.53-1.38-.89-2.38.64-1,2.04-1.54,3.13-1.22,1.09.32,1.48,1.39.88,2.38Z"/>
      <path class="cls-4" d="M94.91,96.39c-.53.98-1.87,1.52-3,1.2-1.13-.32-1.58-1.38-1.01-2.36s1.92-1.52,3.01-1.2c1.09.33,1.53,1.39,1,2.37Z"/>
      <path class="cls-4" d="M101.48,98.3c-.47.97-1.75,1.5-2.88,1.18-1.13-.32-1.63-1.37-1.13-2.34.51-.98,1.8-1.51,2.89-1.18,1.09.32,1.58,1.37,1.12,2.34Z"/>
      <path class="cls-4" d="M108.05,100.16c-.4.96-1.64,1.49-2.76,1.18-1.13-.31-1.69-1.35-1.25-2.31.44-.97,1.68-1.49,2.77-1.18,1.09.32,1.64,1.35,1.24,2.31Z"/>
      <path class="cls-4" d="M114.64,101.96c-.34.95-1.53,1.49-2.65,1.19-1.13-.3-1.74-1.32-1.36-2.27.38-.96,1.57-1.49,2.66-1.18,1.09.3,1.7,1.32,1.36,2.27Z"/>
      <path class="cls-4" d="M121.24,103.65c-.28.94-1.42,1.49-2.55,1.21-1.13-.28-1.79-1.28-1.48-2.23.32-.95,1.46-1.48,2.56-1.2,1.09.28,1.75,1.27,1.47,2.22Z"/>
      <path class="cls-4" d="M127.86,105.21c-.22.93-1.32,1.49-2.45,1.24-1.13-.26-1.84-1.23-1.59-2.17.26-.94,1.36-1.48,2.46-1.22,1.1.26,1.81,1.22,1.58,2.16Z"/>
      <path class="cls-4" d="M134.5,106.61c-.17.93-1.23,1.5-2.36,1.27-1.13-.23-1.89-1.18-1.69-2.11.2-.93,1.26-1.49,2.37-1.26,1.1.23,1.86,1.16,1.69,2.09Z"/>
      <path class="cls-4" d="M141.17,107.82c-.12.92-1.15,1.52-2.28,1.32-1.14-.2-1.94-1.11-1.79-2.04.15-.92,1.18-1.5,2.29-1.3,1.11.2,1.91,1.1,1.79,2.02Z"/>
      <path class="cls-4" d="M147.88,108.81c-.08.91-1.08,1.54-2.22,1.38-1.14-.16-1.98-1.04-1.87-1.96.11-.92,1.1-1.52,2.22-1.36,1.12.16,1.96,1.02,1.88,1.93Z"/>
      <path class="cls-4" d="M154.62,109.55c-.05.91-1.02,1.57-2.16,1.45-1.15-.11-2.02-.96-1.95-1.87.07-.91,1.03-1.54,2.16-1.43,1.13.12,2,.94,1.95,1.84Z"/>
      <path class="cls-4" d="M2.11,87.72c-1.06,1.05-2.85,2-4.03,2.14-1.18.14-1.3-.57-.24-1.62,1.06-1.05,2.9-2.04,4.08-2.19,1.18-.15,1.25.61.19,1.67Z"/>
      <path class="cls-4" d="M8.96,87.29c-1.06,1.06-2.82,1.93-3.97,1.98-1.15.05-1.24-.73-.18-1.79,1.06-1.06,2.88-1.98,4.02-2.04,1.15-.06,1.19.79.13,1.84Z"/>
      <path class="cls-4" d="M15.81,87.32c-1.05,1.06-2.84,1.89-4.01,1.87-1.17-.01-1.28-.86-.22-1.92,1.06-1.06,2.88-1.92,4.04-1.91,1.16.01,1.24.9.18,1.96Z"/>
      <path class="cls-4" d="M22.75,87.65c-1.03,1.05-2.8,1.84-3.97,1.78-1.17-.06-1.3-.96-.25-2.01,1.04-1.06,2.84-1.87,4-1.81,1.16.07,1.25.99.22,2.05Z"/>
      <path class="cls-4" d="M29.68,88.27c-1,1.05-2.75,1.8-3.92,1.68-1.18-.11-1.32-1.04-.3-2.09s2.79-1.83,3.95-1.71c1.16.11,1.27,1.07.27,2.12Z"/>
      <path class="cls-4" d="M36.61,89.14c-.96,1.04-2.68,1.75-3.86,1.6-1.18-.15-1.35-1.11-.37-2.16.98-1.05,2.73-1.78,3.89-1.63,1.15.16,1.3,1.14.34,2.19Z"/>
      <path class="cls-4" d="M43.53,90.24c-.92,1.04-2.6,1.71-3.78,1.52-1.18-.19-1.38-1.18-.44-2.22s2.66-1.74,3.81-1.55c1.15.19,1.33,1.2.41,2.24Z"/>
      <path class="cls-4" d="M50.46,91.54c-.87,1.03-2.52,1.68-3.7,1.45-1.18-.22-1.42-1.23-.53-2.27.9-1.03,2.57-1.7,3.72-1.47,1.15.23,1.37,1.26.5,2.29Z"/>
      <path class="cls-4" d="M57.39,93c-.81,1.02-2.42,1.64-3.61,1.39-1.18-.25-1.47-1.28-.62-2.3.85-1.03,2.48-1.66,3.63-1.41,1.15.25,1.41,1.3.59,2.32Z"/>
      <path class="cls-4" d="M64.31,94.61c-.76,1.01-2.32,1.61-3.5,1.34-1.18-.27-1.51-1.31-.72-2.33.79-1.02,2.38-1.63,3.53-1.35,1.15.28,1.45,1.33.7,2.34Z"/>
      <path class="cls-4" d="M71.24,96.32c-.7,1.01-2.21,1.58-3.4,1.29-1.18-.29-1.56-1.34-.82-2.35.74-1.01,2.27-1.6,3.42-1.3,1.15.29,1.5,1.35.8,2.36Z"/>
      <path class="cls-4" d="M78.17,98.11c-.64,1-2.1,1.56-3.29,1.25-1.18-.3-1.61-1.35-.93-2.35.67-1,2.16-1.57,3.31-1.26,1.15.31,1.55,1.37.92,2.36Z"/>
      <path class="cls-4" d="M85.09,99.96c-.57.99-1.99,1.53-3.18,1.23-1.19-.31-1.66-1.36-1.05-2.35.61-.99,2.05-1.55,3.19-1.23,1.15.31,1.6,1.37,1.03,2.36Z"/>
      <path class="cls-4" d="M92.02,101.82c-.51.98-1.88,1.52-3.06,1.21-1.19-.31-1.71-1.36-1.16-2.34.55-.98,1.93-1.52,3.08-1.21,1.15.32,1.66,1.37,1.14,2.34Z"/>
      <path class="cls-4" d="M98.94,103.67c-.45.97-1.76,1.5-2.95,1.19-1.19-.31-1.76-1.35-1.28-2.32.49-.97,1.82-1.51,2.96-1.19,1.15.31,1.71,1.35,1.26,2.32Z"/>
      <path class="cls-4" d="M105.87,105.48c-.38.96-1.65,1.49-2.83,1.19-1.18-.3-1.81-1.33-1.39-2.29.42-.96,1.7-1.5,2.85-1.19,1.15.31,1.76,1.33,1.37,2.29Z"/>
      <path class="cls-4" d="M112.8,107.23c-.32.95-1.54,1.49-2.73,1.2-1.18-.29-1.86-1.3-1.5-2.25.36-.96,1.59-1.49,2.74-1.19,1.15.29,1.81,1.3,1.49,2.25Z"/>
      <path class="cls-4" d="M119.72,108.87c-.27.94-1.44,1.49-2.62,1.22-1.18-.27-1.91-1.26-1.6-2.21.3-.95,1.48-1.49,2.63-1.21,1.15.28,1.86,1.26,1.59,2.2Z"/>
      <path class="cls-4" d="M126.65,110.39c-.21.93-1.34,1.49-2.52,1.25-1.18-.25-1.95-1.22-1.7-2.15.24-.94,1.38-1.49,2.53-1.23,1.15.25,1.91,1.21,1.69,2.14Z"/>
      <path class="cls-4" d="M133.58,111.75c-.16.93-1.25,1.5-2.43,1.28-1.18-.22-1.99-1.16-1.8-2.09.19-.93,1.28-1.49,2.43-1.27,1.15.23,1.95,1.15,1.79,2.08Z"/>
      <path class="cls-4" d="M3.25,93.13c-1,1.05-2.7,1.91-3.84,1.96-1.14.05-1.3-.73-.3-1.78,1-1.05,2.76-1.96,3.91-2.02,1.15-.05,1.24.79.24,1.83Z"/>
      <path class="cls-4" d="M10.16,93.16c-.99,1.05-2.73,1.87-3.92,1.86-1.19-.01-1.36-.85-.36-1.9,1-1.05,2.78-1.91,3.96-1.9,1.18.01,1.31.89.32,1.94Z"/>
      <path class="cls-4" d="M17.21,93.47c-.97,1.05-2.7,1.83-3.9,1.76-1.2-.06-1.39-.94-.41-1.99.98-1.05,2.75-1.86,3.94-1.8,1.18.06,1.34.98.37,2.02Z"/>
      <path class="cls-4" d="M24.3,94.06c-.94,1.04-2.66,1.78-3.86,1.68-1.2-.11-1.42-1.03-.46-2.07.96-1.04,2.71-1.82,3.9-1.71,1.19.11,1.37,1.06.43,2.1Z"/>
      <path class="cls-4" d="M31.43,94.9c-.91,1.04-2.61,1.74-3.82,1.59-1.21-.15-1.46-1.1-.53-2.14.93-1.04,2.66-1.77,3.85-1.62,1.19.15,1.4,1.13.5,2.16Z"/>
      <path class="cls-4" d="M38.59,95.97c-.86,1.03-2.54,1.7-3.76,1.52-1.22-.18-1.5-1.16-.61-2.19.89-1.03,2.6-1.73,3.79-1.54,1.19.19,1.44,1.19.58,2.22Z"/>
      <path class="cls-4" d="M45.78,97.23c-.82,1.02-2.46,1.67-3.69,1.45-1.23-.22-1.55-1.21-.7-2.24.85-1.03,2.52-1.69,3.72-1.47s1.49,1.24.67,2.26Z"/>
      <path class="cls-4" d="M52.99,98.65c-.77,1.02-2.38,1.63-3.61,1.39-1.23-.24-1.6-1.26-.8-2.28.8-1.02,2.44-1.66,3.64-1.41,1.2.25,1.53,1.28.77,2.3Z"/>
      <path class="cls-4" d="M60.23,100.21c-.72,1.01-2.28,1.6-3.52,1.34-1.24-.26-1.64-1.29-.9-2.3.75-1.01,2.34-1.62,3.55-1.35,1.2.27,1.58,1.31.87,2.32Z"/>
      <path class="cls-4" d="M67.48,101.88c-.66,1-2.18,1.58-3.42,1.29-1.24-.28-1.69-1.32-1-2.32.69-1,2.24-1.59,3.45-1.31,1.2.29,1.63,1.33.97,2.33Z"/>
      <path class="cls-4" d="M74.74,103.62c-.6.99-2.08,1.55-3.32,1.26-1.24-.29-1.74-1.33-1.11-2.33.64-1,2.14-1.57,3.34-1.27,1.2.3,1.68,1.35,1.08,2.34Z"/>
      <path class="cls-4" d="M82,105.41c-.54.98-1.97,1.53-3.21,1.23-1.24-.3-1.79-1.34-1.22-2.33.58-.99,2.03-1.54,3.24-1.24,1.21.31,1.73,1.35,1.19,2.33Z"/>
      <path class="cls-4" d="M89.28,107.22c-.48.97-1.86,1.51-3.11,1.21-1.24-.3-1.84-1.34-1.33-2.32.52-.98,1.92-1.52,3.13-1.22,1.21.31,1.78,1.35,1.31,2.32Z"/>
      <path class="cls-4" d="M96.54,109.02c-.42.96-1.75,1.5-3,1.2-1.24-.3-1.89-1.33-1.44-2.3.45-.97,1.81-1.51,3.02-1.2,1.21.31,1.83,1.33,1.42,2.3Z"/>
      <path class="cls-4" d="M103.81,110.78c-.36.95-1.65,1.49-2.89,1.2-1.24-.29-1.94-1.31-1.54-2.27.39-.96,1.7-1.5,2.91-1.2,1.2.3,1.88,1.31,1.52,2.27Z"/>
      <path class="cls-4" d="M4.9,98.93c-.91,1.04-2.59,1.85-3.78,1.84-1.19,0-1.45-.84-.54-1.88.91-1.04,2.64-1.89,3.83-1.88,1.19.01,1.4.88.49,1.91Z"/>
      <path class="cls-4" d="M12.06,99.23c-.89,1.03-2.57,1.81-3.78,1.75-1.21-.06-1.49-.93-.59-1.96.9-1.04,2.63-1.84,3.83-1.78,1.2.06,1.43.96.54,2Z"/>
      <path class="cls-4" d="M19.29,99.8c-.86,1.03-2.54,1.77-3.77,1.66-1.23-.1-1.53-1.01-.65-2.04.88-1.03,2.6-1.8,3.81-1.69,1.21.11,1.47,1.04.61,2.07Z"/>
      <path class="cls-4" d="M26.6,100.62c-.83,1.03-2.5,1.73-3.74,1.58-1.24-.14-1.58-1.08-.73-2.11.85-1.03,2.56-1.76,3.78-1.61,1.22.15,1.52,1.11.68,2.14Z"/>
      <path class="cls-4" d="M33.98,101.65c-.8,1.02-2.44,1.69-3.7,1.51-1.26-.18-1.63-1.14-.81-2.16.82-1.02,2.5-1.72,3.74-1.54,1.23.18,1.57,1.17.77,2.19Z"/>
      <path class="cls-4" d="M41.41,102.87c-.76,1.01-2.38,1.65-3.64,1.44-1.27-.21-1.68-1.19-.9-2.21.78-1.02,2.44-1.68,3.68-1.47,1.24.21,1.61,1.22.86,2.23Z"/>
      <path class="cls-4" d="M48.89,104.26c-.71,1.01-2.3,1.62-3.57,1.39-1.28-.24-1.73-1.24-.99-2.25.74-1.01,2.36-1.65,3.61-1.41,1.25.24,1.66,1.26.96,2.27Z"/>
      <path class="cls-4" d="M56.42,105.77c-.66,1-2.22,1.59-3.5,1.34-1.28-.26-1.78-1.27-1.09-2.27.69-1,2.28-1.61,3.53-1.35,1.25.26,1.72,1.29,1.06,2.29Z"/>
      <path class="cls-4" d="M63.97,107.39c-.61.99-2.13,1.57-3.41,1.29-1.29-.27-1.83-1.3-1.2-2.29.64-1,2.19-1.59,3.45-1.31,1.26.28,1.77,1.31,1.16,2.31Z"/>
      <path class="cls-4" d="M71.55,109.09c-.55.98-2.03,1.54-3.32,1.26-1.29-.29-1.88-1.31-1.3-2.3.58-.99,2.09-1.56,3.35-1.27,1.26.29,1.82,1.33,1.27,2.31Z"/>
      <path class="cls-4" d="M79.14,110.83c-.49.97-1.93,1.53-3.23,1.23-1.3-.29-1.93-1.32-1.4-2.3.53-.98,1.99-1.54,3.26-1.24,1.26.3,1.87,1.33,1.37,2.31Z"/>
      <path class="cls-4" d="M.16,104.63c-.8,1.02-2.4,1.82-3.6,1.81-1.2,0-1.55-.82-.74-1.85s2.46-1.86,3.66-1.85c1.2,0,1.49.86.69,1.88Z"/>
      <path class="cls-4" d="M7.39,104.92c-.79,1.02-2.4,1.78-3.63,1.72-1.23-.06-1.6-.91-.8-1.93.8-1.02,2.46-1.82,3.68-1.76,1.22.06,1.54.95.75,1.97Z"/>
      <path class="cls-4" d="M14.75,105.47c-.77,1.02-2.39,1.74-3.63,1.64-1.25-.1-1.65-.99-.86-2.01.79-1.02,2.45-1.78,3.68-1.67,1.24.1,1.59,1.03.81,2.04Z"/>
      <path class="cls-4" d="M22.22,106.26c-.75,1.01-2.36,1.71-3.63,1.57-1.27-.14-1.7-1.06-.94-2.08.76-1.01,2.42-1.74,3.67-1.59,1.25.14,1.64,1.09.89,2.11Z"/>
      <path class="cls-4" d="M29.78,107.27c-.71,1.01-2.31,1.67-3.6,1.5-1.29-.17-1.76-1.12-1.02-2.13.73-1.01,2.38-1.7,3.65-1.52,1.27.18,1.69,1.15.98,2.16Z"/>
      <path class="cls-4" d="M37.44,108.46c-.68,1-2.26,1.64-3.56,1.43-1.3-.2-1.81-1.17-1.11-2.18.7-1.01,2.33-1.66,3.61-1.46,1.28.21,1.75,1.2,1.07,2.2Z"/>
      <path class="cls-4" d="M45.16,109.8c-.63,1-2.2,1.61-3.51,1.38-1.32-.23-1.87-1.22-1.21-2.22.66-1,2.26-1.63,3.55-1.4,1.29.23,1.8,1.24,1.17,2.24Z"/>
      <path class="cls-4" d="M52.95,111.28c-.59.99-2.12,1.58-3.45,1.33-1.33-.25-1.92-1.25-1.31-2.24.62-.99,2.19-1.6,3.49-1.35,1.3.25,1.85,1.27,1.26,2.26Z"/>
      <path class="cls-4" d="M3.32,110.52c-.68,1-2.2,1.75-3.43,1.7-1.23-.06-1.71-.9-1.03-1.9.68-1,2.26-1.79,3.49-1.73,1.23.06,1.65.93.97,1.93Z"/>
      <path class="cls-4" d="M10.77,111.06c-.66,1-2.2,1.71-3.46,1.62-1.26-.1-1.77-.97-1.1-1.97.67-1,2.26-1.75,3.52-1.65,1.25.1,1.71,1.01,1.04,2.01Z"/>
      <path class="cls-4" d="M18.36,111.83c-.64,1-2.18,1.68-3.47,1.54-1.29-.14-1.83-1.04-1.18-2.04.65-1,2.25-1.71,3.53-1.57,1.28.14,1.77,1.07,1.12,2.07Z"/>
    </g>
  </g>
</svg>